<svg width="155" height="147" viewBox="0 0 155 147" fill="none" xmlns="http://www.w3.org/2000/svg">
<g clip-path="url(#clip0_222_97)">
<rect width="155" height="147" fill="white"/>
<path d="M49.564 4.71889C49.621 5.36989 50.83 32.7619 50.83 32.7619C50.83 32.7619 47.265 5.57592 47.208 4.92592C47.1897 4.76884 47.2032 4.6097 47.2475 4.45791C47.2918 4.30611 47.3661 4.16472 47.466 4.04214C47.5659 3.91955 47.6894 3.81821 47.8291 3.74416C47.9688 3.67011 48.122 3.62482 48.2795 3.61098C48.4371 3.59714 48.5958 3.61505 48.7463 3.6636C48.8968 3.71214 49.036 3.79041 49.1558 3.8937C49.2755 3.99698 49.3733 4.12317 49.4434 4.26491C49.5135 4.40666 49.5545 4.56104 49.564 4.71889Z" fill="#231815"/>
<path d="M148.255 31.164C147.88 31.699 133.137 54.816 133.137 54.816C133.137 54.816 149.818 33.0549 150.193 32.5159C150.287 32.3889 150.354 32.2444 150.391 32.091C150.428 31.9376 150.434 31.7783 150.408 31.6226C150.382 31.4669 150.326 31.3178 150.242 31.1842C150.158 31.0507 150.048 30.9353 149.919 30.8449C149.79 30.7544 149.643 30.6907 149.489 30.6575C149.335 30.6244 149.176 30.6224 149.021 30.6518C148.865 30.6811 148.718 30.7413 148.586 30.8285C148.455 30.9158 148.342 31.0285 148.255 31.1599V31.164Z" fill="#231815"/>
<path d="M137.634 38.1913C136.821 37.904 136.063 37.5768 135.357 37.2097C134.649 36.8499 134.026 36.4779 133.487 36.0937C133.158 35.8508 132.927 35.5725 132.795 35.2586C132.67 34.9467 132.652 34.6249 132.741 34.293C132.808 34.0406 132.946 33.7875 133.153 33.5338C133.36 33.28 133.636 33.0447 133.98 32.8277C134.586 32.4413 135.22 32.1123 135.88 31.8409C136.548 31.5715 137.215 31.3754 137.882 31.2527L132.353 29.7702L132.195 28.6724L141.639 30.648L141.245 32.1195C140.43 31.901 139.662 31.8381 138.941 31.931C138.22 32.0238 137.555 32.2127 136.945 32.4976C136.344 32.7773 135.805 33.1005 135.328 33.4674C134.776 33.8838 134.461 34.2362 134.383 34.5247C134.296 34.8493 134.504 35.1563 135.006 35.4456C135.195 35.5503 135.455 35.6743 135.788 35.8176C136.121 35.9609 136.492 36.1031 136.903 36.2441C137.314 36.3852 137.721 36.5098 138.125 36.6181L138.439 36.7023L137.634 38.1913Z" fill="#231815"/>
<path d="M122.831 33.3177C123.776 33.1381 124.614 32.8951 125.346 32.5887C126.077 32.2823 126.654 31.9497 127.075 31.5909C127.354 31.3565 127.525 31.1239 127.586 30.8931C127.656 30.6334 127.573 30.3829 127.336 30.1416C127.106 29.9022 126.67 29.6964 126.028 29.5243C125.732 29.445 125.358 29.387 124.903 29.3503C124.459 29.3083 123.975 29.2947 123.453 29.3093C122.933 29.3168 122.413 29.3515 121.894 29.4133L121.781 28.1071C122.601 28.1029 123.402 28.1436 124.183 28.2294C124.965 28.3151 125.691 28.4479 126.361 28.6278C127.018 28.8037 127.546 29.0383 127.947 29.3313C128.348 29.6243 128.625 29.9461 128.779 30.2965C128.932 30.6469 128.962 30.9953 128.87 31.3415C128.763 31.7382 128.504 32.098 128.093 32.4207C127.449 32.9206 126.721 33.2978 125.911 33.5521C125.1 33.8065 124.187 33.9984 123.17 34.1278L122.831 33.3177Z" fill="#231815"/>
<path d="M115.789 32.2879C116.124 31.9603 116.402 31.5864 116.623 31.1662C116.853 30.7408 117.019 30.3369 117.122 29.9546C117.292 29.3198 117.219 28.7552 116.903 28.2607C116.587 27.7662 115.982 27.399 115.088 27.1592C114.922 27.1147 114.748 27.0837 114.567 27.0661C114.396 27.0433 114.221 27.0313 114.044 27.0301L113.224 29.5243C113.788 29.3817 114.353 29.1929 114.918 28.958C115.484 28.723 116.028 28.4514 116.552 28.1433L116.912 29.0054C116.328 29.3976 115.69 29.7564 115 30.0816C114.31 30.4068 113.613 30.6686 112.911 30.8668C112.208 31.065 111.54 31.1641 110.905 31.1642C110.534 31.1652 110.197 31.125 109.894 31.0438C109.447 30.9239 109.117 30.7118 108.905 30.4075C108.698 30.1123 108.656 29.7339 108.78 29.2722C108.869 28.9404 109.053 28.5721 109.331 28.1675C109.734 27.5873 110.249 27.1224 110.877 26.7725C111.513 26.4174 112.18 26.1787 112.878 26.0565L113.275 24.5741L110.895 23.9359L110.825 22.9429L113.568 23.4813L113.96 22.0206L115.471 22.6576L115.099 23.7872L119.294 24.622L118.902 26.0827L114.715 24.96L114.382 25.9842C114.548 25.9979 114.713 26.0188 114.875 26.0469C115.038 26.0751 115.195 26.1094 115.347 26.15C116.638 26.4962 117.563 27.0264 118.121 27.7406C118.68 28.4548 118.82 29.3312 118.541 30.37C118.468 30.6441 118.335 30.9371 118.143 31.2491C117.953 31.5538 117.72 31.847 117.443 32.1285C117.176 32.4047 116.888 32.6444 116.578 32.8475L115.789 32.2879ZM112.544 27.3008C112.116 27.4566 111.718 27.6708 111.351 27.9436C110.986 28.2091 110.686 28.5229 110.45 28.8848C110.409 28.9511 110.372 29.0148 110.34 29.0759C110.311 29.1297 110.288 29.1855 110.272 29.2432C110.232 29.3947 110.245 29.5181 110.312 29.6134C110.381 29.7016 110.488 29.765 110.632 29.8036C110.755 29.8365 110.898 29.8516 111.061 29.849C111.335 29.8373 111.607 29.8175 111.877 29.7895L112.544 27.3008Z" fill="#231815"/>
<path d="M105.467 29.6017L105.254 27.9323C103.121 27.9559 100.751 27.8115 98.1445 27.4991L98.287 25.6701C98.5433 25.7233 98.7987 25.7802 99.0531 25.8407C99.3166 25.8959 99.573 25.9491 99.8221 26.0005C100.551 25.0128 101.251 24.0021 101.922 22.9682C102.594 21.9344 103.215 20.8869 103.786 19.826L105.428 20.7071C104.732 21.7188 103.99 22.6836 103.202 23.6014C102.422 24.5211 101.637 25.3891 100.846 26.2053C101.61 26.356 102.349 26.4963 103.064 26.6261C103.781 26.7488 104.469 26.852 105.127 26.9356C105.062 26.4853 104.985 26.0356 104.897 25.5866C104.811 25.1305 104.707 24.6658 104.586 24.1928L105.394 23.9918C105.784 24.8155 106.151 25.6523 106.496 26.5023C106.849 27.3471 107.156 28.2065 107.416 29.0804L105.467 29.6017Z" fill="#231815"/>
<path d="M88.601 21.2639L88.5918 19.5681L97.1722 21.8687L96.8792 22.9615L88.601 21.2639Z" fill="#231815"/>
<path d="M77.2921 21.224L77.2911 20.3191L81.9694 21.3414L83.2696 18.2223L79.515 17.2156L79.5544 16.3331L85.1143 17.4411L83.0197 21.5767L85.1125 22.0334L84.7904 23.2344L77.2921 21.224Z" fill="#231815"/>
<path d="M68.7643 19.5059C69.6574 19.2892 70.3715 19.0052 70.9064 18.6537C71.4433 18.2951 71.861 17.862 72.1595 17.3544C72.4579 16.8468 72.6971 16.2575 72.877 15.5867L73.9039 11.7563L75.4748 12.3863L74.3628 16.101C74.1859 16.7031 73.9639 17.2428 73.6967 17.7201C73.4368 18.1994 73.1081 18.6177 72.7107 18.9751C72.3153 19.3253 71.824 19.6149 71.2368 19.8441C70.6515 20.0661 69.9477 20.2253 69.1254 20.3218L68.7643 19.5059ZM67.7089 16.0451L69.174 10.5809L70.7535 11.1784L69.1541 16.2354L67.7089 16.0451Z" fill="#231815"/>
<path d="M66.4595 9.93433C66.4111 10.1147 66.3046 10.2523 66.1399 10.3474C65.9753 10.4424 65.7992 10.4648 65.6116 10.4145C65.4313 10.3661 65.2936 10.2596 65.1986 10.095C65.1036 9.93033 65.0802 9.75783 65.1286 9.5775C65.1789 9.38995 65.2854 9.25227 65.4481 9.16445C65.6127 9.06942 65.7852 9.04608 65.9656 9.09443C66.1531 9.14472 66.2944 9.25219 66.3894 9.41684C66.4864 9.57428 66.5097 9.74678 66.4595 9.93433ZM57.1616 16.2791L57.3328 15.6407L58.931 15.7793L60.1552 11.2131L56.736 10.2964L56.6559 9.2543L60.4685 10.0446L61.0545 7.8589L62.5871 8.50175L62.0282 10.37L65.3481 11.0513L64.9594 12.5012L61.6592 11.6164L59.8578 17.6863L57.1616 16.2791ZM64.879 10.0325C64.8248 10.2345 64.7063 10.3883 64.5233 10.4938C64.3423 10.5922 64.1508 10.6143 63.9489 10.5602C63.7469 10.506 63.5921 10.3911 63.4846 10.2153C63.3862 10.0343 63.3641 9.84283 63.4183 9.64085C63.4724 9.43887 63.5864 9.28773 63.7602 9.18742C63.9432 9.08184 64.1356 9.05612 64.3376 9.11027C64.5396 9.16442 64.6934 9.28298 64.799 9.46593C64.9065 9.64166 64.9332 9.83052 64.879 10.0325ZM54.9898 13.4352C55.4886 13.19 55.9676 12.9319 56.4269 12.6607C56.8881 12.3823 57.2799 12.0891 57.6021 11.7812L58.3863 12.4902C58.0894 12.9054 57.746 13.3353 57.3562 13.7797C56.9665 14.2242 56.5719 14.6287 56.1726 14.9933L54.9898 13.4352ZM64.5194 15.5263C64.4556 15.7644 64.3317 15.967 64.1477 16.1341C63.9729 16.296 63.768 16.4112 63.5331 16.4797C63.3074 16.5429 63.0792 16.5435 62.8483 16.4816C62.6175 16.4197 62.4166 16.304 62.2455 16.1344C62.0764 15.9577 61.9567 15.7554 61.8863 15.5278C61.825 15.2949 61.8263 15.0594 61.8901 14.8214C61.954 14.5833 62.0697 14.3824 62.2373 14.2186C62.4141 14.0495 62.6199 13.9307 62.8548 13.8622C63.0896 13.7937 63.3225 13.7904 63.5533 13.8523C63.7913 13.9162 63.9913 14.0355 64.1532 14.2103C64.3223 14.3871 64.4411 14.5929 64.5095 14.8278C64.58 15.0554 64.5833 15.2883 64.5194 15.5263Z" fill="#231815"/>
<path d="M126.825 49.5254C127.36 49.1432 127.771 48.7779 128.058 48.4295C128.352 48.083 128.543 47.7439 128.632 47.4121C128.717 47.0947 128.715 46.7849 128.626 46.4826C128.546 46.1751 128.395 45.8601 128.172 45.5374C128.084 45.4055 127.971 45.2632 127.834 45.1105C127.707 44.9525 127.576 44.8054 127.442 44.6691C127.316 44.5347 127.206 44.4277 127.111 44.3482L125.89 48.9035C125.835 49.1055 125.758 49.3207 125.658 49.549C125.568 49.7721 125.443 49.9784 125.284 50.1677C125.134 50.3517 124.942 50.4898 124.709 50.5818C124.45 50.6825 124.21 50.7418 123.988 50.7598C123.767 50.7778 123.574 50.7645 123.408 50.7201C123.119 50.6427 122.911 50.4978 122.782 50.2855C122.653 50.0732 122.62 49.8516 122.682 49.6208C122.726 49.4549 122.818 49.3015 122.956 49.1608C123.172 48.9326 123.419 48.7746 123.698 48.687C123.976 48.5993 124.243 48.5549 124.499 48.5538C124.754 48.5527 124.963 48.5662 125.126 48.5944C125.297 48.6172 125.383 48.6286 125.383 48.6286L127.295 41.4981L127.566 41.5707C127.542 41.7732 127.589 42.0022 127.706 42.2578C127.825 42.5062 127.985 42.7734 128.187 43.0595C128.389 43.3455 128.598 43.6452 128.816 43.9587C129.041 44.2741 129.239 44.6017 129.411 44.9416C129.591 45.2762 129.72 45.6199 129.795 45.9726C129.871 46.3253 129.86 46.682 129.763 47.0427C129.646 47.4827 129.365 47.9218 128.923 48.3599C128.488 48.8 127.816 49.2306 126.907 49.6518L126.825 49.5254Z" fill="#231815"/>
<path d="M113.993 47.4652L114.155 46.8593L116.029 47.0949L117.23 42.6154L116.97 42.5457C116.14 43.336 115.244 44.0119 114.281 44.5734C113.328 45.1297 112.265 45.6062 111.091 46.0029L110.712 45.2981C111.592 44.8693 112.42 44.3915 113.195 43.8648C113.973 43.3309 114.672 42.7413 115.293 42.0961L112.199 41.2664L112.236 40.2208L117.567 41.3602L118.167 39.1205L119.686 39.7712L119.123 41.6964L120.978 42.0893L120.595 43.5176L118.734 43.0186L116.97 48.994L113.993 47.4652Z" fill="#231815"/>
<path d="M110.931 38.8155C110.871 39.0391 110.758 39.2292 110.592 39.3858C110.434 39.5444 110.245 39.6562 110.027 39.7213C109.817 39.7812 109.597 39.7802 109.366 39.7183C109.143 39.6583 108.952 39.5491 108.793 39.3906C108.637 39.2249 108.526 39.0328 108.461 38.8143C108.403 38.5978 108.404 38.3777 108.464 38.1541C108.526 37.9232 108.635 37.7322 108.791 37.5808C108.957 37.4242 109.148 37.317 109.365 37.259C109.583 37.1939 109.804 37.1913 110.028 37.2513C110.259 37.3132 110.449 37.426 110.598 37.5898C110.757 37.7483 110.865 37.9358 110.923 38.1523C110.99 38.3636 110.993 38.5847 110.931 38.8155ZM110.227 38.6269C110.272 38.461 110.252 38.3167 110.169 38.1939C110.088 38.0639 109.976 37.9796 109.831 37.9409C109.665 37.8964 109.517 37.9147 109.387 37.9958C109.265 38.0789 109.184 38.1926 109.145 38.3368C109.101 38.5027 109.119 38.6507 109.2 38.7807C109.283 38.9035 109.397 38.9842 109.541 39.0229C109.707 39.0674 109.851 39.0481 109.974 38.965C110.104 38.8839 110.189 38.7712 110.227 38.6269ZM107.35 45.3361C107.397 44.3822 107.398 43.4855 107.352 42.646C107.314 41.8084 107.233 40.9982 107.111 40.2153C106.997 39.4272 106.845 38.6402 106.654 37.8543L107.61 37.7048C108.06 38.8229 108.438 39.9643 108.745 41.1289C109.058 42.2954 109.279 43.5764 109.408 44.9716L107.35 45.3361ZM98.9921 42.7242C99.9375 41.9957 100.8 41.129 101.58 40.1241C102.369 39.114 103.059 37.9962 103.65 36.7707L105.197 37.7073C104.392 39.0378 103.519 40.1724 102.579 41.1112C101.647 42.0519 100.653 42.8448 99.5987 43.4899L98.9921 42.7242Z" fill="#231815"/>
<path d="M93.9524 40.1088C93.6081 40.3258 93.2006 40.5336 92.7298 40.7321C92.2591 40.9306 91.7944 41.0921 91.3358 41.2166C91.1519 41.2678 90.9902 41.294 90.8507 41.2953C90.7093 41.3037 90.5845 41.2935 90.4763 41.2645C90.2021 41.191 90.0206 41.0031 89.9315 40.7009C89.8496 40.4006 89.8148 39.9969 89.8271 39.4899C89.8414 39.1767 89.8768 38.7996 89.9332 38.3585C89.9988 37.9122 90.0766 37.4344 90.1668 36.925C90.2661 36.4104 90.3736 35.8941 90.4893 35.3762C90.6069 34.851 90.7276 34.3576 90.8514 33.8959C90.8978 33.7228 90.9432 33.5533 90.9877 33.3874C91.0394 33.2234 91.0882 33.0703 91.1341 32.9279L92.6949 33.5088C92.5206 33.9569 92.3417 34.4656 92.1581 35.035C91.9764 35.5971 91.8112 36.1559 91.6622 36.7113C91.5462 37.1441 91.4441 37.5536 91.3561 37.9398C91.2771 38.3207 91.2226 38.654 91.1924 38.9397C91.1704 39.1658 91.1685 39.3315 91.1866 39.4369C91.2139 39.537 91.278 39.6006 91.379 39.6276C91.4007 39.6334 91.4259 39.6402 91.4548 39.6479C91.4856 39.6485 91.5164 39.649 91.5471 39.6495C91.8786 39.6533 92.2433 39.6197 92.6412 39.5485C93.0483 39.4721 93.4167 39.3814 93.7464 39.2765L93.9524 40.1088ZM96.7334 40.6805C96.7539 40.1138 96.7546 39.5341 96.7357 38.9414C96.726 38.3434 96.6959 37.7632 96.6457 37.2008C96.6046 36.6331 96.5356 36.112 96.4386 35.6375L97.3313 35.5521C97.6017 36.2741 97.8505 37.0328 98.078 37.8284C98.3054 38.6239 98.4809 39.4402 98.6043 40.2775L96.7334 40.6805Z" fill="#231815"/>
<path d="M87.3173 37.3441C86.8503 37.6442 86.3963 37.9245 85.9552 38.1851C85.5234 38.4405 85.0839 38.6667 84.6367 38.8638C83.9705 39.1568 83.3657 39.3504 82.8225 39.4444C82.2845 39.5476 81.8172 39.546 81.4204 39.4396C80.6991 39.2462 80.2418 38.7022 80.0487 37.8077C79.8575 36.9059 79.9843 35.6254 80.4291 33.9664C80.5974 33.3388 80.8145 32.6586 81.0806 31.9258C81.3486 31.1858 81.6537 30.3939 81.9959 29.5501L83.5103 30.304C83.2845 30.8002 83.063 31.3091 82.8458 31.8308C82.6286 32.3525 82.428 32.8554 82.2441 33.3396C82.0693 33.8185 81.9297 34.2527 81.8252 34.6422L81.8049 34.718C81.5259 35.7875 81.3937 36.5832 81.4084 37.1052C81.425 37.62 81.6281 37.9296 82.0176 38.034C82.2485 38.0959 82.5501 38.0956 82.9225 38.0331C83.3022 37.9725 83.7615 37.8598 84.3005 37.6951C84.7375 37.5648 85.1907 37.3886 85.66 37.1665C86.1366 36.9464 86.6 36.7033 87.0501 36.4374L87.3173 37.3441Z" fill="#231815"/>
<path d="M72.312 34.3066C71.9677 34.5236 71.5602 34.7313 71.0895 34.9298C70.6187 35.1284 70.154 35.2899 69.6954 35.4143C69.5116 35.4655 69.3499 35.4918 69.2104 35.493C69.0689 35.5015 68.9441 35.4912 68.8359 35.4622C68.5618 35.3887 68.3802 35.2009 68.2911 34.8986C68.2093 34.5983 68.1745 34.1947 68.1867 33.6876C68.2011 33.3745 68.2365 32.9974 68.2929 32.5563C68.3584 32.11 68.4363 31.6321 68.5264 31.1228C68.6258 30.6082 68.7333 30.0919 68.8489 29.5739C68.9665 29.0488 69.0872 28.5553 69.211 28.0937C69.2574 27.9206 69.3029 27.751 69.3474 27.5851C69.3991 27.4212 69.4479 27.268 69.4937 27.1257L71.0545 27.7065C70.8802 28.1546 70.7013 28.6634 70.5177 29.2327C70.3361 29.7948 70.1708 30.3536 70.0219 30.909C69.9059 31.3419 69.8038 31.7513 69.7157 32.1375C69.6368 32.5184 69.5822 32.8517 69.552 33.1375C69.53 33.3635 69.5281 33.5293 69.5463 33.6346C69.5736 33.7347 69.6377 33.7983 69.7387 33.8254C69.7603 33.8312 69.7856 33.838 69.8144 33.8457C69.8452 33.8462 69.876 33.8467 69.9068 33.8473C70.2382 33.8511 70.6029 33.8174 71.0009 33.7463C71.408 33.6699 71.7764 33.5792 72.106 33.4743L72.312 34.3066ZM75.093 34.8782C75.1135 34.3116 75.1143 33.7319 75.0954 33.1392C75.0856 32.5412 75.0556 31.961 75.0054 31.3985C74.9643 30.8308 74.8952 30.3097 74.7982 29.8353L75.691 29.7499C75.9613 30.4719 76.2102 31.2306 76.4376 32.0261C76.6651 32.8216 76.8405 33.638 76.964 34.4752L75.093 34.8782Z" fill="#231815"/>
<path d="M62.3663 33.6813C62.7702 33.4726 63.113 33.232 63.3948 32.9597C63.6857 32.682 63.8872 32.3919 63.9992 32.0895C64.005 32.0679 64.0108 32.0462 64.0166 32.0246C64.0316 31.9977 64.042 31.9734 64.0478 31.9517C64.158 31.5406 64.0714 31.2003 63.7879 30.931C63.5117 30.6637 63.1139 30.4604 62.5945 30.3211C62.2988 30.2418 61.9888 30.2012 61.6645 30.1993C61.3494 30.1922 61.0266 30.2139 60.696 30.2644L59.7648 33.7377L57.5373 32.5722L57.7346 31.8364L58.9032 32.1497L59.2386 30.6391C58.8632 30.7704 58.4902 30.9217 58.1195 31.0929C57.7488 31.2642 57.3907 31.4465 57.045 31.6399L56.4705 30.1057C56.984 29.9496 57.4983 29.8052 58.0132 29.6727C58.53 29.5329 59.0356 29.421 59.5297 29.337L60.0569 26.9384L58.2499 26.4539L58.1582 25.4551L60.3211 25.7798L60.7654 23.7765L62.2402 24.4619L61.8282 25.9984L63.7228 26.286L63.3137 27.8116L61.4743 27.3184L60.9782 29.1687C61.3299 29.1547 61.6686 29.1605 61.9942 29.1859C62.3271 29.2133 62.645 29.2676 62.948 29.3489C63.9795 29.6254 64.7177 30.0012 65.1625 30.4761C65.6145 30.953 65.7535 31.516 65.5795 32.1652C65.5659 32.2157 65.5478 32.2689 65.5251 32.3246C65.5116 32.3751 65.4935 32.4283 65.4708 32.484C65.3023 32.9105 65.0163 33.2707 64.6128 33.5646C64.2184 33.8532 63.6607 34.1018 62.9398 34.3106L62.3663 33.6813ZM66.8709 28.603C66.7877 28.9131 66.6053 29.1465 66.3237 29.3029C66.0493 29.4613 65.7606 29.4999 65.4576 29.4186C65.1474 29.3355 64.9132 29.1567 64.7548 28.8823C64.5964 28.6078 64.5588 28.3155 64.6419 28.0053C64.7251 27.6952 64.9039 27.4609 65.1783 27.3025C65.4528 27.1441 65.7451 27.1065 66.0552 27.1897C66.3582 27.2709 66.5889 27.4487 66.7473 27.7232C66.9128 27.9995 66.9541 28.2928 66.8709 28.603Z" fill="#231815"/>
<path d="M124.623 120.367C118.579 133.661 102.544 148.265 60.4794 142.308C18.4147 136.351 7.0627 117.874 4.94777 103.421C2.60762 87.4414 11.9109 74.1961 21.2729 67.0577C19.169 65.5361 17.4673 63.5251 16.3147 61.1985C13.6482 54.3651 17.6942 46.4026 25.3513 43.4172C33.0084 40.4319 41.3828 43.5436 44.0489 50.3779C44.6887 52.4886 44.8545 54.7147 44.5343 56.8969C48.4235 56.0865 52.3822 55.5415 56.479 55.0477C62.1498 54.3642 66.412 49.5217 68.958 46.6277C69.3458 46.1864 69.6957 45.7908 70.0063 45.4546C70.5598 44.8567 71.25 44.4018 72.0177 44.1288C72.7853 43.8558 73.6077 43.7728 74.4145 43.8869C75.222 44.0009 75.9899 44.3087 76.6525 44.7842C77.3151 45.2597 77.8526 45.8887 78.219 46.6173C78.4246 47.0254 78.6498 47.5049 78.9002 48.0375C80.5439 51.5239 83.2944 57.3584 88.5469 59.5878C92.161 61.1264 95.6457 62.6652 99.0007 64.4118C99.3117 62.2936 100.079 60.268 101.249 58.475C105.705 52.6555 114.614 51.9798 121.141 56.9767C127.668 61.9736 129.346 70.7458 124.888 76.5708C123.228 78.3909 121.164 79.7947 118.861 80.6687C125.96 90.103 131.363 105.543 124.623 120.365M113.536 82.5676C105.778 73.2171 96.6851 68.8657 86.4555 64.5263C79.3157 61.4966 75.8895 54.229 74.0499 50.3245C73.9006 50.0088 73.7615 49.7126 73.6302 49.4415C73.4273 49.6628 73.2139 49.9088 72.9862 50.1706C70.1335 53.4122 64.8258 59.4442 57.1229 60.3723C46.0908 61.7014 36.1424 63.3571 26.1002 70.1864C17.4587 76.0611 8.12551 88.0873 10.2562 102.644C13.6102 125.548 39.829 133.968 61.234 136.999C82.639 140.03 110.166 139.219 119.746 118.148C125.835 104.755 120.207 90.6114 113.537 82.5671" fill="#251E1C"/>
<path d="M75.5918 121.36C75.7515 115.848 73.6423 106.184 65.6144 105.049C57.5866 103.914 53.1558 112.652 51.7785 117.991C51.6062 118.657 51.7054 119.364 52.0544 119.957C52.4033 120.55 52.9734 120.979 53.6393 121.152C54.3052 121.324 55.0122 121.225 55.6049 120.876C56.1975 120.527 56.6273 119.957 56.7997 119.291C57.1371 118.149 57.5587 117.033 58.0608 115.953C59.5161 117.575 61.4869 118.644 63.6399 118.98C65.8843 119.233 68.1513 118.773 70.1197 117.665C70.3015 118.843 70.3965 120.032 70.4039 121.223C70.385 121.911 70.6401 122.578 71.113 123.077C71.5859 123.577 72.2378 123.868 72.9255 123.887C73.6131 123.906 74.2801 123.651 74.7797 123.178C75.2793 122.705 75.5706 122.053 75.5895 121.365" fill="#251E1C"/>
<path d="M46.8579 85.9969C39.8935 83.5484 32.9076 85.4523 27.6064 90.8436C25.0335 93.4022 23.2145 96.6197 22.3487 100.143C22.326 100.197 22.2949 100.244 22.2755 100.3C20.379 105.758 20.8779 118.136 36.3562 125.916C36.7473 126.114 37.1684 126.247 37.6025 126.307C38.5463 126.439 39.5061 126.231 40.3111 125.721C41.1161 125.211 41.714 124.432 41.9984 123.523C42.2828 122.613 42.2351 121.632 41.864 120.755C41.4929 119.877 40.8223 119.16 39.9717 118.73C38.6047 118.051 37.2943 117.263 36.0535 116.374C39.6413 116.57 43.2046 115.676 46.2746 113.809C49.3447 111.942 51.7778 109.189 53.254 105.913C57.665 96.4478 52.7917 88.0838 46.8616 85.9985M49.7141 99.1582C49.4807 99.9086 49.0965 100.603 48.5849 101.2C48.0733 101.797 47.4452 102.282 46.7392 102.627C46.0331 102.972 45.264 103.17 44.479 103.207C43.694 103.244 42.9097 103.12 42.1742 102.843C41.2926 102.559 40.5133 102.023 39.9321 101.302C39.351 100.58 38.9934 99.7048 38.9034 98.7828C38.7542 97.8195 38.8417 96.8343 39.1583 95.9123C39.4749 94.9903 40.0111 94.1592 40.7206 93.4907C41.4301 92.8222 42.2916 92.3364 43.2308 92.0752C44.1699 91.814 45.1586 91.7852 46.1113 91.9914C49.0065 92.5305 50.9288 95.5898 49.7114 99.157" fill="#251E1C"/>
<path d="M105.673 101.9C102.077 95.2462 95.894 91.4783 88.5213 91.8959C82.2462 92.2526 75.2422 98.9351 76.8515 109.253C78.937 122.619 93.9319 128.044 101.988 122.989C107.887 119.285 110.31 110.481 105.671 101.9M93.2938 106.484C92.9514 107.343 92.3655 108.084 91.6081 108.615C90.8507 109.146 89.9547 109.444 89.0301 109.474C88.2466 109.536 87.4587 109.437 86.7149 109.183C85.971 108.93 85.2868 108.527 84.7042 107.999C84.1217 107.472 83.6532 106.83 83.3274 106.115C83.0016 105.4 82.8254 104.626 82.8096 103.84C82.631 100.075 85.3274 97.6703 88.2577 97.9558C89.2302 98.0225 90.1719 98.3247 91.0016 98.8365C91.8312 99.3482 92.5239 100.054 93.0199 100.893C93.5159 101.733 93.8003 102.68 93.8485 103.653C93.8968 104.627 93.7074 105.598 93.2968 106.482" fill="#251E1C"/>
</g>
<defs>
<clipPath id="clip0_222_97">
<rect width="155" height="147" fill="white"/>
</clipPath>
</defs>
</svg>
