<svg xmlns="http://www.w3.org/2000/svg" width="84.742" height="44.366" viewBox="0 0 84.742 44.366">
  <path id="path_25" data-name="path 25" d="M324.655,1363.606c-11.366.076-20.612,1.414-31.429,7.677-9.169,5.308-12.364,19.533,2.825,25.3,13.6,5.161,29,5.4,33.112,5.215,0,0,.913,3.31-6.7,6a25.371,25.371,0,0,0,11.325-1.253,16.631,16.631,0,0,0,7.372-5.65s4.368.8,15.69-2.744c14.168-4.435,17.7-17.758,7.69-24.986C353.148,1364.939,337.748,1363.517,324.655,1363.606Z" transform="translate(-285.504 -1363.602)" fill="#d13f06"/>
</svg>
