<?xml version="1.0" encoding="utf-8"?>
<!-- Generator: Adobe Illustrator 28.0.0, SVG Export Plug-In . SVG Version: 6.00 Build 0)  -->
<svg version="1.1" id="レイヤー_1" xmlns="http://www.w3.org/2000/svg" xmlns:xlink="http://www.w3.org/1999/xlink" x="0px"
	 y="0px" viewBox="0 0 186.5 51.8" style="enable-background:new 0 0 186.5 51.8;" xml:space="preserve">
<style type="text/css">
	.st0{fill:#FFFFFF;}
	.st1{fill:#ED6B00;}
</style>
<path class="st0" d="M65,13.3c0,2.2-0.5,3.8-1.5,4.8c-1,1-2.6,1.5-4.8,1.5h-0.9l-1.3,0c-0.2,0-0.4-0.1-0.5-0.4c0,0,0-0.1,0-0.1V8.2
	c0-0.2,0.1-0.4,0.3-0.5c0,0,0.1,0,0.1,0h2.3C60.4,7.6,62,8,63.4,9C64.4,9.8,65,11.3,65,13.3 M63.1,13.3c0.1-1.4-0.3-2.7-1.3-3.7
	c-1.1-0.8-2.5-1.1-3.9-0.9c-0.1,0-0.2,0.1-0.2,0.2c0,0,0,0,0,0v9.6c0,0.2,0.1,0.2,0.2,0.2c2,0,3.3-0.4,4.1-1.3
	C62.8,16.7,63.2,15.3,63.1,13.3"/>
<path class="st0" d="M74.8,19.2c0,0.2-0.1,0.4-0.4,0.5c0,0-0.1,0-0.1,0h-0.8c-0.2,0-0.4-0.1-0.5-0.4c0,0,0-0.1,0-0.1l0-0.7
	c-0.4,0.6-1.2,1-2,1c-2,0.1-3.1-0.8-3.1-2.6c0-2,1.6-3.1,5.1-3.3c0-0.5,0-1-0.2-1.5c-0.3-0.4-0.7-0.6-1.1-0.5
	c-1.1,0.1-2.1,0.6-2.9,1.4c0,0-0.1,0-0.1,0c-0.2,0-0.3-0.1-0.3-0.3v-1.4c0-0.1,0.1-0.3,0.2-0.3c1-0.2,2-0.4,3-0.4
	c0.9-0.1,1.7,0.2,2.5,0.7c0.6,0.7,0.8,1.5,0.7,2.4L74.8,19.2z M73.1,14.5c-2.2,0.1-3.3,0.9-3.3,2.3c0,0.4,0.1,0.9,0.3,1.2
	c0.2,0.4,0.7,0.6,1.1,0.6c0.9,0,1.7-0.6,1.9-1.4L73.1,14.5z"/>
<path class="st0" d="M86.1,11.6c-0.2,0.3-0.5,0.5-0.8,0.7c-0.1,0.1-0.2,0.3-0.3,0.4l-4.6,9.7c-0.1,0.3-0.3,0.4-0.6,0.4
	c-0.4,0-0.6-0.2-0.6-0.5c0-0.1,0-0.3,0.1-0.4c0.2-0.3,0.5-0.5,0.8-0.7c0.1-0.1,0.3-0.3,0.3-0.4c0.2-0.4,0.5-0.9,0.7-1.5l-3.3-8.1
	c-0.1-0.2,0-0.2,0.1-0.2h1.4c0.1,0,0.3,0.1,0.3,0.2l2.4,6.1l3-6.2c0.1-0.3,0.3-0.4,0.6-0.4c0.3,0,0.5,0.1,0.5,0.4c0,0,0,0.1,0,0.1
	C86.2,11.4,86.2,11.5,86.1,11.6"/>
<path class="st0" d="M100.9,8c0,0.4-0.2,0.6-0.7,0.6c-0.3,0-1.3,0-3,0v10.7c0,0.2-0.1,0.4-0.4,0.5c0,0-0.1,0-0.1,0h-0.8
	c-0.2,0-0.4-0.1-0.5-0.3c0,0,0-0.1,0-0.1V8.6h-3c-0.1,0-0.1,0-0.1-0.1L91.9,8c0-0.1,0-0.1,0-0.1h6.8c0.2,0,0.4,0,0.5-0.1
	c0.3-0.2,0.7-0.3,1-0.4C100.7,7.4,100.9,7.6,100.9,8"/>
<path class="st0" d="M105.7,8.3c0,0.6-0.5,1-1,1c0,0,0,0,0,0c-0.3,0-0.5-0.1-0.7-0.3c-0.2-0.2-0.3-0.5-0.3-0.7c0-0.6,0.5-1,1-1
	c0.3,0,0.5,0.1,0.7,0.3C105.6,7.7,105.7,8,105.7,8.3 M105.5,19.3c0,0.2-0.1,0.4-0.3,0.5c0,0-0.1,0-0.1,0h-0.8
	c-0.2,0-0.4-0.1-0.5-0.3c0,0,0-0.1,0-0.1v-8.2c0-0.1,0-0.1,0.1-0.1l1.4,0c0.1,0,0.2,0.1,0.2,0.2L105.5,19.3z"/>
<path class="st0" d="M120.4,13.3l0,5.9c0,0.2-0.1,0.4-0.3,0.5c0,0-0.1,0-0.1,0h-0.8c-0.2,0-0.4-0.1-0.5-0.3c0,0,0-0.1,0-0.1v-5.8
	c0-1-0.4-1.5-1.3-1.4c-0.8,0.1-1.5,0.7-1.8,1.4l0,5.8c0,0.2-0.1,0.4-0.3,0.5c0,0-0.1,0-0.1,0h-0.8c-0.2,0-0.4-0.1-0.5-0.3
	c0,0,0-0.1,0-0.1v-5.8c0-1-0.4-1.5-1.3-1.4c-0.8,0.1-1.5,0.6-1.8,1.3v5.9c0,0.2-0.1,0.4-0.3,0.5c0,0-0.1,0-0.1,0h-0.8
	c-0.2,0-0.4-0.1-0.5-0.3c0,0,0-0.1,0-0.1v-8.1c0-0.1,0-0.1,0.1-0.1l1.4,0c0.2,0,0.2,0.1,0.2,0.2v1.1c0.5-0.8,1.4-1.3,2.3-1.4
	c1.1-0.2,2.1,0.5,2.4,1.5c0.5-0.9,1.4-1.4,2.4-1.5C119.5,10.9,120.4,11.7,120.4,13.3"/>
<path class="st0" d="M131.9,17.4c-0.6,1.5-2.1,2.5-3.7,2.5c-0.2,0-0.3,0-0.5,0c-1.1,0.1-2.3-0.3-3.1-1.1c-0.8-0.8-1.2-2-1.2-3.1
	c-0.1-1.3,0.2-2.5,0.9-3.5c0.8-0.9,2.1-1.4,3.3-1.4c1.1-0.1,2.2,0.3,3,1.1c0.7,0.8,1.1,1.9,1,3.1h-6.6c0,0.2,0,0.4,0,0.7
	c0,0.8,0.3,1.6,0.8,2.2c0.5,0.6,1.3,0.9,2,0.9c1.4,0,2.7-0.6,3.5-1.7c0.1-0.1,0.2-0.1,0.3,0C131.9,17.1,132,17.3,131.9,17.4
	C131.9,17.4,131.9,17.4,131.9,17.4 M130,14.3c0-1.7-0.8-2.6-2.3-2.6c-0.7,0-1.3,0.3-1.8,0.8c-0.4,0.5-0.7,1.2-0.7,1.8L130,14.3z"/>
<path class="st1" d="M37.6,25.9c0,6.4-5.2,11.7-11.7,11.7c-6.4,0-11.7-5.2-11.7-11.7c0-6.4,5.2-11.7,11.7-11.7
	C32.3,14.2,37.6,19.4,37.6,25.9"/>
<path class="st1" d="M26.2,11.7c-0.7,0-1.4-0.6-1.4-1.4v-9c0-0.7,0.6-1.4,1.4-1.4s1.4,0.6,1.4,1.4v9C27.5,11.1,26.9,11.7,26.2,11.7"
	/>
<path class="st1" d="M15.1,16c-0.4,0-0.7-0.1-1-0.4L7.8,9.3C7.3,8.7,7.3,7.9,7.9,7.4c0.5-0.5,1.3-0.5,1.9,0l6.3,6.3
	c0.5,0.5,0.5,1.4,0,1.9C15.8,15.9,15.5,16,15.1,16"/>
<path class="st1" d="M10.3,27h-9C0.6,27,0,26.3,0,25.6s0.6-1.4,1.4-1.4h9c0.7,0,1.4,0.6,1.4,1.4S11.1,27,10.3,27"/>
<path class="st1" d="M8.3,44.4C7.6,44.4,7,43.8,7,43c0-0.4,0.1-0.7,0.4-1l6.3-6.3c0.5-0.5,1.4-0.5,1.9,0c0.5,0.5,0.5,1.4,0,1.9
	L9.3,44C9,44.3,8.7,44.4,8.3,44.4"/>
<path class="st1" d="M25.6,51.8c-0.7,0-1.4-0.6-1.4-1.4v-9c0-0.7,0.6-1.4,1.4-1.4c0.7,0,1.4,0.6,1.4,1.4v9
	C26.9,51.2,26.3,51.8,25.6,51.8C25.6,51.8,25.6,51.8,25.6,51.8"/>
<path class="st1" d="M43,44.8c-0.4,0-0.7-0.1-1-0.4l-6.3-6.3c-0.5-0.5-0.5-1.4,0-1.9s1.4-0.5,1.9,0l0,0l6.3,6.3
	c0.5,0.5,0.5,1.4,0,1.9C43.7,44.7,43.4,44.8,43,44.8"/>
<path class="st1" d="M50.4,27.5h-9c-0.7,0-1.4-0.6-1.4-1.4c0-0.7,0.6-1.4,1.4-1.4h9c0.7,0,1.4,0.6,1.4,1.4
	C51.8,26.9,51.2,27.5,50.4,27.5"/>
<path class="st1" d="M37.1,16.5c-0.7,0-1.4-0.6-1.4-1.4c0-0.4,0.1-0.7,0.4-1l6.3-6.3c0.5-0.5,1.4-0.6,1.9-0.1
	C45,8.2,45,9.1,44.5,9.6c0,0,0,0-0.1,0.1l-6.3,6.3C37.8,16.3,37.5,16.5,37.1,16.5"/>
<g>
	<path class="st0" d="M61.5,43.6c0,0.3-0.2,0.6-0.5,0.6c-0.1,0-0.1,0-0.2,0h-1.1c-0.3,0-0.6-0.2-0.6-0.5c0-0.1,0-0.1,0-0.2V29.7
		c0-0.1,0-0.1-0.1-0.2c-0.1,0-0.1,0-0.2,0c-0.4,0.2-0.9,0.6-1.6,1.1c-0.1,0-0.1,0.1-0.2,0l-0.9-0.3c-0.1,0-0.1-0.1,0-0.1l2.9-1.9
		c0.2-0.1,0.4-0.2,0.6-0.2h1.5c0.2,0,0.3,0.1,0.3,0.3L61.5,43.6z"/>
	<path class="st0" d="M71.3,43.6c0,0.3-0.2,0.6-0.5,0.6c-0.1,0-0.1,0-0.2,0h-1.1c-0.3,0-0.6-0.2-0.6-0.5c0-0.1,0-0.1,0-0.2V29.7
		c0-0.1,0-0.1-0.1-0.2c-0.1,0-0.1,0-0.2,0c-0.4,0.2-0.9,0.6-1.6,1.1c-0.1,0-0.1,0.1-0.2,0l-0.9-0.3c-0.1,0-0.1-0.1,0-0.1l2.9-1.9
		c0.2-0.1,0.4-0.2,0.6-0.2h1.5c0.2,0,0.3,0.1,0.3,0.3L71.3,43.6z"/>
	<path class="st0" d="M79.6,30.6c0,0.7-0.6,1.3-1.3,1.3c0,0,0,0,0,0c-0.3,0-0.7-0.1-0.9-0.4c-0.2-0.2-0.4-0.6-0.4-0.9
		c0-0.7,0.6-1.3,1.3-1.3c0.3,0,0.7,0.1,0.9,0.4C79.5,29.9,79.6,30.2,79.6,30.6 M79.6,40.9c0,0.3-0.1,0.7-0.4,0.9
		c-0.2,0.2-0.6,0.4-0.9,0.4c-0.7,0-1.3-0.6-1.3-1.3c0-0.3,0.1-0.7,0.4-0.9c0.2-0.3,0.6-0.4,0.9-0.4C79,39.6,79.6,40.2,79.6,40.9
		C79.6,40.9,79.6,40.9,79.6,40.9"/>
	<path class="st0" d="M95.8,36.1c0,5.6-1.7,8.3-5.2,8.3c-1.4,0.1-2.8-0.5-3.8-1.6c-1.1-1.3-1.6-3.6-1.6-6.8
		c-0.1-1.9,0.2-3.8,0.9-5.6c0.8-1.8,2.6-2.9,4.6-2.8C94.1,27.7,95.8,30.5,95.8,36.1 M93.6,36.1c0-1.5,0-3-0.3-4.4
		c-0.4-1.9-1.3-2.8-2.7-2.8c-1.5,0-2.5,0.9-2.9,2.7c-0.2,1.5-0.3,3-0.2,4.5c-0.1,1.7,0.1,3.4,0.5,5c0.5,1.6,1.4,2.3,2.7,2.3
		c1.4,0,2.3-1,2.7-2.9C93.5,39,93.6,37.6,93.6,36.1"/>
	<path class="st0" d="M109,36.1c0,5.6-1.7,8.3-5.2,8.3c-1.4,0.1-2.8-0.5-3.8-1.6c-1.1-1.3-1.6-3.6-1.6-6.8c-0.1-1.9,0.2-3.8,0.9-5.6
		c0.8-1.8,2.6-2.9,4.6-2.8C107.3,27.7,109,30.5,109,36.1 M106.8,36.1c0-1.5,0-3-0.3-4.4c-0.4-1.9-1.3-2.8-2.7-2.8
		c-1.5,0-2.5,0.9-2.9,2.7c-0.2,1.5-0.3,3-0.2,4.5c-0.1,1.7,0.1,3.4,0.5,5c0.5,1.6,1.4,2.3,2.7,2.3c1.4,0,2.3-1,2.7-2.9
		C106.7,39,106.8,37.6,106.8,36.1"/>
	<path class="st0" d="M129.6,34.3c-0.2,0.9-0.7,1.7-1.3,2.3c-0.7,0.9-1.8,1.4-2.9,1.4c-0.9,0.1-1.8-0.1-2.5-0.5
		c-0.5-0.3-1-0.6-1.4-1.1c-0.4-0.4-0.9-0.7-1.4-1.1c-0.4-0.2-0.8-0.4-1.2-0.4c-1.7,0-3.2,0.9-4,2.3c-0.1,0.1-0.2,0.2-0.3,0.1
		c0,0-0.1,0-0.1-0.1c-0.2-0.1-0.2-0.3-0.1-0.4c1.1-2.6,2.6-3.9,4.7-3.9c1.4,0,2.7,0.6,3.7,1.6c0.4,0.3,0.8,0.6,1.2,0.9
		c0.5,0.2,1,0.3,1.5,0.3c0.6,0,1.3-0.1,1.9-0.3c0.7-0.3,1.4-0.9,1.8-1.5c0.1-0.1,0.2-0.2,0.4-0.1c0,0,0,0,0,0
		C129.6,33.9,129.6,34.1,129.6,34.3"/>
	<path class="st0" d="M138.9,43.6c0,0.3-0.2,0.6-0.5,0.6c-0.1,0-0.1,0-0.2,0h-1.1c-0.3,0-0.6-0.2-0.6-0.5c0-0.1,0-0.1,0-0.2V29.7
		c0-0.1,0-0.1-0.1-0.2c-0.1,0-0.1,0-0.2,0c-0.4,0.2-0.9,0.6-1.6,1.1c-0.1,0-0.1,0.1-0.2,0l-0.9-0.3c-0.1,0-0.1-0.1,0-0.1l2.9-1.9
		c0.2-0.1,0.4-0.2,0.6-0.2h1.5c0.2,0,0.3,0.1,0.3,0.3L138.9,43.6z"/>
	<path class="st0" d="M159.7,30.6c0,0.7-0.6,1.3-1.3,1.3c0,0,0,0,0,0c-0.3,0-0.7-0.1-0.9-0.4c-0.2-0.2-0.4-0.6-0.4-0.9
		c0-0.7,0.6-1.3,1.3-1.3c0.3,0,0.7,0.1,0.9,0.4C159.6,29.9,159.7,30.2,159.7,30.6 M159.7,40.9c0,0.3-0.1,0.7-0.4,0.9
		c-0.2,0.2-0.6,0.4-0.9,0.4c-0.7,0-1.3-0.6-1.3-1.3c0-0.3,0.1-0.7,0.4-0.9c0.2-0.3,0.6-0.4,0.9-0.4
		C159.1,39.6,159.7,40.2,159.7,40.9C159.7,40.9,159.7,40.9,159.7,40.9"/>
	<path class="st0" d="M173.1,39.3c0.1,1.4-0.4,2.8-1.4,3.8c-1.1,0.9-2.5,1.3-3.9,1.1c-1.1,0-2.1-0.2-3.1-0.6
		c-0.2-0.1-0.4-0.3-0.4-0.6c0-0.1,0-0.2,0.1-0.3l0.7-2.1c0-0.1,0.1-0.1,0.2-0.1c0.1,0,0.2,0,0.2,0.1c0.5,1.7,1.4,2.5,2.7,2.4
		c0.8,0,1.6-0.4,2.1-1.1c0.4-0.8,0.6-1.6,0.5-2.5c0-2.1-0.8-3.3-2.5-3.6c-0.3,0.1-0.6,0.1-0.9,0.2c-0.1,0-0.3,0-0.3-0.2
		c0,0,0,0,0-0.1c-0.1-0.1,0-0.3,0.2-0.4c0,0,0,0,0,0c1.9-0.4,3.3-2.2,3.1-4.2c0-1.6-0.7-2.4-2.1-2.4c-1.5,0-2.9,0.9-3.6,2.2
		c-0.1,0.1-0.2,0.2-0.4,0.1c0,0,0,0,0,0c-0.1-0.1-0.2-0.2-0.2-0.4c0,0,0,0,0,0c0.8-2.3,2.2-3.5,4.4-3.5c1-0.1,2.1,0.2,2.9,0.8
		c0.8,0.7,1.3,1.8,1.2,2.9c0.2,1.7-0.6,3.3-2.1,4.2C172.1,35.9,173.1,37.5,173.1,39.3"/>
	<path class="st0" d="M186.5,35.7c0,5.6-1.7,8.4-5,8.4c-1.4,0.1-2.7-0.5-3.6-1.6c-1-1.3-1.6-3.6-1.6-6.9c-0.1-1.9,0.2-3.9,0.9-5.7
		c0.7-1.8,2.5-2.9,4.4-2.8C184.8,27.2,186.5,30,186.5,35.7 M184.3,35.7c0-1.5,0-3-0.3-4.5c-0.4-1.9-1.3-2.9-2.6-2.9
		c-1.5,0-2.4,0.9-2.8,2.8c-0.2,1.5-0.3,3.1-0.2,4.6c-0.1,1.7,0.1,3.4,0.5,5.1c0.5,1.6,1.3,2.4,2.6,2.3c1.3,0,2.2-1,2.6-3
		C184.3,38.7,184.4,37.2,184.3,35.7"/>
	<path class="st0" d="M152.9,39.2l-0.1,1.4c0,0.2-0.1,0.3-0.3,0.3h-2.2v2.9c0,0.4-0.2,0.6-0.6,0.6h-1.1c-0.4,0-0.6-0.2-0.6-0.6v-2.9
		h-5.3c-0.4,0-0.7-0.2-0.7-0.6v-0.3c0-0.4,0.1-0.8,0.3-1.2l5.6-10c0.2-0.3,0.5-0.5,0.9-0.5h0.7c0.4,0,0.6,0.2,0.6,0.6V39h2.5
		C152.9,39,152.9,39,152.9,39.2z M147.9,39v-8c0,0,0-0.1-0.1-0.1c0,0-0.1,0-0.1,0l-4.2,7.8c-0.1,0.2-0.1,0.3,0.2,0.3H147.9z"/>
</g>
</svg>
