<svg width="233" height="305" viewBox="0 0 233 305" fill="none" xmlns="http://www.w3.org/2000/svg">
<path d="M43.0251 71.0191C30.9251 72.8311 15.3181 72.4471 9.69305 60.3311C6.08805 52.5661 9.26805 44.3471 13.0871 39.6681C17.4541 34.3161 22.5521 31.8231 28.2871 29.3391C31.8471 27.7951 33.5941 24.0101 34.5331 21.9771L34.7651 21.4771L35.4141 20.1171L36.7901 21.6361C38.2851 23.3071 41.0631 26.4141 44.9191 26.8481C51.1251 27.5481 56.7311 28.4351 62.4751 32.2731C67.4961 35.6311 72.9431 42.5591 71.7701 51.0371C69.9401 64.2451 55.1801 69.1861 43.1191 71.0051L43.0251 71.0191Z" fill="white"/>
<path d="M73.685 51.304C72.585 59.262 66.422 69.475 43.312 72.935C20.202 76.395 11.319 68.435 7.93603 61.147C4.19603 53.09 7.02203 44.647 10.836 39.416C9.48736 38.9439 8.27379 38.1508 7.30003 37.105C4.82603 33.921 5.71003 29.089 9.27903 26.312C12.848 23.535 17.748 23.866 20.226 27.05C20.895 28.0621 21.3321 29.2094 21.506 30.41C23.429 29.373 25.43 28.464 27.513 27.561C30.395 26.311 31.882 23.089 32.77 21.161C32.905 20.868 33.028 20.604 33.139 20.378C33.3371 19.9761 33.6296 19.628 33.9915 19.3637C34.3534 19.0994 34.7739 18.9265 35.217 18.86C35.6603 18.794 36.1129 18.8362 36.5363 18.9832C36.9596 19.1302 37.3411 19.3775 37.648 19.704C37.821 19.887 38.015 20.104 38.231 20.345C39.644 21.926 42.009 24.57 45.131 24.921C47.278 25.162 49.356 25.429 51.399 25.821C51.2303 24.6557 51.3166 23.4677 51.652 22.339C53.089 18.569 57.679 16.818 61.904 18.428C66.129 20.038 68.39 24.399 66.953 28.169C66.3638 29.3888 65.4957 30.4529 64.419 31.275C69.641 35.137 74.912 42.427 73.685 51.298M61.908 33.117C56.354 29.405 50.875 28.538 44.802 27.855C40.562 27.378 37.616 24.084 36.034 22.314C35.905 22.171 35.786 22.037 35.674 21.914C35.6034 22.0634 35.528 22.225 35.448 22.399C34.448 24.555 32.602 28.568 28.686 30.267C23.079 32.699 18.094 35.133 13.871 40.309C10.238 44.761 7.20403 52.565 10.611 59.909C15.973 71.457 31.111 71.783 42.875 70.022C54.639 68.261 69.019 63.511 70.763 50.899C71.872 42.883 66.686 36.311 61.908 33.117Z" fill="#1A1311"/>
<path d="M47.9909 59.5201C47.2099 56.5891 44.5829 51.8201 40.1719 52.4851C35.7609 53.1501 34.7969 58.4471 34.9089 61.4781C34.9222 61.8561 35.0851 62.2134 35.3618 62.4714C35.6385 62.7293 36.0064 62.8668 36.3844 62.8536C36.7625 62.8403 37.1198 62.6774 37.3778 62.4007C37.6357 62.124 37.7732 61.7561 37.7599 61.3781C37.7584 60.7228 37.8056 60.0683 37.9009 59.4201C38.9232 60.0461 40.1302 60.2997 41.3179 60.1381C42.5406 59.919 43.6633 59.3207 44.5269 58.4281C44.8075 59.0202 45.0441 59.6322 45.2349 60.2591C45.3327 60.6245 45.5716 60.9362 45.8991 61.1255C46.2267 61.3148 46.616 61.3663 46.9814 61.2686C47.3469 61.1708 47.6586 60.9319 47.8479 60.6044C48.0372 60.2768 48.0887 59.8875 47.9909 59.5221" fill="#1A1311"/>
<path d="M27.3 45.386C25.3595 45.2855 23.4326 45.7614 21.7621 46.7538C20.0915 47.7462 18.7519 49.2108 17.912 50.963C16.9572 52.7154 16.5029 54.6967 16.599 56.69C16.599 56.723 16.587 56.753 16.585 56.785C16.442 59.96 18.648 66.406 28.026 68.085C28.3122 68.1361 28.6056 68.1303 28.8895 68.068C29.1734 68.0057 29.4423 67.888 29.6807 67.7218C29.9192 67.5556 30.1226 67.3441 30.2793 67.0992C30.436 66.8544 30.5429 66.5811 30.594 66.295C30.6451 66.0088 30.6393 65.7154 30.577 65.4315C30.5147 65.1476 30.3971 64.8787 30.2309 64.6403C30.0646 64.4018 29.8531 64.1984 29.6083 64.0417C29.3635 63.885 29.0902 63.7781 28.804 63.727C27.9765 63.5839 27.1618 63.3742 26.368 63.1C28.2904 62.6408 30.0287 61.6105 31.3544 60.1445C32.68 58.6786 33.5309 56.8457 33.795 54.887C34.635 49.205 30.754 45.56 27.295 45.387M30.864 51.877C30.8584 52.3089 30.7647 52.7351 30.5885 53.1295C30.4123 53.5239 30.1574 53.8781 29.8394 54.1704C29.5214 54.4628 29.147 54.6871 28.7392 54.8295C28.3315 54.972 27.8989 55.0297 27.468 54.999C26.9588 54.9875 26.4641 54.8275 26.0446 54.5387C25.6252 54.2498 25.2993 53.8446 25.107 53.373C24.8776 52.8885 24.7695 52.3554 24.7919 51.8198C24.8144 51.2842 24.9668 50.762 25.2359 50.2984C25.5051 49.8348 25.883 49.4436 26.337 49.1585C26.791 48.8734 27.3075 48.703 27.842 48.662C28.2629 48.6332 28.685 48.6981 29.0777 48.8521C29.4705 49.0062 29.8242 49.2454 30.1133 49.5527C30.4024 49.86 30.6196 50.2276 30.7495 50.629C30.8793 51.0304 30.9184 51.4556 30.864 51.874" fill="#1A1311"/>
<path d="M60.8001 44.5421C59.4836 43.1128 57.7738 42.1049 55.8859 41.6453C53.9979 41.1857 52.0161 41.2949 50.1901 41.9591C46.9371 43.1321 44.2901 47.7591 46.7611 52.9401C49.9611 59.6591 58.7131 60.1691 62.1671 56.2401C64.6951 53.3621 64.5911 48.3401 60.8001 44.5401M54.9901 48.8991C54.9445 49.4063 54.7518 49.8891 54.4355 50.2883C54.1193 50.6875 53.6934 50.9856 53.2101 51.1461C52.8068 51.3016 52.3759 51.3731 51.944 51.3561C51.5121 51.3392 51.0881 51.2341 50.6983 51.0474C50.3084 50.8606 49.9609 50.5962 49.6769 50.2703C49.393 49.9443 49.1786 49.5638 49.0471 49.1521C48.8731 48.7679 48.7866 48.3498 48.7937 47.9282C48.8009 47.5065 48.9015 47.0916 49.0883 46.7135C49.2751 46.3354 49.5435 46.0034 49.874 45.7415C50.2046 45.4796 50.5892 45.2944 51.0001 45.1991C51.523 45.0806 52.0669 45.0913 52.5847 45.2302C53.1025 45.3692 53.5787 45.6323 53.972 45.9966C54.3654 46.361 54.664 46.8157 54.8421 47.3214C55.0201 47.8272 55.0723 48.3687 54.9941 48.8991" fill="#1A1311"/>
<path d="M19.424 65H221.575C224.605 65 227.511 66.3563 229.654 68.7705C231.796 71.1847 233 74.459 233 77.8732V292.127C233 295.541 231.796 298.815 229.654 301.23C227.511 303.644 224.605 305 221.575 305H19.424C16.3942 305 13.4884 303.644 11.346 301.23C9.2036 298.816 8 295.542 8 292.128V77.8721C8 74.4582 9.2036 71.1841 11.346 68.7702C13.4884 66.3562 16.3942 65 19.424 65Z" fill="#F7C6C4"/>
<path d="M15.8999 83.918C15.1875 86.1294 13.6268 87.9677 11.5604 89.0296C9.49398 90.0915 7.09067 90.2902 4.87794 89.582C0.0999403 88.193 -0.76106 83.15 0.55394 78.632C1.86894 74.114 4.86694 71.832 9.64094 73.221C11.8894 73.8108 13.8119 75.269 14.986 77.2752C16.1601 79.2815 16.4899 81.6718 15.9029 83.921" fill="#1A1311"/>
<path d="M79.56 75.329C81.8766 75.5228 84.1755 74.7891 85.9515 73.2891C87.7275 71.7891 88.8355 69.6454 89.032 67.329C89.587 62.388 85.266 59.649 80.59 59.123C75.914 58.597 72.653 60.486 72.098 65.423C71.776 67.7251 72.3811 70.0609 73.7803 71.9172C75.1794 73.7735 77.2582 74.9985 79.56 75.323" fill="#1A1311"/>
<path d="M104.988 2.663C95.816 5.246 85.488 10.004 82.706 21.863C80.255 32.299 86.782 41.935 97.966 45.592C115.234 51.239 130.704 51.797 144.507 49.271C155.866 47.191 168.646 42.871 171.834 31.464C175.443 18.549 165.149 7.746 151.78 3.792C132.263 -1.978 115.015 -0.161004 104.988 2.663Z" fill="#E03B57"/>
<path d="M94.517 35.521C94.517 35.521 94.652 43.672 83.293 45.111C78.593 45.711 79.566 47.354 83.924 48.15C93.548 49.91 106.772 49.074 113.457 41.168L94.517 35.521Z" fill="#E03B57"/>
<path d="M205.149 86.792H34.573C31.4183 86.792 28.861 89.3493 28.861 92.504V178.08C28.861 181.235 31.4183 183.792 34.573 183.792H205.149C208.304 183.792 210.861 181.235 210.861 178.08V92.504C210.861 89.3493 208.304 86.792 205.149 86.792Z" fill="white"/>
</svg>
