<svg xmlns="http://www.w3.org/2000/svg" width="320.902" height="206.643" viewBox="0 0 320.902 206.643"><g transform="translate(-800.763 -5234.196)"><path d="M76.462,5052.089H233.18l28.642,12.15h96.752" transform="translate(724.301 280.308)" fill="none" stroke="#251e1c" stroke-miterlimit="10" stroke-width="3.177"/><line y2="206.315" transform="translate(820.157 5234.523)" fill="none" stroke="#251e1c" stroke-miterlimit="10" stroke-width="6.354"/><line y2="206.315" transform="translate(1084.624 5234.523)" fill="none" stroke="#251e1c" stroke-miterlimit="10" stroke-width="6.354"/><line x2="308.051" transform="translate(800.763 5261.977)" fill="none" stroke="#251e1c" stroke-miterlimit="10" stroke-width="7.413"/><line x2="305.968" transform="translate(800.763 5417.352)" fill="none" stroke="#251e1c" stroke-miterlimit="10" stroke-width="7.413"/><line y2="203.339" transform="translate(1109.156 5237.5)" fill="none" stroke="#251e1c" stroke-miterlimit="10" stroke-width="4.236" stroke-dasharray="12.103 7.565"/><rect width="24.531" height="76.833" transform="translate(1096.706 5353.793)" fill="#fff" stroke="#251e1c" stroke-miterlimit="10" stroke-width="0.858"/><circle cx="7.062" cy="7.062" r="7.062" transform="translate(839.959 5269.782)" fill="#251e1c"/><circle cx="7.062" cy="7.062" r="7.062" transform="translate(870.885 5269.782)" fill="#251e1c"/><circle cx="7.062" cy="7.062" r="7.062" transform="translate(897.734 5240.369)" fill="#251e1c"/><circle cx="7.062" cy="7.062" r="7.062" transform="translate(829.186 5394.165)" fill="#090000"/><circle cx="7.062" cy="7.062" r="7.062" transform="translate(932.027 5240.138)" fill="#251e1c"/><circle cx="7.062" cy="7.062" r="7.062" transform="translate(990.497 5240.138)" fill="#251e1c"/><circle cx="7.062" cy="7.062" r="7.062" transform="translate(907.514 5309.389)" fill="#251e1c"/><line x2="20.575" y2="97.696" transform="translate(914.467 5234.523)" fill="none" stroke="#251e1c" stroke-miterlimit="10" stroke-width="3.177"/><path d="M161.446,5057.589v2.981h5.6v1.082h-5.3a9.331,9.331,0,0,0,5.455,6.833l-.729,1.08a9.977,9.977,0,0,1-5.415-6.69,9.638,9.638,0,0,1-5.6,6.679l-.625-1.121a8.481,8.481,0,0,0,5.377-6.781h-5.234v-1.082h5.338v-2.981Zm.4,11.912a9.985,9.985,0,0,0-2.382-2.316l.729-.808a12.426,12.426,0,0,1,2.526,2.24Z" transform="translate(734.494 281.023)" fill="#251e1c"/><path d="M177.923,5058.12v11.195H166.961V5058.12Zm-6.04,1.016h-3.854v3.957h3.854Zm0,4.946h-3.854v4.191h3.854Zm4.96-4.946h-3.919v3.957h3.919Zm0,4.946h-3.919v4.191h3.919Z" transform="translate(736.072 281.091)" fill="#251e1c"/><path d="M190.048,5059.029h-4.5v1.992h4.035v8.319H178.513v-8.319h3.177v-1.992h-3.672v-1h12.03Zm-10.155,7.108a5.112,5.112,0,0,0,1.783-4.14h-2.122v6.327h8.957V5062h-2.968v3.045c0,.377.142.391.429.391h.585c.247,0,.377-.052.431-.353a8.707,8.707,0,0,0,.09-1.3l.924.208c-.092,1.849-.286,2.409-1.184,2.409h-1.146c-.535,0-1.132-.04-1.132-.99V5062h-1.862a6.62,6.62,0,0,1-1.992,4.972Zm4.648-7.108h-1.849v1.992h1.849Z" transform="translate(737.51 281.08)" fill="#251e1c"/><path d="M189.616,5067.884c4.089-1.536,6.692-3.905,8.4-9.57l1.328.326c-2.031,6.329-5.129,8.763-9.061,10.3Z" transform="translate(739.018 281.117)" fill="#251e1c"/><path d="M204.983,5057.577h1.094v1.9h4.869v9.06a.962.962,0,0,1-1.08,1.107h-2.214l-.17-1.094,2.018.013c.17,0,.365-.013.365-.339v-7.732h-3.724c.142,1.08.637,3.15,3.606,5.1l-.716.911a9.166,9.166,0,0,1-3.489-4.451,8.571,8.571,0,0,1-3.594,4.4l-.663-.938a6.641,6.641,0,0,0,3.606-5.025h-3.736v9.152h-1.094v-10.167h4.92Z" transform="translate(740.377 281.021)" fill="#251e1c"/><path d="M156.885,5073.17h4.126V5072h1.068v1.172h4.947v.964h-9.113v3.4a9.916,9.916,0,0,1-1.914,6.484l-.833-.794a7.032,7.032,0,0,0,1.614-3.933c-.22.129-.924.5-1.822.912l-.183-1.146a21.372,21.372,0,0,0,2.1-.885c.014-.247.014-.508.014-.625Zm-1.355,3.814a11.214,11.214,0,0,0-.741-2.448l.859-.351a10.373,10.373,0,0,1,.846,2.448Zm11.027.612v5.429a.87.87,0,0,1-.976,1h-1.575l-.182-1.041h1.146c.417,0,.559-.027.559-.483v-4.023h-2.422a5.424,5.424,0,0,0,2.356,2.721l-.624.833a7.579,7.579,0,0,1-2.37-2.9,5.47,5.47,0,0,1-2.044,2.956l-.611-.846a4.215,4.215,0,0,0,1.913-2.761h-2v5.546h-1.028V5077.6h3.189a13.547,13.547,0,0,0,.092-1.393h-3.7v-.925h8.748v.925h-4.087a11.749,11.749,0,0,1-.131,1.393Z" transform="translate(734.487 282.897)" fill="#251e1c"/><path d="M170.3,5072.363v.886a19.629,19.629,0,0,1-1.145,3.151,4.836,4.836,0,0,1,1.145,3.071c0,.391,0,1.916-1.51,1.916h-.651l-.157-1.042h.678c.585,0,.651-.625.651-1.016a4.846,4.846,0,0,0-1.159-2.89,13.98,13.98,0,0,0,1.107-3.138h-1.5v10.754H166.73v-11.692Zm5.533,6.459v3.723c0,.22,0,.429.379.429h.7c.429,0,.585,0,.65-1.758l1.029.261c-.157,2.3-.327,2.475-1.367,2.475H175.83c-.95,0-1.015-.274-1.015-1.238v-3.892h-1.289c-.064,3.775-2.265,4.778-3.515,5.194l-.481-.951c1.653-.482,2.929-1.523,2.942-4.243H170.48v-.99h8.034v.99Zm-.911-6.836v1.212h3.294v2.721H177.2v-1.758h-5.624v1.758h-1V5073.2h3.294v-1.212Zm-3.137,4.44v-.95h5.181v.95Z" transform="translate(736.042 282.896)" fill="#251e1c"/><path d="M201.143,5007.9c2.383-.04,6.21-.156,6.21-3.528,0-2.019-1.25-2.266-2.3-2.266a45.654,45.654,0,0,0-5.09.665l-.144-1.277c.834-.064,4.5-.481,5.247-.481,1.667,0,3.554.351,3.554,3.268,0,4.558-4.712,4.7-7.148,4.766Zm6.184-8.124a20.227,20.227,0,0,0-6.054-.923l.144-1.094a22.92,22.92,0,0,1,6.223.872Z" transform="translate(740.345 273.241)" fill="#251e1c"/><path d="M209.029,5005.531a11.814,11.814,0,0,0,2.448-3.723c0-.182.026-.48.038-.807l-2.278.04v-1.16h2.318c.012-.286.066-1.653.078-1.965h1.158c-.13,2.37-.144,2.63-.182,3.319a7.086,7.086,0,0,1,4.283-1.952,3.023,3.023,0,0,1,2.486,1.249,5.257,5.257,0,0,1,.678,3.1,8.33,8.33,0,0,1-.3,2.472,9.129,9.129,0,0,1,.912,1.042l-.729,1.042a6.268,6.268,0,0,0-.742-.926,2.893,2.893,0,0,1-2.643,1.355c-1.783,0-2.486-1-2.486-1.979a2.032,2.032,0,0,1,2.292-1.9,4.38,4.38,0,0,1,2.408.716,7.469,7.469,0,0,0,.17-1.81c0-1.211-.09-3.306-2.188-3.306-1.666,0-3.02,1.2-4.2,2.33-.04.729-.053,1.146-.053,2.174,0,.833.04,2.759.053,3.983h-1.172c.012-2.1.012-2.629.038-4.843a9.6,9.6,0,0,1-1.757,2.735Zm7.33.144c-.4,0-1.288.169-1.288.963,0,1,1.146,1,1.38,1a2.053,2.053,0,0,0,1.991-1.158A3.283,3.283,0,0,0,216.359,5005.675Z" transform="translate(741.543 273.262)" fill="#251e1c"/><path d="M222.473,4998.471a14.9,14.9,0,0,0,.443,2.37,7.036,7.036,0,0,1,3.215-.923,18.623,18.623,0,0,0,.13-2.07l1.2.078c-.079,1.106-.119,1.458-.2,2a4.25,4.25,0,0,1,4.06,4.466c0,4.139-4.242,4.347-5.272,4.385l-.313-1.08c1.185-.052,4.426-.168,4.426-3.345a3.2,3.2,0,0,0-3.073-3.411,13.519,13.519,0,0,1-1.5,4.712c-.7,1.186-1.693,2.252-3.047,2.252-1.705,0-2.2-1.667-2.2-2.773a4.934,4.934,0,0,1,1.7-3.7,22.327,22.327,0,0,1-.613-2.786Zm-.078,4.063a4.111,4.111,0,0,0-.976,2.657c0,1.287.664,1.639,1.184,1.639a2.26,2.26,0,0,0,1.575-.937A9.9,9.9,0,0,1,222.4,5002.534Zm3.646-1.615a6.1,6.1,0,0,0-2.839.938,10.226,10.226,0,0,0,1.523,3.242A13.121,13.121,0,0,0,226.041,5000.918Z" transform="translate(743.016 273.253)" fill="#251e1c"/><path d="M233.855,5002.494v3.645a2.065,2.065,0,0,0,.976,1.549,4.513,4.513,0,0,0,2.017.521h6.628l-.209,1.016h-6.223a3.905,3.905,0,0,1-3.488-1.615,11.889,11.889,0,0,1-1.861,1.927l-.587-1.119a7.6,7.6,0,0,0,1.693-1.445v-3.437h-1.537v-1.042Zm-.339-2.069a12.853,12.853,0,0,0-2.069-2.187l.768-.691a10.491,10.491,0,0,1,2.135,2.162Zm9.387-.04v6.222c0,.418-.092,1-1.016,1h-1.418l-.183-1,1.263.014c.221,0,.364-.04.364-.391v-1.041h-2.408v2.265h-.976v-2.265h-2.408v2.421h-.976v-7.225h2.85a9.685,9.685,0,0,0-1.406-.873l.573-.7a12.913,12.913,0,0,1,1.745,1.08,8.89,8.89,0,0,0,2.07-1.158H235v-.872h7.6v.872a11.7,11.7,0,0,1-2.943,1.653Zm-4.374.847h-2.408v1.144h2.408Zm0,1.965h-2.408v1.158h2.408Zm3.385-1.965h-2.408v1.144h2.408Zm0,1.965h-2.408v1.158h2.408Z" transform="translate(744.415 273.214)" fill="#251e1c"/><path d="M245.182,4998.183a21.564,21.564,0,0,0-.455,4.622c.168-.313.533-.964.99-1.667l.676.651c-1.5,2.149-1.51,2.994-1.522,3.528l-1.094.066a23.421,23.421,0,0,1-.182-2.994,21.953,21.953,0,0,1,.4-4.324Zm6.132-.066c.105,1.407.17,2.879.17,4.284,0,2.8-.144,5.415-4.857,6.6l-.9-.886c4.426-1.157,4.518-2.967,4.518-6.014,0-1.224-.026-1.575-.168-3.985Z" transform="translate(746.039 273.281)" fill="#251e1c"/><path d="M186.245,5117.171a14.008,14.008,0,0,1-2.292-4.048c-.793.012-1.8.025-1.991.025h-3.75v-1.132l3.8.065c.547.014,1.25,0,1.575-.014a19.492,19.492,0,0,1-.507-2.108l1.236-.091a14.908,14.908,0,0,0,.469,2.161,21.39,21.39,0,0,0,3.854-.468l.209,1.118a21.058,21.058,0,0,1-3.685.4,11.83,11.83,0,0,0,2.084,3.411Zm-4.934-.9c-1.276.626-1.34,1.433-1.34,1.679,0,1.589,2.109,1.759,3.97,1.759a24.38,24.38,0,0,0,3.49-.222l.012,1.158a31.117,31.117,0,0,1-3.4.158c-2.279,0-3.568-.261-4.48-1.081a2.338,2.338,0,0,1-.768-1.758,2.874,2.874,0,0,1,1.888-2.538Z" transform="translate(737.535 287.822)" fill="#090000"/><path d="M196.91,5121.1a40.343,40.343,0,0,0-5.937-4.048c-1.2-.717-1.692-1.017-1.692-1.615,0-.624.442-.963,1.366-1.628a36.262,36.262,0,0,0,5.013-4.125l1.25.7a36.148,36.148,0,0,1-5.455,4.23c-.521.35-.768.584-.768.728,0,.182.142.261.547.5s2.161,1.185,2.512,1.393a28.88,28.88,0,0,1,4.271,2.955Z" transform="translate(738.975 287.798)" fill="#090000"/><path d="M200.495,5111.914a11.033,11.033,0,0,0-.4,3.658,6.966,6.966,0,0,1,4.478-1.6c3.021,0,3.58,1.94,3.58,3.021,0,3.125-3.007,3.829-5.794,3.829a15.8,15.8,0,0,1-2.5-.185l-.13-1.145a13.962,13.962,0,0,0,2.539.235c1.8,0,3.359-.353,4.139-1.212a2.3,2.3,0,0,0,.509-1.536c0-1.016-.69-1.952-2.409-1.952a5.614,5.614,0,0,0-4.347,1.875c-.04.13-.052.168-.066.233l-1.158-.038c0-.444.038-2.4.052-2.787a12.156,12.156,0,0,1,.338-2.6Zm5.637-.012a16.007,16.007,0,0,0-5.22-.938l.208-1.118a20.863,20.863,0,0,1,5.337.818Z" transform="translate(740.23 287.819)" fill="#090000"/><path d="M211.008,5114.526v3.646a2.063,2.063,0,0,0,.976,1.55,4.532,4.532,0,0,0,2.018.521h6.626l-.208,1.015H214.2a3.9,3.9,0,0,1-3.49-1.615,11.784,11.784,0,0,1-1.861,1.927l-.586-1.119a7.6,7.6,0,0,0,1.693-1.445v-3.437h-1.537v-1.042Zm-.338-2.069a12.843,12.843,0,0,0-2.07-2.187l.767-.69a10.493,10.493,0,0,1,2.136,2.162Zm9.385-.04v6.224c0,.417-.09,1-1.015,1h-1.419l-.182-1,1.263.012c.22,0,.364-.039.364-.39v-1.042h-2.409v2.266h-.975v-2.266h-2.409v2.421H212.3v-7.225h2.85a9.727,9.727,0,0,0-1.406-.873l.573-.7a13.045,13.045,0,0,1,1.745,1.08,8.8,8.8,0,0,0,2.069-1.158h-5.975v-.872h7.6v.872a11.75,11.75,0,0,1-2.943,1.653Zm-4.373.847h-2.409v1.145h2.409Zm0,1.965h-2.409v1.158h2.409Zm3.385-1.965h-2.409v1.145h2.409Zm0,1.965h-2.409v1.158h2.409Z" transform="translate(741.443 287.785)" fill="#090000"/><path d="M222.335,5110.215a21.552,21.552,0,0,0-.455,4.622c.168-.312.535-.964.99-1.667l.677.652c-1.5,2.148-1.51,2.993-1.523,3.528l-1.094.064a23.632,23.632,0,0,1-.182-2.994,22.03,22.03,0,0,1,.4-4.322Zm6.132-.066c.105,1.408.171,2.878.171,4.285,0,2.8-.143,5.416-4.857,6.6l-.9-.886c4.426-1.158,4.518-2.967,4.518-6.015,0-1.224-.027-1.575-.17-3.984Z" transform="translate(743.067 287.853)" fill="#090000"/><path d="M82.657,5065.652h1.094v1.9H88.62v9.06a.962.962,0,0,1-1.08,1.107H85.327l-.17-1.094,2.017.014c.17,0,.365-.014.365-.339v-7.733H83.816c.144,1.08.638,3.15,3.606,5.1l-.715.912a9.183,9.183,0,0,1-3.49-4.453,8.561,8.561,0,0,1-3.592,4.4l-.664-.937a6.638,6.638,0,0,0,3.606-5.026H78.83v9.152H77.736v-10.167h4.921Z" transform="translate(724.467 282.072)" fill="#251e1c"/><path d="M80.879,5086.454a19.547,19.547,0,0,1-3.632,1.288l-.156-1.106c.3-.065.585-.129,1.406-.353v-3.462H77.378v-1H78.5v-3.007h-1.25v-1.016h3.49v1.016H79.525v3.007H80.5v1h-.976v3.151c.443-.13.86-.286,1.3-.443Zm3.7,2.746H83.535v-2.4a12.034,12.034,0,0,1-3.6,2.1l-.535-.978a9.891,9.891,0,0,0,4.257-2.448H81.439v-2.746H88.5v2.72l.677.561a13.944,13.944,0,0,1-1.537,1.392,9.259,9.259,0,0,0,1.771.886l-.481.9a8.288,8.288,0,0,1-4.231-3.542c-.04.054-.078.105-.118.156Zm4.66-7.16h-8.5v-.872h8.5ZM88.9,5080.5H81.154v-2.93H88.9Zm-5.467-2.148H82.09v1.379h1.341Zm4.074,5.167H82.428v1.186h5.077Zm-1.849-5.167h-1.34v1.379h1.34Zm-.077,7.12a6.464,6.464,0,0,0,1.262,1.355,10.725,10.725,0,0,0,1.549-1.355Zm2.369-7.12H86.543v1.379h1.406Z" transform="translate(724.383 283.622)" fill="#251e1c"/><path d="M80.578,5088.7v12.056H79.5v-4.1a13.839,13.839,0,0,1-2.162,1.394l-.325-1.16a23.6,23.6,0,0,0,2.487-1.548v-6.64Zm-2.448,4.662a10.945,10.945,0,0,0-1.028-2.592l.937-.417a11.6,11.6,0,0,1,1.068,2.591Zm10.676,7.341a9.334,9.334,0,0,1-3.724-5.3,9.084,9.084,0,0,1-3.646,5.35l-.611-.977a6.98,6.98,0,0,0,3.137-4.479,11.221,11.221,0,0,0,.379-2.057h-3.2V5092.2h3.242v-3.5H85.5v3.5h3.777v1.041H85.551c.819,4.491,3.073,5.923,3.88,6.431Zm-1.054-9.086a12.629,12.629,0,0,0-1.549-2.162l.82-.546a12.074,12.074,0,0,1,1.627,2.161Z" transform="translate(724.372 285.069)" fill="#251e1c"/><path d="M77.091,5111.1a11.954,11.954,0,0,0,.547-3.438l.937.117a14.506,14.506,0,0,1-.547,3.712Zm4.452-9.3a30.715,30.715,0,0,1-2.512,4c.26-.011,1.444-.09,1.679-.1a8.846,8.846,0,0,0-.3-.834l.767-.3a11.683,11.683,0,0,1,.742,2.225l-.859.3c-.078-.391-.092-.443-.13-.586l-.846.079v5.715h-.978v-5.624c-.755.064-1.288.091-1.887.117l-.066-.924c.365,0,.521,0,.822-.014.455-.624.65-.95.819-1.21a14.772,14.772,0,0,0-1.653-1.562l.507-.808c.209.17.235.2.327.274a17.678,17.678,0,0,0,1.158-2.37l.937.339a24.584,24.584,0,0,1-1.392,2.654,7.707,7.707,0,0,1,.624.639c.651-1.106.99-1.744,1.329-2.356Zm-.611,8.423a13.331,13.331,0,0,0-.379-2.459l.834-.144a13.188,13.188,0,0,1,.416,2.408Zm.272.938a5.208,5.208,0,0,0,2.148-3.229H81.921v-.963h2.591a7.273,7.273,0,0,1-2.591,4.946Zm8.1-4.127a13.588,13.588,0,0,1-1.965,1.731,7.95,7.95,0,0,0,2.174,2.031l-.6.99a8.559,8.559,0,0,1-2.9-3.788v3.254c0,.533-.142,1.041-.937,1.041H83.718l-.2-1.067,1.106.026c.391.012.4-.169.4-.351v-4.9H82.285v-4.661h2.174a10.633,10.633,0,0,0,.4-1.185l1.119.052c-.116.391-.286.833-.4,1.133H88.73v4.661H86.008v.209a9.235,9.235,0,0,0,.82,1.783,11.949,11.949,0,0,0,1.705-1.653Zm-1.588-4.868H83.288v1.066h4.426Zm0,1.835H83.288v1.172h4.426Z" transform="translate(724.383 286.56)" fill="#251e1c"/><path d="M350.36,5088.391v6.151h-6.937v-3.688c-.136.118-.235.2-.5.453l-.837-1.576a6.338,6.338,0,0,0,2.027-2.665h-1.341v-1.475h1.844a13.054,13.054,0,0,0,.285-1.509h-2.614v-1.474h2.748c.034-.738.034-1.358.034-1.543h-2.3v-1.458h7.593v3h1.091v1.474H350.36v2.984h-4.508a12.791,12.791,0,0,1-.6,1.324Zm-1.625,1.524h-3.72V5093h3.72Zm-2.162-5.833a12.328,12.328,0,0,1-.285,1.509h2.447v-1.509Zm.2-3.017v.252c0,.637-.033.956-.05,1.291h2.012v-1.543Zm10.963.085a23.691,23.691,0,0,1-1.945,4.19,6.842,6.842,0,0,1,2.2,5.027c0,2.966-1.709,2.966-2.866,2.966h-.906l-.25-1.743h.954c.555,0,1.258-.083,1.258-1.592a4.862,4.862,0,0,0-2.464-4.325,19.351,19.351,0,0,0,2.213-4.61h-2.28v13.829h-1.726v-15.286h5.816Z" transform="translate(758.848 283.886)" fill="#251e1c"/><path d="M350.925,5097.89v13.574h4.593v-10.692h1.809v12.453H342.763v-12.453h1.793v10.692h4.559V5097.89Z" transform="translate(758.937 286.265)" fill="#251e1c"/><path d="M343.438,5127.132a20.8,20.8,0,0,1-.47,4.274l-1.006-.52a15.439,15.439,0,0,0,.537-3.754Zm5.464,3.856a1.827,1.827,0,0,1-1.929,1.273h-2.01l-.268-1.508h1.961a.787.787,0,0,0,.854-.469,13.371,13.371,0,0,0,.537-4.175h-5.363v-9.033h7.039v1.357h-2.329v1.224h1.961v1.241h-1.961v1.273h1.961v1.224h-1.961v1.39h2.213a23.526,23.526,0,0,1-.62,6.034,9.823,9.823,0,0,0,1.659-6.017v-7.726h6.888v7.308h-2.3a11.244,11.244,0,0,0,2.934,6.235l-1.04,1.643a13.454,13.454,0,0,1-3.437-7.878h-1.407v.452a18.16,18.16,0,0,1-.6,4.543,8.289,8.289,0,0,1-1.575,2.883Zm-4.19-3.856c.1,1.342.1,1.509.134,3.051l-.973.1c.05-.637.067-1.309.067-1.945a7.37,7.37,0,0,0-.067-1.207Zm-.436-8.7v1.224h1.66v-1.224Zm0,2.465v1.273h1.66V5120.9Zm0,2.5v1.39h1.66v-1.39Zm1.744,3.6a16.451,16.451,0,0,1,.268,2.833l-.8.151a15.5,15.5,0,0,0-.218-2.849Zm1.139-.167a11.352,11.352,0,0,1,.319,2.3l-.7.1a9.319,9.319,0,0,0-.252-2.313Zm5.129-8.113v4.04h3.57v-4.04Z" transform="translate(758.833 288.76)" fill="#251e1c"/><path d="M315.1,5071.921v10.495h-3.84v-10.495Zm-.989,1.016H312.26v3.646h1.848Zm0,4.61H312.26v3.853h1.848Zm5.676-.769-.247-1.082,1.315.014a.647.647,0,0,0,.663-.521,10.931,10.931,0,0,0,.273-2.524h-2.448a5.278,5.278,0,0,1-3.319,4.438l-.573-.91a3.9,3.9,0,0,0,2.8-3.527h-2.512v-.951h7.082a13.782,13.782,0,0,1-.377,4.087,1.407,1.407,0,0,1-1.34.976Zm2.694,6.444h-6.444v-5.636h6.444Zm-1.028-4.686h-4.386v3.723h4.386Z" transform="translate(754.839 282.859)" fill="#090000"/><path d="M314.5,5086.378h2.1v.964h-2.1v.039a9.437,9.437,0,0,0,2.122,2.709l-.533,1.028a8.878,8.878,0,0,1-1.589-2.175v6.093h-1.054v-5.845a12.383,12.383,0,0,1-2.213,3.318l-.469-1.236a12.679,12.679,0,0,0,2.552-3.932H310.93v-.964h2.513v-1.913c-.677.078-1.211.13-2.266.169l-.22-.977a20.258,20.258,0,0,0,5.038-.7l.39.951a18.978,18.978,0,0,1-1.887.416Zm8.11,8.307h-5.545v-10.9h5.545Zm-1.067-9.908H318.1v8.892h3.438Z" transform="translate(754.775 284.322)" fill="#090000"/><path d="M313.566,5099.535v3.645a2.064,2.064,0,0,0,.976,1.549,4.52,4.52,0,0,0,2.017.521h6.628l-.209,1.016h-6.223a3.9,3.9,0,0,1-3.489-1.614,11.924,11.924,0,0,1-1.861,1.926l-.587-1.119a7.61,7.61,0,0,0,1.693-1.445v-3.437h-1.537v-1.042Zm-.339-2.069a12.868,12.868,0,0,0-2.069-2.187l.768-.691a10.5,10.5,0,0,1,2.134,2.162Zm9.387-.039v6.222c0,.418-.092,1-1.016,1H320.18l-.183-1,1.263.014c.222,0,.364-.04.364-.391v-1.041h-2.408v2.265h-.976v-2.265h-2.408v2.421h-.976v-7.225h2.85a9.685,9.685,0,0,0-1.406-.873l.573-.7a12.922,12.922,0,0,1,1.745,1.081,8.909,8.909,0,0,0,2.07-1.158h-5.976v-.873h7.6v.873a11.728,11.728,0,0,1-2.943,1.653Zm-4.374.846h-2.408v1.145h2.408Zm0,1.965h-2.408v1.158h2.408Zm3.385-1.965h-2.408v1.145h2.408Zm0,1.965h-2.408v1.158h2.408Z" transform="translate(754.782 285.835)" fill="#090000"/><path d="M314.343,5106.568a21.538,21.538,0,0,0-.455,4.621c.168-.312.533-.963.99-1.666l.676.651c-1.5,2.148-1.509,2.994-1.522,3.528l-1.094.065a23.413,23.413,0,0,1-.182-2.995,22.067,22.067,0,0,1,.4-4.322Zm6.132-.065c.105,1.407.17,2.878.17,4.284,0,2.8-.144,5.415-4.857,6.6l-.9-.885c4.426-1.159,4.518-2.968,4.518-6.016,0-1.224-.027-1.574-.169-3.983Z" transform="translate(755.034 287.378)" fill="#090000"/><path d="M106.7,5035.625H105.51v-6.067a19.284,19.284,0,0,1-4.871,2.6l-.545-1.08a18.472,18.472,0,0,0,8.864-6.562l1.039.715a23.135,23.135,0,0,1-3.3,3.4Z" transform="translate(727.375 276.722)" fill="#251e1c"/><path d="M118.05,5031.862a26.922,26.922,0,0,0-5.453-2.787v6.575h-1.2v-11.131h1.2v3.334a32.965,32.965,0,0,1,6.033,2.8Z" transform="translate(728.845 276.722)" fill="#251e1c"/><path d="M129.57,5028.92v1.237H118.937v-1.237Z" transform="translate(729.826 277.293)" fill="#251e1c"/><path d="M100.872,5042.961v-1.08h7V5039h-7.108v-1.119h8.259v9.426h-8.433v-1.132h7.282v-3.216Z" transform="translate(727.439 278.46)" fill="#251e1c"/><path d="M120.63,5041.4v1.238H110V5041.4Z" transform="translate(728.663 278.917)" fill="#251e1c"/><path d="M120.557,5047.107c2.745-1.758,3.463-4.023,3.833-6.562h-3.413v-1.12H124.5a23.767,23.767,0,0,0,.075-2.382l1.174.025c-.025.938-.05,1.395-.124,2.357h4.724v2.175a23.347,23.347,0,0,1-.483,5.219,2,2,0,0,1-2.114,1.12,8.7,8.7,0,0,1-1.915-.182l-.025-1.184a9.758,9.758,0,0,0,1.9.208c.9,0,1.075-.365,1.187-.769a26.869,26.869,0,0,0,.309-4.244v-1.224H125.5c-.4,2.851-1.311,5.61-4.2,7.459Z" transform="translate(730.036 278.351)" fill="#251e1c"/><path d="M138.312,5044.429a27.287,27.287,0,0,0-5.44-2.786v6.575h-1.2v-11.131h1.2v3.347a32.471,32.471,0,0,1,6.021,2.786Zm-2.126-6.926a12.086,12.086,0,0,1,1.335,2.475l-.865.56a11.381,11.381,0,0,0-1.287-2.514Zm1.792-.9a11.021,11.021,0,0,1,1.336,2.475l-.866.56a11.105,11.105,0,0,0-1.286-2.514Z" transform="translate(731.482 278.293)" fill="#251e1c"/><path d="M150.032,5041.4v1.238H139.4V5041.4Z" transform="translate(732.487 278.917)" fill="#251e1c"/><path d="M133.914,5015.183c-1.1.886-3.117,2.642-3.833,3.294a5.734,5.734,0,0,1,2.423-.547,3.058,3.058,0,0,1,3.376,3.085,3.348,3.348,0,0,1-1.3,2.682,6.181,6.181,0,0,1-3.807.989,13.188,13.188,0,0,1-1.917-.13l-.26-1.183a11.845,11.845,0,0,0,2.25.22c2.82,0,3.883-1.263,3.883-2.565,0-1.875-1.868-2.057-2.622-2.057-2.51,0-4.167,1.549-5.44,2.773l-.692-.95c2.708-2.266,4.8-4.192,6.267-5.546-1.953.208-3.6.261-4.92.287V5014.4c2.127-.026,4.006-.053,6.591-.3Z" transform="translate(730.741 275.366)" fill="#251e1c"/><path d="M137.489,5023.875c2.262-.04,5.9-.157,5.9-3.528,0-2.018-1.187-2.266-2.189-2.266a41.107,41.107,0,0,0-4.833.665l-.137-1.277c.791-.065,4.278-.481,4.982-.481,1.583,0,3.375.351,3.375,3.268,0,4.557-4.475,4.7-6.787,4.766Zm5.873-8.125a18.372,18.372,0,0,0-5.749-.923l.136-1.094a20.772,20.772,0,0,1,5.91.873Z" transform="translate(732.074 275.319)" fill="#251e1c"/><path d="M155.331,5018.71a28.436,28.436,0,0,1-3.338.364,10.014,10.014,0,0,0,1.323,2.174l-.965.7a11.608,11.608,0,0,1-1.557-2.825c-.333.027-1.286.04-1.719.04l-3.907-.026v-1.056l3.759.053c.371,0,.779,0,1.509-.026a15.822,15.822,0,0,1-.408-1.55c-.445.014-.878.026-1.323.026l-3.091-.012v-1.055l2.966.013c.4,0,.483,0,1.249-.013-.123-.77-.16-1.107-.2-1.6l1.187-.014c.037.587.073.976.16,1.563a28.069,28.069,0,0,0,3.338-.364l.1,1.094a29.113,29.113,0,0,1-3.252.325,12.193,12.193,0,0,0,.433,1.549,19.927,19.927,0,0,0,3.611-.443Zm-7.368,2.33a1.88,1.88,0,0,0-.618,1.171c0,1.34,2.151,1.472,3.932,1.472a28,28,0,0,0,2.818-.131l.025,1.146a24.137,24.137,0,0,1-2.51.092c-2.4,0-3.3-.182-4.031-.521a2.182,2.182,0,0,1-1.372-1.889,2.676,2.676,0,0,1,.914-1.925Z" transform="translate(733.237 275.341)" fill="#251e1c"/><path d="M160.2,5014.13c-.828,1.927-1.571,4.063-1.905,5.078a2.624,2.624,0,0,1,1.831-.82c1.9,0,2,1.849,2,2.748v.872c0,.938.1,1.653,1.1,1.653.606,0,1.236-.3,1.644-1.536a8.836,8.836,0,0,0,.408-2.787l1.076.261c-.075,1.717-.371,5.207-3.2,5.207-2.1,0-2.113-1.835-2.113-2.851v-.729c0-.963-.224-1.731-1.1-1.731-.495,0-1.509.272-2.287,1.952a31.821,31.821,0,0,0-.964,3.308l-1.163-.377c1.755-5.65,1.966-6.277,2.25-7.122.185-.547.9-2.63,1.2-3.476Z" transform="translate(734.585 275.324)" fill="#251e1c"/><path d="M102.147,4976.623a30.27,30.27,0,0,1,2.525,2.123,12.7,12.7,0,0,0,4.232-4.413H99.556V4973.2h11.119a12.516,12.516,0,0,1-5.195,6.313,24.913,24.913,0,0,1,2.161,2.448l-1,.833a26.492,26.492,0,0,0-5.337-5.375Z" transform="translate(727.305 270.046)" fill="#251e1c"/><path d="M111.214,4982.008c2.617-.571,7.082-2.081,7.955-8.188h-4.622a11.28,11.28,0,0,1-3.411,3.555l-.742-.885a9.755,9.755,0,0,0,3.372-3.75h6.769c-.573,6.6-4.257,9.348-8.826,10.376Z" transform="translate(728.714 269.986)" fill="#251e1c"/><path d="M128.777,4979.515a29.37,29.37,0,0,0-5.728-2.786v6.575h-1.262v-11.131h1.262v3.346a35.187,35.187,0,0,1,6.341,2.785Zm-2.239-6.926a11.967,11.967,0,0,1,1.406,2.475l-.912.56a11.174,11.174,0,0,0-1.354-2.513Zm1.887-.9a10.84,10.84,0,0,1,1.406,2.475l-.911.56a10.944,10.944,0,0,0-1.354-2.514Z" transform="translate(730.196 269.851)" fill="#251e1c"/><path d="M140.965,4974.9v1.147h-4.7c0,3.892-1.641,5.844-4.973,7.055l-.663-1.016c1.861-.624,3.253-1.536,3.866-2.85a8.541,8.541,0,0,0,.561-3.189h-5.013V4974.9h5.013v-2.748h1.21v2.748Z" transform="translate(731.27 269.911)" fill="#251e1c"/><path d="M144.3,4975.8c0,4.205-1.172,6.054-2.513,7.354l-.859-.871c1.445-1.444,2.214-2.929,2.214-6.392v-3.269H144.3Zm3.4,5.677c1.6-.5,3.268-1,3.971-5.013l1.106.47c-.573,2.6-1.641,5.583-6.249,5.986v-10.662H147.7Z" transform="translate(732.686 269.924)" fill="#251e1c"/><path d="M160.508,4979.515a29.37,29.37,0,0,0-5.728-2.786v6.575h-1.262v-11.131h1.262v3.346a35.187,35.187,0,0,1,6.341,2.785Zm-2.239-6.926a11.967,11.967,0,0,1,1.406,2.475l-.912.56a11.173,11.173,0,0,0-1.354-2.513Zm1.887-.9a10.839,10.839,0,0,1,1.406,2.475l-.911.56a10.944,10.944,0,0,0-1.354-2.514Z" transform="translate(734.323 269.851)" fill="#251e1c"/><path d="M112.574,5094.21a14.015,14.015,0,0,1-2.487,5.35,50.89,50.89,0,0,1,4.426,3.907l-.989.937a46.38,46.38,0,0,0-4.153-3.958,16.083,16.083,0,0,1-5.273,4.009l-.7-.963a13.687,13.687,0,0,0,4.869-3.516,13.4,13.4,0,0,0,2.773-4.66h-6.992v-1.106Z" transform="translate(727.804 285.786)" fill="#251e1c"/><path d="M114.5,5098.116a8.609,8.609,0,0,0,3.476-3.906h6.731c-.234,2.122-.911,8.346-8.723,10.376l-.559-1.082a10.9,10.9,0,0,0,5.638-3.1,19.2,19.2,0,0,0-4.141-2.694,8.049,8.049,0,0,1-1.653,1.315Zm4.258-2.825a10.5,10.5,0,0,1-1.12,1.64,20.027,20.027,0,0,1,4.139,2.591,9.444,9.444,0,0,0,1.589-4.231Z" transform="translate(729.248 285.786)" fill="#251e1c"/><path d="M136.683,5097.954v1.237h-11.2v-1.237Z" transform="translate(730.677 286.273)" fill="#251e1c"/><path d="M136.785,5103.008a7.67,7.67,0,0,0,1.992-4.843l1.106.117a9.494,9.494,0,0,1-2.148,5.583Zm6,1.64h-1.2v-7.785h-4.5v-1.106h4.5v-2.123h1.2v2.123h4.53v1.106h-4.53Zm2.851-6.5a9.621,9.621,0,0,0,2,4.92l-.976.755c-1.172-1.444-1.679-2.877-2.122-5.545Z" transform="translate(732.147 285.71)" fill="#251e1c"/><path d="M154.051,5098.663a8.114,8.114,0,0,1-.663,3.125c-1,2.044-3.333,2.592-4.44,2.812l-.494-1.067c2.968-.521,4.4-1.6,4.4-4.8v-.3h-5.1v-1.094h10.6v1.094h-4.3Zm3.255-4.66v1.095h-8.5V5094Z" transform="translate(733.573 285.759)" fill="#251e1c"/><path d="M161.742,5097.267c0,4.206-1.173,6.055-2.513,7.356l-.859-.872c1.444-1.446,2.213-2.929,2.213-6.393v-3.267h1.159Zm3.4,5.677c1.6-.5,3.268-1,3.971-5.013l1.106.469c-.573,2.6-1.641,5.585-6.249,5.988v-10.662h1.172Z" transform="translate(734.954 285.723)" fill="#251e1c"/><circle cx="7.062" cy="7.062" r="7.062" transform="translate(974.231 5425.509)" fill="#251e1c"/><path d="M162.275,5146.241a7.658,7.658,0,0,0,1.992-4.844l1.107.118a9.512,9.512,0,0,1-2.148,5.585Zm6,1.64h-1.2V5140.1h-4.5v-1.107h4.5v-2.122h1.2v2.122h4.532v1.107h-4.532Zm2.851-6.5a9.638,9.638,0,0,0,2,4.921l-.975.755c-1.173-1.446-1.68-2.878-2.122-5.547Z" transform="translate(735.462 291.333)" fill="#251e1c"/><path d="M179.541,5141.9a8.118,8.118,0,0,1-.663,3.125c-1,2.044-3.333,2.591-4.44,2.812l-.494-1.067c2.968-.521,4.4-1.6,4.4-4.8v-.3h-5.1v-1.094h10.6v1.094h-4.3Zm3.255-4.66v1.094h-8.5v-1.094Z" transform="translate(736.889 291.381)" fill="#251e1c"/><path d="M187.232,5140.5c0,4.205-1.172,6.054-2.513,7.356l-.859-.873c1.445-1.444,2.213-2.929,2.213-6.392v-3.268h1.159Zm3.4,5.677c1.6-.5,3.267-1,3.97-5.012l1.106.469c-.573,2.6-1.64,5.583-6.249,5.987v-10.662h1.173Z" transform="translate(738.27 291.346)" fill="#251e1c"/><path d="M199.783,5137.542a21.691,21.691,0,0,1-3.307,9.881l-1.146-.613a19.956,19.956,0,0,0,3.216-9.45Zm5.546,9.646a30.712,30.712,0,0,0-3.138-9.374l1.094-.52a30.412,30.412,0,0,1,3.32,9.581Z" transform="translate(739.762 291.39)" fill="#251e1c"/><path d="M209.394,5141.329a30.153,30.153,0,0,1,2.526,2.121,12.7,12.7,0,0,0,4.231-4.413H206.8V5137.9h11.119a12.513,12.513,0,0,1-5.195,6.314,25.091,25.091,0,0,1,2.161,2.448l-1,.833a26.505,26.505,0,0,0-5.337-5.375Z" transform="translate(741.254 291.468)" fill="#251e1c"/><path d="M219.244,5142.2a17.557,17.557,0,0,0-1.315-3.788l1.028-.326a17.477,17.477,0,0,1,1.406,3.788Zm-.13,4.517c4.426-.975,7.276-3.045,8.057-9.1l1.263.235c-.7,4.244-2.292,8.514-8.553,9.854Zm3.592-5.141a17.86,17.86,0,0,0-1.094-3.895l1.054-.272a16.548,16.548,0,0,1,1.2,3.892Z" transform="translate(742.701 291.404)" fill="#251e1c"/><path d="M276.105,4971.146h1.158v3.19h5.545v1.081h-5.363c.807,3.41,2.3,5.312,5.545,6.652l-.728,1.094a9.174,9.174,0,0,1-5.442-6.249,9.639,9.639,0,0,1-5.56,6.223l-.624-1.119a8.046,8.046,0,0,0,5.4-6.6h-5.286v-1.081h5.352Z" transform="translate(749.556 269.779)" fill="#251e1c"/><path d="M294.331,4973.232h-5.507v.884h4.595v4.844h-3.8a12.18,12.18,0,0,0,4.856,2.967l-.611,1.03a14.1,14.1,0,0,1-5.039-3.555v3.815h-1.042V4979.4a12.976,12.976,0,0,1-5.038,3.567l-.625-1.015a12.747,12.747,0,0,0,4.869-2.995h-3.776v-4.844h4.569v-.884h-5.507v-.977h5.507v-1.12h1.042v1.12h5.507Zm-10.115,1.783v1.094h3.566v-1.094Zm0,1.94v1.119h3.566v-1.119Zm8.214-1.94h-3.606v1.094h3.606Zm0,1.94h-3.606v1.119h3.606Z" transform="translate(751.05 269.778)" fill="#251e1c"/><path d="M298.442,4974.481v.963h-1.381v1.381h1.992v.963h-1.992v3.659c1.406-.235,1.563-.261,2.07-.352l.038.925a47.834,47.834,0,0,1-5.272.833l-.118-1.017c.573-.039,1.679-.168,2.305-.246v-3.8h-2.279v-.963h2.279v-1.381h-1.419v-.755a7.316,7.316,0,0,1-.587.5l-.442-1.016a7.612,7.612,0,0,0,2.459-3.033h1.146a6.187,6.187,0,0,0,2.032,2.33l-.651.885a7.334,7.334,0,0,1-1.927-2.263,10.854,10.854,0,0,1-1.824,2.395Zm-3.958,6.561a11.216,11.216,0,0,0-.4-2.486l.885-.118a14.159,14.159,0,0,1,.429,2.474Zm3.124-.377a14.987,14.987,0,0,0,.365-2.3l.885.117a14.72,14.72,0,0,1-.429,2.343Zm5.272,1.615c-.885.247-2.459.649-3.917.9l-.144-1c.48-.078.637-.1.871-.144V4971.46h5.637v5.781h-2.772a7.97,7.97,0,0,0,.6,1.94,7.93,7.93,0,0,0,1.9-1.693l.7.809a11.5,11.5,0,0,1-2.174,1.691,8.924,8.924,0,0,0,2.474,2.316l-.612.978a8.481,8.481,0,0,1-3.88-6.041h-.833v4.595c.976-.193,1.471-.312,2.122-.468Zm1.408-9.882h-3.555v1.51h3.555Zm0,2.382h-3.555v1.523h3.555Z" transform="translate(752.548 269.778)" fill="#251e1c"/><path d="M305.052,4977.881a11.477,11.477,0,0,0,3.371-4.127l.926.468a14.78,14.78,0,0,1-1.381,2.266v6.744H306.86V4977.8a11.63,11.63,0,0,1-1.392,1.275Zm.038-3.814a8,8,0,0,0,2.955-3.047l.924.43a10.017,10.017,0,0,1-3.307,3.66Zm12.276,2.277h-2.1v5.821c0,.742-.234,1.067-1.159,1.067h-2.239l-.2-1.186,2.109.027c.273,0,.391-.052.391-.365v-5.364H309.49v-1.053h7.877Zm-.507-3.619h-6.821v-1.015h6.821Z" transform="translate(754.032 269.763)" fill="#251e1c"/><path d="M216.512,4976.09l-.234,5.469h1.809v1.015h-12.03v-1.015h2.864a43.954,43.954,0,0,0,1.2-4.465H207.2v-1h3.137c.338-1.535.481-2.474.559-3.007h-4.2v-1.016h10.792v1.016H212.06c-.17.781-.469,2.227-.625,3.007Zm-5.286,1c-.168.793-.442,2.147-1.119,4.465h5.012l.221-4.465Z" transform="translate(741.157 269.899)" fill="#251e1c"/><path d="M222.97,4973.59v-2.214h1.107v2.214h5v6.158h-5v3.71H222.97v-3.71h-4.934v-6.158Zm0,1.066h-3.84v4.037h3.84Zm5.013,0h-3.905v4.037h3.905Z" transform="translate(742.715 269.81)" fill="#251e1c"/><line y2="206.315" transform="translate(1011.522 5234.523)" fill="none" stroke="#251e1c" stroke-miterlimit="10" stroke-width="3.177"/><line y2="20.483" transform="translate(914.576 5316.451)" fill="none" stroke="#251e1c" stroke-miterlimit="10" stroke-width="0.605"/><line x2="22.069" transform="translate(997.559 5247.2)" fill="none" stroke="#251e1c" stroke-miterlimit="10" stroke-width="0.605"/><path d="M167.041,4992.085l3.845,7.791,8.6,1.25-6.221,6.064,1.469,8.563-7.69-4.043-7.69,4.043,1.469-8.563-6.221-6.064,8.6-1.25Z" transform="translate(734.464 272.503)" fill="#920009"/><rect width="95.49" height="85.471" transform="translate(965.135 5291.813)" fill="#920009"/><path d="M252.5,5031.9h-4.7v3.262a1.966,1.966,0,0,1-2.155,1.843,1.042,1.042,0,0,1-1.093-.915v-.239h-1.2v-1.183h2.634V5031.9h-6.332v-1.122h6.332v-2.007h-5.584v-1.123h5.584v-1.855s-3.832.4-4.954.4l-.4-1.106c1.3,0,8.442-.958,9.534-1.736.4.135,1.661.508,1.661,1.032,0,.57-3.772,1.153-4.026,1.153v2.109h2.56a.994.994,0,0,1,1.107-.762,1.068,1.068,0,0,1,1.2,1.062c0,.614-.39.823-.958.823H247.8v2.007h3.353a1,1,0,0,1,1.107-.764,1.056,1.056,0,0,1,1.2,1.047C253.457,5031.687,253.083,5031.9,252.5,5031.9Z" transform="translate(745.527 276.57)" fill="#fff"/><path d="M257.73,5035.936l-.406-1.272c4.431-.1,7.59-2.036,7.59-4.894a2.507,2.507,0,0,0-2.725-2.71c-2.544,0-5.433.869-7.169.869a1.2,1.2,0,0,1-1.3-1.212,1.146,1.146,0,0,1,1.152-1.242,1.045,1.045,0,0,1,1.078.719c1.408,0,4.311-.345,6.316-.345a6.254,6.254,0,0,1,2.485.463,5.309,5.309,0,0,1-1.347-2.619.563.563,0,0,1,.614-.569.605.605,0,0,1,.6.659.929.929,0,0,1-.059.345,11.653,11.653,0,0,0,1.452,2.125l-.54.464a3.592,3.592,0,0,1,1.468,3.083C266.934,5033.691,262.832,5035.815,257.73,5035.936Zm9.517-9.4a5.592,5.592,0,0,1-1.945-3.173.571.571,0,0,1,.628-.584.648.648,0,0,1,.644.675.958.958,0,0,1-.076.345,8.067,8.067,0,0,0,1.467,2.124Z" transform="translate(747.356 276.496)" fill="#fff"/><path d="M276.852,5037.05a66.051,66.051,0,0,0-8.831-6.271,1.068,1.068,0,0,1-.628-.942,1.15,1.15,0,0,1,.644-.974c3.1-1.766,6.555-3.622,7.318-4.265a.84.84,0,0,1-.029-.269.913.913,0,0,1,.972-.915,1.315,1.315,0,0,1,1.048.584,1.334,1.334,0,0,1,.3.779.957.957,0,0,1-.509.808c-1.348.883-3.713,1.811-7.575,3.907a.282.282,0,0,0-.18.224c0,.09.061.165.2.239a63.324,63.324,0,0,1,8.531,5.748Z" transform="translate(749.134 276.578)" fill="#fff"/><path d="M281.08,5032.7c-1.407,0-2.29-.869-2.29-2.65v-4.25a.885.885,0,0,1-.568-.824c0-.749.614-.928,1.257-.928.7,0,1.078.314,1.078.973v5.06c0,.7.254,1.062.792,1.062.629,0,1.467-.614,2.365-1.646l1.167,1.093C283.415,5032.09,282.142,5032.7,281.08,5032.7Zm.839,4.25-.57-1.212c3.414-.478,5.882-2.111,5.882-6.36v-3.593a.9.9,0,0,1-.568-.824c0-.494.3-.928,1.227-.928.748,0,1.109.3,1.109.972v4.446C289,5034.485,286,5036.327,281.918,5036.955Z" transform="translate(750.543 276.659)" fill="#fff"/><path d="M243.408,5041.548v8.412a1.646,1.646,0,0,1-1.811,1.781.868.868,0,0,1-.912-.9v-.209h-.958v-1.108h1.946v-8.291h-3.966a9.38,9.38,0,0,1-3.891,4.175l-.809-.839a7.84,7.84,0,0,0,2.784-3.336h-2.815V5051.7h-1.749v-11.419c0-.479.478-.6.867-.6.314,0,.779.076.869.436h3.232a10.741,10.741,0,0,0,.345-2.082h.539c.449,0,1.317.062,1.317.509a5.67,5.67,0,0,1-.285,1.573h3.638a.984.984,0,0,1,.9-.54c.674,0,1.272.315,1.272,1.063A1.111,1.111,0,0,1,243.408,5041.548Zm-3.5,7.574a.861.861,0,0,1-.912-.824.562.562,0,0,1,.014-.15,8.116,8.116,0,0,0-1.752-1.421,12.032,12.032,0,0,1-3.4,2.933l-.735-.912a10.282,10.282,0,0,0,3.592-4.73c.329,0,1.765,0,1.765.479a3.725,3.725,0,0,1-.658,1.452c.958.314,3.009.988,3.009,2.231A.876.876,0,0,1,239.906,5049.122Zm.345-3.817a.915.915,0,0,1-.973-.809.478.478,0,0,1,.045-.21,8.366,8.366,0,0,0-2.186-1.691l.674-.717c1.033.343,3.337,1.123,3.337,2.469A.88.88,0,0,1,240.251,5045.305Z" transform="translate(744.43 278.479)" fill="#fff"/><path d="M252.544,5049.286c-.329,1.211-1.615,2.065-3.412,2.065-2.2,0-3.7-.988-3.7-2.695,0-1.66,1.543-2.708,3.7-2.708a4.484,4.484,0,0,1,1.811.36v-1.872h-5.838c-.807,0-1.092-.358-1.092-.914,0-.6.358-.972,1.152-.972a.9.9,0,0,1,1,.763h4.775v-1.571h-5.838c-.807,0-1.092-.359-1.092-.928,0-.584.358-.988,1.152-.988a.909.909,0,0,1,1,.777h4.775v-.538a.763.763,0,0,1-.628-.733c0-.375.253-.838,1.182-.838.853,0,1.152.374,1.152.853v1.256h4.326v1.139h-4.326v1.571h4.326v1.123h-4.326v3.158c.839.912,2.935,1.616,5,1.616v1.661A9.215,9.215,0,0,1,252.544,5049.286Zm-3.426-2.1a1.482,1.482,0,1,0,1.691,1.466A1.506,1.506,0,0,0,249.117,5047.19Z" transform="translate(746.093 278.54)" fill="#fff"/><path d="M265.862,5051.339c-2.126,0-3.084-1.228-3.442-4.161-.105-.915-.285-1.272-1-1.272a4.673,4.673,0,0,0-.614.06c-.674,1.5-1.541,3.368-2.634,5.7l-1.512-.78c4.281-9.519,4.64-10.235,4.776-10.97a.806.806,0,0,1-.345-.659.908.908,0,0,1,1.018-.9c.7,0,1.3.285,1.3,1.093,0,.629-.269,1.347-2.007,5.195a6.24,6.24,0,0,1,.809-.061c1.378,0,1.8.688,1.946,1.781.4,2.935.913,3.772,1.961,3.772,1.467,0,2.6-1.841,2.6-5.643h1.856C270.576,5048.839,268.959,5051.339,265.862,5051.339Z" transform="translate(747.738 278.522)" fill="#fff"/><path d="M278.4,5051.451l-.434-1.138a5.334,5.334,0,0,0,4.19-5.538,4.324,4.324,0,0,0-4.37-4.43,5.169,5.169,0,0,0-5.118,5.463c0,1.931.583,3.113,1.5,3.113.808,0,2.276-1.093,2.276-5.972a.934.934,0,0,1-.464-.869,1.01,1.01,0,0,1,1.137-.943c.808,0,1.063.525,1.063,1.243,0,4.671-1.049,7.8-4.028,7.8-1.885,0-3.232-1.676-3.232-4.31,0-4.19,3.143-6.766,6.975-6.766a5.8,5.8,0,0,1,6.137,5.644A6.613,6.613,0,0,1,278.4,5051.451Z" transform="translate(749.592 278.619)" fill="#fff"/><path d="M297.57,5040.589h-9.939v2.036c0,3.353,0,6.645-2.245,9.4l-.942-.928c1.467-2.411,1.482-5.479,1.482-8.217v-3.323c0-.419.494-.568.839-.568.329,0,.824.12.868.508h3.443v-.988c0-.478.478-.583.867-.583s.884.105.884.583v.988h3.4c.09-.538.614-.7,1.093-.7.629,0,1.2.284,1.2.988C298.512,5040.38,298.124,5040.589,297.57,5040.589Zm-.824,3.547h-3.533v1.886h2.141a1.124,1.124,0,0,1,1.017-.554,1.165,1.165,0,0,1,1.211,1.153,1.115,1.115,0,0,1-.538.942v4.146h-1.781v-.643h-5.178v.732H288.3v-5.658c0-.494.51-.6.9-.6.345,0,.793.09.885.479h1.391v-4.535c0-.479.479-.6.869-.6s.867.12.867.6v1.527h2.56a.965.965,0,0,1,1.033-.734.991.991,0,0,1,1.017,1.019C297.823,5043.942,297.3,5044.136,296.746,5044.136Zm-1.481,3.008h-5.178v2.814h5.178Z" transform="translate(751.352 278.465)" fill="#fff"/><path d="M171.114,5005.451l67.589,33.464v9.728Z" transform="translate(736.612 274.242)" fill="#920009"/><path d="M298,5079.607c-2.449-2.021-3.456-5.888-3.789-9.5a24.563,24.563,0,0,0,2.473-.339,3.515,3.515,0,1,0-1.309-6.907c-.358.067-.711.122-1.06.166a3.515,3.515,0,0,0-6.967-.932c0,.024-.019.143-.041.329a22.273,22.273,0,0,1-10.363-7.2,3.515,3.515,0,0,0-5.641,4.195,29.349,29.349,0,0,0,15.247,10.1c-.906,2.432-3.734,7.941-7.8,8.865a2.577,2.577,0,0,1-1.3-.076,3.673,3.673,0,0,0-.028-.555,3.517,3.517,0,0,0-3.937-3.035,3.611,3.611,0,0,0-2.43,1.445,4.774,4.774,0,0,0-.618,3.816,6.194,6.194,0,0,0,2.787,4.031,9.291,9.291,0,0,0,5.054,1.452,9.124,9.124,0,0,0,2.033-.224,15.94,15.94,0,0,0,8.877-6.178,15.586,15.586,0,0,0,4.342,5.964,3.515,3.515,0,0,0,4.475-5.422Zm-23.122,1.987a3.469,3.469,0,0,0,1.263-.652A3.35,3.35,0,0,1,274.877,5081.595Z" transform="translate(749.512 280.532)" fill="#fff"/><path d="M258.946,5065.973c0-.5-.616-.232-.616-.649,0-.265.292-.318.5-.318.166,0,.324.014.49.014.961,0,1.676-.1,1.823-.1.9,0,1.769.477,1.769,1.472a1.584,1.584,0,0,1-1.756,1.518c-.2,0-.4-.034-.576-.034-.079,0-.106.034-.106.106v.384c.02.829.5.484.5.868,0,.431-.955.451-1.252.451-.279,0-1.26-.007-1.26-.437,0-.364.484-.139.484-.683Zm1.776-.318c-.259,0-.252.08-.252.212v1c0,.138-.06.291.3.291.437,0,.61-.331.61-.735S261.166,5065.654,260.722,5065.654Z" transform="translate(747.955 281.976)" fill="#fff"/><path d="M263.975,5067.227a4.169,4.169,0,0,0,.477-1.564.717.717,0,0,1,.8-.8c.576,0,.941.59,1.2,1.027.113.192,1.113,2.221,1.352,2.763.219.5.577.2.577.578,0,.483-.941.463-1.272.463-.948,0-1.518-.007-1.518-.417,0-.319.4-.2.4-.432,0-.3-.166-.324-1.233-.324-.345,0-.55.014-.55.338,0,.259.425.087.425.43,0,.4-.716.4-.981.4-.948,0-1.034-.178-1.034-.391,0-.311.358-.219.55-.458a3.8,3.8,0,0,0,.383-.708Zm1.392.477c.066,0,.264.014.264-.086a2.275,2.275,0,0,0-.245-.536c-.06-.107-.172-.352-.318-.352s-.272.4-.3.47a2.269,2.269,0,0,0-.14.411c0,.112.166.093.24.093Z" transform="translate(748.514 281.968)" fill="#fff"/><path d="M268.329,5067.277a2.418,2.418,0,0,1,2.564-2.4,2.522,2.522,0,0,1,2.531,2.465,2.476,2.476,0,0,1-2.612,2.366A2.4,2.4,0,0,1,268.329,5067.277Zm2.259-1.413c-.371,0-.556.386-.556.71,0,.563.4,2.147,1.113,2.147.4,0,.576-.352.576-.71C271.721,5067.41,271.363,5065.864,270.588,5065.864Z" transform="translate(749.256 281.971)" fill="#fff"/><path d="M239.242,5059.5a3.518,3.518,0,0,0-1.731,4.657c.786,1.726,2.615,7,1.632,10.61-.51,1.877-1.232,3.2-1.747,3.214a.384.384,0,0,1-.125-.337,3.515,3.515,0,1,0-7.017-.428,7.356,7.356,0,0,0,5.816,7.676,7.824,7.824,0,0,0,1.4.127c2.552,0,6.51-1.262,8.452-8.408,1.828-6.722-1.628-14.524-2.028-15.393A3.512,3.512,0,0,0,239.242,5059.5Z" transform="translate(744.302 281.229)" fill="#fff"/><path d="M262.531,5075.01a3.519,3.519,0,0,0-3.953,3.015.616.616,0,0,1-.32.45,1.394,1.394,0,0,1-1.036.222c-2.638-.637-3.727-4.419-4.142-6.619-1.137-6.023-.36-14.62-.347-14.762a3.515,3.515,0,1,0-7-.658c-.036.392-.887,9.695.438,16.724,1.7,9,6.618,11.476,9.4,12.148a7.963,7.963,0,0,0,1.87.22,8.557,8.557,0,0,0,4.787-1.473,7.622,7.622,0,0,0,3.317-5.314A3.514,3.514,0,0,0,262.531,5075.01Z" transform="translate(746.278 280.487)" fill="#fff"/><path d="M257.85,5063.563h.055a4.746,4.746,0,0,0,3.392-1.422,5.01,5.01,0,0,0,1.135-5.217,1.693,1.693,0,0,0-3.182,1.155,1.611,1.611,0,0,1-.355,1.679,1.392,1.392,0,0,1-.991.421h-.016a1.394,1.394,0,0,1-1-.445,1.6,1.6,0,0,1,.024-2.217,1.387,1.387,0,0,1,.81-.409,1.692,1.692,0,0,0-.452-3.354,4.752,4.752,0,0,0-2.761,1.379,5.016,5.016,0,0,0-.077,6.931A4.75,4.75,0,0,0,257.85,5063.563Z" transform="translate(747.273 280.521)" fill="#fff"/><line y2="14.254" transform="translate(878.026 5275.36)" fill="none" stroke="#251e1c" stroke-miterlimit="10" stroke-width="0.605"/><line y2="25.933" transform="translate(846.883 5277.306)" fill="none" stroke="#251e1c" stroke-miterlimit="10" stroke-width="0.605"/></g></svg>