<?xml version="1.0" encoding="utf-8"?>
<!-- Generator: Adobe Illustrator 28.0.0, SVG Export Plug-In . SVG Version: 6.00 Build 0)  -->
<svg version="1.1" id="レイヤー_1" xmlns="http://www.w3.org/2000/svg" xmlns:xlink="http://www.w3.org/1999/xlink" x="0px"
	 y="0px" viewBox="0 0 160.5 73.4" style="enable-background:new 0 0 160.5 73.4;" xml:space="preserve">
<style type="text/css">
	.st0{clip-path:url(#SVGID_00000023985091611301737510000003368915422839433651_);}
	.st1{fill:#FFFFFF;}
	.st2{fill:#F7E000;}
</style>
<g transform="translate(0 0)">
	<g>
		<defs>
			<rect id="SVGID_1_" width="160.5" height="73.4"/>
		</defs>
		<clipPath id="SVGID_00000080908797531524277040000007105054126612303542_">
			<use xlink:href="#SVGID_1_"  style="overflow:visible;"/>
		</clipPath>
		<g style="clip-path:url(#SVGID_00000080908797531524277040000007105054126612303542_);">
			<path class="st1" d="M48.4,13.4c0,0.2-0.1,0.3-0.1,0.5c-0.1,0.3-0.2,0.4-0.3,0.6c-0.1,0.2-0.1,0.3-0.1,0.5l0,9.6
				c0,0.1-0.1,0.2-0.2,0.2c0,0,0,0,0,0h-0.3c-0.3,0-0.6-0.1-0.7-0.4l-6.4-9.1c0,0-0.1,0-0.1,0c0,0,0,0,0,0.1c0,4.9,0,7.9,0,9
				c0,0.2-0.1,0.3-0.2,0.5c-0.1,0.1-0.3,0.2-0.4,0.2c-0.4,0-0.6-0.2-0.6-0.6c0-0.2,0.1-0.3,0.2-0.5c0.1-0.2,0.2-0.3,0.2-0.5
				c0.1-0.2,0.1-0.3,0.1-0.5v-9.5c0-0.1,0.1-0.2,0.4-0.3c0.2,0,0.4,0,0.6,0c0.3,0,0.6,0.1,0.7,0.4l6,8.6c0,0,0,0,0.1,0
				c0,0,0.1,0,0.1-0.1l0-8.6c0-0.2,0.1-0.4,0.2-0.5c0.1-0.1,0.3-0.2,0.4-0.2C48.2,12.8,48.4,13,48.4,13.4"/>
			<path class="st1" d="M53.1,13.6c0,0.6-0.5,1-1,1c0,0,0,0,0,0c-0.3,0-0.5-0.1-0.7-0.3c-0.2-0.2-0.3-0.5-0.3-0.7c0-0.6,0.5-1,1-1
				c0.3,0,0.5,0.1,0.7,0.3C53,13.1,53.1,13.4,53.1,13.6 M52.9,24.5c0,0.2-0.1,0.4-0.3,0.5c0,0-0.1,0-0.1,0h-0.8
				c-0.2,0-0.4-0.1-0.5-0.3c0,0,0-0.1,0-0.1v-8.1c0-0.1,0-0.1,0.1-0.1l1.3,0c0.1,0,0.2,0.1,0.2,0.2V24.5z"/>
			<path class="st1" d="M63.9,16.5L63.5,17c0,0-0.1,0.1-0.2,0.1h-0.8c0.4,0.4,0.7,1,0.7,1.5c0,0.5-0.1,1-0.4,1.4
				c-0.7,0.8-1.7,1.3-2.8,1.2c-0.6,0-1.1,0-1.6-0.1c-0.4,0.3-0.6,0.5-0.6,0.7c0,0.3,0.7,0.5,1.9,0.5c0.9-0.1,1.8,0.1,2.7,0.4
				c0.8,0.4,1.3,1.3,1.2,2.3c0.1,0.9-0.3,1.8-1.1,2.3C61.9,27.8,61,28,60.1,28c-2.7,0.1-4-0.7-4-2.5c0-0.9,0.6-1.5,1.9-1.9
				c-0.8-0.2-1.2-0.7-1.2-1.3c0-0.5,0.3-1,1.1-1.5c-0.9-0.3-1.4-1.2-1.3-2.1c0-0.8,0.4-1.6,1-2c0.7-0.4,1.5-0.7,2.3-0.6h0
				c0.5,0,1,0.1,1.5,0.2L63.9,16.5C63.9,16.4,63.9,16.4,63.9,16.5 M62.8,25c0-0.5-0.4-0.9-1.1-1c-0.6-0.1-1.1-0.1-1.7-0.1
				c-0.6,0-1.3-0.1-1.9-0.2l0.1,0.1c-0.5,0.3-0.8,0.8-0.8,1.4c0.1,0.9,1,1.3,2.8,1.2C61.9,26.3,62.8,25.9,62.8,25 M61.6,18.7
				c0-1-0.8-1.7-1.7-1.7c-0.5,0-0.9,0.2-1.3,0.5c-0.3,0.4-0.5,0.8-0.5,1.3c0,0.5,0.2,0.9,0.5,1.2c0.4,0.3,0.8,0.5,1.3,0.5
				c0.5,0,0.9-0.2,1.3-0.5C61.5,19.7,61.6,19.2,61.6,18.7"/>
			<path class="st1" d="M74,24.4c0,0.2-0.1,0.4-0.3,0.4c0,0-0.1,0-0.1,0l-0.8,0c-0.2,0-0.4-0.1-0.5-0.4c0,0,0-0.1,0-0.1v-5.3
				c0-0.5,0-0.9-0.2-1.4c-0.2-0.4-0.7-0.7-1.2-0.6c-0.8,0.1-1.5,0.4-2.2,0.9v6.4c0,0.2-0.1,0.4-0.3,0.5c0,0-0.1,0-0.1,0h-0.8
				c-0.2,0-0.4-0.1-0.5-0.3c0,0,0-0.1,0-0.1V12.8c0-0.1,0-0.1,0.1-0.1c0,0,0,0,0,0l1.3,0.1c0.1,0,0.2,0.1,0.2,0.2c0,0,0,0,0,0v4.3
				c0.9-0.7,1.9-1.1,3-1.2c0.7-0.1,1.4,0.2,1.8,0.8c0.3,0.7,0.4,1.5,0.4,2.3L74,24.4z"/>
			<path class="st1" d="M83.6,22.9c-0.4,1.5-1.2,2.3-2.4,2.4c-1.7,0.1-2.5-0.8-2.5-2.7v-5.4h-1.4c-0.1,0-0.1,0-0.1-0.1l-0.4-0.6
				c0,0,0,0,0,0c0,0,0,0,0.1,0l1.9,0v-2.8c0-0.1,0-0.1,0.1-0.1c0,0,0,0,0,0l1.3,0c0.1,0,0.2,0.1,0.2,0.2c0,0,0,0,0,0v2.6h0.5
				c0.2,0,0.4,0,0.5-0.1c0.3-0.2,0.7-0.3,1-0.4c0.4,0,0.7,0.2,0.7,0.6c0,0.3-0.2,0.5-0.6,0.6c-0.4,0.1-0.8,0.1-1.2,0.1
				c-1.1,0-1.4,0-0.9,0v5.6c0,0.8,0.3,1.3,0.9,1.3c0.8,0,1.6-0.5,1.9-1.2c0-0.1,0.1-0.1,0.2-0.1c0,0,0,0,0,0
				C83.5,22.7,83.6,22.8,83.6,22.9C83.6,22.9,83.6,22.9,83.6,22.9"/>
			<path class="st1" d="M102.6,13.3c0,0.4-0.2,0.6-0.7,0.6c-0.3,0-1.3,0-3,0v10.5c0,0.2-0.1,0.4-0.3,0.5c0,0-0.1,0-0.1,0h-0.8
				c-0.2,0-0.4-0.1-0.5-0.3c0,0,0-0.1,0-0.1V14h-3c-0.1,0-0.1,0-0.1-0.1l-0.4-0.5c0-0.1,0-0.1,0-0.1h6.7c0.2,0,0.4,0,0.5-0.1
				c0.3-0.2,0.7-0.3,1-0.4C102.4,12.8,102.6,13,102.6,13.3"/>
			<path class="st1" d="M107.3,13.6c0,0.6-0.5,1-1,1c0,0,0,0,0,0c-0.3,0-0.5-0.1-0.7-0.3c-0.2-0.2-0.3-0.5-0.3-0.7c0-0.6,0.5-1,1-1
				c0.3,0,0.5,0.1,0.7,0.3C107.2,13.1,107.3,13.4,107.3,13.6 M107.1,24.5c0,0.2-0.1,0.4-0.3,0.5c0,0-0.1,0-0.1,0h-0.8
				c-0.2,0-0.4-0.1-0.5-0.3c0,0,0-0.1,0-0.1v-8.1c0-0.1,0-0.1,0.1-0.1l1.3,0c0.1,0,0.2,0.1,0.2,0.2V24.5z"/>
			<path class="st1" d="M121.7,18.6l0,5.8c0,0.2-0.1,0.4-0.3,0.5c0,0-0.1,0-0.1,0h-0.8c-0.2,0-0.4-0.1-0.5-0.3c0,0,0-0.1,0-0.1v-5.7
				c0-1-0.4-1.4-1.3-1.4c-0.8,0.1-1.4,0.7-1.8,1.4l0,5.7c0,0.2-0.1,0.4-0.3,0.5c0,0-0.1,0-0.1,0h-0.8c-0.2,0-0.4-0.1-0.5-0.3
				c0,0,0-0.1,0-0.1v-5.7c0-1-0.4-1.4-1.3-1.4c-0.8,0.1-1.4,0.6-1.8,1.3v5.8c0,0.2-0.1,0.4-0.3,0.5c0,0-0.1,0-0.1,0H111
				c-0.2,0-0.4-0.1-0.5-0.3c0,0,0-0.1,0-0.1v-8c0-0.1,0-0.1,0.1-0.1l1.3,0c0.1,0,0.2,0.1,0.2,0.2v1.1c0.5-0.8,1.3-1.3,2.3-1.4
				c1.1-0.2,2.1,0.5,2.4,1.5c0.5-0.9,1.4-1.4,2.4-1.5C120.9,16.2,121.7,17,121.7,18.6"/>
			<path class="st1" d="M133.1,22.6c-0.6,1.5-2.1,2.5-3.7,2.5c-0.2,0-0.3,0-0.5,0c-1.1,0.1-2.2-0.3-3-1.1c-0.8-0.8-1.2-1.9-1.2-3.1
				c-0.1-1.2,0.2-2.5,0.9-3.5c0.8-0.9,2-1.4,3.3-1.3c1.1-0.1,2.2,0.3,3,1.1c0.7,0.8,1.1,1.9,1,3h-6.5c0,0.2,0,0.4,0,0.6
				c0,0.8,0.3,1.5,0.8,2.1c0.5,0.6,1.2,0.9,2,0.9c1.4,0,2.6-0.6,3.5-1.6c0.1-0.1,0.2-0.1,0.3-0.1c0,0,0,0,0,0
				C133.1,22.4,133.2,22.5,133.1,22.6C133.1,22.6,133.1,22.6,133.1,22.6 M131.3,19.6c0-1.7-0.8-2.5-2.3-2.6c-0.7,0-1.3,0.2-1.7,0.8
				c-0.4,0.5-0.6,1.1-0.6,1.8L131.3,19.6z"/>
			<path class="st2" d="M133.9,0c16,11.8,19.5,34.4,7.7,50.4c-6.8,9.3-17.6,14.7-29.1,14.7c-6.2,0-12.4-1.6-17.8-4.7
				c13.6,15.7,37.2,17.4,52.9,3.8s17.4-37.2,3.8-52.9C146.7,6,140.7,2.1,133.9,0"/>
			<path class="st1" d="M5.2,49.1c0,0.4-0.2,0.6-0.6,0.6H3.5c-0.4,0-0.6-0.2-0.6-0.6V35c0-0.1,0-0.1-0.1-0.2c0,0-0.1,0-0.2,0
				c-0.4,0.3-0.9,0.6-1.5,1.1C1,36,1,36,0.9,36l-0.8-0.4c-0.1,0-0.1-0.1,0-0.1l2.8-2c0.2-0.1,0.4-0.2,0.5-0.2h1.4
				c0.2,0,0.3,0.1,0.3,0.2c0,0,0,0.1,0,0.1V49.1z"/>
			<path class="st1" d="M18.6,33.9l-4.6,15.3c-0.1,0.4-0.4,0.6-0.8,0.6l-1,0c-0.3,0-0.4-0.2-0.4-0.5c0-0.1,0-0.1,0-0.2l4-13.3
				c0.1-0.2,0-0.3-0.2-0.3h-5.2c-0.2,0-0.3,0.1-0.4,0.3l-0.4,2.4c0,0.2-0.2,0.3-0.4,0.3H8.7c-0.1,0-0.2-0.1-0.1-0.2L9.2,34
				c0-0.4,0.3-0.6,0.6-0.6c0,0,0,0,0.1,0h8.3c0.3,0,0.4,0.1,0.4,0.4C18.7,33.8,18.6,33.9,18.6,33.9"/>
			<path class="st1" d="M26.8,35.9c0,0.4-0.1,0.7-0.4,0.9c-0.2,0.3-0.6,0.4-0.9,0.4c-0.3,0-0.7-0.1-0.9-0.4
				c-0.2-0.3-0.4-0.6-0.4-0.9c0-0.3,0.1-0.7,0.4-0.9c0.2-0.2,0.5-0.4,0.9-0.4c0.3,0,0.7,0.1,0.9,0.4C26.7,35.2,26.8,35.6,26.8,35.9
				 M26.8,46.4c0,0.3-0.1,0.7-0.4,0.9c-0.2,0.2-0.6,0.4-0.9,0.4c-0.3,0-0.7-0.1-0.9-0.4c-0.2-0.2-0.4-0.6-0.4-0.9
				c0-0.3,0.1-0.7,0.4-0.9c0.2-0.3,0.5-0.4,0.9-0.4c0.3,0,0.7,0.1,0.9,0.4C26.7,45.7,26.8,46.1,26.8,46.4"/>
			<path class="st1" d="M54.9,41.5c0,5.6-1.7,8.4-5,8.4c-1.4,0.1-2.7-0.5-3.6-1.6c-1-1.3-1.6-3.6-1.6-6.9c-0.1-1.9,0.2-3.9,0.9-5.7
				c0.7-1.8,2.5-2.9,4.4-2.8C53.2,33,54.9,35.8,54.9,41.5 M52.7,41.5c0-1.5,0-3-0.3-4.5c-0.4-1.9-1.3-2.9-2.6-2.9
				c-1.5,0-2.4,0.9-2.8,2.8c-0.2,1.5-0.3,3.1-0.2,4.6c-0.1,1.7,0.1,3.4,0.5,5.1c0.5,1.6,1.3,2.4,2.6,2.3c1.3,0,2.2-1,2.6-3
				C52.7,44.5,52.8,43,52.7,41.5"/>
			<path class="st1" d="M41.3,41.5c0,5.6-1.7,8.4-5,8.4c-1.4,0.1-2.7-0.5-3.6-1.6c-1-1.3-1.6-3.6-1.6-6.9c-0.1-1.9,0.2-3.9,0.9-5.7
				c0.7-1.8,2.5-2.9,4.4-2.8C39.7,33,41.3,35.8,41.3,41.5 M39.2,41.5c0-1.5,0-3-0.3-4.5c-0.4-1.9-1.3-2.9-2.6-2.9
				c-1.5,0-2.4,0.9-2.8,2.8c-0.2,1.5-0.3,3.1-0.2,4.6c-0.1,1.7,0.1,3.4,0.5,5.1c0.5,1.6,1.3,2.4,2.6,2.3c1.3,0,2.2-1,2.6-3
				C39.1,44.5,39.2,43,39.2,41.5"/>
			<path class="st1" d="M74.7,39.7c-0.2,0.9-0.7,1.7-1.2,2.4c-0.7,0.9-1.7,1.4-2.8,1.4c-0.9,0.1-1.7-0.1-2.4-0.5
				c-0.5-0.3-1-0.7-1.4-1.1c-0.4-0.4-0.9-0.8-1.4-1.1c-0.3-0.2-0.7-0.4-1.2-0.4c-1.6,0-3.1,0.9-3.9,2.4c-0.1,0.2-0.2,0.2-0.4,0.1
				c-0.1-0.1-0.2-0.3-0.1-0.4c1-2.6,2.5-3.9,4.5-4c1.3,0.1,2.6,0.6,3.5,1.6c0.4,0.3,0.7,0.7,1.2,0.9c0.4,0.2,0.9,0.3,1.4,0.3
				c0.6,0,1.2-0.1,1.8-0.3c0.7-0.3,1.3-0.9,1.8-1.5c0.1-0.1,0.2-0.2,0.3-0.1c0,0,0,0,0,0C74.6,39.3,74.7,39.5,74.7,39.7"/>
			<path class="st1" d="M89.1,37.8c0,1.3-0.8,2.9-2.3,4.6l-4.3,4.9h5.8c0.1,0,0.2,0.1,0.2,0.2l-0.3,1.9c0,0.2-0.2,0.3-0.3,0.3
				c0,0,0,0,0,0h-7.7c-0.1,0-0.2-0.1-0.2-0.2v-0.8c0-0.1,0-0.2,0.1-0.3c2.6-3.3,4.4-5.7,5.3-7.1c0.7-1,1.1-2.1,1.2-3.3
				c0.1-2-0.6-3-2.3-3c-1.5,0-2.9,1-3.5,2.4c-0.1,0.2-0.3,0.3-0.5,0.2c-0.2,0-0.3-0.2-0.3-0.4c0,0,0,0,0-0.1
				c0.2-1.1,0.8-2.1,1.6-2.9c0.8-0.7,1.9-1.1,3-1.1c1.2-0.1,2.5,0.3,3.3,1.2C88.8,35.2,89.2,36.5,89.1,37.8"/>
			<path class="st1" d="M96.1,49.1c0,0.4-0.2,0.6-0.6,0.6h-1.1c-0.4,0-0.6-0.2-0.6-0.6V35c0-0.1,0-0.1-0.1-0.2c0,0-0.1,0-0.2,0
				c-0.4,0.3-0.9,0.6-1.5,1.1c-0.1,0-0.1,0.1-0.2,0L91,35.6c-0.1,0-0.1-0.1,0-0.1l2.8-2c0.2-0.1,0.4-0.2,0.6-0.2h1.4
				c0.2,0,0.3,0.1,0.3,0.2c0,0,0,0.1,0,0.1V49.1z"/>
			<path class="st1" d="M104.6,35.9c0,0.4-0.1,0.7-0.4,0.9c-0.2,0.3-0.6,0.4-0.9,0.4c-0.3,0-0.7-0.1-0.9-0.4
				c-0.2-0.3-0.4-0.6-0.4-0.9c0-0.3,0.1-0.7,0.4-0.9c0.2-0.2,0.5-0.4,0.9-0.4c0.3,0,0.7,0.1,0.9,0.4
				C104.4,35.2,104.6,35.6,104.6,35.9 M104.6,46.4c0,0.3-0.1,0.7-0.4,0.9c-0.2,0.2-0.6,0.4-0.9,0.4c-0.3,0-0.7-0.1-0.9-0.4
				c-0.2-0.2-0.4-0.6-0.4-0.9c0-0.3,0.1-0.7,0.4-0.9c0.2-0.3,0.5-0.4,0.9-0.4c0.3,0,0.7,0.1,0.9,0.4
				C104.4,45.7,104.6,46.1,104.6,46.4"/>
			<path class="st1" d="M120.6,41.5c0,5.6-1.7,8.4-5,8.4c-1.4,0.1-2.7-0.5-3.6-1.6c-1-1.3-1.6-3.6-1.6-6.9c-0.1-1.9,0.2-3.9,0.9-5.7
				c0.7-1.8,2.5-2.9,4.4-2.8C119,33,120.6,35.8,120.6,41.5 M118.5,41.5c0-1.5,0-3-0.3-4.5c-0.4-1.9-1.3-2.9-2.6-2.9
				c-1.5,0-2.4,0.9-2.8,2.8c-0.2,1.5-0.3,3.1-0.2,4.6c-0.1,1.7,0.1,3.4,0.5,5.1c0.5,1.6,1.3,2.4,2.6,2.3c1.3,0,2.2-1,2.6-3
				C118.4,44.5,118.5,43,118.5,41.5"/>
			<path class="st1" d="M134.2,41.5c0,5.6-1.7,8.4-5,8.4c-1.4,0.1-2.7-0.5-3.6-1.6c-1-1.3-1.6-3.6-1.6-6.9c-0.1-1.9,0.2-3.9,0.9-5.7
				c0.7-1.8,2.5-2.9,4.4-2.8C132.5,33,134.2,35.8,134.2,41.5 M132.1,41.5c0-1.5,0-3-0.3-4.5c-0.4-1.9-1.3-2.9-2.6-2.9
				c-1.5,0-2.4,0.9-2.8,2.8c-0.2,1.5-0.3,3.1-0.2,4.6c-0.1,1.7,0.1,3.4,0.5,5.1c0.5,1.6,1.3,2.4,2.6,2.3c1.3,0,2.2-1,2.6-3
				C132,44.5,132.1,43,132.1,41.5"/>
		</g>
	</g>
</g>
</svg>
