<svg xmlns="http://www.w3.org/2000/svg" width="159.413" height="157.42" viewBox="0 0 159.413 157.42"><g transform="translate(-586 -4752.345)"><path d="M3.026,30.686c.527.753,21.263,33.267,21.263,33.267S.828,33.347.3,32.594a1.663,1.663,0,0,1,2.725-1.908" transform="translate(586 4752.345)" fill="#251e1c"/><path d="M121.228,1.518c-.08.915-1.781,39.442-1.781,39.442s5.015-38.237,5.1-39.152a1.663,1.663,0,0,0-3.314-.29" transform="translate(586 4752.345)" fill="#251e1c"/><path d="M27.964,34.342q.747,2.789-3.393,4.678c-.128.066-.225.05-.293-.045a.2.2,0,0,1,.061-.3,7.052,7.052,0,0,0,1.812-1.815,2.6,2.6,0,0,0,.244-2.068,2.169,2.169,0,0,0-.965-1.383,2.5,2.5,0,0,0-2.029-.16,3.078,3.078,0,0,0-.429.147q.593,2.217.662,2.589a2.319,2.319,0,0,1-.147,1.495,2.164,2.164,0,0,1-1.575,1.189,1.535,1.535,0,0,1-1.231-.219,2.523,2.523,0,0,1-.966-1.445,2.958,2.958,0,0,1,.144-2,4.035,4.035,0,0,1,1.493-1.752q.062.234-.583-2.176l-1.415.379a.2.2,0,0,1-.162-.019l-.5-.413c-.039-.031-.029-.054.029-.07l1.882-.5q-.155-.521-.62-2.195a.327.327,0,0,1,.1-.152l1.2-.245a.2.2,0,0,1,.278.161c.1.4.269,1.08.514,2.035l.687-.184a1.1,1.1,0,0,0,.454-.23,4.491,4.491,0,0,1,.839-.6c.41-.111.661.01.754.359s-.08.6-.523.737q-.189.049-2.043.547c.252.976.418,1.6.5,1.867.1-.035.189-.07.284-.108A4.6,4.6,0,0,1,26.5,32.42a2.837,2.837,0,0,1,1.469,1.922m-6.344-.209A2.528,2.528,0,0,0,20.6,36.8a.887.887,0,0,0,.414.609.774.774,0,0,0,.561.053q.825-.249.588-1.252-.186-.809-.541-2.076M28.451,29.5a.774.774,0,0,1-.62,1.074.657.657,0,0,1-.724-.306,1.713,1.713,0,0,0-1.594-.7c-.093,0-.1-.035-.032-.117a2.6,2.6,0,0,1,1.207-.806,1.494,1.494,0,0,1,1.207.128,1.184,1.184,0,0,1,.556.727" transform="translate(586 4752.345)" fill="#251e1c"/><path d="M37.163,28.859a.2.2,0,0,1,.023.26,26.861,26.861,0,0,0-1.368,2.773.935.935,0,0,0-.081.571.781.781,0,0,0,.191.277.827.827,0,0,1,.211.349.531.531,0,0,1-.377.7,1.224,1.224,0,0,1-1.5-.467,9.068,9.068,0,0,1-1.335-3.23c-.172-.643-.319-1.27-.442-1.885-.016-.1.015-.155.1-.166l1.222-.282c.159-.031.245.018.259.151a20.755,20.755,0,0,0,.409,2.049A4.9,4.9,0,0,0,34.9,31.1c.078.137.171.19.277.16a.407.407,0,0,0,.218-.183q.489-.741,1.547-2.164c.086-.11.158-.129.218-.059m4.9,0a2.286,2.286,0,0,1,.068.953.833.833,0,0,1-.545.709A.748.748,0,0,1,40.9,30.5a.683.683,0,0,1-.328-.553,6.328,6.328,0,0,0-.165-.91,3,3,0,0,0-.678-1.3,4.167,4.167,0,0,0-1.039-.725c-.131-.058-.159-.129-.088-.211a.471.471,0,0,1,.259-.084,3.45,3.45,0,0,1,1.932.5,2.574,2.574,0,0,1,1.27,1.646" transform="translate(586 4752.345)" fill="#251e1c"/><path d="M55.784,26.074c.089.059.109.158.063.3a13,13,0,0,1-1.136,2.76,3.906,3.906,0,0,1-2.3,1.742q-2.61.714-3.52-2.389-.211-.741-.389-1.631-.283-1.347-.343-1.629-.406-1.752-.971-3.447a.191.191,0,0,1,.01-.144.184.184,0,0,1,.119-.079l1.063-.238q.219-.058.3.2.1.332.8,3.1.021.138.448,1.963c.185.773.343,1.377.47,1.814a1.608,1.608,0,0,0,.7.969,1.11,1.11,0,0,0,.867.143,4.333,4.333,0,0,0,2.109-1.237,11.677,11.677,0,0,0,1.456-2.095c.071-.123.156-.157.255-.1" transform="translate(586 4752.345)" fill="#251e1c"/><path d="M64.661,21.49a.2.2,0,0,1,.023.26,27.064,27.064,0,0,0-1.368,2.773.936.936,0,0,0-.082.571.774.774,0,0,0,.191.277.828.828,0,0,1,.211.349.53.53,0,0,1-.376.7,1.223,1.223,0,0,1-1.5-.465,9.082,9.082,0,0,1-1.335-3.232c-.172-.641-.319-1.27-.442-1.883-.016-.1.015-.157.1-.166l1.222-.282c.158-.031.244.018.259.151a20.8,20.8,0,0,0,.408,2.049,4.932,4.932,0,0,0,.434,1.15c.078.135.171.188.277.16a.407.407,0,0,0,.218-.183q.488-.743,1.547-2.166c.086-.108.158-.127.218-.059m4.9,0a2.286,2.286,0,0,1,.068.953.834.834,0,0,1-.545.711.754.754,0,0,1-.686-.021.685.685,0,0,1-.328-.553,6.328,6.328,0,0,0-.165-.91,3.013,3.013,0,0,0-.678-1.305,4.134,4.134,0,0,0-1.039-.723c-.131-.058-.16-.129-.088-.211a.462.462,0,0,1,.259-.086,3.461,3.461,0,0,1,1.932.5,2.573,2.573,0,0,1,1.27,1.645" transform="translate(586 4752.345)" fill="#251e1c"/><path d="M82.961,19.6q.746,2.79-3.393,4.679a.206.206,0,0,1-.294-.046.2.2,0,0,1,.061-.3,7.022,7.022,0,0,0,1.812-1.815,2.587,2.587,0,0,0,.244-2.065,2.174,2.174,0,0,0-.965-1.385,2.493,2.493,0,0,0-2.029-.16,3.363,3.363,0,0,0-.429.147q.592,2.217.662,2.588a2.316,2.316,0,0,1-.147,1.5,2.16,2.16,0,0,1-1.574,1.189,1.526,1.526,0,0,1-1.232-.219,2.521,2.521,0,0,1-.965-1.445,2.951,2.951,0,0,1,.143-2,4.042,4.042,0,0,1,1.493-1.752q.063.234-.582-2.176l-1.416.379a.207.207,0,0,1-.162-.019l-.5-.412c-.04-.032-.03-.056.029-.071l1.882-.5q-.156-.521-.62-2.2a.316.316,0,0,1,.1-.152l1.2-.244a.2.2,0,0,1,.277.16q.146.6.514,2.034l.687-.183a1.1,1.1,0,0,0,.454-.231,4.46,4.46,0,0,1,.839-.6q.615-.165.754.36c.1.351-.08.6-.523.735q-.187.051-2.043.547c.252.977.419,1.6.5,1.868.1-.036.189-.07.284-.107a4.587,4.587,0,0,1,3.467-.022,2.837,2.837,0,0,1,1.47,1.921M76.616,19.4a2.53,2.53,0,0,0-1.022,2.667.885.885,0,0,0,.415.609.776.776,0,0,0,.56.053q.825-.249.588-1.252-.186-.808-.541-2.077m6.831-4.628a.773.773,0,0,1-.62,1.072.656.656,0,0,1-.724-.306,1.712,1.712,0,0,0-1.594-.7c-.093.005-.1-.034-.032-.116a2.626,2.626,0,0,1,1.207-.806,1.509,1.509,0,0,1,1.208.127,1.192,1.192,0,0,1,.555.73" transform="translate(586 4752.345)" fill="#251e1c"/><path d="M87.184,11.607c.183.6-.006.971-.561,1.119-.32.086-.547-.057-.677-.428a1.49,1.49,0,0,0-1.142-.992c-.1-.025-.1-.062,0-.109a4.014,4.014,0,0,1,.71-.27,1.734,1.734,0,0,1,1,0,.959.959,0,0,1,.668.682m.325,2.32c.184.61-.007.988-.571,1.139-.321.086-.548-.061-.681-.444a1.472,1.472,0,0,0-1.128-.994c-.1-.015-.1-.048.006-.1a4.094,4.094,0,0,1,.695-.266q1.371-.366,1.679.66m1.567,0q-.442,2.622-.819,5.178c-.015.107.089.277.308.512.159.166.317.326.473.482a2.3,2.3,0,0,1,.165.441,1.991,1.991,0,0,1,.008,1.077.883.883,0,0,1-.718.709.6.6,0,0,1-.749-.518,1.265,1.265,0,0,1-.033-.414,3.144,3.144,0,0,0-.072-1.027A1.819,1.819,0,0,0,87,19.415q-.491-.4-.478-.357a.174.174,0,0,1,0-.07c0-.028.031-.041.082-.045a3.133,3.133,0,0,1,.463.033.211.211,0,0,0,.258-.148q.783-2.385,1.415-4.932a.161.161,0,0,1,.2-.145c.114,0,.162.061.144.18m8.481-6.808c.1.369-.056.609-.464.718l-2.116.567.711,2.656,1.958-.524a.386.386,0,0,1,.535.309l2.136,7.969a.382.382,0,0,1-.315.523l-.627.168a.388.388,0,0,1-.537-.31l-.117-.438-5.035,1.35.117.437a.387.387,0,0,1-.31.537l-.641.172a.388.388,0,0,1-.537-.31l-2.132-7.955a.388.388,0,0,1,.309-.536l1.665-.445-.706-2.642-2.1.562a.147.147,0,0,1-.151-.037l-.513-.4a.106.106,0,0,1-.026-.041c0-.019.011-.033.05-.044l6.8-1.823a1.227,1.227,0,0,0,.458-.217,4.831,4.831,0,0,1,.841-.6q.612-.165.749.348M92.49,12.609l-.555.148a.188.188,0,0,0-.15.26l.759,2.832a3.158,3.158,0,0,0,.27-1.621,9.677,9.677,0,0,0-.324-1.619m6.063,5.523-.918-3.367a1.065,1.065,0,0,1-.591.424,7.714,7.714,0,0,1-1.343.359c-.337.061-.558-.1-.66-.478l-.8-2.93-.35.094a5.7,5.7,0,0,1,.18,2.422,3.38,3.38,0,0,1-1.316,1.98l.763,2.846Zm-4.338-6.674-.708-2.64-.569.152.708,2.641ZM97.734,16.3q.122.451-.759.844a9.649,9.649,0,0,1-1.8.527,9.586,9.586,0,0,1-1.318.278.181.181,0,0,1-.151-.038l-.5-.4a.209.209,0,0,1-.026-.041c0-.02.007-.033.036-.041l2.467-.662a1.171,1.171,0,0,0,.458-.217,4.829,4.829,0,0,1,.85-.617q.6-.147.74.365m-.388-2.619-.54-2.014a.188.188,0,0,0-.259-.15l-.949.256.507,1.834c.017.142.071.207.161.191l.117-.031c.036-.02.067-.1.092-.242l.176-.862c.024-.1.08-.146.166-.138.066.013.1.072.109.174l.063.7c.009.154.052.236.129.248Z" transform="translate(586 4752.345)" fill="#251e1c"/><path d="M109.378,6.394a.659.659,0,0,1-.086.526.746.746,0,0,1-.464.342c-.085.033-.376.117-.872.25a.708.708,0,0,0-.359.236q-2.186,2.637-1.713,4.463a1.734,1.734,0,0,0,.771,1.185,3.418,3.418,0,0,0,1.489.182c.267-.01.4.131.394.426l-.049,1.217a.4.4,0,0,1-.334.386,2.29,2.29,0,0,1-2.024-.488,3.227,3.227,0,0,1-1.28-1.8q-.574-2.143,1.209-5.3l-4.919,1.319a.163.163,0,0,1-.165-.033l-.581-.534c-.042-.041-.035-.068.024-.084l6.7-1.8a1.264,1.264,0,0,0,.5-.244c.171-.14.335-.277.492-.414a1.173,1.173,0,0,1,.439-.258q.677-.163.832.418m.312,3.092a.807.807,0,0,1,.11.236.509.509,0,0,1-.344.7.469.469,0,0,1-.574-.221,1.122,1.122,0,0,0-1.071-.434c-.064,0-.072-.031-.024-.088a1.748,1.748,0,0,1,.831-.519.858.858,0,0,1,1.072.322m1.065-1.16a.781.781,0,0,1,.11.236.524.524,0,0,1-.339.717.51.51,0,0,1-.58-.236,1.119,1.119,0,0,0-1.07-.434c-.06.008-.068-.021-.023-.088a1.809,1.809,0,0,1,.835-.5.854.854,0,0,1,1.067.309" transform="translate(586 4752.345)" fill="#251e1c"/><path d="M43.929,42.322q.141.525-.464.719-.332.1-6.359,1.718a8.4,8.4,0,0,1-1.768,3.385.193.193,0,0,1-.252.053.167.167,0,0,1-.092-.227,13.32,13.32,0,0,0,.392-5.658.125.125,0,0,1,.118-.142l1.658-.178c.161-.022.241.041.238.187a16.567,16.567,0,0,1-.145,1.854L41.9,42.789a1.216,1.216,0,0,0,.453-.233,4,4,0,0,1,.841-.6q.6-.159.738.365M41.966,52.859a.89.89,0,0,1-.2.82.975.975,0,0,1-.33.231.906.906,0,0,1-.857-.225q-.354-.327-.723-.652a7.716,7.716,0,0,1-3.286,2.853.14.14,0,0,1-.2-.056.168.168,0,0,1,.05-.217,7.7,7.7,0,0,0,2.358-3.4,12.493,12.493,0,0,0-1.9-1.024c-.1-.047-.115-.119-.058-.219.035-.062.117-.087.244-.08a13.1,13.1,0,0,1,1.91.239,10.144,10.144,0,0,0,.065-1.629q0-.123.15-.135l1.228-.031c.143-.008.215.068.216.224a11.97,11.97,0,0,1-.237,2.034q1.437.632,1.575,1.267m6.152-1.445q.136.747-.866,1.092a13.074,13.074,0,0,1-2.1.564.717.717,0,0,1-.922-.582l-1.3-4.846c-.036-.136-.128-.183-.273-.144L37.4,48.9a.317.317,0,0,1-.294-.047l-.5-.4c-.052-.039-.048-.067.009-.08l7.123-1.911a.389.389,0,0,1,.537.309l1.137,4.248c.047.176.15.246.308.215a3.647,3.647,0,0,0,.467-.125.477.477,0,0,0,.236-.346L47,48.6a.134.134,0,0,1,.141-.115.115.115,0,0,1,.116.141l-.13,1.912c-.012.222.072.324.255.306a.618.618,0,0,1,.732.571m-4.687-6.926c.1.381-.052.625-.461.736l-5.224,1.4a.187.187,0,0,1-.166-.035l-.5-.4c-.039-.029-.029-.053.029-.068l4.276-1.147a1.2,1.2,0,0,0,.454-.23,3.932,3.932,0,0,1,.84-.6q.614-.167.75.344" transform="translate(586 4752.345)" fill="#251e1c"/><path d="M52.416,39.721a9.875,9.875,0,0,1-1.628,2.8A5.567,5.567,0,0,1,48.5,44.6a.176.176,0,0,1-.155-.053.144.144,0,0,1-.011-.217,13.332,13.332,0,0,0,2.221-5.021.119.119,0,0,1,.159-.106l1.54.26c.152.021.206.1.162.254m5.485,3.6q.556,2.31.559,2.323a6.764,6.764,0,0,1,.139,2.324,2.009,2.009,0,0,1-1.2,1.666.519.519,0,0,1-.778-.275.441.441,0,0,0-.587-.266l-1.259.32a.152.152,0,0,1-.184-.1.131.131,0,0,1,.077-.178l1.789-.853c.424-.209.627-.461.61-.76a22.843,22.843,0,0,0-.613-3.34.291.291,0,0,0-.14-.2.341.341,0,0,0-.245-.012l-1.864.516a11.627,11.627,0,0,1,.237,2.814,4.723,4.723,0,0,1-1.518,2.973,13.536,13.536,0,0,1-2.784,1.982.207.207,0,0,1-.251-.058.161.161,0,0,1,.029-.243A7.777,7.777,0,0,0,52.687,48.2a8.243,8.243,0,0,0-.1-3.289l-1.763.488a.183.183,0,0,1-.165-.035l-.5-.4a.123.123,0,0,1-.026-.039.062.062,0,0,1,.051-.045l7.078-1.9c.349-.093.562.016.636.33m1.686-3.689a4.1,4.1,0,0,0-.594,1.113c-.015.057-.063.287-.141.7-.025.14-.111.191-.258.146a9.135,9.135,0,0,1-2.634-1.25,11.4,11.4,0,0,1-1.519-1.406.241.241,0,0,1-.028-.338.221.221,0,0,1,.307-.082,13.185,13.185,0,0,0,4.765.976c.067.014.1.036.112.065a.1.1,0,0,1-.01.08" transform="translate(586 4752.345)" fill="#251e1c"/><path d="M74.842,44.254c.1.369-.056.609-.464.719q-1.644.456-9.847,2.654a.147.147,0,0,1-.151-.037l-.5-.4q-.078-.057.009-.081l4.467-1.195L65.59,35.58a.119.119,0,0,1,.1-.166L66.9,35.15a.212.212,0,0,1,.278.163l1.048,3.91,2.539-.68a1.22,1.22,0,0,0,.458-.217,4.287,4.287,0,0,1,.841-.6c.408-.11.658,0,.75.345.1.379-.053.625-.46.735L68.4,39.865l1.51,5.633,2.887-.773a1.237,1.237,0,0,0,.46-.217,4.532,4.532,0,0,1,.854-.6c.4-.107.644.01.735.35" transform="translate(586 4752.345)" fill="#251e1c"/><path d="M84.533,33.305a11.588,11.588,0,0,1-1.687,6.082A2.533,2.533,0,0,1,84.2,40.871q.255.95-.519,1.157a.581.581,0,0,1-.723-.307,5.338,5.338,0,0,0-1.388-1.678,13.728,13.728,0,0,0-1.874-1.156.1.1,0,0,1-.055-.141.152.152,0,0,1,.131-.1,5.971,5.971,0,0,1,2.276.375,14.36,14.36,0,0,0,.752-4.489l-3.284.881a13.717,13.717,0,0,1-1.56,3.75.191.191,0,0,1-.274.088.188.188,0,0,1-.128-.246,16.547,16.547,0,0,0,.5-6.656.109.109,0,0,1,.1-.139l1.394-.17c.151-.019.23.047.241.2a11.729,11.729,0,0,1-.138,2.463l3.152-.845c-.006-.1-.011-.258-.015-.465a.123.123,0,0,1,.119-.141l1.4-.142a.176.176,0,0,1,.223.191" transform="translate(586 4752.345)" fill="#251e1c"/><path d="M96.634,25.164h.388a4.516,4.516,0,0,0,1.795,3.4,4.946,4.946,0,0,1,2,3.479,7.345,7.345,0,0,1-1.3,3.773h-.4a8.081,8.081,0,0,0,.973-3.248A3.617,3.617,0,0,0,97.255,29l0,7.764a2.693,2.693,0,0,1-2.829,2.629c-.712,0-1.439-.387-1.439-1.145,0-1.1,1.407-2.135,2.675-2.135a2.252,2.252,0,0,1,.974.2Z" transform="translate(586 4752.345)" fill="#251e1c"/><path d="M40.811,106.354c2.221-9.16,12.041-16.3,12.041-16.3S69.663,78.4,74.189,73.112s8.964-13.721,8.964-13.721l5.724,4.329s9.15,4.631,15.345,4.285,18.791.771,18.791.771,15.345,4.285,21.572,12.186,9.984,11.87,10.711,22.971-6.619,27.348-21.219,36.042-48.653,17.48-69.6,12.272S36.3,124.95,40.811,106.354" transform="translate(586 4752.345)" fill="#fff"/><circle cx="6.5" cy="6.5" r="6.5" transform="translate(726 4858)" fill="#ffdde5"/><circle cx="6.5" cy="6.5" r="6.5" transform="translate(638 4890)" fill="#ffdde5"/><path d="M158.2,107.081c-.354,14.6-9.388,34.317-50.425,45.312s-58.719-1.559-66.326-14.029c-8.412-13.786-5.04-29.617.778-39.852a15.991,15.991,0,0,1-6.857-3.449c-5.13-5.243-4.526-14.154,1.35-19.9S51.52,69,56.65,74.244a14.977,14.977,0,0,1,3,5.808c3.261-2.269,6.69-4.321,10.266-6.38,4.95-2.85,6.975-8.975,8.184-12.635.184-.558.351-1.059.505-1.49h0a5.045,5.045,0,0,1,3.442-3.169h0A5.048,5.048,0,0,1,86.617,57.4c.349.295.744.648,1.183,1.04,2.878,2.564,7.694,6.855,13.4,6.849,3.928,0,7.737.051,11.508.344a14.8,14.8,0,0,1-.257-6.343c1.821-7.1,9.753-11.211,17.716-9.17s12.943,9.455,11.122,16.561a15.688,15.688,0,0,1-3.94,6.131c10.227,5.9,21.246,17.99,20.85,34.268M133.193,76.645c-10.8-5.565-20.871-6.007-31.983-5.993-7.756.009-13.755-5.336-16.977-8.208-.261-.232-.505-.45-.732-.648-.1.283-.2.593-.307.923-1.355,4.1-3.876,11.729-10.6,15.6-9.63,5.544-18.135,10.964-24.7,21.181-5.65,8.79-9.527,23.511-1.865,36.07,12.057,19.76,39.479,17.238,60.361,11.643s45.892-17.123,46.453-40.263c.357-14.708-10.361-25.517-19.649-30.306" transform="translate(586 4752.345)" fill="#251e1c"/><path d="M113.475,127.2c-2.012-5.134-7.738-13.2-15.569-11.1s-8.485,11.876-7.661,17.328a2.593,2.593,0,0,0,5.129-.771,24.149,24.149,0,0,1-.147-3.565,9.456,9.456,0,0,0,6.319.6,10.758,10.758,0,0,0,5.447-3.748,24.313,24.313,0,0,1,1.655,3.162,2.593,2.593,0,0,0,4.827-1.9" transform="translate(586 4752.345)" fill="#251e1c"/><path d="M73.186,105.917c-7.367.475-13.049,4.963-15.815,12a19.767,19.767,0,0,0-1.195,10.616c0,.058-.01.114-.006.173.393,5.765,5.7,16.958,22.989,18.054a3.98,3.98,0,0,0,1.3-.128,4.024,4.024,0,0,0-.788-7.9,28.492,28.492,0,0,1-4.528-.633,17.8,17.8,0,0,0,11.729-16.362c.351-10.437-7.409-16.224-13.682-15.82m7.779,10.991a5.768,5.768,0,0,1-5.494,6.344,4.752,4.752,0,0,1-4.6-2.455,6.008,6.008,0,0,1,3.972-9.072c2.875-.638,5.842,1.424,6.119,5.183" transform="translate(586 4752.345)" fill="#251e1c"/><path d="M133.531,97.513c-5.915-4.714-13.08-5.759-19.7-2.487-5.634,2.786-9.461,11.678-3.939,20.541,7.154,11.481,23.076,10.6,28.508,2.793,3.977-5.718,2.758-14.768-4.871-20.847m-9.593,9.066A4.751,4.751,0,0,1,121.184,111a5.767,5.767,0,0,1-7.93-2.747c-1.639-3.394-.1-6.663,2.708-7.548a6.009,6.009,0,0,1,7.976,5.871" transform="translate(586 4752.345)" fill="#251e1c"/></g></svg>