<svg xmlns="http://www.w3.org/2000/svg" width="125.128" height="123.441" viewBox="0 0 125.128 123.441"><g transform="translate(-147.927 -165.627)"><ellipse cx="62.564" cy="61.72" rx="62.564" ry="61.72" transform="translate(147.927 165.627)" fill="#fff"/><path d="M181.528,194.061a.536.536,0,0,0-.259.636l-1.208.846-.491-.683,1.468-1.028a.44.44,0,0,0,.156-.685.592.592,0,0,0-.868-.11.537.537,0,0,0-.259.637l-.9.629-.526-.732c.261-.239,1.408-1.329,1.208-1.607-.168-.235-.714-.073-.976,0l-.044.013a.069.069,0,0,0-.046.045,17.929,17.929,0,0,1-3.2,3.261.068.068,0,0,0-.03.056.067.067,0,0,0,.03.056l.473.329a.072.072,0,0,0,.081,0c.39-.273,1.5-1.233,1.766-1.469l.444.618-2.122,1.486a.068.068,0,0,0-.017.1l.32.446a.074.074,0,0,0,.045.028.068.068,0,0,0,.052-.012l2.123-1.487.491.683-2.414,1.692a.068.068,0,0,0-.017.1l.32.445a.068.068,0,0,0,.045.028.069.069,0,0,0,.052-.012l2.415-1.691.709.986-.972.68a.069.069,0,0,0-.016.1l.337.469a.07.07,0,0,0,.045.028h.012a.072.072,0,0,0,.04-.012l.411-.288.028.039a.482.482,0,0,0,.381.195.649.649,0,0,0,.4-.115.994.994,0,0,0,.333-1.416l-.889-1.238,1.777-1.245a.441.441,0,0,0,.152-.691A.582.582,0,0,0,181.528,194.061Z" fill="#251e1c"/><path d="M188.976,188.407l.02,0a.071.071,0,0,0,.065-.042l.176-.417a.07.07,0,0,0,0-.055.075.075,0,0,0-.041-.037,3.968,3.968,0,0,1-1.047-.594.477.477,0,0,0-.045-.162.418.418,0,0,0-.218-.205.373.373,0,0,0-.3.012.338.338,0,0,0-.176.477A2.811,2.811,0,0,0,188.976,188.407Z" fill="#251e1c"/><path d="M188.365,188.738l.1-.238a.068.068,0,0,0-.035-.089,5.947,5.947,0,0,1-1.047-.6.509.509,0,0,0-.051-.156.418.418,0,0,0-.232-.215.336.336,0,0,0-.261.019.363.363,0,0,0-.195.206.341.341,0,0,0,.021.261,2.378,2.378,0,0,0,.956.789,3.167,3.167,0,0,0-.948.3c-.472.227-1.045.558-1.55.85-.4.231-.779.45-1.05.585a.577.577,0,0,0-.665-.069.614.614,0,0,0-.259.872.657.657,0,0,0,.368.338.705.705,0,0,0,.547-.045,8.893,8.893,0,0,0,1.19-.775,11.922,11.922,0,0,1,1.709-1.087,1.25,1.25,0,0,1,.951-.1,1.281,1.281,0,0,1,.713.688c.59,1.2-.286,2.65-2.181,3.617a.068.068,0,0,0-.018.108l.448.473a.074.074,0,0,0,.083.014c2.415-1.233,3.463-3.069,2.669-4.678A1.863,1.863,0,0,0,188.365,188.738Z" fill="#251e1c"/><path d="M192.749,188.754c-.043-.01-.067-.022-.072-.038s0-.032.034-.061c.723-.744,1.32-1.3,1.8-1.754a13.358,13.358,0,0,0,1.11-1.113.529.529,0,0,0,.129-.51.726.726,0,0,0-.274-.355.7.7,0,0,0-.626-.137.5.5,0,0,0-.36.645.578.578,0,0,0,.037.1c-.218.315-.962,1.1-1.747,1.93-.315.333-.643.68-.96,1.02a.626.626,0,0,0-.17.608.6.6,0,0,0,.476.4,31.577,31.577,0,0,1,4.932,1.687.062.062,0,0,0,.029.007.068.068,0,0,0,.063-.04l.382-.8a.069.069,0,0,0,0-.053.074.074,0,0,0-.037-.039A30.755,30.755,0,0,0,192.749,188.754Z" fill="#251e1c"/><path d="M201.707,187.019a.068.068,0,0,0-.019-.1l-.643-.429a.075.075,0,0,0-.055-.01.069.069,0,0,0-.044.032c-.336.566-.666.9-.929.947a.282.282,0,0,1-.214-.035.531.531,0,0,1-.169-.353l-.427-2.424a.508.508,0,0,0-.672-.434c-.546.093-.612.392-.571.625a.489.489,0,0,0,.345.39l.351,1.994c.132.75.541,1.162,1.138,1.162a1.433,1.433,0,0,0,.247-.022A2.783,2.783,0,0,0,201.707,187.019Z" fill="#251e1c"/><path d="M203.19,183.963a.52.52,0,0,0-.224-.379.651.651,0,0,0-.462-.054c-.585.1-.585.47-.558.623a.5.5,0,0,0,.345.39l.3,1.679c.312,1.769-.386,2.864-2.192,3.445a.071.071,0,0,0-.045.043.069.069,0,0,0,.008.061l.371.535a.072.072,0,0,0,.058.03.057.057,0,0,0,.022,0c2.256-.76,3.131-2.107,2.755-4.24Z" fill="#251e1c"/><path d="M212.291,183.832a.584.584,0,0,0-.665-.568H211.6a.543.543,0,0,0-.466.273l-1.608.04a2.619,2.619,0,0,0,.1-.7c0-.09-.055-.208-.294-.265a1.665,1.665,0,0,0-.415-.034l-.258.007a.068.068,0,0,0-.068.066,5.181,5.181,0,0,1-.126.95l-1.444.036a.479.479,0,0,0-.471-.2c-.3.007-.482.146-.476.371l.138,5.548a.069.069,0,0,0,.022.048.071.071,0,0,0,.048.019h0l.838-.021a.069.069,0,0,0,.068-.071l-.033-1.323.308.369a.068.068,0,0,0,.09.015,5.878,5.878,0,0,0,1.574-1.432,3.888,3.888,0,0,1,.763.6.514.514,0,0,0,0,.055.442.442,0,0,0,.168.34.514.514,0,0,0,.351.116.494.494,0,0,0,.5-.54c-.016-.617-.922-.928-1.432-1.085a1.688,1.688,0,0,0,.262-.676c0-.207-.325-.247-.43-.261a3.287,3.287,0,0,0-.493-.017.069.069,0,0,0-.067.054,4.915,4.915,0,0,1-1.6,2.272l-.044-1.787.288.289a.069.069,0,0,0,.087.009,4.843,4.843,0,0,0,1.472-1.415.06.06,0,0,0,.021.014,4.147,4.147,0,0,1,1.016.746.3.3,0,0,0-.011.09.5.5,0,0,0,.547.448.5.5,0,0,0,.487-.546c-.018-.709-1.18-1.07-1.677-1.224a.069.069,0,0,0-.074.021l-.121.137c.06-.11.114-.222.163-.336l1.785-.045.1,3.891-.863.022a.071.071,0,0,0-.049.021.069.069,0,0,0-.019.049l.014.538a.069.069,0,0,0,.07.067h0l.389-.01v.033a.505.505,0,0,0,.154.362.512.512,0,0,0,.365.131.86.86,0,0,0,.914-.958l-.1-4.049A.607.607,0,0,0,212.291,183.832Zm-4.06.462a3.762,3.762,0,0,1-1.135,1.457l-.036-1.428Z" fill="#251e1c"/><path d="M220.72,184.684l-1.984-.254.071-.538a.439.439,0,0,0-.1-.362.887.887,0,0,0-.966-.107.437.437,0,0,0-.18.3.428.428,0,0,0,.246.441l-.019.143-2.143-.274a.5.5,0,0,0-.481-.443.541.541,0,0,0-.688.466c-.045.342.13.54.52.59l2.7.346-.082.621-2.142-.274a.5.5,0,0,0-.483-.436.677.677,0,0,0-.481.086.511.511,0,0,0-.206.373.493.493,0,0,0,.082.379.624.624,0,0,0,.439.2l2.7.346-.1.731a2.237,2.237,0,0,0-.772-.24c-1.091-.139-1.9.319-2,1.141a1.2,1.2,0,0,0,.381,1.079,2.241,2.241,0,0,0,1.264.521,1.674,1.674,0,0,0,1.782-.739,4.467,4.467,0,0,0,2.291,1.025h.009a.07.07,0,0,0,.069-.06l.1-.8a.067.067,0,0,0-.014-.051.066.066,0,0,0-.046-.026,3.567,3.567,0,0,1-2.207-1.032l.188-1.428,1.984.253a.069.069,0,0,0,.078-.059l.071-.541a.067.067,0,0,0-.014-.051.07.07,0,0,0-.046-.026l-1.985-.254.082-.621,1.985.253a.066.066,0,0,0,.051-.013.071.071,0,0,0,.027-.046l.072-.548A.07.07,0,0,0,220.72,184.684Zm-5,3.378a.6.6,0,0,1,.266-.428.792.792,0,0,1,.439-.124,1.1,1.1,0,0,1,.127.008.815.815,0,0,1,.507.24.594.594,0,0,1,.143.493.609.609,0,0,1-.26.424.79.79,0,0,1-.558.121A.679.679,0,0,1,215.723,188.062Z" fill="#251e1c"/><path d="M228.709,188.732l-.854-.245a.07.07,0,0,0-.053.006.068.068,0,0,0-.033.041,4.821,4.821,0,0,1-.915,1.855.965.965,0,0,1-.972.387c-.392-.113-.561-.455-.334-1.942a.9.9,0,0,0-.7-1.164c-.1-.027-.194-.048-.268-.061,1.258-1.484,1.481-1.784,1.571-2.09a.542.542,0,0,0-.072-.508.791.791,0,0,0-.424-.259.507.507,0,0,0-.677.331.453.453,0,0,0,.054.377,30.988,30.988,0,0,1-2.371,2.9l-1.306,1.543a.069.069,0,0,0,0,.094l.588.562a.078.078,0,0,0,.052.019.069.069,0,0,0,.05-.023c.921-1.058,1.513-1.744,1.971-2.285a1.892,1.892,0,0,1,.242.046c.268.077.315.2.237.649-.247,1.469.06,2.185,1.06,2.472a2.379,2.379,0,0,0,.651.1,1.947,1.947,0,0,0,1.279-.483,4.526,4.526,0,0,0,1.265-2.23A.068.068,0,0,0,228.709,188.732Z" fill="#251e1c"/><path d="M234.975,188.622a3.5,3.5,0,0,0-2.564-.209,3.315,3.315,0,0,0-1.976,1.794c-.563,1.169-.355,2.23.519,2.64a1.661,1.661,0,0,0,1.883-.316,6.916,6.916,0,0,0,1.6-2.321c.194-.4.117-.69-.23-.853a.67.67,0,0,0-.5-.043.492.492,0,0,0-.284.258.509.509,0,0,0,0,.5,5.232,5.232,0,0,1-1.344,1.89c-.43.322-.7.252-.795.207-.355-.167-.338-.786.044-1.579a2.786,2.786,0,0,1,1.374-1.364,2.253,2.253,0,0,1,1.9.039,2,2,0,0,1,.919,2.741,2.561,2.561,0,0,1-2.9,1.541.072.072,0,0,0-.057.012.071.071,0,0,0-.028.049l-.052.588a.068.068,0,0,0,.051.072,3.628,3.628,0,0,0,.907.115,3.254,3.254,0,0,0,3.025-1.952A2.814,2.814,0,0,0,234.975,188.622Z" fill="#251e1c"/><path d="M245.466,194.82a.723.723,0,0,0-.289-.352.55.55,0,0,0-.673-.045l-1.233-.846.238-.338a.306.306,0,0,0,.021-.339.713.713,0,0,0-.222-.228c-.253-.173-.474-.168-.6.016l-.239.338-1.25-.858a.466.466,0,0,0-.244-.469.629.629,0,0,0-.284-.109.307.307,0,0,0-.3.127l-.935,1.325a7.829,7.829,0,0,1-2.867,2.856.069.069,0,0,0-.04.074l.11.624a.066.066,0,0,0,.032.047.07.07,0,0,0,.037.011l.02,0c1.681-.5,2.638-1.858,3.564-3.171l.533-.756,3.851,2.642a.6.6,0,0,0,.362.124.435.435,0,0,0,.333-.209A.5.5,0,0,0,245.466,194.82Z" fill="#251e1c"/><path d="M243.339,195.706l-.9-.621.39-.552a.314.314,0,0,0,.026-.339.645.645,0,0,0-.217-.23.552.552,0,0,0-.395-.118.32.32,0,0,0-.211.139l-1.237,1.753-.448-.307a.459.459,0,0,0-.254-.458c-.26-.179-.486-.174-.619.013l-1.592,2.257a.064.064,0,0,0-.011.052.064.064,0,0,0,.029.044l.7.481a.07.07,0,0,0,.1-.018l.166-.236,1.922,1.319-.141.2a.068.068,0,0,0,.018.1l.7.48a.065.065,0,0,0,.039.013.073.073,0,0,0,.058-.03l1.146-1.625a.63.63,0,1,0-.262-1.219l-.751-.515.451-.639,1.332.913c.305.21.581.188.757-.061a.562.562,0,0,0,.1-.419.586.586,0,0,0-.89-.373Zm-4.089,1.306.712-1.01,1.921,1.318-.712,1.01Z" fill="#251e1c"/><path d="M239.509,266.465c-2.057-1.674-2.9-4.879-3.182-7.871a20.786,20.786,0,0,0,2.077-.281,2.914,2.914,0,0,0,2.351-3.4,2.946,2.946,0,0,0-3.45-2.319c-.3.056-.6.1-.892.137a2.951,2.951,0,0,0-5.851-.773c0,.02-.017.119-.035.273a18.692,18.692,0,0,1-8.7-5.963,2.981,2.981,0,0,0-4.125-.6,2.889,2.889,0,0,0-.615,4.075,24.652,24.652,0,0,0,12.809,8.367c-.761,2.016-3.137,6.581-6.555,7.348a2.176,2.176,0,0,1-1.093-.064,2.925,2.925,0,0,0-3.331-2.974,3.041,3.041,0,0,0-2.041,1.2,3.911,3.911,0,0,0-.519,3.163,5.126,5.126,0,0,0,2.341,3.34,8.055,8.055,0,0,0,5.953,1.019,13.4,13.4,0,0,0,7.457-5.12,12.91,12.91,0,0,0,3.648,4.942,2.978,2.978,0,0,0,4.156-.393A2.884,2.884,0,0,0,239.509,266.465Zm-19.423,1.647a2.946,2.946,0,0,0,1.061-.54A2.829,2.829,0,0,1,220.086,268.112Z" fill="#251e1c"/><path d="M205.4,256.362c0-.412-.518-.192-.518-.538,0-.22.245-.264.418-.264.139,0,.272.011.411.011.808,0,1.409-.082,1.532-.082.757,0,1.486.4,1.486,1.219a1.324,1.324,0,0,1-1.475,1.257c-.167,0-.334-.027-.485-.027-.066,0-.089.027-.089.088v.318c.017.687.423.4.423.72,0,.357-.8.373-1.052.373-.234,0-1.058-.005-1.058-.362,0-.3.407-.115.407-.566Zm1.492-.264c-.218,0-.212.066-.212.176v.824c0,.115-.05.241.251.241.367,0,.512-.274.512-.609S207.26,256.1,206.887,256.1Z" fill="#251e1c"/><path d="M210.088,257.394a3.431,3.431,0,0,0,.4-1.3.6.6,0,0,1,.673-.664c.485,0,.791.488,1.008.851.1.159.935,1.84,1.135,2.29.184.417.485.165.485.478,0,.4-.79.384-1.069.384-.8,0-1.275-.005-1.275-.346,0-.263.34-.165.34-.357,0-.247-.139-.269-1.036-.269-.289,0-.461.011-.461.28,0,.215.356.072.356.357,0,.33-.6.335-.824.335-.8,0-.869-.148-.869-.324,0-.258.3-.181.463-.379a3.176,3.176,0,0,0,.322-.587Zm1.169.4c.056,0,.223.011.223-.072a1.914,1.914,0,0,0-.206-.445c-.05-.087-.145-.291-.267-.291s-.229.33-.251.39a1.935,1.935,0,0,0-.117.341c0,.093.139.077.2.077Z" fill="#251e1c"/><path d="M214.369,257.438a2.021,2.021,0,0,1,2.155-1.988,2.1,2.1,0,0,1,2.126,2.043,2.069,2.069,0,0,1-2.194,1.96A2,2,0,0,1,214.369,257.438Zm1.9-1.17c-.311,0-.467.319-.467.588,0,.467.334,1.779.935,1.779.34,0,.484-.291.484-.587C217.219,257.548,216.919,256.268,216.267,256.268Z" fill="#251e1c"/><path d="M185.773,250.376a2.9,2.9,0,0,0-1.455,3.859c.661,1.431,2.2,5.8,1.371,8.794-.428,1.555-1.035,2.648-1.468,2.663a.313.313,0,0,1-.1-.279,2.953,2.953,0,0,0-5.894-.355,6.111,6.111,0,0,0,4.886,6.362,6.678,6.678,0,0,0,1.18.1c2.143,0,5.469-1.046,7.1-6.968,1.535-5.57-1.368-12.037-1.7-12.756A2.966,2.966,0,0,0,185.773,250.376Z" fill="#251e1c"/><path d="M207,262.618a2.949,2.949,0,0,0-3.321,2.5.512.512,0,0,1-.268.373,1.189,1.189,0,0,1-.871.185c-2.216-.528-3.131-3.664-3.48-5.485-.954-4.993-.3-12.116-.291-12.235a2.953,2.953,0,0,0-5.88-.545c-.031.325-.746,8.035.368,13.86,1.427,7.463,5.56,9.511,7.9,10.068a6.779,6.779,0,0,0,1.571.181,7.251,7.251,0,0,0,4.021-1.22,6.308,6.308,0,0,0,2.787-4.4A2.919,2.919,0,0,0,207,262.618Z" fill="#251e1c"/><path d="M203.9,253.159h.047a4.016,4.016,0,0,0,2.85-1.179,4.11,4.11,0,0,0,.952-4.324,1.426,1.426,0,0,0-1.821-.839,1.4,1.4,0,0,0-.851,1.8,1.324,1.324,0,0,1-.3,1.392,1.177,1.177,0,0,1-.832.349h-.013a1.176,1.176,0,0,1-.84-.368,1.318,1.318,0,0,1,.02-1.838,1.179,1.179,0,0,1,.68-.339,1.4,1.4,0,1,0-.379-2.78,4.014,4.014,0,0,0-2.32,1.143,4.119,4.119,0,0,0-.064,5.744A4.016,4.016,0,0,0,203.9,253.159Z" fill="#251e1c"/><path d="M232.635,211.2a7.026,7.026,0,0,0,2.426-2.176c1.619-2.838.319-6.589-2.9-8.379s-7.149-.941-8.768,1.9a6.5,6.5,0,0,0-.627,2.749c-1.6-.559-3.254-1.021-4.961-1.47-2.483-.653-4.076-3.046-5.028-4.477-.145-.218-.276-.415-.393-.581a2.278,2.278,0,0,0-1.865-.964h0a2.279,2.279,0,0,0-1.865.963h0c-.118.167-.249.363-.393.581-.952,1.431-2.546,3.824-5.029,4.478-1.794.472-3.523.957-5.205,1.556a6.57,6.57,0,0,0-.628-2.835c-1.619-2.838-5.545-3.687-8.768-1.9s-4.524,5.541-2.9,8.379a7.161,7.161,0,0,0,2.579,2.266c-3.721,3.72-7.03,10.12-4.98,17,1.855,6.221,8.078,13.635,27.194,13.635s25.339-7.415,27.193-13.635C239.774,221.352,236.393,214.9,232.635,211.2Zm2.757,16.417c-2.939,9.857-15.152,11.926-24.879,11.926s-21.94-2.069-24.879-11.926c-1.868-6.266,1.532-12.132,5.011-15.252,4.044-3.627,8.371-4.973,13.2-6.244,3.374-.888,5.358-3.87,6.425-5.472.085-.129.166-.25.241-.36l.243.362c1.065,1.6,3.05,4.583,6.422,5.47,4.831,1.271,9.159,2.617,13.2,6.244C233.86,215.483,237.26,221.349,235.392,227.615Z" fill="#251e1c"/><path d="M215.924,231.773c-.277-2.432-1.826-6.549-5.474-6.549s-5.071,4.117-5.348,6.549a1.167,1.167,0,0,0,2.319.259,10.7,10.7,0,0,1,.351-1.546,4.288,4.288,0,0,0,2.678.981,4.877,4.877,0,0,0,2.8-.981,10.632,10.632,0,0,1,.352,1.546,1.167,1.167,0,0,0,2.319-.259Z" fill="#251e1c"/><path d="M200.891,218.02a8.106,8.106,0,0,0-8.271,3.329,8.7,8.7,0,0,0-1.756,4.415c-.006.025-.018.048-.023.074-.5,2.517.5,7.925,7.889,10.382a1.82,1.82,0,0,0,2.294-1.122,1.779,1.779,0,0,0-1.137-2.263,13,13,0,0,1-1.895-.792,7.984,7.984,0,0,0,7-5.668C206.363,221.94,203.665,218.567,200.891,218.02Zm2.1,5.606a2.6,2.6,0,0,1-3.126,2.089,2.127,2.127,0,0,1-1.713-1.581,2.684,2.684,0,0,1,.4-2.336,2.74,2.74,0,0,1,2.386-1.1A2.306,2.306,0,0,1,202.992,223.626Z" fill="#251e1c"/><path d="M228.1,221.349a8.107,8.107,0,0,0-8.272-3.329c-2.773.547-5.472,3.92-4.1,8.355,1.772,5.744,8.795,7.2,12.065,4.473C230.181,228.853,230.705,224.832,228.1,221.349Zm-5.226,2.785a2.125,2.125,0,0,1-1.712,1.581,2.6,2.6,0,0,1-3.126-2.089,2.305,2.305,0,0,1,2.056-2.925,2.741,2.741,0,0,1,2.386,1.1A2.68,2.68,0,0,1,222.872,224.134Z" fill="#251e1c"/></g></svg>