<svg width="298" height="77" viewBox="0 0 298 77" fill="none" xmlns="http://www.w3.org/2000/svg">
<path d="M18.605 19.127H11.941V23.707C11.941 25.367 10.433 26.292 8.88404 26.292C8.51136 26.3148 8.14395 26.1951 7.85631 25.957C7.56867 25.719 7.38232 25.3801 7.33504 25.0098V24.6738H5.63504V23.0142H9.37004V19.127H0.394043V17.5508H9.37204V14.7349H1.45504V13.1602H9.37204V10.5601C9.37204 10.5601 3.93904 11.126 2.34704 11.126L1.77404 9.5708C3.62004 9.5708 13.744 8.22677 15.294 7.13477C15.867 7.32277 17.65 7.84898 17.65 8.58398C17.65 9.38398 12.302 10.2021 11.941 10.2021V13.165H15.57C15.6509 12.8227 15.8567 12.523 16.1472 12.3247C16.4377 12.1264 16.7918 12.0434 17.14 12.0928C17.3522 12.0657 17.5677 12.0844 17.7722 12.147C17.9768 12.2095 18.1657 12.3145 18.3264 12.4556C18.4872 12.5967 18.6161 12.7706 18.7047 12.9653C18.7932 13.16 18.8394 13.3711 18.84 13.585C18.84 14.446 18.288 14.7397 17.481 14.7397H11.941V17.5562H16.695C16.7761 17.214 16.982 16.9141 17.2724 16.7158C17.5628 16.5175 17.9168 16.4348 18.265 16.4839C19.2 16.4839 19.965 16.9681 19.965 17.9551C19.964 18.8331 19.433 19.127 18.605 19.127Z" fill="white"/>
<path d="M29.68 24.6951L29.107 22.9094C35.389 22.7624 39.8681 20.0523 39.8681 16.0383C39.909 15.5234 39.8366 15.0056 39.656 14.5217C39.4755 14.0378 39.1911 13.5993 38.8229 13.2371C38.4546 12.8748 38.0115 12.5976 37.5247 12.425C37.0379 12.2525 36.5192 12.1886 36.0051 12.238C32.3961 12.238 28.3001 13.4573 25.8381 13.4573C25.6025 13.4794 25.3648 13.4518 25.1406 13.3762C24.9164 13.3006 24.7105 13.1786 24.5365 13.0183C24.3624 12.858 24.224 12.6628 24.1302 12.4456C24.0364 12.2283 23.9893 11.9937 23.9921 11.7571C23.9741 11.5328 24.0031 11.3074 24.0774 11.095C24.1517 10.8826 24.2695 10.6879 24.4233 10.5237C24.5772 10.3595 24.7636 10.2293 24.9708 10.1414C25.1779 10.0534 25.4011 10.0101 25.626 10.0134C25.957 9.98613 26.2874 10.0707 26.5645 10.2537C26.8416 10.4366 27.0492 10.7072 27.154 11.0222C29.154 11.0222 33.266 10.5383 36.111 10.5383C37.3174 10.5153 38.5159 10.737 39.6341 11.1902C38.6618 10.1703 37.9994 8.89532 37.7241 7.51343C37.7227 7.40194 37.7448 7.29108 37.789 7.18872C37.8332 7.08636 37.8985 6.99466 37.9806 6.91919C38.0626 6.84372 38.1597 6.7862 38.2654 6.75073C38.3711 6.71526 38.4831 6.70245 38.594 6.71313C38.7121 6.71327 38.8287 6.73786 38.9368 6.7854C39.0448 6.83294 39.1417 6.90256 39.2215 6.9895C39.3013 7.07644 39.3622 7.17909 39.4003 7.29077C39.4385 7.40245 39.453 7.52084 39.443 7.63843C39.4459 7.80339 39.4171 7.96727 39.358 8.12134C39.9322 9.18889 40.6228 10.1895 41.417 11.1052L40.653 11.7561C41.3331 12.2469 41.8797 12.9001 42.243 13.656C42.6063 14.4119 42.7747 15.2466 42.733 16.0842C42.733 21.5432 36.917 24.5261 29.68 24.6951ZM43.18 11.5002C41.567 10.0712 40.4201 8.10016 40.4201 7.04516C40.4175 6.93059 40.4395 6.81709 40.4845 6.71167C40.5294 6.60625 40.5963 6.51134 40.6807 6.43384C40.7652 6.35633 40.8651 6.29777 40.974 6.26196C41.0829 6.22615 41.1981 6.21406 41.3121 6.22632C41.4348 6.22595 41.5564 6.25025 41.6694 6.29809C41.7825 6.34594 41.8847 6.41626 41.9699 6.50464C42.0551 6.59302 42.1215 6.69753 42.1652 6.81225C42.2089 6.92698 42.2289 7.04945 42.2241 7.17212C42.221 7.33761 42.1871 7.50101 42.124 7.65405C42.6507 8.75539 43.3532 9.76394 44.2041 10.6394L43.18 11.5002Z" fill="white"/>
<path d="M62.084 26.3758C58.1579 23.1047 53.9698 20.1617 49.562 17.576C49.3038 17.4616 49.0831 17.2765 48.9253 17.0423C48.7675 16.808 48.679 16.534 48.67 16.2517C48.6862 15.9633 48.7794 15.6847 48.94 15.4446C49.1006 15.2045 49.3226 15.012 49.583 14.887C53.976 12.407 58.883 9.80172 59.962 8.89872C59.9266 8.77603 59.912 8.64831 59.919 8.52079C59.9194 8.34408 59.9561 8.16952 60.0269 8.0076C60.0977 7.84568 60.2009 7.6997 60.3304 7.57938C60.4598 7.45906 60.6125 7.36669 60.7792 7.3079C60.9458 7.24911 61.1228 7.22511 61.299 7.23758C61.791 7.28202 62.2517 7.498 62.6008 7.84745C62.9498 8.19689 63.1651 8.65772 63.209 9.14969C63.1998 9.3857 63.1283 9.61537 63.0016 9.81473C62.875 10.0141 62.6978 10.1763 62.488 10.2849C60.578 11.5239 57.224 12.8268 51.748 15.7688C51.6813 15.7939 51.6225 15.836 51.5777 15.8914C51.5329 15.9468 51.5036 16.0133 51.493 16.0838C51.493 16.2098 51.578 16.3147 51.769 16.4197C56.0137 18.7777 60.0603 21.4757 63.869 24.4876L62.084 26.3758Z" fill="white"/>
<path d="M75.8111 20.3882C73.8161 20.3882 72.5641 19.1689 72.5641 16.6689V10.7012C72.3287 10.6126 72.1257 10.4547 71.9817 10.2485C71.8376 10.0424 71.7593 9.79737 71.7571 9.5459C71.7571 8.4949 72.6271 8.24609 73.5401 8.24609C74.5401 8.24609 75.0681 8.68784 75.0681 9.61084V16.7109C75.0681 17.6979 75.4291 18.2021 76.1931 18.2021C77.0841 18.2021 78.2731 17.3411 79.5471 15.8921L81.2021 17.4248C79.1231 19.5258 77.3191 20.3882 75.8111 20.3882ZM77.0001 26.354L76.1931 24.6538C81.0331 23.9808 84.5351 21.6911 84.5351 15.7241V10.6821C84.3003 10.5921 84.0979 10.4338 83.954 10.2275C83.8101 10.0213 83.7314 9.77635 83.7281 9.5249C83.7281 8.8319 84.1531 8.2251 85.4691 8.2251C86.5301 8.2251 87.0391 8.64582 87.0391 9.59082V15.8311C87.0401 22.8881 82.7941 25.473 77.0001 26.354Z" fill="white"/>
<path d="M111.311 11.8359V23.645C111.339 23.9864 111.292 24.3296 111.172 24.6504C111.052 24.9712 110.862 25.2615 110.617 25.5005C110.371 25.7394 110.076 25.9213 109.752 26.0327C109.428 26.1441 109.084 26.1825 108.743 26.145C108.573 26.1547 108.404 26.1288 108.244 26.0693C108.085 26.0098 107.94 25.9179 107.818 25.7993C107.696 25.6807 107.601 25.5379 107.537 25.3804C107.473 25.2228 107.443 25.0537 107.448 24.8838V24.5898H106.09V23.0352H108.849V11.395H103.224C102.039 13.8752 100.11 15.924 97.7061 17.2568L96.5601 16.0801C98.2916 14.922 99.6602 13.2978 100.508 11.395H96.5171V26.082H94.0341V10.0498C94.0341 9.3778 94.7131 9.20996 95.2651 9.20996C95.7111 9.20996 96.3651 9.30985 96.4961 9.81885H101.081C101.34 8.86366 101.503 7.88533 101.569 6.89795H102.333C102.97 6.89795 104.201 6.98182 104.201 7.61182C104.173 8.36271 104.038 9.10582 103.801 9.81885H108.958C109.078 9.58611 109.261 9.39212 109.487 9.2583C109.712 9.12448 109.97 9.05636 110.232 9.06201C111.187 9.06201 112.032 9.50418 112.032 10.5552C112.027 10.8117 111.959 11.0626 111.833 11.2861C111.707 11.5097 111.528 11.6987 111.311 11.8359ZM106.344 22.4678C106.183 22.4783 106.021 22.4569 105.868 22.4043C105.716 22.3517 105.575 22.2692 105.455 22.1616C105.334 22.054 105.236 21.9232 105.167 21.7773C105.097 21.6315 105.058 21.4734 105.05 21.312C105.047 21.2414 105.054 21.1706 105.071 21.1021C104.34 20.3233 103.505 19.6502 102.588 19.1021C101.253 20.764 99.6193 22.1612 97.7701 23.2212L96.7301 21.939C98.6401 20.658 101.251 17.5478 101.823 15.2998C102.291 15.2998 104.323 15.3001 104.323 15.9731C104.163 16.712 103.844 17.4069 103.389 18.0107C104.748 18.4507 107.655 19.3971 107.655 21.1411C107.669 21.317 107.644 21.4935 107.584 21.6592C107.523 21.8249 107.428 21.9758 107.304 22.1016C107.18 22.2273 107.031 22.325 106.866 22.3882C106.701 22.4514 106.525 22.4784 106.349 22.4678H106.344ZM106.833 17.1089C106.501 17.1337 106.173 17.0298 105.916 16.8188C105.659 16.6079 105.493 16.3061 105.453 15.9761C105.451 15.8741 105.473 15.7732 105.517 15.6812C104.623 14.7226 103.575 13.9202 102.417 13.3071L103.372 12.2979C104.837 12.7809 108.105 13.8741 108.105 15.7651C108.12 15.9388 108.097 16.1134 108.04 16.2778C107.982 16.4423 107.891 16.5929 107.771 16.7197C107.652 16.8465 107.507 16.9466 107.346 17.0137C107.185 17.0808 107.012 17.1131 106.838 17.1089H106.833Z" fill="white"/>
<path d="M130.456 22.7832C129.989 24.4832 128.163 25.6831 125.617 25.6831C122.496 25.6831 120.374 24.2959 120.374 21.8999C120.374 19.5679 122.56 18.1001 125.617 18.1001C126.498 18.0884 127.373 18.2587 128.185 18.6001V15.9741H119.911C118.765 15.9741 118.362 15.4739 118.362 14.6909C118.362 13.8509 118.871 13.3262 119.996 13.3262C120.326 13.2829 120.66 13.3705 120.926 13.5708C121.192 13.7711 121.369 14.0678 121.418 14.397H128.189V12.1909H119.911C118.765 12.1909 118.362 11.6911 118.362 10.8911C118.362 10.0711 118.871 9.50391 119.996 9.50391C120.329 9.46503 120.663 9.55759 120.929 9.76172C121.195 9.96584 121.37 10.2657 121.418 10.5972H128.189V9.83984C127.945 9.79751 127.722 9.6719 127.56 9.48438C127.397 9.29685 127.304 9.05911 127.297 8.81104C127.297 8.28504 127.658 7.63379 128.974 7.63379C130.184 7.63379 130.608 8.15898 130.608 8.83398V10.6001H136.743V12.2002H130.608V14.4058H136.743V15.9829H130.608V20.415C131.797 21.697 134.769 22.6851 137.698 22.6851V25.0171C135.117 24.999 132.599 24.2222 130.456 22.7832ZM125.596 19.8408C125.202 19.9015 124.834 20.0739 124.535 20.3374C124.236 20.6009 124.02 20.9445 123.91 21.3276C123.801 21.7107 123.803 22.1174 123.918 22.499C124.033 22.8806 124.254 23.221 124.557 23.4805C124.859 23.7399 125.23 23.9071 125.624 23.9624C126.019 24.0177 126.421 23.9589 126.783 23.7925C127.145 23.6261 127.452 23.3593 127.667 23.0239C127.882 22.6885 127.996 22.2983 127.996 21.8999C127.989 21.6019 127.919 21.3089 127.791 21.0396C127.664 20.7702 127.481 20.5306 127.254 20.3364C127.028 20.1423 126.763 19.9979 126.478 19.9126C126.192 19.8273 125.892 19.8026 125.596 19.8408Z" fill="white"/>
<path d="M155.495 25.6411C152.481 25.6411 151.123 23.9178 150.614 19.7988C150.465 18.5178 150.214 18.0142 149.192 18.0142C148.901 18.023 148.61 18.051 148.322 18.0982C147.367 20.1982 146.135 22.8252 144.585 26.0982L142.442 25.0049C148.512 11.6409 149.022 10.634 149.212 9.60499C149.063 9.50168 148.94 9.36383 148.856 9.20314C148.771 9.04245 148.726 8.86382 148.725 8.68214C148.726 8.50106 148.766 8.32232 148.842 8.15773C148.917 7.99313 149.027 7.84622 149.163 7.72706C149.299 7.6079 149.46 7.51909 149.633 7.46632C149.806 7.41355 149.988 7.398 150.168 7.42091C151.168 7.42091 152.014 7.82111 152.014 8.95411C152.014 9.83711 151.632 10.8461 149.17 16.2451C149.55 16.1929 149.933 16.1649 150.317 16.1611C152.268 16.1611 152.863 17.1281 153.075 18.6611C153.648 22.7791 154.37 23.9561 155.855 23.9561C157.935 23.9561 159.549 21.3712 159.549 16.0342H162.181C162.181 22.1322 159.889 25.6411 155.495 25.6411Z" fill="white"/>
<path d="M177.395 25.9351L176.779 24.335C178.536 23.9637 180.101 22.9752 181.192 21.5488C182.282 20.1224 182.825 18.3526 182.723 16.5601C182.739 15.7406 182.59 14.9261 182.284 14.1655C181.979 13.405 181.523 12.7138 180.944 12.1333C180.365 11.5528 179.676 11.0951 178.916 10.7871C178.157 10.4791 177.343 10.3272 176.523 10.3408C172.088 10.3408 169.264 13.9127 169.264 18.0107C169.264 20.7207 170.093 22.3809 171.388 22.3809C172.533 22.3809 174.613 20.8471 174.613 13.9971C174.4 13.8759 174.226 13.6975 174.11 13.4819C173.994 13.2664 173.94 13.0222 173.956 12.7778C173.956 11.8958 174.741 11.4551 175.568 11.4551C176.715 11.4551 177.076 12.1897 177.076 13.1987C177.076 19.7537 175.59 24.145 171.366 24.145C168.691 24.145 166.781 21.7917 166.781 18.0947C166.781 12.2107 171.239 8.59473 176.673 8.59473C182.212 8.59473 185.373 12.6291 185.373 16.5151C185.422 18.7884 184.638 21.0007 183.168 22.7358C181.699 24.471 179.645 25.609 177.395 25.9351Z" fill="white"/>
<path d="M207.721 10.4712H193.627V13.3281C193.627 18.0341 193.627 22.657 190.443 26.522L189.105 25.2222C191.185 21.8392 191.205 17.532 191.205 13.687V9.01807C191.205 8.43007 191.905 8.21777 192.393 8.21777C192.86 8.21777 193.561 8.38613 193.625 8.93213H198.511V7.5459C198.511 6.8729 199.189 6.72607 199.741 6.72607C200.293 6.72607 200.994 6.8729 200.994 7.5459V8.93213H205.811C205.939 8.17613 206.683 7.94482 207.361 7.94482C208.253 7.94482 209.061 8.34503 209.061 9.33203C209.057 10.176 208.511 10.4712 207.721 10.4712ZM206.553 15.4502H201.544V18.0981H204.579C204.727 17.8504 204.939 17.6472 205.193 17.5103C205.447 17.3733 205.734 17.3073 206.022 17.3198C206.242 17.3102 206.461 17.3448 206.668 17.4214C206.874 17.4979 207.063 17.6149 207.223 17.7656C207.383 17.9163 207.511 18.0977 207.6 18.2988C207.689 18.5 207.737 18.7171 207.741 18.937C207.737 19.2047 207.665 19.4668 207.531 19.6987C207.398 19.9306 207.207 20.1248 206.977 20.2622V26.082H204.451V25.1821H197.111V26.2119H194.586V18.27C194.586 17.576 195.308 17.4292 195.859 17.4292C196.348 17.4292 196.984 17.5551 197.111 18.1021H199.086V11.7339C199.086 11.0629 199.765 10.895 200.316 10.895C200.867 10.895 201.548 11.0629 201.548 11.7339V13.8779H205.177C205.257 13.5591 205.449 13.2798 205.718 13.0908C205.987 12.9019 206.315 12.8162 206.642 12.8491C206.832 12.8432 207.021 12.8758 207.198 12.9453C207.374 13.0148 207.535 13.1198 207.67 13.2534C207.805 13.387 207.911 13.5467 207.983 13.7227C208.054 13.8987 208.089 14.087 208.085 14.2769C208.081 15.1769 207.338 15.4502 206.553 15.4502ZM204.453 19.6729H197.111V23.623H204.455L204.453 19.6729Z" fill="white"/>
<path d="M221.492 30.9521L219.176 28.9331C224.016 24.6861 227.924 18.5581 227.924 7.4331C226.924 7.0561 226.402 6.54182 226.402 5.54882C226.402 4.44882 227.473 3.59716 229.756 3.59716C231.762 3.59716 232.456 4.45295 232.456 5.48095C232.453 19.5179 227.439 26.1251 221.492 30.9521ZM249.257 30.9521C243.31 26.1251 238.157 19.7218 238.157 5.61376C238.157 4.58676 238.71 3.59374 240.681 3.59374C242.444 3.59374 243.62 4.31317 243.62 5.40917C243.663 5.78278 243.577 6.15983 243.376 6.47753C243.174 6.79523 242.87 7.03402 242.514 7.15478C242.514 18.0778 246.697 24.5159 251.538 28.7949L249.257 30.9521ZM248.15 8.48974C247.311 8.48816 246.491 8.23791 245.794 7.7705C245.097 7.30309 244.554 6.63957 244.234 5.86376C243.914 5.08795 243.831 4.23502 243.996 3.4121C244.16 2.58918 244.565 1.83359 245.159 1.24071C245.753 0.64784 246.51 0.244193 247.333 0.0810458C248.156 -0.0821011 249.009 0.00219384 249.784 0.323722C250.56 0.645249 251.222 1.18929 251.688 1.8872C252.154 2.58511 252.403 3.40587 252.403 4.24511C252.396 5.37006 251.945 6.44647 251.149 7.2412C250.353 8.03593 249.275 8.4845 248.15 8.48974ZM248.15 2.22509C247.608 2.22182 247.087 2.43156 246.699 2.80956C246.311 3.18756 246.087 3.70346 246.076 4.24511C246.093 4.78468 246.319 5.29618 246.706 5.67284C247.093 6.04951 247.61 6.26204 248.15 6.26513C248.686 6.26513 249.2 6.05215 249.578 5.67333C249.957 5.29451 250.17 4.78085 250.17 4.24511C250.17 3.70937 249.957 3.19522 249.578 2.8164C249.2 2.43757 248.686 2.22509 248.15 2.22509Z" fill="white"/>
<path d="M289.96 11.709L291.17 28.248V28.5562C291.17 30.0972 290.17 30.9181 288.231 30.8501L282.596 30.645L282.526 27.6309L285.742 27.731C285.858 27.7528 285.978 27.7452 286.09 27.7095C286.203 27.6737 286.305 27.6107 286.387 27.5259C286.469 27.4411 286.529 27.3372 286.561 27.2236C286.593 27.11 286.597 26.9903 286.571 26.875L285.5 11.7749L282.7 11.8101C280.9 17.8361 274.091 27.1838 266.691 30.8818L265.066 28.6899C271.151 25.2319 276.338 17.3227 278.101 11.8447L268.766 11.981C267.244 12.016 266.31 11.4339 266.31 9.85791C266.31 8.52291 267.141 7.70099 268.904 7.66699C270.183 7.66699 271.014 8.14573 271.255 9.34473L285.293 9.17383L285.086 6.50293C284.657 6.42465 284.271 6.1947 283.998 5.85498C283.725 5.51527 283.583 5.0884 283.599 4.65283C283.599 3.00983 285.57 2.53076 286.884 2.53076C288.544 2.53076 289.304 3.25006 289.408 4.41406L289.788 9.10498L297.153 9.03613L297.222 11.604L289.96 11.709Z" fill="white"/>
<path d="M8.55205 38.2798C8.90205 38.2798 9.19605 38.4478 9.19605 38.9668C9.19605 39.4148 8.99605 39.6528 8.55205 39.6528H0.652047C0.562441 39.663 0.471691 39.6527 0.386879 39.6221C0.302068 39.5914 0.225495 39.5412 0.163144 39.4761C0.100792 39.4109 0.0543517 39.3322 0.0274472 39.2461C0.000542644 39.16 -0.00609698 39.069 0.00804944 38.98C0.00804944 38.519 0.218047 38.2798 0.652047 38.2798H8.55205ZM5.38605 48.8799C5.39766 48.9827 5.38545 49.0867 5.35036 49.1841C5.31526 49.2814 5.25823 49.3697 5.18368 49.4414C5.10913 49.5132 5.01906 49.5668 4.92045 49.5981C4.82184 49.6295 4.71735 49.6376 4.61505 49.6221C4.05505 49.6221 3.81505 49.3559 3.81505 48.8799V42.9971H0.651047C0.561486 43.0071 0.470826 42.9961 0.386113 42.9653C0.301399 42.9346 0.224918 42.8849 0.162613 42.8198C0.100309 42.7547 0.0538595 42.6758 0.0268788 42.5898C-0.000101946 42.5039 -0.00688624 42.4128 0.00704999 42.3237C0.00704999 41.8617 0.207047 41.624 0.651047 41.624H8.55105C8.90105 41.624 9.19505 41.7779 9.19505 42.2969C9.19505 42.7719 8.97105 42.9971 8.55105 42.9971H5.38605V48.8799Z" fill="white"/>
<path d="M14.3921 45.3262C13.9116 45.3435 13.4328 45.2614 12.9855 45.085C12.5383 44.9086 12.1323 44.6414 11.793 44.3008C11.4537 43.9602 11.1884 43.5534 11.0138 43.1055C10.8391 42.6576 10.7589 42.1782 10.778 41.6978C10.7614 41.1856 10.8499 40.6758 11.0383 40.1993C11.2267 39.7227 11.5109 39.2897 11.8732 38.9273C12.2356 38.5649 12.6685 38.2807 13.1451 38.0923C13.6217 37.9039 14.1319 37.8154 14.6441 37.8321C16.0731 37.8321 18.776 38.546 18.776 42.917C18.776 46.867 16.7871 49.3892 13.5091 49.3892C12.0531 49.3892 11.8421 48.9681 11.8421 48.5201C11.8344 48.4246 11.8464 48.3284 11.8773 48.2378C11.9082 48.1472 11.9574 48.0641 12.0218 47.9932C12.0861 47.9223 12.1644 47.8656 12.2516 47.8262C12.3389 47.7868 12.4333 47.7657 12.529 47.7642C12.683 47.7642 13.3551 47.8482 13.4951 47.8482C16.3811 47.8482 16.787 45.186 16.941 44.148C16.6501 44.5435 16.2638 44.859 15.8181 45.065C15.3724 45.271 14.8818 45.3609 14.3921 45.3262ZM12.473 41.67C12.457 41.9606 12.502 42.2512 12.605 42.5235C12.7081 42.7957 12.8669 43.0433 13.0714 43.2505C13.2759 43.4577 13.5214 43.6199 13.7922 43.7266C14.0631 43.8332 14.3532 43.8823 14.6441 43.8702C14.9395 43.8711 15.2323 43.8134 15.5056 43.7012C15.779 43.589 16.0275 43.4241 16.2371 43.2159C16.4467 43.0076 16.6132 42.76 16.7271 42.4873C16.841 42.2147 16.9001 41.9225 16.901 41.627C16.902 41.3315 16.8447 41.039 16.7325 40.7657C16.6202 40.4923 16.4553 40.2433 16.247 40.0337C16.0387 39.8241 15.7912 39.6579 15.5186 39.544C15.2459 39.4301 14.9535 39.3711 14.6581 39.3702C14.3603 39.3668 14.0651 39.4246 13.7909 39.5406C13.5167 39.6565 13.2693 39.8276 13.0642 40.0435C12.8591 40.2593 12.7008 40.5156 12.5991 40.7954C12.4974 41.0753 12.4545 41.3728 12.473 41.67Z" fill="white"/>
<path d="M24.7991 41.8662C25.2843 41.8514 25.7675 41.9363 26.2186 42.1157C26.6697 42.2951 27.0793 42.5652 27.4219 42.9092C27.7644 43.2532 28.0328 43.6634 28.2104 44.1152C28.3879 44.5671 28.4709 45.0509 28.4541 45.5361C28.4684 46.047 28.3781 46.5551 28.1887 47.0298C27.9994 47.5045 27.715 47.9356 27.3531 48.2964C26.9911 48.6572 26.5592 48.9406 26.0839 49.1284C25.6086 49.3163 25.0999 49.405 24.5891 49.3892C22.5991 49.3892 20.4421 48.058 20.4421 44.415C20.4421 40.772 22.6271 37.832 25.8351 37.832C26.1161 37.832 26.7181 37.874 26.7181 38.603C26.7181 39.316 26.3401 39.3452 25.7511 39.3872C23.7621 39.5272 22.6411 40.857 22.2911 43.043C22.5826 42.6584 22.9632 42.3505 23.4 42.1455C23.8369 41.9405 24.317 41.8447 24.7991 41.8662ZM24.5991 43.3511C24.3015 43.3329 24.0033 43.3739 23.7218 43.4722C23.4404 43.5705 23.1813 43.7238 22.9597 43.9233C22.7382 44.1228 22.5586 44.3646 22.4314 44.6343C22.3043 44.9039 22.2321 45.1963 22.2191 45.4941C22.2126 45.8037 22.2685 46.1115 22.3835 46.3989C22.4985 46.6864 22.6702 46.9473 22.8884 47.167C23.1066 47.3867 23.3668 47.5603 23.6535 47.6772C23.9402 47.7942 24.2475 47.8525 24.5571 47.8481C24.8562 47.8592 25.1543 47.8068 25.4319 47.6948C25.7094 47.5828 25.9603 47.4138 26.1679 47.1982C26.3756 46.9827 26.5354 46.7254 26.6369 46.4438C26.7384 46.1623 26.7794 45.8625 26.7571 45.564C26.7823 45.272 26.7443 44.9782 26.6458 44.7021C26.5472 44.4261 26.3904 44.1743 26.1859 43.9644C25.9814 43.7544 25.7341 43.5912 25.4608 43.4854C25.1875 43.3795 24.8946 43.3336 24.6021 43.3511H24.5991Z" fill="white"/>
<path d="M33.2311 43.9952C33.1359 43.9988 33.041 43.9828 32.9521 43.9488C32.8631 43.9149 32.7819 43.8635 32.7133 43.7975C32.6448 43.7314 32.5902 43.6522 32.5529 43.5645C32.5157 43.4769 32.4965 43.3829 32.4965 43.2877C32.4965 43.1925 32.5157 43.098 32.5529 43.0103C32.5902 42.9227 32.6448 42.8435 32.7133 42.7774C32.7819 42.7114 32.8631 42.66 32.9521 42.6261C33.041 42.5921 33.1359 42.5766 33.2311 42.5802H33.5671C34.7151 42.5802 35.6821 41.9798 35.6821 40.9278C35.6821 39.7928 34.6601 39.3731 33.8051 39.3731C33.0668 39.3714 32.3465 39.6012 31.7461 40.0309C31.6107 40.1286 31.4507 40.1868 31.2841 40.1988C31.0901 40.1835 30.9089 40.0963 30.7764 39.9537C30.644 39.8111 30.57 39.6239 30.5691 39.4293C30.5861 39.2609 30.6485 39.1002 30.7495 38.9644C30.8506 38.8287 30.9866 38.7229 31.1431 38.6583C31.955 38.114 32.9116 37.8261 33.8891 37.8321C35.8891 37.8321 37.3631 39.0322 37.3631 40.7872C37.3688 41.29 37.2237 41.7831 36.9466 42.2027C36.6694 42.6223 36.2728 42.9492 35.8081 43.1412C36.4459 43.2967 37.012 43.6637 37.414 44.1827C37.816 44.7017 38.03 45.3418 38.0211 45.9981C38.0211 47.5811 36.8301 49.3893 33.5951 49.3893C32.6135 49.4065 31.6393 49.2153 30.7371 48.8282C30.5617 48.7795 30.4086 48.6714 30.3038 48.5226C30.199 48.3737 30.1489 48.1934 30.1621 48.0118C30.1753 47.8303 30.2509 47.6586 30.3762 47.5265C30.5014 47.3944 30.6685 47.3101 30.8491 47.2872C31.0966 47.3208 31.3377 47.3916 31.5641 47.4972C32.2029 47.7383 32.8813 47.8575 33.5641 47.8482C35.7071 47.8482 36.3371 46.699 36.3371 45.816C36.3371 45.256 36.0431 43.9952 33.6481 43.9952H33.2311Z" fill="white"/>
<path d="M40.3731 45.0391C40.1609 45.0391 39.9574 44.9547 39.8074 44.8047C39.6573 44.6547 39.5731 44.4509 39.5731 44.2388C39.5731 44.0266 39.6573 43.8234 39.8074 43.6733C39.9574 43.5233 40.1609 43.439 40.3731 43.439H42.7971C43.0092 43.439 43.2127 43.5233 43.3627 43.6733C43.5128 43.8234 43.5971 44.0266 43.5971 44.2388C43.5971 44.4509 43.5128 44.6547 43.3627 44.8047C43.2127 44.9547 43.0092 45.0391 42.7971 45.0391H40.3731Z" fill="white"/>
<path d="M45.7241 40.731C45.7241 39.303 46.8161 37.8311 49.0721 37.8311C51.3131 37.8311 52.4191 39.302 52.4191 40.731C52.4211 41.1634 52.3176 41.5898 52.1176 41.9731C51.9175 42.3565 51.627 42.6855 51.2711 42.9312C51.8141 43.2033 52.2684 43.6242 52.5809 44.145C52.8935 44.6658 53.0513 45.2649 53.0361 45.8721C53.0361 48.0161 51.2291 49.3892 49.0721 49.3892C46.9001 49.3892 45.1071 48.0011 45.1071 45.8721C45.0918 45.2649 45.2497 44.6658 45.5623 44.145C45.8748 43.6242 46.3291 43.2033 46.8721 42.9312C46.5151 42.6866 46.2237 42.3578 46.0235 41.9741C45.8233 41.5905 45.7205 41.1637 45.7241 40.731ZM51.3411 45.8027C51.2622 45.2552 50.9886 44.7548 50.5705 44.3926C50.1524 44.0304 49.6178 43.8311 49.0646 43.8311C48.5114 43.8311 47.9768 44.0304 47.5586 44.3926C47.1405 44.7548 46.867 45.2552 46.7881 45.8027C46.8493 46.3638 47.1155 46.8825 47.5356 47.2593C47.9558 47.6361 48.5002 47.8447 49.0646 47.8447C49.6289 47.8447 50.1734 47.6361 50.5936 47.2593C51.0137 46.8825 51.2799 46.3638 51.3411 45.8027ZM50.8081 40.7871C50.7631 40.3579 50.5608 39.9602 50.2401 39.6714C49.9194 39.3825 49.5032 39.2227 49.0716 39.2227C48.64 39.2227 48.2237 39.3825 47.9031 39.6714C47.5824 39.9602 47.3801 40.3579 47.3351 40.7871C47.3861 41.2118 47.591 41.6029 47.911 41.8867C48.231 42.1705 48.6439 42.3271 49.0716 42.3271C49.4993 42.3271 49.9122 42.1705 50.2322 41.8867C50.5522 41.6029 50.757 41.2118 50.8081 40.7871Z" fill="white"/>
<path d="M54.8 43.603C54.8 42.524 54.8 37.832 58.736 37.832C62.672 37.832 62.6721 42.553 62.6721 43.603C62.6721 44.653 62.672 49.3892 58.736 49.3892C54.8 49.3892 54.8 44.668 54.8 43.603ZM60.9771 43.603C60.9771 41.292 60.487 39.373 58.736 39.373C56.957 39.373 56.495 41.348 56.495 43.603C56.495 45.942 56.985 47.8481 58.736 47.8481C60.543 47.8481 60.9771 45.803 60.9771 43.603Z" fill="white"/>
<path d="M71.6501 47.6231C71.7536 47.6194 71.8568 47.6364 71.9536 47.6734C72.0503 47.7105 72.1386 47.7665 72.2131 47.8385C72.2877 47.9104 72.347 47.9965 72.3875 48.0919C72.428 48.1872 72.4489 48.29 72.4489 48.3936C72.4489 48.4972 72.428 48.5996 72.3875 48.6949C72.347 48.7902 72.2877 48.8764 72.2131 48.9483C72.1386 49.0202 72.0503 49.0763 71.9536 49.1134C71.8568 49.1504 71.7536 49.1679 71.6501 49.1641H66.0051C65.2631 49.1641 64.4051 49.1642 64.4051 48.1422C64.4051 47.5112 64.7271 47.2591 65.5951 46.5421C66.8472 45.5031 68.0401 44.3949 69.1681 43.2222C69.4579 42.9626 69.6936 42.6479 69.8618 42.2969C70.0299 41.946 70.1272 41.5654 70.1481 41.1768C70.1562 40.9421 70.1168 40.7085 70.0324 40.4893C69.948 40.2701 69.8202 40.0701 69.6567 39.9014C69.4933 39.7328 69.2975 39.5987 69.081 39.5074C68.8646 39.4161 68.632 39.3695 68.3971 39.3702C67.9862 39.3811 67.5815 39.473 67.2065 39.6412C66.8315 39.8094 66.4935 40.0506 66.2121 40.3502C66.1441 40.4284 66.0603 40.4913 65.9662 40.5347C65.872 40.5782 65.7698 40.6012 65.6661 40.6021C65.4561 40.5954 65.2565 40.509 65.1079 40.3604C64.9593 40.2118 64.8728 40.0119 64.8661 39.8018C64.8661 39.1718 66.3791 37.8272 68.3661 37.8272C68.8137 37.796 69.2629 37.8578 69.6854 38.0089C70.108 38.1599 70.4946 38.3968 70.821 38.7047C71.1474 39.0125 71.4065 39.3844 71.5819 39.7974C71.7573 40.2104 71.8452 40.6554 71.8401 41.1041C71.8401 42.2671 71.4061 43.1499 70.0331 44.5509C68.8701 45.7409 67.2031 47.1282 66.6331 47.6182L71.6501 47.6231Z" fill="white"/>
<path d="M81.311 47.6231C81.4146 47.6194 81.5178 47.6364 81.6145 47.6734C81.7112 47.7104 81.7995 47.7665 81.8741 47.8384C81.9486 47.9104 82.0079 47.9965 82.0484 48.0919C82.0889 48.1872 82.1098 48.29 82.1098 48.3936C82.1098 48.4972 82.0889 48.5996 82.0484 48.6949C82.0079 48.7902 81.9486 48.8764 81.8741 48.9483C81.7995 49.0202 81.7112 49.0763 81.6145 49.1133C81.5178 49.1504 81.4146 49.1679 81.311 49.1641H75.666C74.924 49.1641 74.066 49.1642 74.066 48.1422C74.066 47.5112 74.388 47.2591 75.256 46.5421C76.5078 45.503 77.7004 44.3948 78.828 43.2222C79.1179 42.9625 79.3537 42.6478 79.522 42.2969C79.6904 41.9461 79.7879 41.5654 79.809 41.1768C79.8171 40.9421 79.7778 40.7085 79.6933 40.4893C79.6089 40.2701 79.4811 40.0701 79.3177 39.9014C79.1542 39.7327 78.9584 39.5987 78.742 39.5074C78.5256 39.4161 78.2929 39.3695 78.058 39.3702C77.6472 39.3811 77.2425 39.473 76.8675 39.6412C76.4924 39.8094 76.1545 40.0506 75.873 40.3502C75.8048 40.4284 75.7208 40.4913 75.6265 40.5347C75.5323 40.5782 75.4298 40.6011 75.326 40.6021C75.1159 40.5956 74.9162 40.5091 74.7676 40.3604C74.6189 40.2118 74.5326 40.0119 74.526 39.8018C74.526 39.1718 76.039 37.8272 78.026 37.8272C78.4737 37.796 78.923 37.8579 79.3455 38.0089C79.7681 38.1599 80.1548 38.3963 80.4813 38.7042C80.8078 39.012 81.0669 39.3844 81.2424 39.7974C81.418 40.2104 81.506 40.6554 81.501 41.1041C81.501 42.2671 81.067 43.1498 79.693 44.5508C78.531 45.7408 76.864 47.1282 76.293 47.6182L81.311 47.6231Z" fill="white"/>
<path d="M93.57 45.0317C93.5203 45.1519 93.4396 45.2567 93.3361 45.3354C93.2326 45.4142 93.1101 45.4642 92.981 45.48C92.701 45.48 92.617 45.3679 91.875 44.4009V49.71C91.875 50.228 91.664 50.438 91.119 50.438C91.0225 50.4488 90.9249 50.4372 90.8337 50.4038C90.7425 50.3704 90.6604 50.3162 90.5937 50.2456C90.5271 50.175 90.4778 50.0895 90.4497 49.9966C90.4217 49.9036 90.4156 49.8057 90.432 49.71V45.2002C89.605 46.0132 89.41 46.0679 89.171 46.0679C88.9741 46.0496 88.7917 45.9565 88.6614 45.8076C88.5312 45.6588 88.463 45.4657 88.471 45.2681C88.471 44.9321 88.513 44.8901 89.339 44.2031C90.4215 43.369 91.2629 42.2622 91.777 40.9961C91.777 40.7711 91.525 40.771 91.398 40.771H89.339C88.839 40.771 88.625 40.5611 88.625 40.0581C88.6175 39.9648 88.6313 39.8709 88.6653 39.7837C88.6993 39.6964 88.7528 39.6178 88.8215 39.5542C88.8903 39.4906 88.9726 39.4436 89.0623 39.4165C89.1519 39.3894 89.2466 39.3831 89.339 39.3979H90.432V37.9697C90.432 37.4097 90.684 37.2271 91.203 37.2271C91.777 37.2271 91.875 37.6471 91.875 37.9561V39.3979H92.169C92.869 39.3979 93.318 39.7347 93.318 40.3647C93.1928 41.2968 92.8363 42.1829 92.281 42.9419C92.5395 43.2827 92.8152 43.6101 93.107 43.9229C93.528 44.3439 93.57 44.3992 93.626 44.5542C93.808 43.7412 94.634 43.7271 94.971 43.7271H99.845C100.84 43.7271 101.26 44.0921 101.26 45.1421V48.7559C101.26 49.8199 100.826 50.1709 99.845 50.1709H94.971C94.018 50.1709 93.571 49.8339 93.571 48.7559L93.57 45.0317ZM93.85 38.9102C93.612 38.9102 93.121 38.8958 93.121 38.2798C93.121 37.7898 93.415 37.6357 93.85 37.6357H101.05C101.288 37.6357 101.764 37.6638 101.764 38.2798C101.764 38.8258 101.386 38.9102 101.05 38.9102H93.85ZM100.882 41.7959C100.882 42.8179 100.574 43.0698 99.551 43.0698H95.311C94.302 43.0698 93.98 42.8329 93.98 41.7959V40.8438C93.98 39.8068 94.316 39.5688 95.311 39.5688H99.555C100.536 39.5688 100.886 39.7927 100.886 40.8438L100.882 41.7959ZM94.942 46.2778H96.749V44.8359H95.335C95.2816 44.8276 95.227 44.8319 95.1756 44.8486C95.1242 44.8654 95.0774 44.8939 95.0391 44.9321C95.0009 44.9703 94.9721 45.017 94.9552 45.0684C94.9384 45.1197 94.9339 45.1746 94.942 45.228V46.2778ZM96.749 48.939V47.3179H94.942V48.5508C94.9336 48.6042 94.9379 48.659 94.9547 48.7104C94.9715 48.7619 95.0003 48.8085 95.0386 48.8467C95.077 48.8848 95.1238 48.9136 95.1754 48.9302C95.2269 48.9467 95.2816 48.9506 95.335 48.9419L96.749 48.939ZM99.523 41.0249C99.5312 40.9716 99.5267 40.917 99.5099 40.8657C99.4931 40.8145 99.4644 40.7681 99.4262 40.73C99.3881 40.6919 99.3414 40.6632 99.2901 40.6465C99.2388 40.6298 99.1843 40.6255 99.131 40.6338H95.741C95.405 40.6338 95.348 40.8339 95.348 41.0249V41.5859C95.348 41.8109 95.432 41.978 95.741 41.978H99.131C99.1844 41.9864 99.239 41.9821 99.2904 41.9653C99.3418 41.9486 99.3885 41.92 99.4267 41.8818C99.4649 41.8436 99.4936 41.7965 99.5103 41.7451C99.527 41.6937 99.5314 41.6393 99.523 41.5859V41.0249ZM99.887 46.2778V45.228C99.8954 45.1746 99.891 45.1197 99.8743 45.0684C99.8576 45.017 99.8289 44.9703 99.7907 44.9321C99.7525 44.8939 99.7058 44.8654 99.6544 44.8486C99.603 44.8319 99.5484 44.8276 99.495 44.8359H98.024V46.2778H99.887ZM99.887 47.3149H98.024V48.939H99.495C99.5484 48.9475 99.603 48.9434 99.6544 48.9268C99.7058 48.9102 99.7525 48.8814 99.7907 48.8433C99.829 48.8051 99.8576 48.7584 99.8744 48.707C99.8911 48.6557 99.8955 48.6012 99.887 48.5479V47.3149Z" fill="white"/>
<path d="M106.988 48.5342V46.4751H106.008C104.999 46.4751 104.593 46.0971 104.593 45.0601V39.7368C104.593 38.6858 105.013 38.3369 106.008 38.3369H108.641C108.683 38.2259 108.851 37.6647 108.893 37.5527C108.935 37.4407 109.047 37.2168 109.565 37.2168C109.902 37.2168 110.406 37.3292 110.406 37.6792C110.379 37.9086 110.311 38.131 110.206 38.3369H113.539C114.492 38.3369 114.954 38.6588 114.954 39.7368V41.502C114.954 42.595 114.492 42.917 113.539 42.917H106.088V43.5889H115.921C116.285 43.5889 116.509 43.7291 116.509 44.1211C116.518 44.1987 116.508 44.2769 116.481 44.3501C116.454 44.4233 116.41 44.4893 116.353 44.5425C116.296 44.5956 116.227 44.6344 116.152 44.6562C116.077 44.6781 115.998 44.6822 115.921 44.668H106.088V44.9619C106.08 45.0153 106.084 45.0697 106.101 45.1211C106.117 45.1724 106.146 45.2192 106.184 45.2573C106.223 45.2955 106.269 45.3242 106.321 45.3408C106.372 45.3574 106.427 45.3616 106.48 45.353H114.464C115.29 45.353 116.019 45.3679 116.019 46.5869C115.997 47.5849 115.818 48.5733 115.487 49.5151C115.066 50.2851 114.352 50.2852 113.26 50.2852C113.218 50.2852 112.573 50.2848 112.293 50.2568C111.803 50.2148 111.803 49.683 111.803 49.584C111.803 48.926 112.265 48.9121 112.447 48.9121C112.601 48.9121 113.371 48.939 113.539 48.939C113.704 48.9572 113.87 48.9187 114.011 48.8296C114.151 48.7405 114.256 48.6059 114.31 48.4487C114.442 47.9454 114.517 47.4293 114.534 46.9092C114.534 46.4752 114.324 46.4751 113.96 46.4751H108.399V48.5342H109.953C110.006 48.5414 110.06 48.5362 110.111 48.519C110.162 48.5019 110.209 48.473 110.247 48.4351C110.285 48.3971 110.313 48.3512 110.331 48.3003C110.348 48.2494 110.353 48.1953 110.346 48.1421V47.3711C110.346 46.8811 110.598 46.7271 111.116 46.7271C111.803 46.7271 111.803 47.2029 111.803 47.3989V48.3228C111.803 49.5568 111.172 49.71 110.388 49.71H104.939C103.945 49.71 103.524 49.3461 103.524 48.3101V47.3101C103.524 47.0441 103.566 46.6382 104.266 46.6382C104.995 46.6382 104.995 47.0991 104.995 47.3101V48.1372C104.986 48.1906 104.991 48.2449 105.007 48.2964C105.024 48.3479 105.053 48.3948 105.091 48.4331C105.129 48.4714 105.176 48.4999 105.227 48.5166C105.279 48.5333 105.334 48.5374 105.387 48.5288L106.988 48.5342ZM106.088 40.228H113.497V39.835C113.497 39.569 113.371 39.4419 113.119 39.4419H106.48C106.427 39.4341 106.372 39.439 106.321 39.4561C106.27 39.4731 106.223 39.5019 106.185 39.54C106.147 39.5782 106.119 39.6246 106.102 39.6758C106.085 39.727 106.08 39.7816 106.088 39.835V40.228ZM113.497 41.1089H106.088V41.895H113.119C113.344 41.895 113.497 41.795 113.497 41.502V41.1089Z" fill="white"/>
<path d="M118.824 50.1582C118.613 50.1399 118.415 50.0438 118.27 49.8887C118.125 49.7336 118.043 49.5301 118.039 49.3179C118.039 48.9389 118.193 48.8702 118.964 48.4922C119.62 48.1759 120.232 47.7752 120.785 47.3008C121.177 46.9778 121.303 46.895 121.513 46.895C121.708 46.9122 121.889 46.9998 122.023 47.1416C122.158 47.2834 122.235 47.4698 122.242 47.665C122.242 48.268 119.566 50.1582 118.824 50.1582ZM125.324 46.4458V49.6958C125.324 50.2958 125.058 50.4248 124.497 50.4248C123.965 50.4248 123.811 50.1448 123.811 49.6958V46.4458H120.111C119.018 46.4458 118.556 46.0399 118.556 44.8779V38.728C118.556 38.084 118.879 38 119.327 38C119.915 38 119.999 38.378 119.999 38.728V44.5562C119.987 44.6305 119.993 44.7067 120.016 44.7783C120.04 44.85 120.08 44.915 120.133 44.9683C120.186 45.0215 120.251 45.0612 120.323 45.0845C120.395 45.1077 120.471 45.1139 120.545 45.1021H130.435C131.121 45.1021 131.163 45.5218 131.163 45.8018C131.163 46.3898 130.701 46.4448 130.449 46.4448L125.324 46.4458ZM130.002 42.8462C130.002 43.9102 129.568 44.2607 128.588 44.2607H122.62C121.612 44.2607 121.206 43.8962 121.206 42.8462V39.0771C121.206 38.0551 121.612 37.6631 122.62 37.6631H128.588C129.568 37.6631 130.002 38.0131 130.002 39.0771V42.8462ZM128.588 39.5962V39.189C128.596 39.1357 128.592 39.081 128.575 39.0298C128.558 38.9785 128.529 38.9321 128.491 38.894C128.453 38.856 128.406 38.8272 128.355 38.8105C128.304 38.7939 128.249 38.7895 128.196 38.7979H122.985C122.932 38.7893 122.877 38.7935 122.826 38.8101C122.774 38.8267 122.728 38.8554 122.689 38.8936C122.651 38.9317 122.622 38.9784 122.606 39.0298C122.589 39.0811 122.585 39.1356 122.593 39.189V39.5962H128.588ZM128.588 41.3608V40.561H122.593V41.3608H128.588ZM122.593 42.3271V42.7622C122.586 42.8154 122.591 42.8695 122.608 42.9204C122.625 42.9713 122.654 43.0172 122.692 43.0552C122.73 43.0931 122.776 43.122 122.827 43.1392C122.878 43.1563 122.932 43.1611 122.985 43.1538H128.196C128.249 43.1613 128.304 43.1567 128.355 43.1396C128.405 43.1226 128.452 43.0937 128.49 43.0557C128.528 43.0177 128.556 42.9714 128.574 42.9204C128.591 42.8694 128.596 42.8154 128.588 42.7622V42.3271H122.593ZM127.593 46.8521C127.793 46.8521 127.859 46.9081 128.504 47.3701C129.141 47.843 129.821 48.2554 130.535 48.6021C130.843 48.7431 131.135 48.8831 131.135 49.2471C131.132 49.4705 131.045 49.6844 130.892 49.8477C130.74 50.0109 130.532 50.1115 130.309 50.1299C129.493 49.8615 128.737 49.438 128.081 48.8828C127.675 48.5748 126.905 47.9832 126.905 47.6372C126.897 47.4433 126.964 47.2534 127.092 47.1074C127.219 46.9614 127.399 46.8703 127.592 46.853L127.593 46.8521Z" fill="white"/>
<path d="M134.764 42.7339C134.848 42.3279 134.918 41.9341 134.988 41.3901H133.349C133.267 41.3977 133.185 41.388 133.107 41.3618C133.029 41.3357 132.957 41.2937 132.897 41.2383C132.836 41.1829 132.787 41.1152 132.754 41.04C132.721 40.9648 132.704 40.8835 132.704 40.8013C132.704 40.7191 132.721 40.6382 132.754 40.563C132.787 40.4878 132.836 40.4201 132.897 40.3647C132.957 40.3094 133.029 40.2674 133.107 40.2412C133.185 40.2151 133.267 40.2053 133.349 40.2129H135.086C135.128 39.5129 135.128 39.1631 135.142 38.9521H133.685C133.52 38.9521 133.361 38.8864 133.245 38.7695C133.128 38.6527 133.062 38.4943 133.062 38.3291C133.062 38.1639 133.128 38.0055 133.245 37.8887C133.361 37.7718 133.52 37.7061 133.685 37.7061H138.085C139.262 37.7061 139.542 37.9999 139.542 39.1479V40.2129H140.004C140.081 40.2127 140.156 40.2285 140.226 40.2593C140.296 40.2901 140.359 40.3351 140.411 40.3916C140.462 40.4481 140.501 40.5149 140.525 40.5874C140.55 40.6599 140.558 40.7369 140.551 40.813C140.556 40.8873 140.545 40.9617 140.52 41.0317C140.494 41.1018 140.454 41.1657 140.403 41.2197C140.352 41.2737 140.29 41.3168 140.221 41.3457C140.152 41.3746 140.079 41.3892 140.004 41.3882H139.542V42.4521C139.542 43.6431 139.234 43.895 138.085 43.895H135.802C135.69 44.2558 135.549 44.607 135.382 44.9458H138.043C139.08 44.9458 139.598 45.296 139.598 46.501V48.5591C139.598 49.7651 139.098 50.1138 138.043 50.1138H135.537C134.499 50.1138 133.981 49.7781 133.981 48.5591V47.0469C133.687 47.3689 133.533 47.5371 133.267 47.5371C133.079 47.5126 132.906 47.4212 132.78 47.2798C132.654 47.1384 132.583 46.9565 132.58 46.7671C132.585 46.6628 132.612 46.5606 132.658 46.4668C132.704 46.373 132.768 46.2894 132.847 46.2212C133.519 45.5577 134.052 44.7668 134.415 43.895H133.687C133.463 43.895 133.043 43.8948 133.043 43.3208C133.043 42.7468 133.505 42.7319 133.687 42.7319L134.764 42.7339ZM138.164 46.7271C138.176 46.6527 138.17 46.5765 138.147 46.5049C138.123 46.4332 138.084 46.3682 138.03 46.3149C137.977 46.2617 137.912 46.2215 137.84 46.1982C137.769 46.175 137.692 46.1693 137.618 46.1812H135.896C135.822 46.1689 135.745 46.1742 135.673 46.1973C135.601 46.2204 135.536 46.2606 135.483 46.314C135.429 46.3673 135.389 46.4326 135.366 46.5044C135.343 46.5762 135.337 46.6525 135.349 46.7271V48.2681C135.349 48.5761 135.461 48.813 135.896 48.813H137.618C138.01 48.813 138.164 48.6321 138.164 48.2681V46.7271ZM137.773 42.7339C137.822 42.7401 137.872 42.7349 137.919 42.7188C137.966 42.7026 138.009 42.6763 138.044 42.6411C138.079 42.606 138.105 42.5631 138.121 42.5161C138.137 42.4691 138.142 42.4193 138.136 42.3701V41.3901H136.274C136.203 42.0341 136.133 42.4399 136.074 42.7339H137.773ZM136.428 38.9521C136.4 39.6671 136.371 40.0029 136.371 40.2129H138.136V39.313C138.144 39.2635 138.14 39.2131 138.124 39.1655C138.109 39.118 138.082 39.0745 138.047 39.0391C138.011 39.0036 137.968 38.9771 137.921 38.9614C137.873 38.9458 137.823 38.9412 137.773 38.9487L136.428 38.9521ZM142.059 49.6831C142.074 49.7743 142.069 49.8678 142.043 49.9565C142.017 50.0453 141.971 50.1267 141.909 50.1953C141.847 50.2639 141.77 50.3178 141.685 50.3525C141.599 50.3872 141.506 50.4021 141.414 50.396C140.882 50.396 140.7 50.1581 140.7 49.6831V39.064C140.7 37.986 141.162 37.6489 142.115 37.6489H144.115C144.886 37.6489 145.573 37.6912 145.573 38.7422C145.378 39.8599 145.014 40.9415 144.494 41.9502C144.375 42.1861 144.273 42.4297 144.186 42.6792C144.186 42.8182 144.27 42.9021 144.438 43.0571C144.89 43.4735 145.265 43.9669 145.544 44.5142C145.821 45.0902 145.96 45.7226 145.95 46.3618C145.984 46.7853 145.912 47.2108 145.741 47.5996C145.57 47.9884 145.305 48.3284 144.97 48.5898C144.457 48.87 143.869 48.9829 143.289 48.9121C142.827 48.9121 142.364 48.9119 142.364 48.1279C142.364 47.4689 142.701 47.4688 143.023 47.4688C143.541 47.4688 143.696 47.4689 143.892 47.3569C144.068 47.2249 144.206 47.0495 144.293 46.8481C144.381 46.6468 144.415 46.4264 144.392 46.208C144.337 45.2457 143.927 44.338 143.243 43.6592C142.823 43.1972 142.767 43.1129 142.767 42.8179C142.805 42.4856 142.915 42.1656 143.089 41.8799C143.513 41.0414 143.841 40.1584 144.069 39.2471C144.069 39.0221 143.846 39.0088 143.747 39.0088H142.447C142.394 39.0025 142.341 39.0084 142.29 39.0259C142.24 39.0433 142.194 39.0717 142.157 39.1094C142.119 39.147 142.09 39.1929 142.073 39.2432C142.056 39.2935 142.05 39.347 142.056 39.3999L142.059 49.6831Z" fill="white"/>
<path d="M153.253 37.9302C153.253 37.7202 153.253 37.23 153.981 37.23C154.681 37.23 154.794 37.5242 154.794 37.9302V48.6182H157.932C158.01 48.6284 158.089 48.6205 158.163 48.5952C158.238 48.5699 158.305 48.5278 158.361 48.4722C158.416 48.4166 158.458 48.3488 158.483 48.2744C158.509 48.2 158.516 48.1208 158.506 48.043V40.2129C158.506 40.0029 158.506 39.4839 159.248 39.4839C159.948 39.4839 160.074 39.7789 160.074 40.2129V48.418C160.074 49.706 159.515 50.0571 158.422 50.0571H149.622C148.53 50.0571 147.969 49.706 147.969 48.418V40.209C147.969 39.985 147.969 39.48 148.698 39.48C149.37 39.48 149.51 39.747 149.51 40.209V48.0391C149.5 48.1182 149.509 48.1986 149.535 48.2739C149.561 48.3492 149.604 48.4174 149.662 48.4731C149.719 48.5289 149.788 48.5703 149.864 48.5947C149.94 48.6192 150.02 48.6257 150.099 48.6138H153.25L153.253 37.9302Z" fill="white"/>
<path d="M169.473 49.7251C169.473 49.9901 169.459 50.4668 168.759 50.4668C168.17 50.4668 167.959 50.2571 167.959 49.7671V43.0669H165.424C165.346 43.0565 165.267 43.0641 165.192 43.0894C165.118 43.1146 165.05 43.1568 164.995 43.2124C164.939 43.268 164.897 43.3357 164.872 43.4102C164.846 43.4846 164.839 43.5641 164.849 43.6421V48.7832C164.849 49.0212 164.835 49.4971 164.093 49.4971C163.421 49.4971 163.337 49.1192 163.337 48.7832V43.3179C163.337 42.0289 163.883 41.665 164.975 41.665H167.959V40.1938H162.859C162.677 40.1938 162.159 40.194 162.159 39.479C162.159 38.879 162.523 38.7651 162.859 38.7651H167.944V37.855C167.944 37.463 168.112 37.1821 168.658 37.1821C169.177 37.1821 169.499 37.308 169.499 37.855V38.7651H174.611C174.703 38.7508 174.797 38.7582 174.886 38.7866C174.975 38.8151 175.056 38.8635 175.123 38.9287C175.19 38.9939 175.24 39.0739 175.271 39.1621C175.301 39.2503 175.31 39.3445 175.298 39.437C175.298 39.956 175.116 40.1938 174.611 40.1938H169.471V41.665H172.511C173.603 41.665 174.163 42.0289 174.163 43.3179V47.7441C174.163 49.3271 173.295 49.3271 172.048 49.3271C171.054 49.3271 170.563 49.3268 170.563 48.4868C170.563 47.8008 170.983 47.8008 171.446 47.8008H172.216C172.566 47.7438 172.637 47.5201 172.637 47.2261V43.6401C172.647 43.5622 172.64 43.4827 172.614 43.4082C172.589 43.3337 172.547 43.2661 172.492 43.2104C172.436 43.1548 172.368 43.1126 172.294 43.0874C172.219 43.0622 172.14 43.0546 172.062 43.0649H169.471L169.473 49.7251Z" fill="white"/>
<path d="M177.582 39.2319C177.486 39.2474 177.388 39.241 177.294 39.2129C177.201 39.1848 177.116 39.1354 177.044 39.0693C176.973 39.0032 176.917 38.9218 176.882 38.8311C176.846 38.7403 176.832 38.6429 176.84 38.5459C176.84 37.9719 177.218 37.8599 177.582 37.8599H189.335C189.629 37.8599 190.049 37.9159 190.049 38.5039C190.049 38.9519 189.923 39.2319 189.335 39.2319H185.202V41.0122H187.821C188.929 41.0122 189.474 41.3759 189.474 42.6499V48.418C189.474 49.692 188.929 50.0571 187.821 50.0571H179.067C177.974 50.0571 177.414 49.706 177.414 48.418V42.646C177.414 41.386 177.946 41.0078 179.067 41.0078H180.818V39.228L177.582 39.2319ZM180.818 42.332H179.375C179.301 42.3215 179.225 42.3283 179.154 42.3521C179.083 42.3758 179.018 42.4157 178.965 42.4688C178.912 42.5218 178.872 42.5865 178.849 42.6577C178.825 42.7289 178.818 42.8047 178.829 42.8789V48.1738C178.817 48.2482 178.823 48.3243 178.846 48.396C178.87 48.4676 178.91 48.5327 178.963 48.5859C179.016 48.6392 179.081 48.6794 179.153 48.7026C179.225 48.7259 179.301 48.7316 179.375 48.7197H187.5C187.574 48.7316 187.651 48.7259 187.722 48.7026C187.794 48.6794 187.859 48.6392 187.912 48.5859C187.966 48.5327 188.005 48.4676 188.029 48.396C188.052 48.3243 188.058 48.2482 188.046 48.1738V42.8789C188.057 42.8047 188.05 42.7289 188.026 42.6577C188.003 42.5865 187.963 42.5218 187.91 42.4688C187.857 42.4157 187.792 42.3758 187.721 42.3521C187.65 42.3283 187.574 42.3215 187.5 42.332H185.2V45.1758C185.2 45.6658 185.354 45.666 185.984 45.666C186.545 45.666 186.601 45.6379 186.671 44.7979C186.699 44.3349 186.741 44.0981 187.203 44.0981C187.286 44.0884 187.371 44.0981 187.45 44.127C187.528 44.1558 187.599 44.2029 187.657 44.2642C187.714 44.3254 187.756 44.3995 187.78 44.48C187.803 44.5605 187.807 44.6455 187.792 44.728C187.792 44.798 187.792 46.297 187.26 46.689C186.937 46.927 186.685 46.9268 185.312 46.9268C184.107 46.9268 183.912 46.5211 183.912 45.4561V42.332H182.111V42.584C182.145 43.6855 181.92 44.7796 181.453 45.7778C181.131 46.4648 180.459 47.3892 179.969 47.3892C179.765 47.3779 179.572 47.2916 179.427 47.147C179.282 47.0023 179.196 46.8093 179.184 46.605C179.186 46.5167 179.208 46.4301 179.249 46.3521C179.291 46.274 179.35 46.2066 179.422 46.1558C179.915 45.7089 180.298 45.1539 180.541 44.5342C180.784 43.9145 180.88 43.247 180.822 42.584L180.818 42.332ZM183.918 39.2319H182.121V41.0122H183.911L183.918 39.2319Z" fill="white"/>
<path d="M191.953 48.771C191.953 48.365 192.065 48.31 193.116 47.791C194.796 46.9233 196.286 45.7275 197.496 44.2744C198.706 42.8213 199.613 41.1405 200.162 39.3311C200.47 38.2941 200.554 38 201.086 38C201.423 38 201.986 38.2102 201.986 38.7422C201.432 41.2512 200.268 43.5847 198.597 45.5361C196.313 48.1701 193.316 49.626 192.811 49.626C192.586 49.6197 192.372 49.5276 192.212 49.3687C192.053 49.2097 191.96 48.996 191.953 48.771Z" fill="white"/>
<path d="M207.095 40.7032C207.01 40.6904 206.924 40.6974 206.843 40.7237C206.761 40.7499 206.687 40.7947 206.626 40.8545C206.565 40.9144 206.519 40.9876 206.491 41.0684C206.463 41.1492 206.454 41.2351 206.465 41.3199V49.668C206.48 49.7646 206.472 49.8634 206.443 49.9566C206.414 50.0498 206.363 50.1347 206.295 50.2051C206.228 50.2756 206.144 50.3297 206.052 50.3628C205.96 50.3959 205.862 50.4072 205.765 50.396C205.232 50.396 204.98 50.228 204.98 49.668V41.2349C204.98 39.7229 205.499 39.3028 206.899 39.3028H210.121V38.003C210.106 37.9038 210.114 37.8024 210.145 37.7071C210.176 37.6117 210.23 37.5251 210.3 37.4541C210.371 37.3832 210.458 37.3297 210.553 37.2984C210.649 37.2671 210.75 37.2588 210.849 37.274C211.41 37.274 211.662 37.474 211.662 38.003V39.3028H214.912C216.299 39.3028 216.845 39.7089 216.845 41.2349V48.3648C216.893 48.6941 216.848 49.0306 216.715 49.3355C216.581 49.6404 216.364 49.9014 216.089 50.0889C215.518 50.3044 214.902 50.3764 214.296 50.2989C213.883 50.3374 213.467 50.3136 213.062 50.2281C212.934 50.1635 212.828 50.0625 212.757 49.938C212.686 49.8136 212.653 49.6709 212.662 49.5279C212.662 48.9539 213.012 48.7998 213.502 48.7998C213.712 48.7998 214.679 48.8278 214.875 48.7998C215.225 48.7578 215.352 48.5061 215.352 48.1841V41.3179C215.363 41.2331 215.354 41.1467 215.326 41.066C215.298 40.9852 215.251 40.9124 215.19 40.8526C215.129 40.7928 215.055 40.748 214.973 40.7217C214.892 40.6954 214.806 40.6885 214.721 40.7012H211.766C212.107 42.7053 213.192 44.5066 214.805 45.7442C215.071 45.9692 215.211 46.137 215.211 46.417C215.209 46.6326 215.129 46.84 214.984 47C214.84 47.16 214.641 47.2617 214.427 47.2852C214.227 47.2852 214.006 47.2712 213.166 46.4312C212.141 45.4361 211.376 44.2044 210.938 42.8448C210.62 43.9244 210.081 44.9265 209.355 45.7862C209.174 45.9862 207.969 47.2432 207.339 47.2432C207.128 47.223 206.933 47.1234 206.792 46.9649C206.652 46.8064 206.577 46.6009 206.582 46.3892C206.582 46.0532 206.82 45.8562 207.072 45.6602C208.294 44.8772 209.205 43.6934 209.65 42.312C209.83 41.7884 209.962 41.2492 210.042 40.7012L207.095 40.7032Z" fill="white"/>
<path d="M226.48 47.6231C226.584 47.6194 226.687 47.6364 226.784 47.6734C226.88 47.7105 226.969 47.7665 227.043 47.8385C227.118 47.9104 227.177 47.9965 227.217 48.0919C227.258 48.1872 227.279 48.29 227.279 48.3936C227.279 48.4972 227.258 48.5996 227.217 48.6949C227.177 48.7902 227.118 48.8764 227.043 48.9483C226.969 49.0202 226.88 49.0763 226.784 49.1134C226.687 49.1504 226.584 49.1679 226.48 49.1641H220.836C220.093 49.1641 219.236 49.1642 219.236 48.1422C219.236 47.5112 219.558 47.2591 220.428 46.5421C221.679 45.5027 222.871 44.3945 223.999 43.2222C224.289 42.9627 224.525 42.6484 224.693 42.2974C224.861 41.9465 224.958 41.5654 224.979 41.1768C224.987 40.9421 224.948 40.7085 224.863 40.4893C224.779 40.2701 224.651 40.0701 224.488 39.9014C224.324 39.7328 224.128 39.5987 223.912 39.5074C223.696 39.4161 223.463 39.3695 223.228 39.3702C222.817 39.3813 222.413 39.4735 222.038 39.6417C221.663 39.8099 221.325 40.0508 221.044 40.3502C220.976 40.4285 220.892 40.4913 220.798 40.5347C220.703 40.5782 220.601 40.6012 220.497 40.6021C220.287 40.5956 220.087 40.5091 219.939 40.3604C219.79 40.2118 219.704 40.0119 219.697 39.8018C219.697 39.1718 221.21 37.8272 223.197 37.8272C223.645 37.796 224.094 37.8578 224.516 38.0089C224.939 38.1599 225.326 38.3968 225.652 38.7047C225.978 39.0125 226.237 39.3844 226.413 39.7974C226.588 40.2104 226.676 40.6554 226.671 41.1041C226.671 42.2671 226.236 43.1499 224.864 44.5509C223.701 45.7409 222.034 47.1282 221.464 47.6182L226.48 47.6231Z" fill="white"/>
<path d="M236.396 48.6318C236.396 50.2988 235.528 50.2988 233.973 50.2988C233.482 50.3227 232.99 50.3039 232.503 50.2421C232.333 50.2118 232.181 50.1184 232.077 49.9809C231.973 49.8433 231.925 49.6715 231.942 49.4999C231.942 48.7579 232.474 48.7577 232.909 48.7577C233.119 48.7577 234.029 48.7709 234.209 48.7709C234.389 48.7709 234.839 48.7438 234.839 48.2118V39.3027H229.701C229.605 39.3202 229.507 39.3152 229.413 39.2875C229.32 39.2599 229.234 39.2104 229.163 39.1435C229.092 39.0766 229.038 38.994 229.005 38.9023C228.972 38.8106 228.961 38.7129 228.973 38.6161C228.973 38.0841 229.155 37.8461 229.701 37.8461H241.426C241.522 37.8286 241.62 37.8337 241.714 37.8613C241.807 37.8889 241.893 37.9381 241.963 38.0048C242.034 38.0716 242.089 38.154 242.122 38.2455C242.155 38.3371 242.166 38.435 242.154 38.5317C242.154 39.0777 241.954 39.3027 241.426 39.3027H236.396V48.6318Z" fill="white"/>
<path d="M255.404 48.4067C255.404 49.6957 254.858 50.0469 253.765 50.0469H246.511C245.432 50.0469 244.872 49.7097 244.872 48.4067V39.4419C244.872 38.1819 245.39 37.79 246.511 37.79H253.766C254.873 37.79 255.405 38.1679 255.405 39.4419L255.404 48.4067ZM246.369 41.4067H253.891V39.7397C253.902 39.665 253.896 39.589 253.872 39.5171C253.849 39.4452 253.81 39.3794 253.757 39.3252C253.704 39.271 253.64 39.2298 253.568 39.2046C253.497 39.1794 253.421 39.1712 253.346 39.1802H246.93C246.854 39.1702 246.777 39.1776 246.704 39.2021C246.632 39.2267 246.566 39.2677 246.512 39.3218C246.457 39.3759 246.416 39.4417 246.392 39.5142C246.367 39.5867 246.359 39.6638 246.369 39.7397V41.4067ZM246.369 42.6948V44.979H253.891V42.6948H246.369ZM246.369 46.2529V48.1162C246.36 48.1914 246.369 48.2675 246.394 48.3389C246.419 48.4103 246.461 48.475 246.515 48.5278C246.569 48.5807 246.635 48.6201 246.707 48.6436C246.779 48.667 246.855 48.6739 246.93 48.6631H253.346C253.42 48.6724 253.495 48.6644 253.566 48.6401C253.636 48.6159 253.7 48.5763 253.753 48.5234C253.805 48.4706 253.845 48.406 253.869 48.3354C253.893 48.2648 253.901 48.1901 253.891 48.1162V46.2529H246.369Z" fill="white"/>
<path d="M260.698 40.6611C260.55 40.7805 260.37 40.8535 260.18 40.8711C259.802 40.8711 259.48 40.3951 259.48 40.0601C259.48 39.7651 259.705 39.611 259.929 39.46L261.806 38.1851C262.063 37.978 262.377 37.8556 262.706 37.835C263.561 37.835 263.561 38.4927 263.561 38.8857V48.5928C263.561 49.0688 263.337 49.3931 262.721 49.3931C262.021 49.3931 261.866 49.0138 261.866 48.5928V39.8799L260.698 40.6611Z" fill="white"/>
<path d="M266.105 43.603C266.105 42.524 266.105 37.832 270.041 37.832C273.977 37.832 273.977 42.553 273.977 43.603C273.977 44.653 273.977 49.3892 270.041 49.3892C266.105 49.3892 266.105 44.668 266.105 43.603ZM272.282 43.603C272.282 41.292 271.792 39.373 270.041 39.373C268.263 39.373 267.8 41.348 267.8 43.603C267.8 45.942 268.29 47.8481 270.041 47.8481C271.848 47.8481 272.282 45.803 272.282 43.603Z" fill="white"/>
<path d="M276.021 45.0391C275.809 45.0391 275.605 44.9547 275.455 44.8047C275.305 44.6547 275.221 44.4509 275.221 44.2388C275.221 44.0266 275.305 43.8234 275.455 43.6733C275.605 43.5233 275.809 43.439 276.021 43.439H278.444C278.656 43.439 278.86 43.5233 279.01 43.6733C279.16 43.8234 279.244 44.0266 279.244 44.2388C279.244 44.4509 279.16 44.6547 279.01 44.8047C278.86 44.9547 278.656 45.0391 278.444 45.0391H276.021Z" fill="white"/>
<path d="M287.411 47.6231C287.515 47.6194 287.618 47.6364 287.715 47.6734C287.811 47.7105 287.9 47.7665 287.974 47.8385C288.049 47.9104 288.108 47.9965 288.148 48.0919C288.189 48.1872 288.21 48.29 288.21 48.3936C288.21 48.4972 288.189 48.5996 288.148 48.6949C288.108 48.7902 288.049 48.8764 287.974 48.9483C287.9 49.0202 287.811 49.0763 287.715 49.1134C287.618 49.1504 287.515 49.1679 287.411 49.1641H281.767C281.023 49.1641 280.167 49.1642 280.167 48.1422C280.167 47.5112 280.489 47.2591 281.358 46.5421C282.61 45.5028 283.802 44.3946 284.93 43.2222C285.22 42.9627 285.456 42.6484 285.624 42.2974C285.792 41.9465 285.889 41.5654 285.91 41.1768C285.918 40.9421 285.879 40.7085 285.794 40.4893C285.71 40.2701 285.582 40.0701 285.419 39.9014C285.255 39.7328 285.059 39.5987 284.843 39.5074C284.627 39.4161 284.394 39.3695 284.159 39.3702C283.748 39.3812 283.344 39.4735 282.969 39.6417C282.594 39.8099 282.256 40.0507 281.974 40.3502C281.906 40.4285 281.822 40.4913 281.728 40.5347C281.634 40.5782 281.532 40.6013 281.428 40.6021C281.218 40.5958 281.018 40.5096 280.869 40.3609C280.721 40.2122 280.634 40.012 280.628 39.8018C280.628 39.1718 282.14 37.8272 284.128 37.8272C284.576 37.796 285.025 37.8578 285.447 38.0089C285.87 38.1599 286.256 38.3968 286.583 38.7047C286.909 39.0126 287.168 39.3844 287.343 39.7974C287.518 40.2104 287.606 40.6555 287.601 41.1041C287.601 42.2671 287.167 43.1499 285.795 44.5509C284.632 45.7409 282.965 47.1282 282.395 47.6182L287.411 47.6231Z" fill="white"/>
<path d="M293.893 41.8662C294.378 41.8513 294.862 41.9359 295.313 42.1152C295.764 42.2946 296.174 42.5647 296.517 42.9087C296.86 43.2527 297.128 43.6633 297.306 44.1152C297.484 44.5672 297.567 45.0508 297.55 45.5361C297.564 46.0472 297.474 46.5555 297.284 47.0303C297.095 47.5051 296.81 47.936 296.448 48.2969C296.086 48.6577 295.654 48.9406 295.178 49.1284C294.703 49.3162 294.194 49.4052 293.683 49.3892C291.694 49.3892 289.537 48.058 289.537 44.415C289.537 40.772 291.723 37.832 294.93 37.832C295.21 37.832 295.812 37.874 295.812 38.603C295.812 39.316 295.434 39.3452 294.846 39.3872C292.857 39.5272 291.736 40.857 291.387 43.043C291.678 42.6585 292.058 42.3505 292.495 42.1455C292.931 41.9405 293.411 41.8448 293.893 41.8662ZM293.693 43.3511C293.395 43.3329 293.097 43.3739 292.816 43.4722C292.534 43.5704 292.275 43.7239 292.053 43.9233C291.832 44.1228 291.652 44.3646 291.525 44.6343C291.397 44.9039 291.325 45.1962 291.312 45.4941C291.306 45.8037 291.362 46.1114 291.477 46.3989C291.592 46.6864 291.764 46.9478 291.982 47.1675C292.2 47.3871 292.461 47.5603 292.747 47.6772C293.034 47.7942 293.341 47.8525 293.651 47.8481C293.95 47.8594 294.248 47.8073 294.526 47.6953C294.804 47.5834 295.055 47.4139 295.262 47.1982C295.47 46.9826 295.63 46.7255 295.731 46.4438C295.833 46.1622 295.874 45.8625 295.851 45.564C295.876 45.272 295.839 44.9782 295.74 44.7021C295.642 44.4261 295.485 44.1743 295.281 43.9644C295.076 43.7544 294.829 43.5912 294.556 43.4854C294.282 43.3795 293.99 43.3336 293.697 43.3511H293.693Z" fill="white"/>
<path d="M74.634 67.1636H70.934C70.694 67.1636 70.07 67.1637 70.07 66.4277C70.07 65.7387 70.502 65.6416 70.934 65.6416H80.042C80.342 65.6416 80.858 65.6905 80.858 66.3945C80.858 66.9865 80.522 67.1636 80.042 67.1636H76.296V69.5967H80.65C80.891 69.5967 81.483 69.6116 81.483 70.3486C81.483 71.0046 81.035 71.1006 80.65 71.1006H76.296V74.0293C76.7106 74.0765 77.1277 74.0986 77.545 74.0947H82.219C82.699 74.0947 83.067 74.3023 83.067 74.8613C83.067 75.7423 82.427 75.7427 82.203 75.7427H77.449C76.2404 75.8456 75.0264 75.6204 73.9352 75.0908C72.844 74.5612 71.9159 73.7466 71.249 72.7334C70.8567 73.7439 70.3117 74.6885 69.633 75.5337C69.5554 75.6399 69.4545 75.7266 69.338 75.7876C69.2215 75.8486 69.0925 75.8824 68.961 75.8857C68.719 75.8775 68.4882 75.7817 68.3115 75.6162C68.1347 75.4507 68.0241 75.2263 68 74.9854C68.0123 74.7173 68.1185 74.4624 68.3 74.2646C69.5047 72.6927 70.2955 70.8436 70.6 68.8867C70.68 68.4227 70.776 68.0537 71.4 68.0537C71.625 68.0537 72.313 68.1537 72.313 68.7427C72.2356 69.5075 72.0856 70.2631 71.865 70.9995C72.1257 71.5985 72.5036 72.139 72.9764 72.5898C73.4492 73.0406 74.0073 73.3926 74.618 73.6245L74.634 67.1636ZM74.602 61.7217C74.602 61.2567 74.858 61.0166 75.402 61.0166C75.946 61.0166 76.347 61.1287 76.347 61.7217V62.3604H80.876C82.125 62.3604 82.653 62.7937 82.653 64.1387V65.6387C82.6741 65.7505 82.6685 65.8654 82.6366 65.9746C82.6046 66.0838 82.5473 66.1838 82.4693 66.2666C82.3912 66.3494 82.2947 66.4128 82.1876 66.4512C82.0805 66.4895 81.9658 66.5017 81.853 66.4873C81.212 66.4873 80.973 66.2317 80.973 65.6387V64.4717C80.9867 64.3858 80.9801 64.2977 80.9538 64.2148C80.9275 64.1319 80.8822 64.0564 80.8215 63.9941C80.7608 63.9319 80.6863 63.8843 80.6041 63.856C80.5219 63.8276 80.4342 63.819 80.348 63.8306H70.616C70.2 63.8306 69.992 64.0227 69.992 64.4717V65.6387C70.0119 65.749 70.0059 65.8621 69.9745 65.9697C69.9432 66.0773 69.8872 66.1765 69.8111 66.2588C69.735 66.3411 69.6408 66.4046 69.536 66.4443C69.4312 66.484 69.3185 66.4985 69.207 66.4873C68.6 66.4873 68.307 66.2797 68.307 65.6387V64.1387C68.307 62.8087 68.835 62.3604 70.084 62.3604H74.598L74.602 61.7217Z" fill="white"/>
<path d="M88.482 75.2626C88.5015 75.3755 88.4942 75.4914 88.4606 75.6009C88.427 75.7105 88.3681 75.8104 88.2887 75.8929C88.2092 75.9755 88.1115 76.0383 88.0033 76.076C87.8951 76.1138 87.7796 76.1254 87.666 76.1102C86.898 76.1102 86.834 75.6106 86.834 75.2626V67.9476C86.37 68.6036 86.145 68.9076 85.697 68.9076C85.4481 68.8899 85.2157 68.7769 85.048 68.5922C84.8804 68.4074 84.7904 68.1648 84.797 67.9154C84.797 67.5794 84.813 67.5624 85.678 66.3944C86.6661 64.9568 87.4119 63.3671 87.886 61.6883C87.9093 61.4998 88.0033 61.3272 88.1491 61.2054C88.2948 61.0836 88.4814 61.022 88.671 61.0326C88.895 61.0326 89.535 61.1323 89.535 61.7533C89.3151 62.8438 88.96 63.903 88.478 64.9056L88.482 75.2626ZM93.604 68.4623C92.8873 69.9539 91.9899 71.3518 90.932 72.6244C90.147 73.5364 89.923 73.6644 89.603 73.6644C89.3597 73.6301 89.1369 73.5092 88.9753 73.3241C88.8138 73.139 88.7242 72.9023 88.723 72.6566C88.723 72.3686 88.835 72.1914 89.235 71.7914C91.0078 70.0334 92.3926 67.9235 93.3 65.5975H89.923C89.315 65.5975 89.091 65.3414 89.091 64.7494C89.083 64.6414 89.0997 64.533 89.1399 64.4325C89.1801 64.332 89.2427 64.2419 89.3229 64.1693C89.4032 64.0967 89.4989 64.0435 89.6029 64.0135C89.7069 63.9835 89.8164 63.9777 89.923 63.9964H93.604V61.8363C93.604 61.2913 93.797 61.0033 94.453 61.0033C94.5622 60.9928 94.6724 61.0076 94.7749 61.0467C94.8774 61.0859 94.9695 61.1487 95.0439 61.2294C95.1182 61.31 95.1729 61.4067 95.2037 61.5121C95.2344 61.6174 95.2403 61.7283 95.221 61.8363V63.9964H99.047C99.655 63.9964 99.879 64.2526 99.879 64.8456C99.879 65.5976 99.287 65.5975 99.047 65.5975H95.493C96.3864 67.9568 97.7914 70.0886 99.607 71.8402C99.722 71.9344 99.8168 72.0511 99.8856 72.183C99.9543 72.3148 99.9956 72.459 100.007 72.6073C100.002 72.8655 99.9031 73.1133 99.7296 73.3046C99.5561 73.4958 99.3194 73.6177 99.063 73.6483C98.727 73.6483 98.502 73.4402 97.763 72.5482C96.7549 71.3112 95.9004 69.957 95.218 68.5145V75.2694C95.218 75.8454 94.978 76.1024 94.37 76.1024C94.2609 76.1121 94.1511 76.0964 94.049 76.057C93.9468 76.0175 93.8551 75.9553 93.7808 75.8749C93.7065 75.7944 93.6517 75.6981 93.6205 75.5931C93.5894 75.4882 93.5827 75.3773 93.601 75.2694L93.604 68.4623Z" fill="white"/>
<path d="M114.904 73.5337C114.904 75.1497 114.247 75.6465 112.791 75.6465H105.044C103.587 75.6465 102.931 75.1467 102.931 73.5337V63.8975C102.931 62.3295 103.539 61.7847 105.044 61.7847H112.791C114.279 61.7847 114.904 62.3125 114.904 63.8975V73.5337ZM113.127 67.8037V64.2334C113.143 64.1224 113.133 64.0097 113.097 63.9033C113.062 63.797 113.002 63.7003 112.923 63.6211C112.844 63.5419 112.747 63.4821 112.64 63.4468C112.534 63.4115 112.421 63.4014 112.31 63.4175H105.51C105.399 63.4023 105.286 63.4131 105.18 63.4487C105.074 63.4843 104.978 63.544 104.899 63.623C104.82 63.7021 104.76 63.7979 104.724 63.9038C104.689 64.0098 104.678 64.1226 104.693 64.2334V67.8037H113.127ZM104.691 69.4204V73.2134C104.676 73.3241 104.687 73.4367 104.723 73.5425C104.759 73.6482 104.819 73.7443 104.898 73.8232C104.977 73.9022 105.073 73.9618 105.179 73.9976C105.285 74.0333 105.397 74.0441 105.508 74.0293H112.308C112.419 74.0439 112.531 74.0329 112.637 73.9971C112.743 73.9612 112.839 73.9016 112.918 73.8228C112.997 73.7439 113.056 73.6481 113.092 73.5425C113.128 73.4368 113.139 73.324 113.125 73.2134V69.4233L104.691 69.4204Z" fill="white"/>
<path d="M122.311 64.8906C122.311 65.1532 122.233 65.4097 122.087 65.6279C121.941 65.8462 121.733 66.0163 121.491 66.1167C121.248 66.2171 120.981 66.2432 120.723 66.1919C120.466 66.1405 120.229 66.0139 120.044 65.8281C119.858 65.6424 119.732 65.406 119.68 65.1484C119.629 64.8909 119.656 64.6235 119.756 64.3809C119.857 64.1383 120.027 63.931 120.245 63.7852C120.464 63.6393 120.72 63.5615 120.983 63.5615C121.158 63.5613 121.33 63.5954 121.492 63.6621C121.653 63.7288 121.8 63.8267 121.923 63.9502C122.046 64.0737 122.144 64.2205 122.211 64.3818C122.277 64.5432 122.311 64.7161 122.311 64.8906ZM122.311 72.2217C122.311 72.4843 122.233 72.7407 122.087 72.959C121.941 73.1772 121.733 73.3474 121.491 73.4478C121.248 73.5481 120.981 73.5743 120.723 73.523C120.466 73.4716 120.229 73.3449 120.044 73.1592C119.858 72.9734 119.732 72.7366 119.68 72.479C119.629 72.2214 119.656 71.9545 119.756 71.7119C119.857 71.4693 120.027 71.2621 120.245 71.1162C120.464 70.9703 120.72 70.8926 120.983 70.8926C121.158 70.892 121.331 70.9259 121.493 70.9927C121.654 71.0594 121.801 71.1575 121.924 71.2813C122.048 71.405 122.145 71.5522 122.212 71.7139C122.278 71.8756 122.312 72.0488 122.311 72.2236V72.2217Z" fill="white"/>
<path d="M129.805 70.8286C129.74 72.2201 129.357 73.5779 128.685 74.7983C128.108 75.8543 127.785 76.0786 127.385 76.0786C127.133 76.0918 126.885 76.0103 126.69 75.8506C126.494 75.6908 126.365 75.464 126.328 75.2144C126.362 74.9477 126.474 74.6973 126.649 74.4937C127.767 72.888 128.324 70.9579 128.233 69.0034V63.4497C128.233 61.9927 128.858 61.5605 130.122 61.5605H137.309C138.557 61.5605 139.198 61.9607 139.198 63.4497V74.0146C139.198 74.4146 139.198 75.4067 138.349 75.7427C137.64 75.9312 136.903 75.9906 136.173 75.9185C135.628 75.9274 135.082 75.9006 134.54 75.8384C134.369 75.7671 134.224 75.6437 134.126 75.4858C134.029 75.328 133.983 75.1437 133.996 74.9585C133.996 74.1265 134.572 74.1265 134.844 74.1265C135.132 74.1265 136.381 74.1577 136.637 74.1577C137.021 74.1577 137.469 74.1414 137.469 73.4854V70.8286H129.805ZM137.472 65.4663V63.8975C137.472 63.4815 137.296 63.2256 136.816 63.2256H130.605C130.514 63.2123 130.421 63.2204 130.333 63.2495C130.245 63.2786 130.166 63.3278 130.101 63.3931C130.035 63.4583 129.986 63.5379 129.957 63.6255C129.928 63.7131 129.92 63.8061 129.933 63.8975V65.4663H137.472ZM129.933 67.0186V69.2754H137.472V67.0234L129.933 67.0186Z" fill="white"/>
<path d="M147.443 66.7466C147.171 66.7466 146.787 66.6663 146.787 66.1543C146.787 65.6903 147.107 65.5625 147.443 65.5625H149.637C149.909 65.5625 149.989 65.4184 149.989 65.2104V64.6978H147.539C147.462 64.7058 147.384 64.6973 147.31 64.6733C147.237 64.6494 147.169 64.6104 147.111 64.5586C147.054 64.5067 147.008 64.4433 146.976 64.3726C146.945 64.3018 146.928 64.2249 146.928 64.1475C146.928 64.07 146.945 63.9936 146.976 63.9229C147.008 63.8521 147.054 63.7887 147.111 63.7368C147.169 63.685 147.237 63.6456 147.31 63.6216C147.384 63.5976 147.462 63.5896 147.539 63.5977H149.989V63.1494C149.989 62.8934 149.876 62.7817 149.637 62.7817H147.428C147.171 62.7817 146.787 62.7177 146.787 62.2217C146.787 61.9007 146.867 61.5806 147.428 61.5806H149.828C150.996 61.5806 151.348 61.9337 151.348 63.1177V65.2295C151.348 66.6395 150.772 66.7505 149.684 66.7505C149.813 66.7783 149.929 66.8489 150.013 66.9507C150.097 67.0525 150.145 67.1795 150.148 67.3115C150.105 67.6063 150.003 67.8893 149.848 68.1436H151.948C152.06 67.9836 152.476 67.2787 152.572 67.1357C152.631 67.0288 152.72 66.9413 152.828 66.8843C152.936 66.8273 153.058 66.8029 153.18 66.8145C153.548 66.8145 153.98 66.9757 153.98 67.3267C153.98 67.4557 153.932 67.5996 153.548 68.1436H156.029C156.237 68.1436 156.686 68.1594 156.686 68.7354C156.686 69.1674 156.446 69.3447 156.029 69.3447H153.43V70.3203H155.735C155.927 70.3203 156.311 70.3523 156.311 70.8203C156.311 71.1723 156.2 71.3975 155.735 71.3975H153.43V72.3896H155.751C155.959 72.3896 156.311 72.4376 156.311 72.8896C156.311 73.1896 156.231 73.4653 155.751 73.4653H153.43V74.5225H156.36C156.744 74.5225 157.06 74.6655 157.06 75.1465C157.06 75.6105 156.787 75.7866 156.36 75.7866H149.46C148.388 75.7866 147.844 75.4344 147.844 74.1694V70.8696C147.492 71.2376 147.268 71.4453 146.996 71.4453C146.889 71.4398 146.784 71.4129 146.688 71.3662C146.592 71.3195 146.506 71.2539 146.435 71.1733V73.1094C146.435 74.4394 146.115 74.7598 144.787 74.7598H144.114C142.786 74.7598 142.466 74.4394 142.466 73.1094V63.3623C142.466 62.0333 142.766 61.6978 144.114 61.6978H144.787C146.115 61.6978 146.435 62.0183 146.435 63.3623V70.1968C146.595 70.0378 147.299 69.3177 147.428 69.1567C147.94 68.5304 148.381 67.8483 148.741 67.1235C148.884 66.8525 149.012 66.7874 149.109 66.7554L147.443 66.7466ZM145.155 67.4346V63.5615C145.155 63.3215 145.042 63.1934 144.803 63.1934H144.178C144.129 63.1886 144.08 63.1953 144.034 63.2124C143.988 63.2295 143.947 63.2566 143.913 63.292C143.879 63.3274 143.853 63.3703 143.838 63.417C143.823 63.4637 143.819 63.513 143.826 63.5615V67.4346H145.155ZM143.826 68.8276V72.8774C143.819 72.926 143.824 72.9754 143.839 73.022C143.854 73.0686 143.879 73.1111 143.913 73.1465C143.947 73.1819 143.988 73.2094 144.034 73.2266C144.08 73.2437 144.129 73.2501 144.178 73.2456H144.803C145.042 73.2456 145.155 73.1174 145.155 72.8774V68.8276H143.826ZM152.026 70.3164V69.3403H149.752C149.702 69.3342 149.652 69.3396 149.604 69.356C149.557 69.3723 149.514 69.3991 149.478 69.4346C149.443 69.4701 149.416 69.5131 149.399 69.5605C149.383 69.608 149.378 69.6587 149.384 69.7085V70.3164H152.026ZM152.026 71.3896H149.38V72.3813H152.022L152.026 71.3896ZM152.026 74.5107V73.4536H149.38V74.1533C149.38 74.4103 149.525 74.5063 149.748 74.5063L152.026 74.5107ZM152.65 64.6978C152.362 64.6978 152.058 64.5973 152.058 64.1533C152.058 63.7223 152.33 63.5938 152.65 63.5938H155.035V63.1455C155.041 63.0957 155.036 63.045 155.02 62.9976C155.003 62.9501 154.976 62.9071 154.941 62.8716C154.905 62.8361 154.862 62.8093 154.815 62.793C154.767 62.7767 154.717 62.7712 154.667 62.7773H152.47C152.07 62.7773 151.83 62.6176 151.83 62.1846C151.83 61.8016 152.005 61.5767 152.47 61.5767H154.903C156.055 61.5767 156.408 61.9298 156.408 63.1138V65.2256C156.408 66.3786 156.072 66.7466 154.903 66.7466H152.486C152.213 66.7466 151.83 66.6663 151.83 66.1543C151.83 65.6903 152.15 65.5625 152.486 65.5625H154.66C154.932 65.5625 155.028 65.4184 155.028 65.2104V64.6978H152.65Z" fill="white"/>
<path d="M171.973 73.5337C171.973 75.1497 171.317 75.6465 169.861 75.6465H162.114C160.657 75.6465 160 75.1467 160 73.5337V63.8975C160 62.3295 160.609 61.7847 162.114 61.7847H169.86C171.348 61.7847 171.972 62.3125 171.972 63.8975L171.973 73.5337ZM170.197 67.8037V64.2334C170.213 64.1224 170.203 64.0097 170.167 63.9033C170.132 63.797 170.072 63.7003 169.993 63.6211C169.914 63.5419 169.817 63.4821 169.71 63.4468C169.604 63.4115 169.491 63.4014 169.38 63.4175H162.58C162.469 63.4023 162.356 63.4131 162.25 63.4487C162.144 63.4843 162.048 63.544 161.969 63.623C161.89 63.7021 161.83 63.7979 161.794 63.9038C161.759 64.0098 161.748 64.1226 161.763 64.2334V67.8037H170.197ZM161.76 69.4233V73.2163C161.745 73.327 161.756 73.4397 161.792 73.5454C161.828 73.6512 161.888 73.7473 161.967 73.8262C162.046 73.9051 162.142 73.9647 162.248 74.0005C162.354 74.0363 162.466 74.0475 162.577 74.0327H169.377C169.488 74.0473 169.6 74.0358 169.706 74C169.812 73.9642 169.908 73.9046 169.987 73.8257C170.066 73.7468 170.125 73.6511 170.161 73.5454C170.197 73.4398 170.208 73.327 170.194 73.2163V69.4233H161.76Z" fill="white"/>
<path d="M179.976 68.5566C179.976 68.9208 179.868 69.2764 179.666 69.5791C179.463 69.8819 179.176 70.118 178.84 70.2573C178.503 70.3967 178.133 70.4333 177.776 70.3623C177.419 70.2913 177.091 70.1159 176.833 69.8584C176.576 69.6009 176.4 69.2726 176.329 68.9155C176.258 68.5584 176.295 68.1884 176.434 67.8521C176.573 67.5157 176.809 67.2282 177.112 67.0259C177.415 66.8236 177.771 66.7153 178.135 66.7153C178.377 66.7152 178.616 66.763 178.84 66.8555C179.063 66.9479 179.266 67.0834 179.437 67.2544C179.608 67.4254 179.744 67.6286 179.836 67.8521C179.929 68.0755 179.976 68.3148 179.976 68.5566Z" fill="white"/>
<path d="M189.911 61.8965C189.911 61.5605 189.975 61.0645 190.759 61.0645C191.496 61.0645 191.751 61.2885 191.751 61.8965V65.1147C191.709 67.532 192.571 69.8775 194.168 71.6924C195.144 72.7476 196.334 73.5827 197.658 74.1416C197.827 74.1957 197.975 74.2998 198.084 74.4399C198.192 74.5801 198.256 74.7498 198.266 74.9268C198.266 75.3268 197.946 75.9507 197.385 75.9507C196.633 75.9667 194.809 74.7984 193.592 73.5654C192.235 72.2564 191.284 70.5836 190.855 68.7476C190.381 70.8336 189.226 72.7028 187.574 74.0615C186.629 74.8465 184.981 75.9346 184.228 75.9346C183.621 75.9346 183.364 75.2628 183.364 74.9268C183.372 74.7726 183.421 74.623 183.505 74.4937C183.59 74.3643 183.706 74.2594 183.844 74.1895C184.969 73.7577 186.006 73.1228 186.902 72.3164C188.124 71.2225 189.016 69.809 189.478 68.2354C189.754 67.2121 189.899 66.1584 189.911 65.0986V61.8965ZM186.246 65.0967C186.767 66.0789 187.17 67.1196 187.446 68.1968C187.446 68.8048 186.837 69.0127 186.469 69.0127C185.909 69.0127 185.829 68.7727 185.46 67.7637C185.129 66.9005 184.75 66.0562 184.325 65.2354C183.876 64.3864 183.825 64.3068 183.825 64.0518C183.825 63.4428 184.544 63.2666 184.8 63.2666C185.141 63.2736 185.332 63.2736 186.246 65.0986V65.0967ZM197.946 63.9966C197.727 64.8819 197.376 65.7294 196.906 66.5107C195.606 68.9757 195.353 68.9756 195.017 68.9756C194.617 68.9756 194.056 68.6544 194.056 68.1904C194.056 67.9184 194.073 67.8707 194.697 66.8467C195.249 65.9225 195.72 64.9523 196.105 63.9468C196.265 63.5158 196.405 63.2266 196.921 63.2266C197.066 63.2236 197.946 63.3057 197.946 63.9937V63.9966Z" fill="white"/>
<path d="M205.595 66.7466C205.323 66.7466 204.939 66.6663 204.939 66.1543C204.939 65.6903 205.259 65.5625 205.595 65.5625H207.788C208.06 65.5625 208.14 65.4184 208.14 65.2104V64.6978H205.691C205.614 64.7058 205.536 64.6973 205.462 64.6733C205.389 64.6494 205.321 64.6104 205.263 64.5586C205.206 64.5067 205.16 64.4433 205.128 64.3726C205.097 64.3018 205.08 64.2249 205.08 64.1475C205.08 64.07 205.097 63.9936 205.128 63.9229C205.16 63.8521 205.206 63.7887 205.263 63.7368C205.321 63.685 205.389 63.6456 205.462 63.6216C205.536 63.5976 205.614 63.5896 205.691 63.5977H208.14V63.1494C208.14 62.8934 208.028 62.7817 207.788 62.7817H205.579C205.323 62.7817 204.939 62.7177 204.939 62.2217C204.939 61.9007 205.019 61.5806 205.579 61.5806H207.979C209.147 61.5806 209.499 61.9337 209.499 63.1177V65.2295C209.499 66.6395 208.923 66.7505 207.834 66.7505C208.234 66.8955 208.299 67.1505 208.299 67.3115C208.256 67.6063 208.154 67.8893 207.999 68.1436H210.099C210.211 67.9836 210.627 67.2787 210.723 67.1357C210.782 67.0288 210.872 66.9413 210.98 66.8843C211.088 66.8273 211.21 66.803 211.332 66.8145C211.7 66.8145 212.132 66.9757 212.132 67.3267C212.132 67.4557 212.085 67.5996 211.701 68.1436H214.181C214.389 68.1436 214.838 68.1594 214.838 68.7354C214.838 69.1674 214.597 69.3447 214.181 69.3447H211.588V70.3203H213.888C214.081 70.3203 214.464 70.3523 214.464 70.8203C214.464 71.1723 214.352 71.3975 213.888 71.3975H211.588V72.3896H213.909C214.118 72.3896 214.469 72.4376 214.469 72.8896C214.469 73.1896 214.389 73.4653 213.909 73.4653H211.588V74.5225H214.517C214.902 74.5225 215.217 74.6655 215.217 75.1465C215.217 75.6105 214.945 75.7866 214.517 75.7866H207.617C206.544 75.7866 206.001 75.4344 206.001 74.1694V70.8696C205.648 71.2376 205.423 71.4453 205.152 71.4453C205.045 71.4398 204.94 71.4129 204.844 71.3662C204.748 71.3195 204.662 71.2539 204.591 71.1733V73.1094C204.591 74.4394 204.271 74.7598 202.943 74.7598H202.26C200.932 74.7598 200.612 74.4394 200.612 73.1094V63.3623C200.612 62.0333 200.912 61.6978 202.26 61.6978H202.933C204.261 61.6978 204.581 62.0183 204.581 63.3623V70.1968C204.742 70.0378 205.446 69.3177 205.574 69.1567C206.087 68.5311 206.527 67.8489 206.886 67.1235C207.031 66.8525 207.159 66.7874 207.254 66.7554L205.595 66.7466ZM203.306 67.4346V63.5615C203.306 63.3215 203.194 63.1934 202.954 63.1934H202.33C202.281 63.1887 202.232 63.1953 202.186 63.2124C202.14 63.2295 202.098 63.2566 202.064 63.292C202.03 63.3274 202.005 63.3703 201.99 63.417C201.975 63.4637 201.97 63.5129 201.977 63.5615V67.4346H203.306ZM201.977 68.8276V72.8774C201.97 72.926 201.975 72.9754 201.99 73.022C202.005 73.0686 202.031 73.1111 202.065 73.1465C202.099 73.1818 202.14 73.2094 202.186 73.2266C202.232 73.2437 202.281 73.2501 202.33 73.2456H202.954C203.194 73.2456 203.306 73.1174 203.306 72.8774V68.8276H201.977ZM210.177 70.3164V69.3403H207.9C207.85 69.334 207.8 69.3392 207.752 69.3555C207.704 69.3717 207.661 69.3986 207.626 69.4341C207.59 69.4696 207.563 69.513 207.547 69.5605C207.531 69.6081 207.526 69.6587 207.532 69.7085V70.3164H210.177ZM210.177 71.3896H207.537V72.3813H210.177V71.3896ZM210.177 74.5107V73.4536H207.537V74.1533C207.537 74.4103 207.681 74.5063 207.905 74.5063L210.177 74.5107ZM210.802 64.6978C210.514 64.6978 210.21 64.5973 210.21 64.1533C210.21 63.7223 210.482 63.5938 210.802 63.5938H213.187V63.1455C213.193 63.0957 213.188 63.045 213.172 62.9976C213.155 62.9501 213.128 62.9071 213.093 62.8716C213.057 62.8361 213.014 62.8093 212.967 62.793C212.919 62.7767 212.869 62.7712 212.819 62.7773H210.626C210.226 62.7773 209.986 62.6176 209.986 62.1846C209.986 61.8016 210.162 61.5767 210.626 61.5767H213.059C214.211 61.5767 214.559 61.9298 214.559 63.1138V65.2256C214.559 66.3786 214.223 66.7466 213.059 66.7466H210.642C210.37 66.7466 209.986 66.6663 209.986 66.1543C209.986 65.6903 210.306 65.5625 210.642 65.5625H212.819C213.091 65.5625 213.187 65.4184 213.187 65.2104V64.6978H210.802Z" fill="white"/>
<path d="M230.123 73.5337C230.123 75.1497 229.467 75.6465 228.011 75.6465H220.26C218.803 75.6465 218.147 75.1467 218.147 73.5337V63.8975C218.147 62.3295 218.755 61.7847 220.26 61.7847H228.007C229.495 61.7847 230.119 62.3125 230.119 63.8975L230.123 73.5337ZM228.347 67.8037V64.2334C228.363 64.1225 228.353 64.0096 228.317 63.9033C228.282 63.7971 228.222 63.7008 228.143 63.6216C228.064 63.5424 227.967 63.4827 227.861 63.4473C227.755 63.4119 227.642 63.4016 227.531 63.4175H220.731C220.62 63.4024 220.508 63.413 220.402 63.4487C220.296 63.4844 220.2 63.5441 220.121 63.623C220.042 63.702 219.982 63.7984 219.946 63.9043C219.911 64.0102 219.9 64.1227 219.915 64.2334V67.8037H228.347ZM219.912 69.4204V73.2134C219.897 73.324 219.908 73.4367 219.944 73.5425C219.98 73.6482 220.039 73.7443 220.118 73.8232C220.197 73.9022 220.293 73.9618 220.399 73.9976C220.505 74.0333 220.617 74.0441 220.728 74.0293H227.528C227.639 74.0439 227.751 74.0329 227.857 73.9971C227.962 73.9612 228.058 73.9017 228.137 73.8228C228.216 73.7439 228.276 73.6481 228.312 73.5425C228.348 73.4368 228.359 73.324 228.344 73.2134V69.4233L219.912 69.4204Z" fill="white"/>
</svg>
