<svg xmlns="http://www.w3.org/2000/svg" width="68.439" height="321.804" viewBox="0 0 68.439 321.804"><g transform="translate(-854.781 -60.371)"><path d="M243.353,567.736a7.443,7.443,0,0,0-1.644,1.374,7.783,7.783,0,0,0-.62,1.052.33.33,0,0,1-.539.081,18.906,18.906,0,0,1-6.362-8.517l-6.71.027-.028.4q-.4,5.9-8.6,10.215a.249.249,0,0,1-.351-.081.264.264,0,0,1,.054-.4q5.418-4.475,5.983-9.757a45.059,45.059,0,0,0,.19-5.149c0-.52.25-.781.753-.781H239.04a.691.691,0,0,1,.782.781l-.027,4.826q0,.809-.781.781l-1.187-.027c-.556-.018-.791-.278-.7-.782v-.053h-1.752q2.074,2.829,7.9,5.713C243.415,567.512,243.442,567.61,243.353,567.736Zm-4.771,10.054q0,1.025-1.132,1.023-1.7.028-11.833,0a.286.286,0,0,1-.242-.107l-.674-.916c-.072-.091-.054-.135.054-.135h10.107a2.122,2.122,0,0,0,.89-.162,8.366,8.366,0,0,1,1.725-.674Q238.583,576.846,238.582,577.79Zm-2.21-3.234a.691.691,0,0,1-.782.781h-1.158a.7.7,0,0,1-.783-.809v-.216h-3.585v.244a.69.69,0,0,1-.781.781H228.1a.691.691,0,0,1-.783-.781l.028-7.143a.691.691,0,0,1,.781-.782h7.466a.691.691,0,0,1,.782.782Zm.781-16.792q-.135-.378-.35-.378h-8.814a.333.333,0,0,0-.377.378q0,1.508-.053,2.8l9.568-.026Zm-3.5,12.047-.026-1.617q0-.4-.378-.4h-2.776a.358.358,0,0,0-.4.4v1.617Zm0,3.342V571h-3.585v2.156Z" transform="translate(679.73 -495.829)" fill="#fff"/><path d="M228.367,593.131a.691.691,0,0,1-.782.781H226.4q-.7,0-.7-.674v-.026h-2.426v12.749a.69.69,0,0,1-.781.781H221.3a.691.691,0,0,1-.782-.781V585.988a.691.691,0,0,1,.782-.781h6.28a.691.691,0,0,1,.782.781Zm-2.75-4.5v-1.861q0-.4-.377-.4h-1.59q-.378,0-.378.4v1.861Zm0,3.423v-2.264h-2.345v2.264Zm9.865,12.668a.69.69,0,0,1-.781.781h-.943a.69.69,0,0,1-.782-.781v-.216h-2.749v.162a.691.691,0,0,1-.782.781H228.5a.69.69,0,0,1-.782-.781v-7.143a.691.691,0,0,1,.782-.782h6.2a.691.691,0,0,1,.781.782Zm-2.506-4.69v-1.725q0-.405-.377-.405H230.6q-.377,0-.377.405v1.725Zm0,3.288v-2.1h-2.749v2.1Zm9.972-17.708q-.054,3.666.054,9.434.108,6.414-.135,9.46a4.845,4.845,0,0,1-.727,2.453,3.916,3.916,0,0,1-2.21,1.294,1.283,1.283,0,0,1-1.455-.971q-.164-.539-.917-.539l-2.318-.027c-.144,0-.225-.08-.243-.242a.25.25,0,0,1,.189-.27l3.638-.7a1.685,1.685,0,0,0,1.078-.539,2.178,2.178,0,0,0,.27-1.239l-.026-10.944h-2.292c-.053.558-.279.836-.673.836h-1.267a.691.691,0,0,1-.782-.782v-7.25a.691.691,0,0,1,.782-.781h6.279Q242.948,584.8,242.948,585.611Zm-2.749.754q0-.376-.458-.377h-1.51q-.35,0-.35.377v1.914H240.2Zm-.027,3.073h-2.291v2.183h2.291Z" transform="translate(679.73 -495.829)" fill="#fff"/><path d="M239.256,623.221a7.8,7.8,0,0,1-1.914,5.228q-2.425,2.588-8.086,3.666c-.323.054-.53-.018-.619-.216-.073-.2.044-.35.349-.458q7.332-2.857,7.521-8.086a5.422,5.422,0,0,0-1.132-3.962q-1.43-1.536-4.663-1.428a5.793,5.793,0,0,0-5.5,5.552,2.824,2.824,0,0,0,.35,1.67,1.051,1.051,0,0,0,.944.513q1.158-.026,2.237-2.21a20.493,20.493,0,0,0,1.617-5.121q.054-.27.377-.189l1.537.3a.4.4,0,0,1,.35.511,17.671,17.671,0,0,1-2.075,6.254q-1.833,3.126-4.313,3.153a2.114,2.114,0,0,1-1.926-1.131,6.412,6.412,0,0,1-.715-3.343,7.2,7.2,0,0,1,2.372-5.633,8.145,8.145,0,0,1,5.525-2.049,8.046,8.046,0,0,1,5.66,1.806A6.264,6.264,0,0,1,239.256,623.221Z" transform="translate(679.73 -495.829)" fill="#fff"/><path d="M230.685,645.556a12.582,12.582,0,0,1-2.345,5.364,19.019,19.019,0,0,1-6.819,4.986.323.323,0,0,1-.486-.135.368.368,0,0,1,.109-.512,18.9,18.9,0,0,0,4.582-5.094,17.723,17.723,0,0,0,1.913-5.31.215.215,0,0,1,.269-.215l2.481.485C230.64,645.179,230.738,645.322,230.685,645.556Zm11.508,3.666a3.549,3.549,0,0,1,.3,1.455q0,2.02-1.375,2.211c-.179.017-.332.026-.458.026q-1.05,0-1.374-1.536a8.911,8.911,0,0,0-1-2.8,9.975,9.975,0,0,0-2.7-2.776q-.431-.324-.108-.62a.857.857,0,0,1,.647-.054Q240.766,646.015,242.193,649.222Zm.971-6.711a2.022,2.022,0,0,1-4.043,0,1.991,1.991,0,0,1,.593-1.443,1.987,1.987,0,0,1,2.857,0A2,2,0,0,1,243.164,642.511Zm-.916,0a1.1,1.1,0,0,0-1.1-1.106,1.035,1.035,0,0,0-.755.323,1.067,1.067,0,0,0-.324.783,1.107,1.107,0,0,0,1.079,1.078,1.066,1.066,0,0,0,.781-.324A1.032,1.032,0,0,0,242.248,642.511Z" transform="translate(679.73 -495.829)" fill="#fff"/><path d="M240.334,671.211q0,1-1.213,1.024-.324.029-3.989.028,0,3.53.054,8.112a3.52,3.52,0,0,1-.809,2.372,3.836,3.836,0,0,1-2.452,1.348c-.18.017-.333.027-.458.027q-.756,0-.89-.593a1,1,0,0,0-1.159-.782h-1.779c-.18,0-.279-.071-.3-.216a.219.219,0,0,1,.188-.3l3.288-.62a1.97,1.97,0,0,0,1.187-.5,2.268,2.268,0,0,0,.3-1.28q0-.646.027-4.285-2.643,3.936-9.622,6.711a.368.368,0,0,1-.513-.161.33.33,0,0,1,.135-.486,31.256,31.256,0,0,0,5.9-4.689,18.569,18.569,0,0,0,3.154-4.663h-6.011a.265.265,0,0,1-.242-.135l-.674-.917c-.072-.089-.055-.135.054-.135h7.842q-.025-2.856-.08-5.795a.527.527,0,0,1,.243-.242l2.263.054q.4.027.4.4-.027,3.1-.054,5.579h1.482a2.4,2.4,0,0,0,.89-.161,7.781,7.781,0,0,1,1.725-.647Q240.335,670.268,240.334,671.211Z" transform="translate(679.73 -495.829)" fill="#fff"/><path d="M228.717,700.825c.126.109.126.261,0,.459a58.936,58.936,0,0,0-3.261,5.606,2.315,2.315,0,0,0-.269,1.7q.322,1.078.323,1.132a1.143,1.143,0,0,1-1.186,1.213,1.577,1.577,0,0,1-1.159-.512,3.458,3.458,0,0,1-.89-1.752,18.064,18.064,0,0,1-.3-3.666q0-2.236.35-6.36.216-2.641.27-4.232c0-.233.126-.342.378-.324l1.994.135a.335.335,0,0,1,.35.431q-.189,2.346-.431,4.043a38.275,38.275,0,0,0-.377,5.2,7.071,7.071,0,0,0,.081,1.24c.017.18.08.269.188.269.09,0,.206-.1.351-.3q.969-1.428,3.072-4.205C228.385,700.69,228.556,700.664,228.717,700.825Zm13.072-3.126q0,1-1.239,1.025h-2.7v7.222q1.105.353,3.5,1.268a.659.659,0,0,1,.4.646,1.246,1.246,0,0,1-.081.432l-.567,1.32a.622.622,0,0,1-.593.405.864.864,0,0,1-.485-.163,18.9,18.9,0,0,0-2.506-1.589q-1.349,3.018-5.121,2.883-2.426-.08-2.4-3.288a2.712,2.712,0,0,1,.984-2.277,3.878,3.878,0,0,1,2.708-.66,10.385,10.385,0,0,1,1.375.242q.054-4.177.081-6.441h-3.477a.337.337,0,0,1-.243-.109l-.673-.916c-.054-.09-.037-.135.053-.135h4.34q0-2.939-.108-5.283a.628.628,0,0,1,.216-.216l2.264.109a.384.384,0,0,1,.4.43l-.082,4.96h.162a2.307,2.307,0,0,0,.917-.162,7.62,7.62,0,0,1,1.724-.674Q241.79,696.757,241.789,697.7Zm-6.792,9.6a5.856,5.856,0,0,0-2.372-.512q-1.239,0-1.239,1.159,0,1,.862,1.051a2.66,2.66,0,0,0,1.994-.512A2,2,0,0,0,235,707.294Z" transform="translate(679.73 -495.829)" fill="#fff"/><path d="M242.625,721.586q0,1.833-1.645,1.887a1.3,1.3,0,0,1-1.158-.567,4.481,4.481,0,0,1-.566-1.266,5.312,5.312,0,0,0-.539-1.267,4.064,4.064,0,0,0-2.156-1.482q-.245-.081,0-.189a5.592,5.592,0,0,1,2.21-.485,4.058,4.058,0,0,1,2.668.889A3.017,3.017,0,0,1,242.625,721.586Z" transform="translate(679.73 -495.829)" fill="#fff"/><path d="M241.385,737.212V750.58q0,3.693-3.584,4.07-.513.054-.864-.727-.269-.621-1.266-.593l-1.671.054a.258.258,0,0,1-.3-.243q-.025-.216.243-.3,2.183-.432,3.962-.89a1.066,1.066,0,0,0,.863-1.105q.054-1.7,0-12.83,0-.4-.377-.4h-5.418a12.185,12.185,0,0,1-.162,1.294,12.78,12.78,0,0,0,5.471,4.2q.216.108.081.27a6.862,6.862,0,0,0-1.239,1.105,7.384,7.384,0,0,0-.513.809.47.47,0,0,1-.188.188.417.417,0,0,1-.377-.107A11.6,11.6,0,0,1,232.3,740.2q-1.563,3.666-6.685,5.472a.293.293,0,0,1-.377-.135.225.225,0,0,1,.081-.351,11.223,11.223,0,0,0,3.962-3.8,8.472,8.472,0,0,0,.971-3.774h-4.772q-.4,0-.4.377l-.054,15.66a.691.691,0,0,1-.781.782h-1.159a.69.69,0,0,1-.781-.782l.053-16.441a.835.835,0,0,1,.782-.782h7.17q.025-1.24.026-4.393a.215.215,0,0,1,.243-.243l2.156.108q.405.027.4.405,0,1.642-.081,4.123H240.6A.691.691,0,0,1,241.385,737.212Zm-4.8,12.129a4.219,4.219,0,0,0-1.187,1.1,5.905,5.905,0,0,0-.377.7.352.352,0,0,1-.539.081,8.452,8.452,0,0,1-2.588-3.234,9.727,9.727,0,0,1-5.551,3.665.322.322,0,0,1-.351-.107.23.23,0,0,1,.054-.324,14.64,14.64,0,0,0,3.127-3.153,9.927,9.927,0,0,0,1.482-4.151.217.217,0,0,1,.27-.216l2.1.324q.4.054.325.431a14.664,14.664,0,0,1-.755,2.479,16.952,16.952,0,0,0,3.934,2.13C236.677,749.143,236.7,749.232,236.588,749.341Z" transform="translate(679.73 -495.829)" fill="#fff"/><path d="M237.936,770.087c0,.665-.415,1.006-1.241,1.024q-.35.027-3.5.027l.028,5.2q1.265.378,4.312,1.617a.622.622,0,0,1,.4.593,1.325,1.325,0,0,1-.109.485l-.62,1.348a.675.675,0,0,1-1.023.269A26.735,26.735,0,0,0,233,778.738a3.555,3.555,0,0,1-1.793,2.291,6.661,6.661,0,0,1-3.49.809q-2.7-.054-2.777-3.342a3.036,3.036,0,0,1,.783-2.264,2.7,2.7,0,0,1,1.643-.808,10.44,10.44,0,0,1,3.02.215q-.029-1.159-.028-4.5H227.5a.306.306,0,0,1-.242-.135l-.674-.916q-.081-.135.081-.135h3.72v-3.315h-4.152a.265.265,0,0,1-.242-.135l-.674-.916c-.072-.09-.053-.135.054-.135h4.986q0-2.48-.081-4.124a.628.628,0,0,1,.216-.216l2.291.135a.362.362,0,0,1,.377.4v3.8a2.751,2.751,0,0,0,.836-.162,7.751,7.751,0,0,1,1.725-.646q1.131,0,1.132.943,0,1-1.24,1.023-.3.028-2.453.028v3.315h1.024a2.244,2.244,0,0,0,.89-.162,7.842,7.842,0,0,1,1.725-.647Q237.936,769.143,237.936,770.087Zm-7.682,7.681a7.182,7.182,0,0,0-2.911-.566q-1.133.108-1.078,1.4.025,1.267,1.131,1.268a3.337,3.337,0,0,0,1.915-.513A2,2,0,0,0,230.254,777.768Z" transform="translate(679.73 -495.829)" fill="#fff"/><path d="M241.385,802.523a17.871,17.871,0,0,1-2.991,4.232,5.682,5.682,0,0,1-3.962,1.671,3.093,3.093,0,0,1-2.885-1.455,18.022,18.022,0,0,1-1.186-3.181q-.322-1.024-.755-1a4.171,4.171,0,0,0-2.1,1.213q-.646,1.752-1.374,3.881a.737.737,0,0,1-.755.539.529.529,0,0,1-.242-.054l-1.268-.431a.734.734,0,0,1-.511-.755.541.541,0,0,1,.053-.243q2.7-7.168,6.227-16.549c.071-.162.179-.215.323-.162l1.994.755a.335.335,0,0,1,.243.486q-.862,2.263-3.908,10.511a3.4,3.4,0,0,1,1.806-.781,1.681,1.681,0,0,1,1.671,1.1q.834,1.886.917,2.021.78,1.347,1.778,1.348a5.884,5.884,0,0,0,2.911-.674,14.46,14.46,0,0,0,3.531-2.911.281.281,0,0,1,.431-.027Q241.547,802.227,241.385,802.523Z" transform="translate(679.73 -495.829)" fill="#fff"/><path d="M243.487,835.473a.358.358,0,0,1-.242.4,7.577,7.577,0,0,1-2.938.62,5.194,5.194,0,0,1-3.8-1.456.366.366,0,0,0-.567,0,6.967,6.967,0,0,1-4.824,1.941,7.5,7.5,0,0,1-4.231-1.078,4.335,4.335,0,0,1-1.968-3.719,4.656,4.656,0,0,1,1.186-3.154,14.936,14.936,0,0,1,2.641-2.291.333.333,0,0,0,.081-.539q-2.426-3.074-2.426-5.176a4.117,4.117,0,0,1,1.564-3.369,5.423,5.423,0,0,1,3.584-1.185,6.22,6.22,0,0,1,3.639,1,3.486,3.486,0,0,1,1.537,3.261,4.075,4.075,0,0,1-1.187,2.722,16.386,16.386,0,0,1-3.153,2.237.283.283,0,0,0-.081.486q.189.243,1.078,1.266,1.536,1.806,3.4,3.855a.249.249,0,0,0,.216.054.149.149,0,0,0,.161-.135,5.673,5.673,0,0,0,.081-2.938q-.108-.4.377-.431l1.645-.108a.475.475,0,0,1,.458.161.669.669,0,0,1,.081.513,11.02,11.02,0,0,1-1.483,3.962.426.426,0,0,0,.054.593,11.453,11.453,0,0,0,1.78,1.536,5.086,5.086,0,0,0,3.018.674A.29.29,0,0,1,243.487,835.473Zm-8.167-1.833-5.228-5.93a.355.355,0,0,0-.567-.026,5.4,5.4,0,0,0-1.859,4.123,4.109,4.109,0,0,0,1.038,2.762,3.28,3.28,0,0,0,2.654,1.011,5.912,5.912,0,0,0,3.909-1.374A.367.367,0,0,0,235.32,833.64ZM234.3,820.567q-.054-3.045-2.695-3.153a2.558,2.558,0,0,0-2.009.769,2.76,2.76,0,0,0-.822,2.034q0,1.754,2.264,4.5a.366.366,0,0,0,.567.053Q234.323,822.588,234.3,820.567Z" transform="translate(679.73 -495.829)" fill="#fff"/><path d="M198.206,575.121a6.79,6.79,0,0,0-2.183,1.429q-.189.243-.728.97a.345.345,0,0,1-.566.054,24.875,24.875,0,0,1-7.169-11.859,18.174,18.174,0,0,1-4.448,7.924,27.058,27.058,0,0,1-7.573,5.255.3.3,0,0,1-.432-.107.291.291,0,0,1,.054-.4q8.194-6.848,9.6-15.013a54.941,54.941,0,0,0,.513-6.954.219.219,0,0,1,.242-.216l2.614.162q.405.027.378.485-.108,2.48-.162,3.45a30.008,30.008,0,0,1-.377,3.5,27.78,27.78,0,0,0,10.188,11.024C198.278,574.9,198.3,575,198.206,575.121Z" transform="translate(679.73 -495.829)" fill="#fff"/><path d="M187.209,603.444a1.592,1.592,0,0,1-.728,1.321,1.676,1.676,0,0,1-.673.243,1.62,1.62,0,0,1-1.375-.782q-.459-.727-.943-1.456a13.759,13.759,0,0,1-6.981,3.4.249.249,0,0,1-.323-.19.3.3,0,0,1,.188-.349,13.741,13.741,0,0,0,5.633-4.772,22.383,22.383,0,0,0-2.8-2.64.244.244,0,0,1,0-.405q.135-.133.459-.027a23.834,23.834,0,0,1,3.18,1.294,17.906,17.906,0,0,0,.863-2.776c.035-.144.143-.2.323-.162l2.129.512c.252.054.341.216.27.486a21.492,21.492,0,0,1-1.348,3.4Q187.264,602.285,187.209,603.444Zm8.248-17.25q0,.971-1.132,1.025-.621.026-11.752.026a14.984,14.984,0,0,1-4.609,5.014.344.344,0,0,1-.458-.028.294.294,0,0,1-.054-.43,23.781,23.781,0,0,0,3.289-9.569.22.22,0,0,1,.269-.188l2.938.458q.431.054.323.431a29.472,29.472,0,0,1-1.1,3.127h8.57a2.2,2.2,0,0,0,.89-.189,7.147,7.147,0,0,1,1.725-.647Q195.456,585.224,195.457,586.194Zm3.019,17.6q-.108,1.347-1.995,1.482a23.273,23.273,0,0,1-3.881,0,1.28,1.28,0,0,1-1.321-1.428V594.9c0-.252-.134-.378-.4-.378h-9.7a.567.567,0,0,1-.485-.214l-.674-.917q-.108-.135.054-.135H193.22a.691.691,0,0,1,.781.782v7.843q0,.484.432.512a6.859,6.859,0,0,0,.862,0,.849.849,0,0,0,.566-.485l2-3.477a.241.241,0,0,1,.3-.135.2.2,0,0,1,.135.3l-1.1,3.234q-.189.565.3.647A1.1,1.1,0,0,1,198.476,603.795ZM193.6,589.7q0,1.051-1.132,1.051h-9.649a.33.33,0,0,1-.27-.135l-.673-.916c-.054-.071-.027-.107.081-.107h7.9a2.073,2.073,0,0,0,.889-.19,7.218,7.218,0,0,1,1.725-.646Q193.6,588.755,193.6,589.7Z" transform="translate(679.73 -495.829)" fill="#fff"/><path d="M193.705,625.027a2.067,2.067,0,0,1-.458,1.362,1.418,1.418,0,0,1-1.132.552,1.284,1.284,0,0,1-1.078-.485,22.239,22.239,0,0,0-2.345-2.588q-2.911,5.015-9.811,8.141-.351.188-.539-.081-.162-.27.188-.513,5.985-4.2,8.086-9.218a36.512,36.512,0,0,0-5.229-3.261c-.2-.089-.26-.224-.188-.4.053-.162.188-.224.4-.189a31.437,31.437,0,0,1,5.822,1.672,45.463,45.463,0,0,0,1.024-7.79.192.192,0,0,1,.243-.189l2.426.162q.4.027.377.458a33.889,33.889,0,0,1-1.537,8.544,16.706,16.706,0,0,1,2.857,2.049A2.432,2.432,0,0,1,193.705,625.027Z" transform="translate(679.73 -495.829)" fill="#fff"/><path d="M195.322,650.29q0,1.078-1.347,1.132h-14.8a.329.329,0,0,1-.269-.135l-.728-1q-.108-.162.054-.162H191.2a2.448,2.448,0,0,0,1.038-.216l.971-.444a2.146,2.146,0,0,1,.876-.23Q195.322,649.238,195.322,650.29Zm-1.563-8.895q0,1.078-1.348,1.132-.378.029-11.59.028a.318.318,0,0,1-.269-.162l-.728-1c-.072-.089-.054-.134.054-.134h9.757a2.274,2.274,0,0,0,.97-.189q.54-.269,1.038-.5a2.163,2.163,0,0,1,.876-.229Q193.758,640.344,193.759,641.4Z" transform="translate(679.73 -495.829)" fill="#fff"/><path d="M197.721,672.5q0,.89-1.1.916-.3.029-12.8.027a.242.242,0,0,1-.215-.134l-.62-.809c-.054-.09-.037-.135.054-.135h8.193l.324-6.981a.168.168,0,0,0-.189-.189l-5.849.028a.264.264,0,0,1-.242-.135l-.593-.863c-.054-.072-.036-.108.053-.108h8.68a.642.642,0,0,1,.727.755l-.323,7.493h.539a2.268,2.268,0,0,0,.809-.134,7.487,7.487,0,0,1,1.536-.594Q197.72,671.633,197.721,672.5Z" transform="translate(679.73 -495.829)" fill="#fff"/><path d="M188.072,700.861a.691.691,0,0,1-.782.782h-.7a.69.69,0,0,1-.781-.782V682.425a.189.189,0,0,1,.215-.215l1.644.08c.27.019.4.153.4.4Z" transform="translate(679.73 -495.829)" fill="#fff"/><path d="M192.357,719.192q.216.324-.134.458a30.947,30.947,0,0,0-3.154,1.672,21.164,21.164,0,0,1,.458,2.641.7.7,0,0,1-.7.889l-1.186.163a.622.622,0,0,1-.809-.648q-.054-1-.108-1.806-2.8,1.781-2.695,3.5.052,1.294,1.887,1.429a16.03,16.03,0,0,0,3.881-.512.665.665,0,0,1,.889.593l.243,1.294a.677.677,0,0,1-.62.889A17.409,17.409,0,0,1,185.7,730q-3.531-.351-3.477-3.72.027-2.7,4.313-5.714-.378-2.451-1.51-2.7a1.617,1.617,0,0,0-1.267.351q-.189.565-.458,1.536a.678.678,0,0,1-.7.539.942.942,0,0,1-.242-.028l-1.24-.4a.717.717,0,0,1-.539-.727.536.536,0,0,1,.054-.243q.593-1.725,1.805-5.822H179.9a.283.283,0,0,1-.242-.107l-.674-.944c-.072-.072-.054-.108.053-.108h3.747q.567-2.074,1-4.124.054-.242.27-.189l2.156.486a.347.347,0,0,1,.269.485q-.322,1.105-.943,3.342h2.7a1.979,1.979,0,0,0,.89-.188,8.513,8.513,0,0,1,1.725-.647q1.132,0,1.132.97t-1.24,1.024h-5.525q-.378,1.322-1.078,3.774a2.834,2.834,0,0,1,2.075.027,4.634,4.634,0,0,1,2.21,2.506q.836-.565,2.641-1.671a.25.25,0,0,1,.351.081Z" transform="translate(679.73 -495.829)" fill="#fff"/><path d="M192.492,740.687q0,1-1.24,1.025-.378.027-7.277.027-1.457,9.055-2.129,13.962a.691.691,0,0,1-.89.647l-1.321-.216a.641.641,0,0,1-.593-.89q.916-3.934,2.291-13.5h-2.695a.329.329,0,0,1-.269-.135l-.674-.917c-.054-.088-.027-.134.081-.134h3.719q.351-2.479.674-4.8c.018-.144.108-.207.269-.19l2.076.325c.27.036.377.179.323.43l-.7,4.232h4.609a2.262,2.262,0,0,0,.889-.161,7.564,7.564,0,0,1,1.725-.674C192.115,739.735,192.492,740.06,192.492,740.687Zm2.83,14.232q.135.593-.593.808a10.893,10.893,0,0,1-2.965.27q-4.016,0-4.528-3.746-.027-.3.162-.378a.269.269,0,0,1,.4.108,3.377,3.377,0,0,0,3.235,1.59,8.505,8.505,0,0,0,3.1-.646q.7-.27.836.4Zm.189-9.11q0,.97-1.24,1.051a1.509,1.509,0,0,0-.728.216q-1.4.809-3.369,2.156c-.144.09-.26.09-.35,0-.108-.089-.108-.2,0-.324l1.509-2.021h-2.776a.327.327,0,0,1-.269-.135l-.7-.943c-.071-.089-.044-.135.081-.135h3.72a2.343,2.343,0,0,0,1.038-.229q.471-.228.97-.458a2.147,2.147,0,0,1,.876-.229Q195.51,744.758,195.511,745.809Z" transform="translate(679.73 -495.829)" fill="#fff"/><path d="M197.371,772.953a4.9,4.9,0,0,1-2.857,4.986,17.631,17.631,0,0,1-6.631,1.537c-.306.018-.485-.081-.539-.3s.063-.36.35-.432a16.951,16.951,0,0,0,4.5-1.536,4.127,4.127,0,0,0,2.4-3.746q-.054-2.589-2.263-2.615t-8.06,1.86q-.431.135-.539-.27l-.4-1.671q-.081-.35.215-.4a44.644,44.644,0,0,1,9.38-1.24,5.02,5.02,0,0,1,2.992,1.051A3.72,3.72,0,0,1,197.371,772.953Z" transform="translate(679.73 -495.829)" fill="#fff"/><path d="M183.059,803.2a.378.378,0,0,1-.027.512q-1.727,2.076-4.124,5.309c-.072.145-.189.351-.351.62a.3.3,0,0,1-.512.028l-1.806-1.807q-.162-.187,0-.323a40.716,40.716,0,0,1,6.307-4.42A.372.372,0,0,1,183.059,803.2Zm6.441,5.256a2.38,2.38,0,0,1-2.4,2.021,1.634,1.634,0,0,1-.944-.081,1.007,1.007,0,0,1-.4-.755q-.162-.78-1.348-.754l-2.156.027q-.27.027-.27-.243a.262.262,0,0,1,.216-.323l3.423-.566q1.213-.214,1.267-1.213c.017-.288.027-.557.027-.808a6.384,6.384,0,0,0-1.887-4.556.31.31,0,0,1,0-.512.479.479,0,0,1,.62-.081,6.513,6.513,0,0,1,4.043,6.118A8.3,8.3,0,0,1,189.5,808.459Zm1.874-12.345a1.008,1.008,0,0,1-.9.486,1.215,1.215,0,0,1-.809-.3,1.23,1.23,0,0,0-1.429.053q-.7.4-2.291,1.4c-.269.162-.476.171-.619.027q-.137-.16.135-.485,1.157-1.078,1.994-1.806a.909.909,0,0,0,.4-.7.943.943,0,0,0-.242-.593,6.569,6.569,0,0,0-3.936-2.182.264.264,0,0,1-.242-.27.253.253,0,0,1,.242-.243,16.649,16.649,0,0,1,1.806-.108,8.643,8.643,0,0,1,5.067,1.429,2.479,2.479,0,0,1,1.133,2.156A2.061,2.061,0,0,1,191.374,796.114Zm5.188,8.976a1.753,1.753,0,0,1-.431,1.347,1.264,1.264,0,0,1-1.24.4,1.336,1.336,0,0,1-1.024-1,4.034,4.034,0,0,0-3.154-2.4.072.072,0,0,1-.081-.081c-.018-.054.018-.107.108-.161a5.445,5.445,0,0,1,2.7-.674Q196.373,802.583,196.562,805.09Zm.135-6.631a1.924,1.924,0,0,1-.607,1.429,1.992,1.992,0,0,1-1.442.592,2.023,2.023,0,0,1-2.021-2.021,1.989,1.989,0,0,1,.593-1.442,1.922,1.922,0,0,1,1.428-.607,2.073,2.073,0,0,1,2.049,2.049Zm-.944,0a1.106,1.106,0,0,0-1.105-1.106,1.033,1.033,0,0,0-.754.325,1.061,1.061,0,0,0-.324.781,1.106,1.106,0,0,0,1.078,1.078,1.064,1.064,0,0,0,.782-.323A1.033,1.033,0,0,0,195.753,798.459Z" transform="translate(679.73 -495.829)" fill="#fff"/><path d="M187.317,822.9a37.046,37.046,0,0,0-2.668,4.448,2.025,2.025,0,0,0-.27,1,2.338,2.338,0,0,0,.135.687,2.3,2.3,0,0,1,.135.66c0,.7-.414,1.042-1.24,1.025q-1.268,0-1.644-1.671a10.958,10.958,0,0,1-.189-2.265,59.877,59.877,0,0,1,.809-8.086.219.219,0,0,1,.242-.216l1.914.135c.287.019.4.162.35.432a41.615,41.615,0,0,0-.7,5.93c.018.252.108.377.27.377a.381.381,0,0,0,.269-.135l2.184-2.668q.188-.243.4-.081Q187.479,822.6,187.317,822.9Zm4.5,4.448a12.1,12.1,0,0,1-1.671,6.334,18.035,18.035,0,0,1-6.684,5.929q-.405.242-.62,0c-.126-.162-.072-.341.161-.539a21.5,21.5,0,0,0,5.014-6.145,14.775,14.775,0,0,0,1.186-5.688,37.708,37.708,0,0,0-.377-5.875.192.192,0,0,1,.188-.243l1.564-.161c.233-.036.377.071.431.323A25.81,25.81,0,0,1,191.818,827.346Z" transform="translate(679.73 -495.829)" fill="#fff"/><path d="M192.546,863.922q.081.754-.593.862a24.857,24.857,0,0,1-4.771.216q-5.094-.216-5.228-4.259a5.657,5.657,0,0,1,.673-2.937,11.739,11.739,0,0,1,2.264-2.75q-.135-.728-1.967-8.625c-.036-.144.027-.224.188-.243l1.941-.376a.358.358,0,0,1,.458.295q.835,4.124,1.429,7.089,1.1-.888,3.719-2.965a.236.236,0,0,1,.351.054l1.266,1.348q.243.3-.108.512a45.936,45.936,0,0,0-5.929,4.258q-2.481,2.238-2.426,3.963.054,1.939,3.423,1.806a24.614,24.614,0,0,0,4.286-.485q.7-.135.809.62Z" transform="translate(679.73 -495.829)" fill="#fff"/><path d="M197.963,874.662a3.284,3.284,0,0,1-.9,2.452,3.366,3.366,0,0,1-2.467.89,3.5,3.5,0,0,1-2.52-.89,3.235,3.235,0,0,1-.929-2.452,3.164,3.164,0,0,1,.929-2.4,3.383,3.383,0,0,1,2.44-.89,3.516,3.516,0,0,1,2.493.89A3.114,3.114,0,0,1,197.963,874.662Zm-1.374-.055q-.054-2.4-2.022-2.4a1.689,1.689,0,0,0-1.482.741,3.337,3.337,0,0,0-.054,3.464,1.755,1.755,0,0,0,1.536.781Q196.67,877.2,196.589,874.607Z" transform="translate(679.73 -495.829)" fill="#fff"/></g></svg>