<svg id="gorup_78" data-name="gorup 78" xmlns="http://www.w3.org/2000/svg" xmlns:xlink="http://www.w3.org/1999/xlink" width="139.406" height="137.313" viewBox="0 0 139.406 137.313">
  <defs>
    <clipPath id="clip-path">
      <rect id="Rectangle_13" data-name="Rectangle 13" width="134.75" height="93.152" fill="none"/>
    </clipPath>
  </defs>
  <g id="gorup_56" data-name="gorup 56" transform="translate(0 44.161)">
    <g id="gorup_55" data-name="gorup 55" clip-path="url(#clip-path)">
      <g id="gorup_54" data-name="gorup 54" transform="translate(-25.426 2.33)">
        <g id="gorup_53" data-name="gorup 53">
          <path id="path_27" data-name="path 27" d="M125.938,2098.045c-8.1,14.64-28.708,30.36-80.9,22.1s-65.568-29.347-67.6-45.59c-2.242-17.957,9.918-32.416,21.89-40.044-2.647-1.934-5.113-4.644-5.935-6.74-3.035-7.743,2.347-16.493,12.022-19.544s19.978.751,23.014,8.494a15.094,15.094,0,0,1,.332,7.309c4.882-.759,9.841-1.218,14.971-1.615,7.1-.549,12.618-5.8,15.915-8.943.5-.479.954-.909,1.356-1.273h0a6.763,6.763,0,0,1,5.563-1.586h0a6.24,6.24,0,0,1,4.62,3.2c.24.465.5,1.01.791,1.615,1.9,3.961,5.084,10.589,11.543,13.282,4.443,1.853,8.72,3.71,12.83,5.792a15.7,15.7,0,0,1,3.054-6.554c5.8-6.345,16.938-6.757,24.865-.922s9.648,15.708,3.843,22.053c-1.5,1.636-4.608,3.327-7.687,4.354C128.881,2064.259,134.968,2081.726,125.938,2098.045Zm-12.23-42.69c-9.272-10.748-20.432-15.96-33-21.2-8.774-3.659-12.739-11.916-14.867-16.352-.173-.359-.333-.695-.486-1-.259.242-.537.508-.834.791-3.694,3.517-10.567,10.062-20.211,10.808-13.811,1.068-26.286,2.543-39.1,9.8-11.022,6.242-23.167,19.336-21.125,35.7,3.214,25.739,35.549,36.149,62.109,40.349s60.916,4.337,73.751-18.864C128.1,2080.633,121.684,2064.6,113.708,2055.355Z" transform="translate(22.83 -2007.178)" fill="#231815"/>
          <path id="path_28" data-name="path 28" d="M58.787,2097.295c.431-6.158-1.787-17.046-11.748-18.622s-15.855,8.031-17.8,13.95a2.863,2.863,0,0,0,2.184,3.6,3.3,3.3,0,0,0,4.021-1.955,25.547,25.547,0,0,1,1.714-3.685,12,12,0,0,0,6.831,3.591,14.713,14.713,0,0,0,8.134-1.225,24.292,24.292,0,0,1,.2,3.989,3.028,3.028,0,0,0,3.033,3.07A3.129,3.129,0,0,0,58.787,2097.295Z" transform="translate(28.802 -2007.178)" fill="#231815"/>
          <path id="path_29" data-name="path 29" d="M28.281,2056.664a24.2,24.2,0,0,0-24.209,4.693,21.84,21.84,0,0,0-6.947,10.2c-.03.06-.072.112-.1.174-2.6,6.031-2.5,19.891,16.474,29.178a5.4,5.4,0,0,0,1.532.483,5.227,5.227,0,0,0,5.278-2.278,4.274,4.274,0,0,0-2-6.109,36.209,36.209,0,0,1-4.787-2.783c8.216.556,17.168-2.714,21.888-11.046C41.31,2068.758,35.588,2059.22,28.281,2056.664Zm3,14.824c-2.04,4.825-7.3,4.7-9.555,3.835a5.422,5.422,0,0,1-3.9-4.663,6.435,6.435,0,0,1,2.224-5.628,8.164,8.164,0,0,1,7.05-1.693A5.7,5.7,0,0,1,31.282,2071.488Z" transform="translate(24.976 -2007.178)" fill="#231815"/>
          <path id="path_30" data-name="path 30" d="M93.859,2076.676A22.668,22.668,0,0,0,72.9,2064.84a16.277,16.277,0,0,0-15.283,18.967c2.035,15.025,20.5,21.665,30.759,16.314C95.886,2096.2,99.279,2086.448,93.859,2076.676Zm-15.626,4.658a5.987,5.987,0,0,1-5.447,3.184c-2.45.116-7.439-1.375-7.518-6.535a6.178,6.178,0,0,1,7.042-6.374,7.573,7.573,0,0,1,5.98,3.754A6.207,6.207,0,0,1,78.233,2081.334Z" transform="translate(32.059 -2007.178)" fill="#231815"/>
        </g>
      </g>
    </g>
  </g>
  <g id="gorup_57" data-name="gorup 57" transform="translate(36.203 0)">
    <path id="path_31" data-name="path 31" d="M36.642,1970.876c.057.651,1.266,28.043,1.266,28.043s-3.565-27.186-3.622-27.836a1.183,1.183,0,1,1,2.356-.207Z" transform="translate(-34.281 -1967.157)" fill="#231815"/>
    <path id="path_32" data-name="path 32" d="M135.333,1997.321c-.375.535-15.118,23.652-15.118,23.652s16.681-21.761,17.056-22.3a1.183,1.183,0,1,0-1.938-1.356Z" transform="translate(-34.281 -1967.157)" fill="#231815"/>
    <text id="ボリュームあって_おいしいパオ_" data-name="ボリュームあって
おいしいパオ♪" transform="matrix(0.966, 0.259, -0.259, 0.966, 50.317, 24.204)" fill="#231815" font-size="11.201" font-family="RocknRollOne-Regular, RocknRoll One"><tspan x="-44.805" y="0">ボリュームあって</tspan><tspan x="-39.204" y="15.47">おいしいパオ♪</tspan></text>
  </g>
</svg>
