<svg id="グループ_1" data-name="グループ 1" xmlns="http://www.w3.org/2000/svg" width="200" height="200" viewBox="0 0 200 200">
  <path id="パス_1" data-name="パス 1" d="M200,100A100,100,0,1,1,100,0,100,100,0,0,1,200,100" fill="#fff"/>
  <path id="パス_2" data-name="パス 2" d="M52.073,44.167a.909.909,0,0,0-.43,1.067l-2,1.419-.814-1.147,2.428-1.724a.739.739,0,0,0,.259-1.146.968.968,0,0,0-1.436-.187.9.9,0,0,0-.427,1.068l-1.489,1.055L47.3,43.343c.433-.4,2.33-2.226,2-2.693-.275-.394-1.181-.122-1.614.009l-.073.021a.109.109,0,0,0-.076.074c-.318.957-4.35,4.8-5.3,5.472a.11.11,0,0,0-.049.094.12.12,0,0,0,.049.092l.784.552a.116.116,0,0,0,.134,0c.646-.458,2.476-2.068,2.922-2.465l.735,1.037L43.3,48.031a.11.11,0,0,0-.027.159l.53.747a.113.113,0,0,0,.074.049.108.108,0,0,0,.085-.021l3.514-2.495.811,1.146-4,2.84a.114.114,0,0,0-.027.159l.531.747a.112.112,0,0,0,.073.049.128.128,0,0,0,.088-.022l4-2.836,1.171,1.653-1.607,1.141a.117.117,0,0,0-.028.161l.559.787a.115.115,0,0,0,.076.049h.018a.117.117,0,0,0,.067-.021l.677-.482.046.064a.8.8,0,0,0,.631.329,1.078,1.078,0,0,0,.668-.195,1.677,1.677,0,0,0,.549-2.373l-1.47-2.077L53.251,45.5a.743.743,0,0,0,.25-1.159.955.955,0,0,0-1.428-.174" fill="#231815"/>
  <path id="パス_3" data-name="パス 3" d="M64.4,34.683a.108.108,0,0,0,.033.006.116.116,0,0,0,.107-.07l.293-.7a.114.114,0,0,0,0-.094.109.109,0,0,0-.067-.061,6.532,6.532,0,0,1-1.733-1,.757.757,0,0,0-.076-.271.67.67,0,0,0-.36-.345.6.6,0,0,0-.491.022.57.57,0,0,0-.293.8,4.659,4.659,0,0,0,2.59,1.711" fill="#231815"/>
  <path id="パス_4" data-name="パス 4" d="M63.387,35.238l.165-.4a.117.117,0,0,0-.061-.15,9.5,9.5,0,0,1-1.729-1.009,1.036,1.036,0,0,0-.086-.263.7.7,0,0,0-.384-.359.552.552,0,0,0-.433.03.6.6,0,0,0-.32.348.56.56,0,0,0,.033.436,3.967,3.967,0,0,0,1.58,1.324,5.244,5.244,0,0,0-1.568.5c-.78.381-1.726.936-2.562,1.427-.665.388-1.29.757-1.738.979a.945.945,0,0,0-1.1-.112,1.034,1.034,0,0,0-.43,1.461,1.1,1.1,0,0,0,.61.567,1.159,1.159,0,0,0,.905-.073,14.647,14.647,0,0,0,1.971-1.3,19.923,19.923,0,0,1,2.827-1.824,2.055,2.055,0,0,1,1.571-.164A2.14,2.14,0,0,1,63.821,37.8c.976,2.007-.476,4.444-3.612,6.069a.118.118,0,0,0-.061.08.13.13,0,0,0,.031.1l.741.793a.131.131,0,0,0,.085.037.123.123,0,0,0,.055-.015c4-2.068,5.728-5.146,4.417-7.845a3.1,3.1,0,0,0-2.09-1.785" fill="#231815"/>
  <path id="パス_5" data-name="パス 5" d="M70.642,35.265c-.07-.015-.113-.036-.119-.064-.006-.009,0-.052.055-.1,1.2-1.244,2.184-2.183,2.977-2.943a21.675,21.675,0,0,0,1.836-1.864.894.894,0,0,0,.214-.854,1.222,1.222,0,0,0-.452-.6,1.147,1.147,0,0,0-1.037-.229.844.844,0,0,0-.595,1.08,1.327,1.327,0,0,0,.061.167c-.359.528-1.592,1.849-2.891,3.24-.522.558-1.065,1.137-1.589,1.711a1.062,1.062,0,0,0-.281,1.018.99.99,0,0,0,.787.665,51.808,51.808,0,0,1,8.162,2.834.146.146,0,0,0,.049.009.112.112,0,0,0,.1-.067l.631-1.339a.123.123,0,0,0,.006-.092.116.116,0,0,0-.061-.064,50.444,50.444,0,0,0-7.857-2.507" fill="#231815"/>
  <path id="パス_6" data-name="パス 6" d="M85.464,32.355a.113.113,0,0,0-.031-.158l-1.064-.72a.119.119,0,0,0-.092-.019.113.113,0,0,0-.073.055c-.555.949-1.1,1.513-1.537,1.589a.463.463,0,0,1-.354-.061.887.887,0,0,1-.281-.591l-.7-4.066a.843.843,0,0,0-1.111-.729c-.905.158-1.015.659-.948,1.052a.824.824,0,0,0,.573.653l.58,3.346c.219,1.256.9,1.946,1.882,1.946a2.327,2.327,0,0,0,.408-.037,4.6,4.6,0,0,0,2.752-2.26" fill="#231815"/>
  <path id="パス_7" data-name="パス 7" d="M87.918,27.229a.878.878,0,0,0-.369-.635,1.059,1.059,0,0,0-.766-.091c-.966.168-.966.787-.924,1.043a.833.833,0,0,0,.571.656l.491,2.815c.515,2.968-.638,4.8-3.63,5.78a.115.115,0,0,0-.073.073.121.121,0,0,0,.015.1l.613.9a.111.111,0,0,0,.1.048.07.07,0,0,0,.036-.006c3.734-1.272,5.183-3.532,4.56-7.113Z" fill="#231815"/>
  <path id="パス_8" data-name="パス 8" d="M102.978,27.01a.97.97,0,0,0-1.1-.952h-.046a.909.909,0,0,0-.772.458l-2.659.067a4.445,4.445,0,0,0,.158-1.168c0-.153-.088-.351-.485-.446a2.62,2.62,0,0,0-.686-.055l-.427.009a.119.119,0,0,0-.113.11,8.649,8.649,0,0,1-.207,1.595l-2.392.061a.782.782,0,0,0-.777-.335c-.5.012-.8.247-.787.622l.225,9.306a.135.135,0,0,0,.037.082.124.124,0,0,0,.079.031h0l1.388-.034a.116.116,0,0,0,.113-.119l-.055-2.22.509.619a.112.112,0,0,0,.15.025,9.823,9.823,0,0,0,2.6-2.4,6.272,6.272,0,0,1,1.262,1c0,.03,0,.064,0,.091a.749.749,0,0,0,.281.57.845.845,0,0,0,.58.2.826.826,0,0,0,.829-.906c-.027-1.037-1.525-1.559-2.37-1.821a2.883,2.883,0,0,0,.433-1.135c-.009-.348-.537-.415-.713-.436a5.711,5.711,0,0,0-.815-.031.119.119,0,0,0-.11.092,8.239,8.239,0,0,1-2.644,3.81l-.073-3,.476.485a.119.119,0,0,0,.143.016,8.13,8.13,0,0,0,2.437-2.373.133.133,0,0,0,.033.024A6.682,6.682,0,0,1,99.165,30.1a.615.615,0,0,0-.018.152.839.839,0,0,0,.906.753.828.828,0,0,0,.805-.918c-.027-1.189-1.952-1.793-2.776-2.052a.114.114,0,0,0-.122.033l-.2.232c.1-.186.186-.372.268-.564l2.953-.077.162,6.528-1.428.036a.11.11,0,0,0-.082.037.132.132,0,0,0-.031.082l.022.9a.117.117,0,0,0,.116.11h0l.643-.015V35.4a.857.857,0,0,0,.256.607.845.845,0,0,0,.6.219,1.432,1.432,0,0,0,1.513-1.6l-.168-6.793a1.021,1.021,0,0,0,.385-.817m-6.72.774a6.28,6.28,0,0,1-1.875,2.444l-.061-2.4Z" fill="#231815"/>
  <path id="パス_9" data-name="パス 9" d="M116.926,28.439l-3.282-.427.116-.9a.732.732,0,0,0-.165-.606,1.191,1.191,0,0,0-.75-.33,1.164,1.164,0,0,0-.848.15.732.732,0,0,0-.3.509.719.719,0,0,0,.4.738l-.03.238-3.544-.458a.831.831,0,0,0-.8-.744.9.9,0,0,0-1.141.781c-.073.574.216.909.86.991l4.472.58L111.789,30l-3.544-.461a.831.831,0,0,0-.8-.732,1.118,1.118,0,0,0-.8.144.866.866,0,0,0-.342.628.829.829,0,0,0,.138.635,1.018,1.018,0,0,0,.725.341l4.472.58-.159,1.226a3.7,3.7,0,0,0-1.278-.4c-1.805-.232-3.138.537-3.318,1.916a2.038,2.038,0,0,0,.628,1.808,3.7,3.7,0,0,0,2.092.876,2.755,2.755,0,0,0,2.95-1.242,7.36,7.36,0,0,0,3.791,1.721h.015a.111.111,0,0,0,.113-.1l.177-1.342a.122.122,0,0,0-.024-.085.106.106,0,0,0-.076-.043,5.866,5.866,0,0,1-3.651-1.733l.308-2.394,3.285.424a.113.113,0,0,0,.128-.1l.119-.909a.133.133,0,0,0-.022-.085.12.12,0,0,0-.079-.043L113.36,30.2l.134-1.043,3.285.427a.1.1,0,0,0,.083-.021.128.128,0,0,0,.045-.079l.119-.919a.111.111,0,0,0-.1-.128M108.657,34.1a1.006,1.006,0,0,1,.442-.716,1.262,1.262,0,0,1,.723-.208,1.643,1.643,0,0,1,.21.012,1.346,1.346,0,0,1,.842.4,1.018,1.018,0,0,1,.235.827,1.008,1.008,0,0,1-.43.71,1.3,1.3,0,0,1-.924.2,1.134,1.134,0,0,1-1.1-1.233" fill="#231815"/>
  <path id="パス_10" data-name="パス 10" d="M130.145,35.228l-1.412-.412a.131.131,0,0,0-.089.012.117.117,0,0,0-.055.068,8.134,8.134,0,0,1-1.512,3.111,1.585,1.585,0,0,1-1.608.649c-.65-.189-.93-.762-.552-3.257a1.508,1.508,0,0,0-1.159-1.952,4.232,4.232,0,0,0-.442-.1c2.08-2.492,2.449-3,2.6-3.508a.92.92,0,0,0-.119-.851,1.277,1.277,0,0,0-.7-.433.83.83,0,0,0-1.119.555.762.762,0,0,0,.088.632c-.229.433-.692.988-3.925,4.856l-2.16,2.589a.117.117,0,0,0,.009.156l.973.942a.11.11,0,0,0,.086.034.105.105,0,0,0,.082-.04c1.525-1.775,2.5-2.922,3.263-3.831a3.227,3.227,0,0,1,.4.076c.445.132.525.342.393,1.089-.408,2.465.1,3.667,1.754,4.145a3.818,3.818,0,0,0,1.08.165,3.186,3.186,0,0,0,2.114-.811,7.587,7.587,0,0,0,2.092-3.74.114.114,0,0,0-.076-.143" fill="#231815"/>
  <path id="パス_11" data-name="パス 11" d="M140.514,35.043a5.731,5.731,0,0,0-4.243-.351A5.512,5.512,0,0,0,133,37.7c-.933,1.961-.586,3.739.86,4.429a2.716,2.716,0,0,0,3.114-.534,11.563,11.563,0,0,0,2.648-3.892c.32-.674.195-1.156-.381-1.431a1.1,1.1,0,0,0-.827-.073.826.826,0,0,0-.47.436.87.87,0,0,0,.006.845,8.771,8.771,0,0,1-2.223,3.169c-.714.543-1.159.424-1.318.351-.585-.28-.558-1.321.073-2.65a4.652,4.652,0,0,1,2.276-2.288,3.68,3.68,0,0,1,3.145.064,3.385,3.385,0,0,1,1.522,4.6,4.222,4.222,0,0,1-4.807,2.583.118.118,0,0,0-.1.021.129.129,0,0,0-.046.083l-.088.985a.119.119,0,0,0,.085.122,5.967,5.967,0,0,0,1.5.192,5.381,5.381,0,0,0,5.008-3.273,4.75,4.75,0,0,0-2.47-6.4" fill="#231815"/>
  <path id="パス_12" data-name="パス 12" d="M157.875,45.439a1.213,1.213,0,0,0-.479-.589.9.9,0,0,0-1.114-.076l-2.04-1.419.393-.567a.517.517,0,0,0,.034-.57,1.2,1.2,0,0,0-.366-.382c-.421-.289-.784-.28-1,.028l-.394.567-2.071-1.439a.778.778,0,0,0-.4-.787,1.028,1.028,0,0,0-.469-.183.506.506,0,0,0-.5.213l-1.546,2.224c-1.254,1.8-2.675,3.843-4.743,4.788a.116.116,0,0,0-.067.125l.183,1.047a.1.1,0,0,0,.052.079.111.111,0,0,0,.061.018.154.154,0,0,0,.033-.006c2.782-.839,4.365-3.117,5.9-5.319l.882-1.266,6.372,4.432a.986.986,0,0,0,.6.207.719.719,0,0,0,.552-.351.847.847,0,0,0,.132-.774" fill="#231815"/>
  <path id="パス_13" data-name="パス 13" d="M154.353,46.926l-1.495-1.043.641-.924a.533.533,0,0,0,.046-.571,1.1,1.1,0,0,0-.36-.384.91.91,0,0,0-.653-.2.536.536,0,0,0-.351.235l-2.046,2.94-.742-.519a.77.77,0,0,0-.42-.765c-.431-.3-.8-.293-1.022.021L145.315,49.5a.134.134,0,0,0-.018.089.108.108,0,0,0,.049.073l1.159.805a.113.113,0,0,0,.159-.027l.277-.4,3.178,2.212-.234.335a.12.12,0,0,0,.03.162l1.159.805a.105.105,0,0,0,.067.021.118.118,0,0,0,.092-.048l1.9-2.727a1.014,1.014,0,0,0,.823-.437,1.05,1.05,0,0,0-.28-1.479,1.01,1.01,0,0,0-.976-.128l-1.242-.863.748-1.074,2.2,1.531c.5.351.961.315,1.253-.1a.966.966,0,0,0,.168-.705.905.905,0,0,0-.387-.6.885.885,0,0,0-1.086-.027m-6.765,2.19,1.177-1.693,3.181,2.211-1.18,1.693Z" fill="#231815"/>
  <path id="パス_14" data-name="パス 14" d="M148.018,165.613c-3.4-2.809-4.8-8.184-5.268-13.2a34.124,34.124,0,0,0,3.438-.473,4.885,4.885,0,1,0-1.821-9.6c-.5.1-.985.168-1.473.229a4.884,4.884,0,0,0-9.681-1.3c-.007.033-.028.2-.058.457a30.933,30.933,0,0,1-14.406-10,4.886,4.886,0,0,0-7.842,5.832c.421.57,8.186,10.831,21.192,14.033-1.256,3.38-5.188,11.039-10.843,12.326a3.6,3.6,0,0,1-1.812-.107,5.122,5.122,0,0,0-.036-.771,4.889,4.889,0,0,0-5.475-4.219,5.023,5.023,0,0,0-3.377,2.007,6.633,6.633,0,0,0-.857,5.307,8.59,8.59,0,0,0,3.874,5.6,13.161,13.161,0,0,0,9.849,1.708c5.38-1.227,9.44-4.829,12.34-8.59a21.639,21.639,0,0,0,6.037,8.291,4.886,4.886,0,0,0,6.219-7.537m-32.142,2.763a4.885,4.885,0,0,0,1.756-.906,4.624,4.624,0,0,1-1.756.906" fill="#231815"/>
  <path id="パス_15" data-name="パス 15" d="M91.567,148.667c0-.693-.857-.321-.857-.9,0-.366.406-.443.69-.443.231,0,.451.019.683.019,1.336,0,2.33-.137,2.531-.137,1.254,0,2.462.661,2.462,2.043a2.2,2.2,0,0,1-2.443,2.111c-.275,0-.552-.046-.8-.046-.113,0-.147.046-.147.146v.534c.028,1.153.7.674.7,1.208,0,.6-1.327.625-1.742.625-.387,0-1.751-.009-1.751-.607,0-.506.674-.192.674-.948Zm2.468-.443c-.36,0-.348.113-.348.3V149.9c0,.192-.085.406.412.406.61,0,.848-.461.848-1.022,0-.583-.293-1.062-.912-1.062" fill="#231815"/>
  <path id="パス_16" data-name="パス 16" d="M99.333,150.4a5.824,5.824,0,0,0,.662-2.174,1,1,0,0,1,1.116-1.114c.8,0,1.306.818,1.666,1.425.158.268,1.546,3.09,1.879,3.843.305.7.8.274.8.8,0,.671-1.309.644-1.769.644-1.318,0-2.108-.01-2.108-.58,0-.442.561-.278.561-.6,0-.415-.231-.451-1.714-.451-.479,0-.762.015-.762.467,0,.362.588.121.588.6,0,.552-.994.562-1.363.562-1.318,0-1.437-.247-1.437-.543,0-.433.5-.3.763-.635a5.275,5.275,0,0,0,.534-.988Zm1.934.662c.092,0,.369.018.369-.119a3.179,3.179,0,0,0-.342-.747c-.082-.146-.237-.488-.442-.488s-.378.552-.415.656a3.159,3.159,0,0,0-.192.57c0,.156.229.128.33.128Z" fill="#231815"/>
  <path id="パス_17" data-name="パス 17" d="M106.416,150.471a3.362,3.362,0,0,1,3.566-3.333,3.5,3.5,0,0,1,3.517,3.425,3.438,3.438,0,0,1-3.627,3.288,3.335,3.335,0,0,1-3.456-3.38m3.142-1.961c-.516,0-.775.534-.775.985,0,.784.555,2.986,1.547,2.986.564,0,.805-.488.805-.985,0-.839-.5-2.986-1.577-2.986" fill="#231815"/>
  <path id="パス_18" data-name="パス 18" d="M59.1,138.626A4.895,4.895,0,0,0,56.69,145.1c1.1,2.4,3.636,9.724,2.27,14.747-.708,2.608-1.715,4.444-2.431,4.469a.529.529,0,0,1-.171-.467,4.887,4.887,0,0,0-9.755-.6,10.227,10.227,0,0,0,8.086,10.673,10.891,10.891,0,0,0,1.949.177c3.548,0,9.053-1.754,11.75-11.688,2.54-9.346-2.264-20.192-2.819-21.4a4.877,4.877,0,0,0-6.472-2.391" fill="#231815"/>
  <path id="パス_19" data-name="パス 19" d="M94.218,159.16a4.886,4.886,0,0,0-5.493,4.191.875.875,0,0,1-.446.625,1.953,1.953,0,0,1-1.442.308c-3.667-.884-5.18-6.143-5.759-9.2-1.577-8.375-.5-20.326-.479-20.521a4.886,4.886,0,1,0-9.73-.915c-.052.543-1.235,13.475.607,23.245,2.361,12.518,9.2,15.955,13.067,16.889a11.108,11.108,0,0,0,2.6.3,11.878,11.878,0,0,0,6.655-2.047,10.6,10.6,0,0,0,4.612-7.387,4.889,4.889,0,0,0-4.191-5.494" fill="#231815"/>
  <path id="パス_20" data-name="パス 20" d="M89.093,143.295h.077a6.588,6.588,0,0,0,4.715-1.977,6.957,6.957,0,0,0,1.577-7.25,2.352,2.352,0,0,0-4.423,1.6,2.244,2.244,0,0,1-.491,2.337,1.936,1.936,0,0,1-1.378.585h-.022a1.929,1.929,0,0,1-1.388-.619,2.23,2.23,0,0,1,.031-3.083,1.95,1.95,0,0,1,1.125-.568,2.353,2.353,0,1,0-.628-4.663,6.612,6.612,0,0,0-3.837,1.918,6.969,6.969,0,0,0-.107,9.632,6.6,6.6,0,0,0,4.749,2.087" fill="#231815"/>
  <path id="パス_21" data-name="パス 21" d="M136.64,72.912a11.719,11.719,0,0,0,4.017-3.651c2.678-4.761.528-11.051-4.807-14.055s-11.828-1.577-14.509,3.181A11.032,11.032,0,0,0,120.3,63c-2.656-.937-5.383-1.711-8.21-2.465-4.109-1.1-6.744-5.109-8.318-7.509-.241-.366-.458-.695-.653-.976a3.754,3.754,0,0,0-6.173,0c-.193.281-.412.61-.65.976-1.574,2.4-4.212,6.414-8.321,7.509-2.968.79-5.832,1.6-8.613,2.611a11.17,11.17,0,0,0-1.04-4.758c-2.678-4.758-9.175-6.183-14.51-3.181s-7.485,9.294-4.8,14.055a11.9,11.9,0,0,0,4.267,3.8C57.12,79.3,51.645,90.038,55.037,101.574c3.068,10.434,13.369,22.873,45,22.873s41.931-12.439,45-22.873c3.419-11.63-2.175-22.446-8.394-28.662m4.563,27.536c-4.862,16.535-25.072,20.006-41.168,20.006s-36.3-3.471-41.167-20.006c-3.09-10.51,2.534-20.35,8.293-25.584,6.689-6.082,13.851-8.342,21.845-10.471,5.582-1.492,8.867-6.491,10.63-9.178.14-.217.274-.421.4-.6.125.186.26.39.4.607,1.763,2.684,5.048,7.686,10.627,9.175,7.994,2.129,15.156,4.389,21.848,10.471,5.755,5.237,11.383,15.077,8.29,25.584" fill="#231815"/>
  <path id="パス_22" data-name="パス 22" d="M108.989,107.423c-.458-4.078-3.02-10.987-9.059-10.987s-8.391,6.909-8.848,10.987a1.931,1.931,0,0,0,3.837.436,17.88,17.88,0,0,1,.582-2.6,7.037,7.037,0,0,0,4.429,1.647,8,8,0,0,0,4.639-1.647,17.968,17.968,0,0,1,.583,2.6,1.931,1.931,0,0,0,3.837-.436" fill="#231815"/>
  <path id="パス_23" data-name="パス 23" d="M84.113,84.355c-5.389-1.08-10.34,1.055-13.686,5.584a14.71,14.71,0,0,0-2.906,7.4c-.009.043-.028.082-.037.125-.827,4.221.833,13.3,13.055,17.413a2.995,2.995,0,1,0,1.912-5.676,20.987,20.987,0,0,1-3.132-1.33,13.247,13.247,0,0,0,11.587-9.507c2.263-7.436-2.2-13.094-6.793-14.012m3.478,9.4a4.291,4.291,0,0,1-5.174,3.5,3.534,3.534,0,0,1-2.833-2.651,4.474,4.474,0,0,1,4.606-5.758c2.19.094,3.925,2.15,3.4,4.907" fill="#231815"/>
  <path id="パス_24" data-name="パス 24" d="M129.134,89.937c-3.346-4.529-8.3-6.661-13.686-5.582-4.59.916-9.056,6.574-6.793,14.013,2.935,9.635,14.553,12.072,19.967,7.5,3.959-3.346,4.828-10.09.512-15.934m-8.647,4.673a3.539,3.539,0,0,1-2.834,2.651,4.29,4.29,0,0,1-5.173-3.5c-.524-2.757,1.211-4.813,3.4-4.908a4.473,4.473,0,0,1,4.6,5.759" fill="#231815"/>
</svg>
