<svg xmlns="http://www.w3.org/2000/svg" width="279.455" height="191.066" viewBox="0 0 279.455 191.066">
  <g id="グループ_117" data-name="グループ 117" transform="translate(234.746 -748.627)">
    <path id="パス_44" data-name="パス 44" d="M-234.746,802.973h134.179l24.522,10.4h87.91" transform="translate(0 29.656)" fill="none" stroke="#4b4b4b" stroke-miterlimit="10" stroke-width="1.986"/>
    <line id="線_5" data-name="線 5" y2="190.861" transform="translate(-218.141 748.832)" fill="none" stroke="#4b4b4b" stroke-miterlimit="10" stroke-width="3.972"/>
    <line id="線_6" data-name="線 6" y2="190.861" transform="translate(13.363 748.832)" fill="none" stroke="#4b4b4b" stroke-miterlimit="10" stroke-width="3.972"/>
    <line id="線_7" data-name="線 7" x2="268.82" transform="translate(-234.746 772.336)" fill="none" stroke="#4b4b4b" stroke-miterlimit="10" stroke-width="4.634"/>
    <line id="線_8" data-name="線 8" x2="267.036" transform="translate(-234.746 911.766)" fill="none" stroke="#4b4b4b" stroke-miterlimit="10" stroke-width="4.634"/>
    <line id="線_9" data-name="線 9" y2="188.313" transform="translate(34.367 751.38)" fill="none" stroke="#1a1311" stroke-miterlimit="10" stroke-width="2.648" stroke-dasharray="7.566 4.729"/>
    <rect id="長方形_20" data-name="長方形 20" width="21.003" height="65.783" transform="translate(23.707 859.178)" fill="#1a1311"/>
    <circle id="楕円形_2" data-name="楕円形 2" cx="6.046" cy="6.046" r="6.046" transform="translate(-201.187 779.019)" fill="#1a1311"/>
    <circle id="楕円形_3" data-name="楕円形 3" cx="6.046" cy="6.046" r="6.046" transform="translate(-174.709 779.019)" fill="#1a1311"/>
    <circle id="楕円形_4" data-name="楕円形 4" cx="6.046" cy="6.046" r="6.046" transform="translate(-151.721 753.837)" fill="#1a1311"/>
    <circle id="楕円形_5" data-name="楕円形 5" cx="6.046" cy="6.046" r="6.046" transform="translate(-210.411 891.914)" fill="#1a1311"/>
    <circle id="楕円形_6" data-name="楕円形 6" cx="6.046" cy="6.046" r="6.046" transform="translate(-122.36 753.639)" fill="#1a1311"/>
    <circle id="楕円形_7" data-name="楕円形 7" cx="6.046" cy="6.046" r="6.046" transform="translate(-72.3 753.639)" fill="#1a1311"/>
    <circle id="楕円形_8" data-name="楕円形 8" cx="6.046" cy="6.046" r="6.046" transform="translate(-143.348 812.93)" fill="#1a1311"/>
    <line id="線_10" data-name="線 10" x2="17.616" y2="83.645" transform="translate(-137.395 748.832)" fill="none" stroke="#4b4b4b" stroke-miterlimit="10" stroke-width="1.986"/>
    <g id="グループ_99" data-name="グループ 99" transform="translate(-158.974 837.942)">
      <g id="グループ_98" data-name="グループ 98">
        <path id="パス_45" data-name="パス 45" d="M-180.091,806.412v2.554h4.792v.924h-4.536a7.988,7.988,0,0,0,4.671,5.852l-.624.926a8.548,8.548,0,0,1-4.639-5.73,8.238,8.238,0,0,1-4.792,5.717l-.536-.958a7.267,7.267,0,0,0,4.6-5.807h-4.482v-.924h4.571v-2.554Zm.345,10.2a8.574,8.574,0,0,0-2.04-1.984l.624-.692A10.635,10.635,0,0,1-179,815.855Z" transform="translate(185.81 -806.401)" fill="#1a1311"/>
        <path id="パス_46" data-name="パス 46" d="M-168.786,806.743v9.588h-9.386v-9.588Zm-5.173.87h-3.3V811h3.3Zm0,4.236h-3.3v3.589h3.3Zm4.247-4.236h-3.356V811h3.356Zm0,4.236h-3.356v3.589h3.356Z" transform="translate(189.963 -806.22)" fill="#1a1311"/>
        <path id="パス_47" data-name="パス 47" d="M-160.961,807.544h-3.855v1.706h3.456v7.123h-9.475v-7.123h2.719v-1.706h-3.143v-.857h10.3Zm-8.694,6.087a4.38,4.38,0,0,0,1.528-3.546h-1.817V815.5h7.669v-5.419h-2.541v2.608c0,.323.122.336.368.336h.5c.212,0,.322-.045.367-.3a7.39,7.39,0,0,0,.079-1.114l.791.178c-.077,1.583-.246,2.062-1.015,2.062h-.98c-.457,0-.97-.032-.97-.845v-2.922h-1.594a5.672,5.672,0,0,1-1.706,4.259Zm3.979-6.087h-1.582v1.706h1.582Z" transform="translate(193.749 -806.251)" fill="#1a1311"/>
        <path id="パス_48" data-name="パス 48" d="M-164.009,815.058c3.5-1.314,5.728-3.343,7.189-8.192l1.138.279c-1.74,5.417-4.393,7.5-7.759,8.818Z" transform="translate(197.721 -806.153)" fill="#1a1311"/>
        <path id="パス_49" data-name="パス 49" d="M-153.264,806.405h.936v1.627h4.168v7.759a.823.823,0,0,1-.926.947h-1.894l-.145-.935,1.729.009c.144,0,.311-.009.311-.289V808.9h-3.187c.122.924.545,2.7,3.088,4.368l-.614.782a7.871,7.871,0,0,1-2.987-3.814,7.324,7.324,0,0,1-3.077,3.767l-.568-.8a5.683,5.683,0,0,0,3.088-4.3h-3.2v7.835h-.936v-8.706h4.215Z" transform="translate(201.298 -806.405)" fill="#1a1311"/>
        <path id="パス_50" data-name="パス 50" d="M-183.984,816.422h3.534v-1h.913v1h4.236v.826h-7.8v2.91a8.485,8.485,0,0,1-1.639,5.549l-.714-.678a6.037,6.037,0,0,0,1.382-3.368c-.189.111-.791.424-1.56.78l-.156-.98a18.328,18.328,0,0,0,1.8-.758c.011-.212.011-.435.011-.536Zm-1.159,3.267a9.6,9.6,0,0,0-.636-2.1l.735-.3a8.858,8.858,0,0,1,.726,2.1Zm9.441.525v4.648a.745.745,0,0,1-.837.857h-1.348l-.156-.892h.981c.358,0,.48-.023.48-.413v-3.444h-2.074a4.636,4.636,0,0,0,2.018,2.33l-.536.714a6.521,6.521,0,0,1-2.029-2.486,4.68,4.68,0,0,1-1.749,2.531l-.525-.726a3.607,3.607,0,0,0,1.639-2.362h-1.716v4.749h-.881v-5.505h2.732c.054-.436.067-.826.077-1.195h-3.167v-.791h7.491v.791h-3.5a10.533,10.533,0,0,1-.111,1.195Z" transform="translate(185.79 -801.468)" fill="#1a1311"/>
        <path id="パス_51" data-name="パス 51" d="M-175.262,815.736v.757a16.654,16.654,0,0,1-.981,2.7,4.136,4.136,0,0,1,.981,2.631c0,.334,0,1.637-1.292,1.637h-.557l-.135-.892h.58c.5,0,.557-.536.557-.87a4.157,4.157,0,0,0-.992-2.475,11.931,11.931,0,0,0,.947-2.685h-1.282v9.208h-.881V815.736Zm4.738,5.529v3.188c0,.189,0,.367.323.367h.6c.368,0,.5,0,.557-1.5l.881.221c-.133,1.975-.279,2.117-1.17,2.117h-1.193c-.814,0-.87-.232-.87-1.057v-3.334h-1.1c-.056,3.233-1.939,4.091-3.009,4.447l-.413-.812c1.416-.413,2.507-1.3,2.52-3.634h-1.706v-.847h6.878v.847Zm-.78-5.852v1.037h2.82v2.329h-.868v-1.506h-4.817v1.506h-.857v-2.329h2.82v-1.037Zm-2.687,3.8V818.4h4.437v.814Z" transform="translate(189.884 -801.471)" fill="#1a1311"/>
      </g>
    </g>
    <g id="グループ_100" data-name="グループ 100" transform="translate(-115.392 779.857)">
      <path id="パス_52" data-name="パス 52" d="M-156.494,777.69c2.04-.032,5.317-.133,5.317-3.02,0-1.729-1.07-1.941-1.973-1.941a39.421,39.421,0,0,0-4.359.568l-.122-1.091c.714-.056,3.857-.412,4.492-.412,1.427,0,3.044.3,3.044,2.8,0,3.9-4.037,4.024-6.12,4.08Zm5.295-6.956a17.36,17.36,0,0,0-5.183-.792l.122-.935a19.692,19.692,0,0,1,5.329.746Z" transform="translate(157.632 -768.806)" fill="#1a1311"/>
      <path id="パス_53" data-name="パス 53" d="M-151.873,775.629a10.073,10.073,0,0,0,2.1-3.188c0-.156.023-.413.034-.692l-1.95.034v-.992h1.984c.011-.245.056-1.416.067-1.684h.992c-.111,2.029-.122,2.254-.156,2.843a6.066,6.066,0,0,1,3.667-1.672,2.59,2.59,0,0,1,2.13,1.071,4.492,4.492,0,0,1,.58,2.653,7.167,7.167,0,0,1-.257,2.117,7.911,7.911,0,0,1,.78.892l-.624.892a5.313,5.313,0,0,0-.636-.791,2.477,2.477,0,0,1-2.263,1.158c-1.526,0-2.128-.856-2.128-1.692,0-1.017.87-1.628,1.961-1.628a3.768,3.768,0,0,1,2.063.611,6.453,6.453,0,0,0,.144-1.549c0-1.037-.077-2.831-1.873-2.831-1.425,0-2.586,1.025-3.6,2-.034.625-.045.981-.045,1.862,0,.714.034,2.363.045,3.411h-1c.011-1.8.011-2.25.034-4.146a8.271,8.271,0,0,1-1.506,2.342Zm6.276.122c-.345,0-1.1.146-1.1.827,0,.856.981.856,1.183.856a1.754,1.754,0,0,0,1.7-.991A2.8,2.8,0,0,0-145.6,775.752Z" transform="translate(160.787 -768.751)" fill="#1a1311"/>
      <path id="パス_54" data-name="パス 54" d="M-142.978,769.6a12.96,12.96,0,0,0,.379,2.029,6.038,6.038,0,0,1,2.753-.791,16.015,16.015,0,0,0,.111-1.774l1.026.066c-.067.949-.1,1.249-.167,1.718a3.641,3.641,0,0,1,3.478,3.825c0,3.544-3.634,3.722-4.515,3.755l-.268-.924c1.015-.046,3.79-.146,3.79-2.865a2.745,2.745,0,0,0-2.631-2.922,11.607,11.607,0,0,1-1.282,4.037,3.27,3.27,0,0,1-2.608,1.928c-1.461,0-1.884-1.427-1.884-2.374a4.214,4.214,0,0,1,1.46-3.165,18.79,18.79,0,0,1-.523-2.387Zm-.067,3.478a3.534,3.534,0,0,0-.836,2.275c0,1.1.57,1.4,1.015,1.4a1.937,1.937,0,0,0,1.348-.8A8.491,8.491,0,0,1-143.045,773.077Zm3.122-1.382a5.2,5.2,0,0,0-2.43.8,8.708,8.708,0,0,0,1.3,2.775A11.2,11.2,0,0,0-139.923,771.7Z" transform="translate(164.664 -768.775)" fill="#1a1311"/>
      <path id="パス_55" data-name="パス 55" d="M-135.718,773.113v3.122a1.766,1.766,0,0,0,.836,1.325,3.855,3.855,0,0,0,1.729.446h5.673l-.178.871h-5.327a3.341,3.341,0,0,1-2.987-1.384,10.32,10.32,0,0,1-1.6,1.651l-.5-.96a6.5,6.5,0,0,0,1.449-1.237V774h-1.316v-.891Zm-.289-1.772a11.048,11.048,0,0,0-1.772-1.873l.656-.591a8.982,8.982,0,0,1,1.829,1.85Zm8.038-.034v5.329c0,.356-.079.857-.87.857h-1.215l-.156-.857,1.082.011c.189,0,.311-.034.311-.334v-.891h-2.062v1.939h-.836v-1.939h-2.062v2.072h-.837v-6.186h2.442a8.3,8.3,0,0,0-1.206-.746l.492-.6a11.159,11.159,0,0,1,1.494.926,7.6,7.6,0,0,0,1.772-.994h-5.117v-.746h6.51v.746a9.968,9.968,0,0,1-2.518,1.416Zm-3.746.724h-2.062v.981h2.062Zm0,1.684h-2.062v.992h2.062Zm2.9-1.684h-2.062v.981h2.062Zm0,1.684h-2.062v.992h2.062Z" transform="translate(168.348 -768.877)" fill="#1a1311"/>
      <path id="パス_56" data-name="パス 56" d="M-128.905,769.3a18.506,18.506,0,0,0-.39,3.958c.145-.268.458-.825.848-1.427l.579.557c-1.282,1.839-1.292,2.565-1.3,3.021l-.936.056a20.179,20.179,0,0,1-.155-2.563,18.856,18.856,0,0,1,.345-3.7Zm5.25-.054c.09,1.2.145,2.462.145,3.667,0,2.4-.122,4.637-4.157,5.651l-.769-.757c3.79-.994,3.868-2.543,3.868-5.151,0-1.048-.022-1.348-.145-3.41Z" transform="translate(172.623 -768.7)" fill="#1a1311"/>
    </g>
    <g id="グループ_101" data-name="グループ 101" transform="translate(-136.296 894.65)">
      <path id="パス_57" data-name="パス 57" d="M-164.261,849.478a11.929,11.929,0,0,1-1.961-3.469c-.681.012-1.54.023-1.706.023h-3.21v-.97l3.253.056c.469.012,1.071,0,1.35-.011a16.641,16.641,0,0,1-.435-1.806l1.06-.076a12.725,12.725,0,0,0,.4,1.85,18.19,18.19,0,0,0,3.3-.4l.18.96a18.1,18.1,0,0,1-3.156.345A10.171,10.171,0,0,0-163.4,848.9Zm-4.224-.769c-1.093.534-1.15,1.226-1.15,1.438,0,1.359,1.806,1.5,3.4,1.5a20.958,20.958,0,0,0,2.986-.189l.012.992a26.957,26.957,0,0,1-2.91.133c-1.95,0-3.054-.223-3.834-.926a2,2,0,0,1-.658-1.5,2.462,2.462,0,0,1,1.616-2.173Z" transform="translate(171.138 -842.945)" fill="#1a1311"/>
      <path id="パス_58" data-name="パス 58" d="M-157.688,852.886a34.451,34.451,0,0,0-5.083-3.467c-1.025-.614-1.447-.87-1.447-1.384,0-.536.378-.823,1.17-1.391a31.083,31.083,0,0,0,4.29-3.535l1.069.6a30.738,30.738,0,0,1-4.67,3.623c-.446.3-.658.5-.658.624,0,.156.122.223.469.424s1.85,1.014,2.15,1.192a24.844,24.844,0,0,1,3.657,2.531Z" transform="translate(174.929 -843.008)" fill="#1a1311"/>
      <path id="パス_59" data-name="パス 59" d="M-156.848,844.984a9.464,9.464,0,0,0-.344,3.131,5.957,5.957,0,0,1,3.834-1.371c2.586,0,3.066,1.661,3.066,2.586,0,2.676-2.577,3.277-4.962,3.277a13.744,13.744,0,0,1-2.139-.155l-.113-.981a12.027,12.027,0,0,0,2.175.2,4.905,4.905,0,0,0,3.546-1.035,1.983,1.983,0,0,0,.433-1.317c0-.868-.591-1.672-2.062-1.672a4.8,4.8,0,0,0-3.722,1.6,1.377,1.377,0,0,0-.056.2l-.994-.032c0-.379.033-2.051.045-2.387a10.405,10.405,0,0,1,.291-2.229Zm4.827-.012a13.74,13.74,0,0,0-4.47-.8l.178-.958a17.823,17.823,0,0,1,4.571.7Z" transform="translate(178.233 -842.953)" fill="#1a1311"/>
      <path id="パス_60" data-name="パス 60" d="M-150,847.28V850.4a1.768,1.768,0,0,0,.837,1.325,3.872,3.872,0,0,0,1.729.446h5.673l-.18.871h-5.327a3.342,3.342,0,0,1-2.987-1.384,10.319,10.319,0,0,1-1.594,1.651l-.5-.96a6.5,6.5,0,0,0,1.449-1.237v-2.944h-1.314v-.891Zm-.288-1.772a11,11,0,0,0-1.774-1.873l.658-.591a8.993,8.993,0,0,1,1.829,1.851Zm8.036-.034V850.8c0,.356-.077.857-.868.857h-1.215l-.156-.857,1.08.011c.189,0,.311-.032.311-.334v-.892h-2.062v1.939H-146v-1.939h-2.062v2.073h-.837v-6.186h2.442a8.219,8.219,0,0,0-1.2-.746l.492-.6a11.036,11.036,0,0,1,1.492.926,7.53,7.53,0,0,0,1.772-.994h-5.117v-.746h6.51v.746a9.968,9.968,0,0,1-2.518,1.416ZM-146,846.2h-2.062v.981H-146Zm0,1.684h-2.062v.992H-146Zm2.9-1.684h-2.062v.981h2.062Zm0,1.684h-2.062v.992h2.062Z" transform="translate(181.428 -843.044)" fill="#1a1311"/>
      <path id="パス_61" data-name="パス 61" d="M-143.188,843.47a18.373,18.373,0,0,0-.39,3.956c.144-.268.457-.825.847-1.427l.579.557c-1.282,1.839-1.292,2.565-1.3,3.021l-.936.056a20.184,20.184,0,0,1-.155-2.563,18.892,18.892,0,0,1,.344-3.7Zm5.25-.057c.09,1.2.145,2.463.145,3.668,0,2.4-.122,4.637-4.159,5.651l-.769-.757c3.79-.994,3.868-2.543,3.868-5.151,0-1.048-.02-1.348-.144-3.411Z" transform="translate(185.704 -842.867)" fill="#1a1311"/>
    </g>
    <g id="グループ_102" data-name="グループ 102" transform="translate(-234.214 845.756)">
      <path id="パス_62" data-name="パス 62" d="M-229.734,811.454h.936v1.627h4.17v7.759a.823.823,0,0,1-.926.947h-1.9l-.144-.936,1.727.011c.146,0,.313-.011.313-.29v-6.621h-3.188c.122.925.546,2.7,3.088,4.369l-.613.782a7.868,7.868,0,0,1-2.989-3.814,7.328,7.328,0,0,1-3.075,3.767l-.57-.8a5.688,5.688,0,0,0,3.089-4.3h-3.2v7.836h-.938v-8.706h4.215Z" transform="translate(234.65 -811.454)" fill="#1a1311"/>
      <path id="パス_63" data-name="パス 63" d="M-231.108,826.507a16.421,16.421,0,0,1-3.109,1.1l-.135-.946c.257-.056.5-.111,1.2-.3V823.4h-.958v-.859h.958v-2.576h-1.07v-.87h2.987v.87h-1.037v2.576h.836v.859h-.836v2.7c.379-.112.735-.246,1.114-.379Zm3.167,2.352h-.893v-2.049a10.367,10.367,0,0,1-3.088,1.794l-.457-.836a8.469,8.469,0,0,0,3.645-2.1h-1.894V823.32h6.041v2.329l.58.48a12.205,12.205,0,0,1-1.316,1.193,7.922,7.922,0,0,0,1.515.757l-.412.769a7.094,7.094,0,0,1-3.623-3.032c-.034.045-.067.09-.1.135Zm3.99-6.131h-7.279v-.746h7.279Zm-.289-1.316h-6.634v-2.507h6.634Zm-4.682-1.839h-1.148v1.183h1.148Zm3.489,4.425h-4.348v1.015h4.348Zm-1.583-4.425h-1.148v1.183h1.148Zm-.067,6.1a5.459,5.459,0,0,0,1.08,1.159,8.965,8.965,0,0,0,1.328-1.159Zm2.029-6.1h-1.2v1.183h1.2Z" transform="translate(234.429 -807.372)" fill="#1a1311"/>
      <path id="パス_64" data-name="パス 64" d="M-231.348,825.861v10.322h-.926v-3.51a11.76,11.76,0,0,1-1.85,1.192l-.279-.99a20.609,20.609,0,0,0,2.128-1.328v-5.685Zm-2.1,3.99a9.4,9.4,0,0,0-.881-2.217l.8-.357a10.008,10.008,0,0,1,.915,2.218Zm9.141,6.289a8,8,0,0,1-3.188-4.538,7.782,7.782,0,0,1-3.122,4.581l-.523-.836a5.975,5.975,0,0,0,2.687-3.834,9.872,9.872,0,0,0,.323-1.761h-2.743v-.891h2.775v-3h.958v3h3.233v.891h-3.188c.7,3.845,2.631,5.071,3.323,5.507Zm-.9-7.781a10.672,10.672,0,0,0-1.326-1.851l.7-.467a10.323,10.323,0,0,1,1.395,1.85Z" transform="translate(234.402 -803.562)" fill="#1a1311"/>
      <path id="パス_65" data-name="パス 65" d="M-234.352,842.389a10.226,10.226,0,0,0,.469-2.942l.8.1a12.4,12.4,0,0,1-.469,3.178Zm3.812-7.959a26.28,26.28,0,0,1-2.151,3.422c.223-.011,1.238-.077,1.438-.09-.1-.334-.189-.546-.255-.714l.658-.255a10,10,0,0,1,.635,1.905l-.735.255c-.067-.333-.079-.378-.111-.5l-.724.067v4.893h-.836V838.6c-.647.056-1.105.079-1.617.1l-.056-.791c.313,0,.446,0,.7-.011.39-.536.557-.814.7-1.037a12.482,12.482,0,0,0-1.416-1.337l.435-.692c.178.145.2.167.279.235a15.136,15.136,0,0,0,.992-2.031l.8.291a21.184,21.184,0,0,1-1.192,2.274,6.7,6.7,0,0,1,.536.546c.557-.947.847-1.494,1.136-2.018Zm-.523,7.213a11.334,11.334,0,0,0-.323-2.108l.714-.122a11.156,11.156,0,0,1,.356,2.062Zm.234.8a4.452,4.452,0,0,0,1.839-2.764h-1.226v-.825H-228a6.221,6.221,0,0,1-2.218,4.236Zm6.934-3.534a11.542,11.542,0,0,1-1.684,1.483,6.838,6.838,0,0,0,1.862,1.738l-.512.848a7.319,7.319,0,0,1-2.486-3.244v2.786c0,.458-.124.891-.8.891h-1.159l-.167-.913.947.022c.334.012.345-.144.345-.3v-4.191H-229.9v-3.99h1.862a9.216,9.216,0,0,0,.345-1.015l.958.045c-.1.336-.245.714-.345.97h2.7v3.99h-2.329v.178a7.728,7.728,0,0,0,.7,1.528,10.167,10.167,0,0,0,1.46-1.416Zm-1.361-4.168h-3.789v.915h3.789Zm0,1.571h-3.789v1h3.789Z" transform="translate(234.429 -799.638)" fill="#1a1311"/>
    </g>
    <g id="グループ_103" data-name="グループ 103" transform="translate(27.208 867.493)">
      <path id="パス_66" data-name="パス 66" d="M-58.342,833.011v5.261h-5.936v-3.154c-.115.1-.2.172-.429.387l-.718-1.346a5.428,5.428,0,0,0,1.735-2.28h-1.147v-1.261h1.577a11.574,11.574,0,0,0,.243-1.289h-2.237v-1.263H-62.9c.028-.63.028-1.161.028-1.317h-1.964V825.5h6.494v2.566h.932v1.263h-.932v2.551H-62.2a10.776,10.776,0,0,1-.515,1.133Zm-1.391,1.3h-3.182v2.637h3.182Zm-1.848-4.987a10.416,10.416,0,0,1-.245,1.289h2.093v-1.289Zm.172-2.58v.214c0,.545-.029.817-.043,1.1h1.72v-1.317Zm9.375.071A20.18,20.18,0,0,1-53.7,830.4a5.858,5.858,0,0,1,1.877,4.3c0,2.538-1.463,2.538-2.452,2.538h-.774l-.215-1.491h.817c.474,0,1.076-.073,1.076-1.362a4.157,4.157,0,0,0-2.108-3.7,16.569,16.569,0,0,0,1.893-3.942h-1.95v11.825H-57.01V825.5h4.975Z" transform="translate(65.54 -825.498)" fill="#fff"/>
      <path id="パス_67" data-name="パス 67" d="M-58.017,836.927V848.54h3.928v-9.146h1.548v10.649H-65V839.394h1.535v9.146h3.9V836.927Z" transform="translate(65.773 -819.238)" fill="#fff"/>
      <path id="パス_68" data-name="パス 68" d="M-64.238,857.521a17.813,17.813,0,0,1-.4,3.656l-.861-.444a13.167,13.167,0,0,0,.46-3.212Zm4.674,3.3a1.563,1.563,0,0,1-1.65,1.091h-1.72l-.229-1.291h1.678a.673.673,0,0,0,.731-.4,11.441,11.441,0,0,0,.458-3.569h-4.588V848.92h6.022v1.161h-1.994v1.046h1.678v1.06h-1.678v1.089h1.678v1.046h-1.678v1.192h1.893a20.083,20.083,0,0,1-.531,5.16,8.4,8.4,0,0,0,1.419-5.148V848.92h5.892v6.25h-1.964a9.614,9.614,0,0,0,2.507,5.332l-.888,1.407a11.514,11.514,0,0,1-2.938-6.739h-1.2v.387a15.6,15.6,0,0,1-.517,3.885,7.1,7.1,0,0,1-1.348,2.467Zm-3.585-3.3c.087,1.147.087,1.291.115,2.61l-.831.085c.043-.545.057-1.118.057-1.662a6.2,6.2,0,0,0-.057-1.032Zm-.373-7.44v1.046H-62.1v-1.046Zm0,2.107v1.089H-62.1v-1.089Zm0,2.136v1.192H-62.1v-1.192Zm1.492,3.081a13.961,13.961,0,0,1,.229,2.424l-.689.13a13.313,13.313,0,0,0-.186-2.438Zm.975-.141a9.6,9.6,0,0,1,.271,1.963l-.6.087a7.933,7.933,0,0,0-.217-1.979Zm4.386-6.94v3.456h3.054v-3.456Z" transform="translate(65.499 -812.668)" fill="#fff"/>
    </g>
    <g id="グループ_104" data-name="グループ 104" transform="translate(-2.976 851.613)">
      <path id="パス_69" data-name="パス 69" d="M-81.4,815.418V824.4h-3.289v-8.985Zm-.848.87h-1.582v3.122h1.582Zm0,3.945h-1.582v3.3h1.582Zm4.862-.658-.212-.926,1.125.012a.554.554,0,0,0,.568-.446,9.331,9.331,0,0,0,.235-2.162h-2.1a4.523,4.523,0,0,1-2.843,3.8l-.491-.78a3.341,3.341,0,0,0,2.4-3.021h-2.151v-.816h6.064a11.8,11.8,0,0,1-.323,3.5,1.2,1.2,0,0,1-1.148.836Zm2.308,5.519H-80.6v-4.828h5.518Zm-.881-4.013H-79.72v3.187h3.758Z" transform="translate(85.171 -815.238)" fill="#1a1311"/>
      <path id="パス_70" data-name="パス 70" d="M-81.8,825.2h1.8v.825h-1.8v.034a8.1,8.1,0,0,0,1.819,2.319l-.458.881a7.664,7.664,0,0,1-1.36-1.862v5.216h-.9v-5a10.582,10.582,0,0,1-1.894,2.843l-.4-1.06a10.8,10.8,0,0,0,2.185-3.366h-2.04V825.2H-82.7V823.56c-.579.067-1.037.111-1.939.144l-.19-.836a17.263,17.263,0,0,0,4.315-.6l.334.814a16.243,16.243,0,0,1-1.617.356Zm6.945,7.112h-4.749v-9.33h4.749Zm-.913-8.483h-2.944v7.613h2.944Z" transform="translate(85.001 -811.388)" fill="#1a1311"/>
      <path id="パス_71" data-name="パス 71" d="M-82.613,833.774V836.9a1.761,1.761,0,0,0,.836,1.325,3.879,3.879,0,0,0,1.727.447h5.674l-.178.87h-5.327a3.343,3.343,0,0,1-2.987-1.382,10.372,10.372,0,0,1-1.594,1.65l-.5-.96a6.536,6.536,0,0,0,1.449-1.237v-2.942h-1.316v-.893ZM-82.9,832a11.041,11.041,0,0,0-1.772-1.873l.658-.591a8.988,8.988,0,0,1,1.828,1.851Zm8.038-.034V837.3c0,.356-.079.859-.87.859H-76.95l-.156-.859,1.08.012c.19,0,.313-.034.313-.336v-.892h-2.062v1.941h-.836v-1.941h-2.063v2.074h-.836v-6.188h2.441a8.356,8.356,0,0,0-1.2-.746l.489-.6a11.042,11.042,0,0,1,1.5.926,7.5,7.5,0,0,0,1.772-.994h-5.117v-.746h6.51v.746a9.955,9.955,0,0,1-2.52,1.416Zm-3.746.724h-2.063v.981h2.063Zm0,1.684h-2.063v.992h2.063Zm2.9-1.684h-2.062v.981h2.062Zm0,1.684h-2.062v.992h2.062Z" transform="translate(85.021 -807.405)" fill="#1a1311"/>
      <path id="パス_72" data-name="パス 72" d="M-82.4,837.056a18.376,18.376,0,0,0-.39,3.956c.145-.268.457-.825.847-1.427l.58.557c-1.282,1.839-1.294,2.565-1.3,3.021l-.936.056a20.177,20.177,0,0,1-.155-2.563,18.855,18.855,0,0,1,.345-3.7Zm5.25-.057c.09,1.2.145,2.463.145,3.668,0,2.4-.122,4.637-4.159,5.651l-.768-.757c3.789-.994,3.868-2.543,3.868-5.151,0-1.048-.022-1.35-.145-3.411Z" transform="translate(85.684 -803.343)" fill="#1a1311"/>
    </g>
    <g id="グループ_105" data-name="グループ 105" transform="translate(-211.878 805.955)">
      <path id="パス_73" data-name="パス 73" d="M-214.322,795.249h-1.015v-5.2a16.451,16.451,0,0,1-4.168,2.23l-.466-.925a15.793,15.793,0,0,0,7.586-5.618l.888.614a19.891,19.891,0,0,1-2.825,2.91Z" transform="translate(219.971 -785.739)" fill="#1a1311"/>
      <path id="パス_74" data-name="パス 74" d="M-207.215,792.028a22.773,22.773,0,0,0-4.665-2.385v5.628h-1.026v-9.531h1.026v2.854a28.348,28.348,0,0,1,5.163,2.4Z" transform="translate(223.841 -785.739)" fill="#1a1311"/>
      <path id="パス_75" data-name="パス 75" d="M-199.094,788.491v1.059h-9.1v-1.059Z" transform="translate(226.423 -784.232)" fill="#1a1311"/>
      <path id="パス_76" data-name="パス 76" d="M-219.419,798.44v-.924h5.988v-2.464h-6.084v-.958h7.067v8.072h-7.216v-.97h6.233V798.44Z" transform="translate(220.139 -781.163)" fill="#1a1311"/>
      <path id="パス_77" data-name="パス 77" d="M-204.682,796.29v1.06h-9.1v-1.06Z" transform="translate(223.362 -779.96)" fill="#1a1311"/>
      <path id="パス_78" data-name="パス 78" d="M-207.18,802.186c2.348-1.506,2.962-3.445,3.28-5.618h-2.921v-.959h3.015a20.394,20.394,0,0,0,.063-2.04l1.006.023c-.022.8-.042,1.193-.105,2.017h4.041v1.862a20.008,20.008,0,0,1-.413,4.47,1.711,1.711,0,0,1-1.809.959,7.312,7.312,0,0,1-1.639-.158l-.022-1.014a8.326,8.326,0,0,0,1.63.178c.772,0,.921-.311,1.015-.658a22.993,22.993,0,0,0,.265-3.633v-1.048h-3.174c-.339,2.441-1.121,4.8-3.6,6.386Z" transform="translate(226.977 -781.451)" fill="#1a1311"/>
      <path id="パス_79" data-name="パス 79" d="M-194.552,799.994a23.259,23.259,0,0,0-4.654-2.385v5.629h-1.026v-9.531h1.026v2.865a27.739,27.739,0,0,1,5.153,2.385Zm-1.819-5.931a10.3,10.3,0,0,1,1.142,2.119l-.741.48a9.613,9.613,0,0,0-1.1-2.153Zm1.534-.769a9.4,9.4,0,0,1,1.142,2.119l-.74.48a9.5,9.5,0,0,0-1.1-2.151Z" transform="translate(230.783 -781.601)" fill="#1a1311"/>
      <path id="パス_80" data-name="パス 80" d="M-186.3,796.29v1.06h-9.1v-1.06Z" transform="translate(233.429 -779.96)" fill="#1a1311"/>
    </g>
    <g id="グループ_106" data-name="グループ 106" transform="translate(-186.838 795.52)">
      <path id="パス_81" data-name="パス 81" d="M-197,780.152c-.943.758-2.667,2.263-3.28,2.82a4.919,4.919,0,0,1,2.072-.467,2.619,2.619,0,0,1,2.89,2.642,2.866,2.866,0,0,1-1.111,2.3,5.285,5.285,0,0,1-3.26.848,11.325,11.325,0,0,1-1.639-.112l-.223-1.014a10.113,10.113,0,0,0,1.925.189c2.413,0,3.323-1.082,3.323-2.195,0-1.607-1.6-1.763-2.243-1.763a6.676,6.676,0,0,0-4.656,2.374l-.593-.813c2.317-1.939,4.1-3.591,5.365-4.75-1.672.18-3.078.223-4.211.246v-.969c1.82-.023,3.428-.046,5.64-.257Z" transform="translate(203.793 -778.87)" fill="#1a1311"/>
      <path id="パス_82" data-name="パス 82" d="M-196.305,787.68c1.936-.033,5.047-.132,5.047-3.021,0-1.727-1.017-1.939-1.873-1.939a35.606,35.606,0,0,0-4.137.57l-.116-1.093c.676-.056,3.66-.412,4.264-.412,1.354,0,2.888.3,2.888,2.8,0,3.9-3.831,4.023-5.809,4.078Zm5.026-6.956a15.623,15.623,0,0,0-4.92-.789l.118-.938a17.752,17.752,0,0,1,5.057.747Z" transform="translate(207.304 -778.997)" fill="#1a1311"/>
      <path id="パス_83" data-name="パス 83" d="M-183.1,783.219a24.161,24.161,0,0,1-2.857.311,8.513,8.513,0,0,0,1.133,1.862l-.825.6a9.9,9.9,0,0,1-1.334-2.419c-.285.023-1.1.034-1.47.034l-3.343-.023v-.9l3.216.045c.317,0,.667,0,1.291-.022a13.613,13.613,0,0,1-.348-1.328c-.382.011-.752.023-1.133.023l-2.645-.012v-.9l2.54.011c.339,0,.412,0,1.068-.011-.105-.658-.138-.947-.169-1.371l1.015-.009c.033.5.063.836.138,1.337a24.161,24.161,0,0,0,2.857-.313l.084.936a24.807,24.807,0,0,1-2.783.279,10.662,10.662,0,0,0,.371,1.326,16.956,16.956,0,0,0,3.089-.379Zm-6.306,1.995a1.6,1.6,0,0,0-.529,1c0,1.148,1.842,1.26,3.365,1.26a23.913,23.913,0,0,0,2.413-.111l.02.98a20.119,20.119,0,0,1-2.147.079,7.921,7.921,0,0,1-3.45-.446,1.868,1.868,0,0,1-1.175-1.616,2.288,2.288,0,0,1,.783-1.65Z" transform="translate(210.365 -778.937)" fill="#1a1311"/>
      <path id="パス_84" data-name="パス 84" d="M-181.319,779.328c-.709,1.648-1.345,3.478-1.63,4.346a2.243,2.243,0,0,1,1.566-.7c1.628,0,1.713,1.585,1.713,2.352v.746c0,.8.085,1.416.941,1.416.518,0,1.059-.255,1.408-1.314a7.566,7.566,0,0,0,.348-2.385l.921.221c-.063,1.472-.317,4.459-2.741,4.459-1.8,0-1.809-1.573-1.809-2.441V785.4c0-.827-.19-1.483-.941-1.483-.423,0-1.291.234-1.958,1.672a27.544,27.544,0,0,0-.825,2.832l-.994-.324c1.5-4.838,1.682-5.374,1.925-6.1.158-.467.772-2.252,1.026-2.976Z" transform="translate(213.913 -778.981)" fill="#1a1311"/>
    </g>
    <g id="グループ_107" data-name="グループ 107" transform="translate(-212.404 754.844)">
      <path id="パス_85" data-name="パス 85" d="M-218.092,756.591a26.194,26.194,0,0,1,2.162,1.817,10.854,10.854,0,0,0,3.622-3.78h-8v-.969h9.52a10.7,10.7,0,0,1-4.448,5.4,21.619,21.619,0,0,1,1.851,2.1l-.859.714a22.7,22.7,0,0,0-4.571-4.6Z" transform="translate(220.311 -752.2)" fill="#1a1311"/>
      <path id="パス_86" data-name="パス 86" d="M-212.834,761.308c2.241-.491,6.064-1.783,6.812-7.011h-3.958a9.645,9.645,0,0,1-2.921,3.043l-.635-.758a8.359,8.359,0,0,0,2.887-3.21h5.8c-.491,5.651-3.645,8-7.558,8.883Z" transform="translate(224.023 -752.357)" fill="#1a1311"/>
      <path id="パス_87" data-name="パス 87" d="M-200.427,759.415a25.109,25.109,0,0,0-4.9-2.385v5.629h-1.082v-9.533h1.082v2.866a29.945,29.945,0,0,1,5.428,2.385Zm-1.918-5.931a10.147,10.147,0,0,1,1.2,2.119l-.78.48a9.614,9.614,0,0,0-1.159-2.153Zm1.616-.768a9.206,9.206,0,0,1,1.2,2.117l-.78.48a9.3,9.3,0,0,0-1.159-2.153Z" transform="translate(227.923 -752.716)" fill="#1a1311"/>
      <path id="パス_88" data-name="パス 88" d="M-191.9,755.356v.981h-4.024c0,3.334-1.4,5.005-4.258,6.043l-.568-.87a5.25,5.25,0,0,0,3.309-2.442,7.28,7.28,0,0,0,.48-2.73h-4.292v-.981h4.292V753h1.037v2.353Z" transform="translate(230.751 -752.559)" fill="#1a1311"/>
      <path id="パス_89" data-name="パス 89" d="M-191.56,756.1c0,3.6-1,5.184-2.151,6.3l-.735-.748c1.237-1.238,1.894-2.509,1.894-5.474v-2.8h.992Zm2.91,4.86c1.371-.423,2.8-.859,3.4-4.29l.947.4c-.491,2.232-1.405,4.783-5.351,5.129v-9.13h1Z" transform="translate(234.478 -752.523)" fill="#1a1311"/>
      <path id="パス_90" data-name="パス 90" d="M-180.592,759.415a25.054,25.054,0,0,0-4.9-2.385v5.629h-1.082v-9.533h1.082v2.866a29.943,29.943,0,0,1,5.428,2.385Zm-1.916-5.931a10.148,10.148,0,0,1,1.2,2.119l-.78.48a9.679,9.679,0,0,0-1.159-2.153Zm1.616-.768a9.206,9.206,0,0,1,1.2,2.117l-.78.48a9.3,9.3,0,0,0-1.159-2.153Z" transform="translate(238.789 -752.716)" fill="#1a1311"/>
    </g>
    <g id="グループ_108" data-name="グループ 108" transform="translate(-208.687 879.227)">
      <path id="パス_91" data-name="パス 91" d="M-210.051,833.439a12.024,12.024,0,0,1-2.128,4.581,43.668,43.668,0,0,1,3.791,3.345l-.848.8a39.58,39.58,0,0,0-3.555-3.388,13.805,13.805,0,0,1-4.515,3.433l-.6-.825a11.718,11.718,0,0,0,4.17-3.009,11.479,11.479,0,0,0,2.374-3.992h-5.987v-.947Z" transform="translate(217.909 -832.882)" fill="#1a1311"/>
      <path id="パス_92" data-name="パス 92" d="M-210.968,836.784a7.377,7.377,0,0,0,2.976-3.345h5.762a9.387,9.387,0,0,1-7.468,8.886l-.48-.927a9.308,9.308,0,0,0,4.827-2.653,16.383,16.383,0,0,0-3.544-2.306,6.944,6.944,0,0,1-1.416,1.125Zm3.645-2.419a8.954,8.954,0,0,1-.958,1.4,17.11,17.11,0,0,1,3.544,2.219,8.093,8.093,0,0,0,1.359-3.623Z" transform="translate(221.711 -832.882)" fill="#1a1311"/>
      <path id="パス_93" data-name="パス 93" d="M-194.512,835.779v1.06H-204.1v-1.06Z" transform="translate(225.474 -831.6)" fill="#1a1311"/>
      <path id="パス_94" data-name="パス 94" d="M-197.036,841.106a6.56,6.56,0,0,0,1.706-4.148l.949.1a8.145,8.145,0,0,1-1.84,4.783Zm5.14,1.4h-1.026v-6.666h-3.857V834.9h3.857v-1.817h1.026V834.9h3.879v.947H-191.9Zm2.441-5.563a8.235,8.235,0,0,0,1.716,4.215l-.836.647a9.082,9.082,0,0,1-1.817-4.75Z" transform="translate(229.342 -833.079)" fill="#1a1311"/>
      <path id="パス_95" data-name="パス 95" d="M-184.786,837.3a6.926,6.926,0,0,1-.568,2.675c-.859,1.75-2.854,2.219-3.8,2.408l-.424-.915c2.541-.446,3.769-1.371,3.769-4.112V837.1h-4.371v-.936h9.075v.936h-3.679Zm2.788-3.99v.935h-7.279v-.935Z" transform="translate(233.097 -832.952)" fill="#1a1311"/>
      <path id="パス_96" data-name="パス 96" d="M-180.655,836.169c0,3.6-1,5.182-2.151,6.3l-.737-.746c1.238-1.238,1.9-2.509,1.9-5.473v-2.8h.992Zm2.91,4.858c1.37-.423,2.8-.856,3.4-4.29l.947.4c-.489,2.227-1.4,4.781-5.351,5.126v-9.129h1Z" transform="translate(236.733 -833.047)" fill="#1a1311"/>
    </g>
    <circle id="楕円形_9" data-name="楕円形 9" cx="6.046" cy="6.046" r="6.046" transform="translate(-86.226 918.75)" fill="#1a1311"/>
    <g id="グループ_109" data-name="グループ 109" transform="translate(-151.718 921.055)">
      <path id="パス_97" data-name="パス 97" d="M-181.1,868.129a6.557,6.557,0,0,0,1.706-4.148l.947.1a8.147,8.147,0,0,1-1.839,4.783Zm5.139,1.4h-1.025v-6.665h-3.857v-.949h3.857V860.1h1.025v1.815h3.88v.949h-3.88Zm2.441-5.561a8.238,8.238,0,0,0,1.718,4.213l-.836.645a9.07,9.07,0,0,1-1.819-4.747Z" transform="translate(181.102 -860.104)" fill="#1a1311"/>
      <path id="パス_98" data-name="パス 98" d="M-168.852,864.324A6.932,6.932,0,0,1-169.42,867c-.859,1.75-2.854,2.218-3.8,2.407l-.423-.913c2.541-.447,3.767-1.372,3.767-4.114v-.257h-4.369v-.935h9.075v.935h-3.679Zm2.788-3.99v.936h-7.281v-.936Z" transform="translate(184.857 -859.978)" fill="#1a1311"/>
      <path id="パス_99" data-name="パス 99" d="M-164.721,863.193c0,3.6-1,5.183-2.151,6.3l-.735-.746c1.237-1.238,1.894-2.509,1.894-5.474v-2.8h.992Zm2.91,4.86c1.37-.424,2.8-.859,3.4-4.292l.949.4c-.492,2.232-1.405,4.783-5.351,5.129v-9.13h1Z" transform="translate(188.494 -860.073)" fill="#1a1311"/>
      <path id="パス_100" data-name="パス 100" d="M-156.625,860.582a18.564,18.564,0,0,1-2.831,8.46l-.981-.523a17.078,17.078,0,0,0,2.753-8.093Zm4.749,8.26a26.286,26.286,0,0,0-2.685-8.027l.935-.446a26.039,26.039,0,0,1,2.843,8.2Z" transform="translate(192.422 -859.958)" fill="#1a1311"/>
      <path id="パス_101" data-name="パス 101" d="M-151.048,863.683a26.137,26.137,0,0,1,2.164,1.815,10.841,10.841,0,0,0,3.622-3.778h-8v-.969h9.52a10.706,10.706,0,0,1-4.448,5.4,21.655,21.655,0,0,1,1.851,2.1l-.859.714a22.7,22.7,0,0,0-4.571-4.6Z" transform="translate(196.35 -859.749)" fill="#1a1311"/>
      <path id="パス_102" data-name="パス 102" d="M-145.185,864.544a15.025,15.025,0,0,0-1.125-3.244l.881-.279a15.1,15.1,0,0,1,1.2,3.244Zm-.111,3.869c3.79-.837,6.231-2.609,6.9-7.793l1.082.2c-.6,3.634-1.963,7.29-7.324,8.438Zm3.077-4.4a15.376,15.376,0,0,0-.936-3.332l.9-.235a14.212,14.212,0,0,1,1.026,3.335Z" transform="translate(200.16 -859.92)" fill="#1a1311"/>
    </g>
    <g id="グループ_110" data-name="グループ 110" transform="translate(-46.872 754.192)">
      <path id="パス_103" data-name="パス 103" d="M-108.68,752.374h.991v2.732h4.75v.924h-4.594a7.213,7.213,0,0,0,4.749,5.7l-.624.938a7.859,7.859,0,0,1-4.659-5.352,8.253,8.253,0,0,1-4.761,5.329l-.534-.958a6.891,6.891,0,0,0,4.625-5.652h-4.524v-.924h4.581Z" transform="translate(113.362 -752.252)" fill="#1a1311"/>
      <path id="パス_104" data-name="パス 104" d="M-95.727,754.161h-4.716v.758h3.936v4.146h-3.257a10.432,10.432,0,0,0,4.159,2.541l-.525.881a12.1,12.1,0,0,1-4.314-3.043v3.267h-.892v-3.267a11.091,11.091,0,0,1-4.314,3.054l-.536-.868a10.926,10.926,0,0,0,4.17-2.565h-3.233v-4.146h3.913v-.758h-4.714v-.836h4.714v-.958h.892v.958h4.716Zm-8.661,1.528v.936h3.054v-.936Zm0,1.661v.958h3.054v-.958Zm7.033-1.661h-3.088v.936h3.088Zm0,1.661h-3.088v.958h3.088Z" transform="translate(117.294 -752.256)" fill="#1a1311"/>
      <path id="パス_105" data-name="パス 105" d="M-94.87,755.232v.825h-1.181v1.181h1.7v.825h-1.7v3.131c1.2-.2,1.337-.221,1.772-.3l.032.792a40.6,40.6,0,0,1-4.513.714l-.1-.87c.491-.032,1.438-.145,1.973-.212v-3.255h-1.952v-.825h1.952v-1.181H-98.1v-.647a6.249,6.249,0,0,1-.5.422l-.379-.868a6.5,6.5,0,0,0,2.107-2.6h.981a5.3,5.3,0,0,0,1.74,2l-.557.758a6.273,6.273,0,0,1-1.65-1.939,9.4,9.4,0,0,1-1.56,2.051Zm-3.39,5.618a9.53,9.53,0,0,0-.345-2.13l.758-.1a12.146,12.146,0,0,1,.368,2.117Zm2.676-.323a12.915,12.915,0,0,0,.313-1.973l.757.1a12.241,12.241,0,0,1-.368,2.006Zm4.515,1.381c-.758.214-2.106.559-3.356.769l-.122-.856.746-.124v-9.051h4.827v4.948h-2.374a6.819,6.819,0,0,0,.512,1.661,6.726,6.726,0,0,0,1.627-1.449l.6.692a9.876,9.876,0,0,1-1.862,1.449,7.637,7.637,0,0,0,2.117,1.984l-.523.836a7.257,7.257,0,0,1-3.323-5.173h-.714v3.936c.837-.167,1.26-.268,1.819-.4Zm1.2-8.46h-3.044v1.292h3.044Zm0,2.04h-3.044v1.3h3.044Z" transform="translate(121.238 -752.256)" fill="#1a1311"/>
      <path id="パス_106" data-name="パス 106" d="M-91.848,758.169a9.826,9.826,0,0,0,2.887-3.534l.791.4a12.484,12.484,0,0,1-1.181,1.939v5.776H-90.3V758.1a9.8,9.8,0,0,1-1.193,1.093Zm.032-3.264a6.882,6.882,0,0,0,2.531-2.61l.792.367a8.6,8.6,0,0,1-2.832,3.134Zm10.512,1.949h-1.8v4.984c0,.635-.2.915-.991.915h-1.918l-.167-1.015,1.8.022c.235,0,.336-.043.336-.311v-4.594h-4.013v-.9H-81.3Zm-.435-3.1h-5.841v-.868h5.841Z" transform="translate(125.147 -752.295)" fill="#1a1311"/>
    </g>
    <g id="グループ_111" data-name="グループ 111" transform="translate(-109.357 754.537)">
      <path id="パス_107" data-name="パス 107" d="M-144.781,756.4l-.2,4.68h1.549v.871h-10.3v-.871h2.453a38.1,38.1,0,0,0,1.025-3.821h-2.5V756.4h2.687c.289-1.316.412-2.117.48-2.576h-3.6v-.87h9.242v.87h-4.649c-.144.669-.4,1.905-.534,2.576Zm-4.527.859c-.144.679-.378,1.839-.958,3.821h4.292l.189-3.821Z" transform="translate(153.733 -752.281)" fill="#1a1311"/>
      <path id="パス_108" data-name="パス 108" d="M-142.02,754.412v-1.894h.947v1.894h4.281v5.273h-4.281v3.176h-.947v-3.176h-4.225v-5.273Zm0,.915h-3.287v3.455h3.287Zm4.292,0h-3.345v3.455h3.345Z" transform="translate(157.835 -752.518)" fill="#1a1311"/>
    </g>
    <line id="線_11" data-name="線 11" y2="190.861" transform="translate(-54.298 748.832)" fill="none" stroke="#4b4b4b" stroke-miterlimit="10" stroke-width="1.986"/>
    <line id="線_12" data-name="線 12" y2="17.537" transform="translate(-137.302 818.977)" fill="none" stroke="#070203" stroke-miterlimit="10" stroke-width="0.378"/>
    <line id="線_13" data-name="線 13" x2="18.895" transform="translate(-66.253 759.685)" fill="none" stroke="#070203" stroke-miterlimit="10" stroke-width="0.378"/>
    <path id="パス_109" data-name="パス 109" d="M-175.248,765.463l3.292,6.67,7.361,1.07-5.327,5.192,1.257,7.332-6.584-3.462-6.584,3.462,1.257-7.332L-185.9,773.2l7.361-1.07Z" transform="translate(26.755 9.11)" fill="#e22f00"/>
    <g id="グループ_116" data-name="グループ 116" transform="translate(-143.167 787.505)">
      <rect id="長方形_21" data-name="長方形 21" width="81.757" height="73.178" rx="2.815" transform="translate(53.21 10.377)" fill="#e22f00"/>
      <g id="グループ_112" data-name="グループ 112" transform="translate(62.22 16.782)">
        <path id="パス_110" data-name="パス 110" d="M-119.122,792.326h-4.02v2.791a1.683,1.683,0,0,1-1.843,1.576.889.889,0,0,1-.933-.782v-.2h-1.025V794.7h2.254v-2.37H-130.1v-.96h5.416v-1.715h-4.775v-.96h4.775V787.1s-3.278.347-4.238.347l-.345-.947c1.113,0,7.219-.82,8.154-1.486.345.116,1.421.435,1.421.884,0,.486-3.226.986-3.444.986v1.8h2.19a.848.848,0,0,1,.946-.653.913.913,0,0,1,1.025.909c0,.526-.333.7-.819.7h-3.342v1.715h2.868a.851.851,0,0,1,.947-.653.9.9,0,0,1,1.023.9C-118.3,792.148-118.624,792.326-119.122,792.326Z" transform="translate(138.265 -784.466)" fill="#fff"/>
        <path id="パス_111" data-name="パス 111" d="M-117.886,795.913l-.345-1.086c3.789-.091,6.49-1.741,6.49-4.188a2.143,2.143,0,0,0-2.329-2.317c-2.178,0-4.648.744-6.132.744a1.023,1.023,0,0,1-1.113-1.037.981.981,0,0,1,.984-1.063.9.9,0,0,1,.922.614c1.2,0,3.687-.3,5.4-.3a5.351,5.351,0,0,1,2.125.4,4.54,4.54,0,0,1-1.152-2.239.48.48,0,0,1,.523-.486.519.519,0,0,1,.514.563.794.794,0,0,1-.053.294,10,10,0,0,0,1.243,1.817l-.461.4a3.073,3.073,0,0,1,1.254,2.636C-110.014,793.992-113.521,795.811-117.886,795.913Zm8.141-8.039a4.769,4.769,0,0,1-1.664-2.713.488.488,0,0,1,.537-.5.553.553,0,0,1,.551.576.846.846,0,0,1-.063.3,6.839,6.839,0,0,0,1.254,1.817Z" transform="translate(143.079 -784.661)" fill="#fff"/>
        <path id="パス_112" data-name="パス 112" d="M-104.678,796.72a56.4,56.4,0,0,0-7.553-5.365.912.912,0,0,1-.537-.806.988.988,0,0,1,.549-.833c2.65-1.509,5.608-3.1,6.261-3.647a.7.7,0,0,1-.026-.231.78.78,0,0,1,.833-.78,1.126,1.126,0,0,1,.9.5,1.15,1.15,0,0,1,.255.666.819.819,0,0,1-.435.692c-1.152.754-3.174,1.548-6.477,3.34a.241.241,0,0,0-.153.192c0,.077.051.141.166.206a53.881,53.881,0,0,1,7.3,4.916Z" transform="translate(147.761 -784.443)" fill="#fff"/>
        <path id="パス_113" data-name="パス 113" d="M-103.554,792.858c-1.2,0-1.959-.741-1.959-2.264v-3.636a.761.761,0,0,1-.486-.7c0-.639.525-.794,1.076-.794.6,0,.921.269.921.833v4.326c0,.6.218.908.679.908.537,0,1.254-.525,2.023-1.407l1,.933A4.864,4.864,0,0,1-103.554,792.858Zm.717,3.636-.486-1.037c2.918-.41,5.03-1.8,5.03-5.441v-3.071a.765.765,0,0,1-.488-.7c0-.423.257-.794,1.051-.794.639,0,.947.255.947.831v3.8C-96.782,794.382-99.342,795.956-102.837,796.493Z" transform="translate(151.469 -784.231)" fill="#fff"/>
        <path id="パス_114" data-name="パス 114" d="M-124.957,797.2V804.4a1.407,1.407,0,0,1-1.548,1.525.744.744,0,0,1-.782-.769v-.18h-.819v-.947h1.664v-7.09h-3.391a8.032,8.032,0,0,1-3.329,3.571l-.69-.717a6.717,6.717,0,0,0,2.38-2.854h-2.407v8.946h-1.5v-9.765c0-.41.41-.512.743-.512.269,0,.666.063.743.37h2.764a9.274,9.274,0,0,0,.3-1.78h.46c.384,0,1.127.053,1.127.437a4.854,4.854,0,0,1-.243,1.343h3.109a.842.842,0,0,1,.769-.46c.576,0,1.088.268,1.088.908A.947.947,0,0,1-124.957,797.2Zm-2.995,6.477a.737.737,0,0,1-.782-.7.409.409,0,0,1,.014-.128,6.976,6.976,0,0,0-1.5-1.215,10.323,10.323,0,0,1-2.907,2.509l-.627-.782a8.8,8.8,0,0,0,3.072-4.044c.282,0,1.511,0,1.511.41a3.2,3.2,0,0,1-.565,1.24c.82.269,2.574.845,2.574,1.909A.75.75,0,0,1-127.952,803.68Zm.294-3.264a.782.782,0,0,1-.831-.69.408.408,0,0,1,.039-.181,7.161,7.161,0,0,0-1.87-1.446l.576-.614c.884.3,2.856.96,2.856,2.113A.753.753,0,0,1-127.658,800.416Z" transform="translate(135.377 -779.439)" fill="#fff"/>
        <path id="パス_115" data-name="パス 115" d="M-120.086,803.713A2.787,2.787,0,0,1-123,805.479c-1.882,0-3.162-.845-3.162-2.3,0-1.421,1.319-2.317,3.162-2.317a3.849,3.849,0,0,1,1.549.307v-1.6h-4.993c-.69,0-.933-.308-.933-.782,0-.512.306-.831.984-.831a.768.768,0,0,1,.859.652h4.083v-1.345h-4.993c-.69,0-.933-.306-.933-.792s.306-.845.984-.845a.778.778,0,0,1,.859.666h4.083v-.46a.655.655,0,0,1-.539-.628c0-.32.218-.717,1.011-.717.731,0,.987.319.987.729v1.076h3.7v.972H-120v1.345h3.7v.961H-120v2.7a6.416,6.416,0,0,0,4.275,1.381v1.421A7.866,7.866,0,0,1-120.086,803.713Zm-2.933-1.792a1.334,1.334,0,0,0-1.47,1.255,1.333,1.333,0,0,0,1.47,1.254,1.326,1.326,0,0,0,1.447-1.254A1.288,1.288,0,0,0-123.019,801.921Z" transform="translate(139.756 -779.28)" fill="#fff"/>
        <path id="パス_116" data-name="パス 116" d="M-111.607,805.5c-1.817,0-2.637-1.048-2.944-3.558-.09-.779-.243-1.088-.857-1.088a3.852,3.852,0,0,0-.525.053c-.577,1.28-1.319,2.88-2.254,4.877l-1.292-.667c3.66-8.14,3.967-8.754,4.083-9.381a.7.7,0,0,1-.294-.565.776.776,0,0,1,.87-.768c.6,0,1.114.245,1.114.935,0,.539-.231,1.152-1.715,4.442a5.391,5.391,0,0,1,.69-.051c1.178,0,1.537.59,1.665,1.523.345,2.509.78,3.225,1.676,3.225,1.254,0,2.227-1.574,2.227-4.826h1.586C-107.575,803.361-108.957,805.5-111.607,805.5Z" transform="translate(144.085 -779.326)" fill="#fff"/>
        <path id="パス_117" data-name="パス 117" d="M-104.166,805.426l-.371-.974a4.563,4.563,0,0,0,3.585-4.736,3.7,3.7,0,0,0-3.738-3.789,4.421,4.421,0,0,0-4.379,4.671c0,1.653.5,2.664,1.28,2.664.692,0,1.947-.933,1.947-5.108a.8.8,0,0,1-.4-.741.864.864,0,0,1,.974-.808c.69,0,.909.447.909,1.063,0,3.993-.9,6.668-3.444,6.668-1.613,0-2.764-1.432-2.764-3.685a5.652,5.652,0,0,1,5.965-5.787,4.959,4.959,0,0,1,5.248,4.826A5.658,5.658,0,0,1-104.166,805.426Z" transform="translate(148.968 -779.072)" fill="#fff"/>
        <path id="パス_118" data-name="パス 118" d="M-90.883,796.407h-8.5v1.741c0,2.866,0,5.682-1.921,8.037l-.806-.794c1.255-2.06,1.268-4.685,1.268-7.027v-2.842c0-.357.423-.486.717-.486s.7.1.743.435h2.944v-.845c0-.409.409-.5.743-.5s.754.09.754.5v.845h2.907c.076-.461.525-.6.933-.6.539,0,1.025.245,1.025.845C-90.077,796.226-90.409,796.407-90.883,796.407Zm-.7,3.034h-3.021v1.613h1.831a.961.961,0,0,1,.87-.474,1,1,0,0,1,1.037.986.951.951,0,0,1-.461.8v3.546h-1.521v-.549h-4.43v.627h-1.523v-4.838c0-.423.435-.512.768-.512.294,0,.678.077.755.41h1.19v-3.879c0-.41.41-.512.743-.512s.741.1.741.512v1.3h2.19a.823.823,0,0,1,.882-.627.849.849,0,0,1,.871.871C-90.665,799.274-91.114,799.441-91.587,799.441Zm-1.266,2.573h-4.43v2.405h4.43Z" transform="translate(153.6 -779.475)" fill="#fff"/>
      </g>
      <path id="パス_119" data-name="パス 119" d="M-175.577,773.818l57.868,28.651V810.8Z" transform="translate(175.577 -773.818)" fill="#e22f00"/>
      <g id="グループ_115" data-name="グループ 115" transform="translate(61.265 46.462)">
        <path id="パス_120" data-name="パス 120" d="M-87.236,826.133c-2.1-1.729-2.958-5.041-3.243-8.13a21.323,21.323,0,0,0,2.116-.291,3.009,3.009,0,0,0,2.4-3.516,3.007,3.007,0,0,0-3.518-2.4q-.46.086-.907.141a3.011,3.011,0,0,0-2.568-3.362,3.006,3.006,0,0,0-3.4,2.563c0,.022-.015.124-.034.283a19.1,19.1,0,0,1-8.873-6.16,3.009,3.009,0,0,0-4.2-.619,3.01,3.01,0,0,0-.627,4.21A25.145,25.145,0,0,0-97.038,817.5c-.777,2.082-3.2,6.8-6.682,7.59a2.207,2.207,0,0,1-1.113-.065,3.285,3.285,0,0,0-.025-.475,3.008,3.008,0,0,0-3.371-2.6,3.086,3.086,0,0,0-2.08,1.235,4.088,4.088,0,0,0-.529,3.267,5.3,5.3,0,0,0,2.387,3.452,7.948,7.948,0,0,0,4.326,1.244,7.892,7.892,0,0,0,1.741-.192,13.645,13.645,0,0,0,7.6-5.29,13.328,13.328,0,0,0,3.718,5.106,3,3,0,0,0,1.915.689,3,3,0,0,0,2.322-1.094A3.007,3.007,0,0,0-87.236,826.133Zm-19.8,1.7a2.991,2.991,0,0,0,1.082-.559A2.884,2.884,0,0,1-107.032,827.836Z" transform="translate(149.71 -803.718)" fill="#fff"/>
        <g id="グループ_113" data-name="グループ 113" transform="translate(27.177 11.019)">
          <path id="パス_121" data-name="パス 121" d="M-117.907,811.9c0-.426-.528-.2-.528-.557,0-.226.251-.272.427-.272.141,0,.277.012.419.012.822,0,1.435-.085,1.56-.085.771,0,1.515.409,1.515,1.258a1.357,1.357,0,0,1-1.5,1.3c-.17,0-.341-.028-.494-.028-.068,0-.09.028-.09.09v.33c.017.709.43.413.43.743,0,.368-.817.385-1.073.385-.238,0-1.077,0-1.077-.375,0-.311.413-.119.413-.584Zm1.521-.274c-.221,0-.215.07-.215.183v.851c0,.119-.053.249.255.249.373,0,.522-.283.522-.63S-116.007,811.621-116.386,811.621Z" transform="translate(118.435 -810.936)" fill="#fff"/>
          <path id="パス_122" data-name="パス 122" d="M-114.593,812.982a3.591,3.591,0,0,0,.409-1.34.613.613,0,0,1,.686-.686c.494,0,.806.5,1.028.879.1.164.953,1.9,1.156,2.367.187.43.494.17.494.494,0,.413-.8.4-1.088.4-.811,0-1.3,0-1.3-.358,0-.272.347-.17.347-.368,0-.255-.142-.277-1.056-.277-.3,0-.471.011-.471.288,0,.221.364.074.364.37,0,.341-.614.345-.84.345-.811,0-.885-.153-.885-.334,0-.266.306-.187.471-.392a3.278,3.278,0,0,0,.33-.607Zm1.192.409c.056,0,.226.011.226-.074a1.96,1.96,0,0,0-.209-.46c-.051-.091-.149-.3-.272-.3s-.234.341-.255.4a1.915,1.915,0,0,0-.119.351c0,.1.141.08.2.08Z" transform="translate(119.905 -810.956)" fill="#fff"/>
          <path id="パス_123" data-name="パス 123" d="M-112.184,813.021a2.071,2.071,0,0,1,2.195-2.054,2.16,2.16,0,0,1,2.168,2.111,2.119,2.119,0,0,1-2.237,2.025A2.055,2.055,0,0,1-112.184,813.021Zm1.935-1.209c-.317,0-.477.33-.477.608,0,.481.341,1.837.953,1.837.345,0,.494-.3.494-.607C-109.279,813.134-109.585,811.812-110.249,811.812Z" transform="translate(121.859 -810.95)" fill="#fff"/>
        </g>
        <g id="グループ_114" data-name="グループ 114">
          <path id="パス_124" data-name="パス 124" d="M-128.286,807.678a3.012,3.012,0,0,0-1.483,3.987c.673,1.478,2.238,5.99,1.4,9.085-.436,1.607-1.056,2.735-1.5,2.752a.334.334,0,0,1-.107-.289,3.009,3.009,0,0,0-2.82-3.187,3.012,3.012,0,0,0-3.187,2.82A6.3,6.3,0,0,0-131,829.419a6.849,6.849,0,0,0,1.2.108c2.184,0,5.574-1.08,7.236-7.2,1.565-5.756-1.395-12.436-1.737-13.179A3,3,0,0,0-128.286,807.678Z" transform="translate(135.994 -801.885)" fill="#fff"/>
          <path id="パス_125" data-name="パス 125" d="M-111.858,822.277a3.012,3.012,0,0,0-3.383,2.58.528.528,0,0,1-.274.385,1.192,1.192,0,0,1-.888.19c-2.257-.545-3.19-3.784-3.546-5.666-.972-5.157-.308-12.517-.3-12.639a3.011,3.011,0,0,0-2.716-3.278,3.017,3.017,0,0,0-3.277,2.715c-.031.336-.76,8.3.375,14.318,1.455,7.709,5.666,9.827,8.047,10.4a6.792,6.792,0,0,0,1.6.189,7.328,7.328,0,0,0,4.1-1.261,6.522,6.522,0,0,0,2.84-4.549A3.01,3.01,0,0,0-111.858,822.277Z" transform="translate(141.196 -803.837)" fill="#fff"/>
          <path id="パス_126" data-name="パス 126" d="M-117.633,812.416h.048a4.068,4.068,0,0,0,2.905-1.218,4.287,4.287,0,0,0,.97-4.465,1.449,1.449,0,0,0-1.856-.868,1.449,1.449,0,0,0-.868,1.856,1.377,1.377,0,0,1-.3,1.438,1.19,1.19,0,0,1-.848.361h-.012a1.2,1.2,0,0,1-.856-.381,1.376,1.376,0,0,1,.02-1.9,1.194,1.194,0,0,1,.693-.35,1.45,1.45,0,0,0,1.243-1.63,1.445,1.445,0,0,0-1.63-1.243,4.071,4.071,0,0,0-2.363,1.181,4.3,4.3,0,0,0-.067,5.934A4.067,4.067,0,0,0-117.633,812.416Z" transform="translate(143.815 -803.747)" fill="#fff"/>
        </g>
      </g>
    </g>
    <line id="線_14" data-name="線 14" y2="12.204" transform="translate(-168.595 783.795)" fill="none" stroke="#070203" stroke-miterlimit="10" stroke-width="0.378"/>
    <line id="線_15" data-name="線 15" y2="22.203" transform="translate(-195.259 785.462)" fill="none" stroke="#070203" stroke-miterlimit="10" stroke-width="0.378"/>
  </g>
</svg>
