<svg xmlns="http://www.w3.org/2000/svg" width="268.94" height="30.568" viewBox="0 0 268.94 30.568">
  <g id="グループ_287" data-name="グループ 287" transform="translate(-513 -4669)">
    <path id="パス_605" data-name="パス 605" d="M71.913,6.054A29.877,29.877,0,0,1,69.032,9.8a25.97,25.97,0,0,1-4.263,3.746.455.455,0,0,1-.662-.058.45.45,0,0,1,0-.662,29.71,29.71,0,0,0,3.485-5.963L55.205,6.832a.3.3,0,0,1-.259-.116l-.72-.979q-.116-.144.057-.144H68.111q.229-.547.46-1.152.059-.2.317-.115l2.708.892c.308.1.461.26.461.491a.54.54,0,0,1-.144.345M63.3,11.441q-.087,5.013-1.21,7.288-1.584,3.226-6.827,6.222a.512.512,0,0,1-.663-.086c-.173-.193-.134-.4.116-.634A15.9,15.9,0,0,0,59.5,17.922a21.821,21.821,0,0,0,.778-6.8c0-.154.087-.221.259-.2l2.334.086q.432.03.432.433" transform="translate(513 4669)" fill="#1e0073"/>
    <path id="パス_606" data-name="パス 606" d="M71.913,6.054A29.877,29.877,0,0,1,69.032,9.8a25.97,25.97,0,0,1-4.263,3.746.455.455,0,0,1-.662-.058.45.45,0,0,1,0-.662,29.71,29.71,0,0,0,3.485-5.963L55.205,6.832a.3.3,0,0,1-.259-.116l-.72-.979q-.116-.144.057-.144H68.111q.229-.547.46-1.152.059-.2.317-.115l2.708.892c.308.1.461.26.461.491A.54.54,0,0,1,71.913,6.054ZM63.3,11.441q-.087,5.013-1.21,7.288-1.584,3.226-6.827,6.222a.512.512,0,0,1-.663-.086c-.173-.193-.134-.4.116-.634A15.9,15.9,0,0,0,59.5,17.922a21.821,21.821,0,0,0,.778-6.8c0-.154.087-.221.259-.2l2.334.086Q63.3,11.038,63.3,11.441Z" transform="translate(513 4669)" fill="none" stroke="#251e1c" stroke-linecap="round" stroke-linejoin="round" stroke-width="0.737"/>
    <path id="パス_607" data-name="パス 607" d="M83.124,9.4a17.827,17.827,0,0,1-1.44,7.749A14.75,14.75,0,0,1,75.2,23.224a.371.371,0,0,1-.49-.087c-.115-.115-.077-.269.116-.461a15.766,15.766,0,0,0,4.263-6.366,25.169,25.169,0,0,0,.864-7.145c0-.173.086-.249.259-.23l2.507.057a.357.357,0,0,1,.4.4m15.5,4.609a.44.44,0,0,1-.029.576q-3.313,4.352-11.177,8.182a.338.338,0,0,1-.519-.231l-.979-2.622c-.058-.153,0-.259.187-.316s.428-.145.735-.26q.086-8.959,0-13.337a.64.64,0,0,1,.23-.23l2.449.057c.288,0,.422.134.4.4q-.172,5.1-.115,12.011a66.128,66.128,0,0,0,8.268-4.2c.268-.154.45-.163.547-.029" transform="translate(513 4669)" fill="#1e0073"/>
    <path id="パス_608" data-name="パス 608" d="M83.124,9.4a17.827,17.827,0,0,1-1.44,7.749A14.75,14.75,0,0,1,75.2,23.224a.371.371,0,0,1-.49-.087c-.115-.115-.077-.269.116-.461a15.766,15.766,0,0,0,4.263-6.366,25.169,25.169,0,0,0,.864-7.145c0-.173.086-.249.259-.23l2.507.057A.357.357,0,0,1,83.124,9.4Zm15.5,4.609a.44.44,0,0,1-.029.576q-3.313,4.352-11.177,8.182a.338.338,0,0,1-.519-.231l-.979-2.622c-.058-.153,0-.259.187-.316s.428-.145.735-.26q.086-8.959,0-13.337a.64.64,0,0,1,.23-.23l2.449.057c.288,0,.422.134.4.4q-.172,5.1-.115,12.011a66.128,66.128,0,0,0,8.268-4.2C98.343,13.88,98.525,13.871,98.622,14.005Z" transform="translate(513 4669)" fill="none" stroke="#251e1c" stroke-linecap="round" stroke-linejoin="round" stroke-width="0.737"/>
    <path id="パス_609" data-name="パス 609" d="M118.589,8.5q-.058,7.6-.23,12.358a.756.756,0,0,1-.865.807h-1.411a.712.712,0,0,1-.807-.836v-.086h-9.391a.283.283,0,0,1-.259-.144l-.72-.98c-.077-.1-.058-.143.058-.143h10.37q.2-4.782.173-10.169a.357.357,0,0,0-.4-.4h-9.132a.282.282,0,0,1-.259-.144l-.721-.979c-.077-.077-.057-.115.058-.115h12.732a.711.711,0,0,1,.807.835" transform="translate(513 4669)" fill="#1e0073"/>
    <path id="パス_610" data-name="パス 610" d="M118.589,8.5q-.058,7.6-.23,12.358a.756.756,0,0,1-.865.807h-1.411a.712.712,0,0,1-.807-.836v-.086h-9.391a.283.283,0,0,1-.259-.144l-.72-.98c-.077-.1-.058-.143.058-.143h10.37q.2-4.782.173-10.169a.357.357,0,0,0-.4-.4h-9.132a.282.282,0,0,1-.259-.144l-.721-.979c-.077-.077-.057-.115.058-.115h12.732A.711.711,0,0,1,118.589,8.5Z" transform="translate(513 4669)" fill="none" stroke="#251e1c" stroke-linecap="round" stroke-linejoin="round" stroke-width="0.737"/>
    <path id="パス_611" data-name="パス 611" d="M146.1,13.285c0,.191-.087.288-.26.288H128.389a.413.413,0,0,1-.317-.173l-.893-1.181c-.1-.116-.068-.173.086-.173h18.379a.255.255,0,0,1,.288.288Z" transform="translate(513 4669)" fill="#1e0073"/>
    <path id="パス_612" data-name="パス 612" d="M146.1,13.285c0,.191-.087.288-.26.288H128.389a.413.413,0,0,1-.317-.173l-.893-1.181c-.1-.116-.068-.173.086-.173h18.379a.255.255,0,0,1,.288.288Z" transform="translate(513 4669)" fill="none" stroke="#251e1c" stroke-linecap="round" stroke-linejoin="round" stroke-width="0.737"/>
    <path id="パス_613" data-name="パス 613" d="M157.459,9.4a17.827,17.827,0,0,1-1.44,7.749,14.75,14.75,0,0,1-6.482,6.079.371.371,0,0,1-.49-.087c-.115-.115-.076-.269.115-.461a15.759,15.759,0,0,0,4.264-6.366,25.168,25.168,0,0,0,.864-7.145c0-.173.087-.249.259-.23l2.507.057a.357.357,0,0,1,.4.4m15.5,4.609a.441.441,0,0,1-.029.576q-3.312,4.352-11.177,8.182a.338.338,0,0,1-.519-.231l-.979-2.622c-.058-.153,0-.259.187-.316s.427-.145.735-.26q.085-8.959,0-13.337a.64.64,0,0,1,.23-.23l2.448.057c.289,0,.423.134.4.4q-.173,5.1-.115,12.011a65.985,65.985,0,0,0,8.267-4.2c.27-.154.451-.163.548-.029" transform="translate(513 4669)" fill="#1e0073"/>
    <path id="パス_614" data-name="パス 614" d="M157.459,9.4a17.827,17.827,0,0,1-1.44,7.749,14.75,14.75,0,0,1-6.482,6.079.371.371,0,0,1-.49-.087c-.115-.115-.076-.269.115-.461a15.759,15.759,0,0,0,4.264-6.366,25.168,25.168,0,0,0,.864-7.145c0-.173.087-.249.259-.23l2.507.057A.357.357,0,0,1,157.459,9.4Zm15.5,4.609a.441.441,0,0,1-.029.576q-3.312,4.352-11.177,8.182a.338.338,0,0,1-.519-.231l-.979-2.622c-.058-.153,0-.259.187-.316s.427-.145.735-.26q.085-8.959,0-13.337a.64.64,0,0,1,.23-.23l2.448.057c.289,0,.423.134.4.4q-.173,5.1-.115,12.011a65.985,65.985,0,0,0,8.267-4.2C172.679,13.88,172.86,13.871,172.957,14.005Z" transform="translate(513 4669)" fill="none" stroke="#251e1c" stroke-linecap="round" stroke-linejoin="round" stroke-width="0.737"/>
    <path id="パス_615" data-name="パス 615" d="M184.974,23.77c.018.556-.259.835-.835.835h-1.412q-.866,0-.835-.835.143-12.3,0-19.877a.658.658,0,0,1,.23-.231l2.448.058a.357.357,0,0,1,.4.433q-.174,7.115,0,19.617m7.49-10.284a2.385,2.385,0,0,1,.143.806,2.012,2.012,0,0,1-.4,1.253,1.483,1.483,0,0,1-1.123.591,1.457,1.457,0,0,1-1.527-1.095q-.691-1.785-4.148-2.477c-.077-.019-.115-.058-.115-.116s.038-.1.115-.143a7.8,7.8,0,0,1,3.428-.749,5.083,5.083,0,0,1,2.132.432,2.611,2.611,0,0,1,1.5,1.5m2.333-5.56a1.651,1.651,0,0,1,.086.519q0,1.065-.979,1.123-.635.059-.951-.692A2.136,2.136,0,0,0,191.2,7.552c-.115-.039-.115-.1,0-.173a3.293,3.293,0,0,1,1.786-.548q1.5,0,1.815,1.1m2.535-1.584a1.538,1.538,0,0,1,.086.489q0,1.066-.98,1.124c-.421.038-.729-.192-.921-.691a2.21,2.21,0,0,0-1.786-1.325c-.115-.039-.106-.1.029-.173a3.152,3.152,0,0,1,1.757-.548q1.5,0,1.815,1.124" transform="translate(513 4669)" fill="#1e0073"/>
    <path id="パス_616" data-name="パス 616" d="M184.974,23.77c.018.556-.259.835-.835.835h-1.412q-.866,0-.835-.835.143-12.3,0-19.877a.658.658,0,0,1,.23-.231l2.448.058a.357.357,0,0,1,.4.433Q184.8,11.267,184.974,23.77Zm7.49-10.284a2.385,2.385,0,0,1,.143.806,2.012,2.012,0,0,1-.4,1.253,1.483,1.483,0,0,1-1.123.591,1.457,1.457,0,0,1-1.527-1.095q-.691-1.785-4.148-2.477c-.077-.019-.115-.058-.115-.116s.038-.1.115-.143a7.8,7.8,0,0,1,3.428-.749,5.083,5.083,0,0,1,2.132.432A2.611,2.611,0,0,1,192.464,13.486Zm2.333-5.56a1.651,1.651,0,0,1,.086.519q0,1.065-.979,1.123-.635.059-.951-.692A2.136,2.136,0,0,0,191.2,7.552c-.115-.039-.115-.1,0-.173a3.293,3.293,0,0,1,1.786-.548Q194.479,6.831,194.8,7.926Zm2.535-1.584a1.538,1.538,0,0,1,.086.489q0,1.066-.98,1.124c-.421.038-.729-.192-.921-.691a2.21,2.21,0,0,0-1.786-1.325c-.115-.039-.106-.1.029-.173a3.152,3.152,0,0,1,1.757-.548Q197.016,5.218,197.332,6.342Z" transform="translate(513 4669)" fill="none" stroke="#251e1c" stroke-linecap="round" stroke-linejoin="round" stroke-width="0.737"/>
    <path id="パス_617" data-name="パス 617" d="M216.292,5.075V13a11.519,11.519,0,0,1-1.9,6.855q-2.217,3-8.065,5.359-.432.172-.606-.145c-.115-.191-.047-.374.2-.547q4.464-2.793,5.876-5.156a12.785,12.785,0,0,0,1.412-6.251q.027-.894,0-8.3a.585.585,0,0,1,.23-.259l2.448.086c.269,0,.4.145.4.433m-7.346.288q-.057,1.353-.028,9.852.027.807-.836.836l-1.239.028a.837.837,0,0,1-.835-.835l.029-10.227c0-.153.086-.23.259-.23l2.247.115a.383.383,0,0,1,.4.461" transform="translate(513 4669)" fill="#1e0073"/>
    <path id="パス_618" data-name="パス 618" d="M216.292,5.075V13a11.519,11.519,0,0,1-1.9,6.855q-2.217,3-8.065,5.359-.432.172-.606-.145c-.115-.191-.047-.374.2-.547q4.464-2.793,5.876-5.156a12.785,12.785,0,0,0,1.412-6.251q.027-.894,0-8.3a.585.585,0,0,1,.23-.259l2.448.086C216.157,4.642,216.292,4.787,216.292,5.075Zm-7.346.288q-.057,1.353-.028,9.852.027.807-.836.836l-1.239.028a.837.837,0,0,1-.835-.835l.029-10.227c0-.153.086-.23.259-.23l2.247.115A.383.383,0,0,1,208.946,5.363Z" transform="translate(513 4669)" fill="none" stroke="#251e1c" stroke-linecap="round" stroke-linejoin="round" stroke-width="0.737"/>
    <path id="パス_619" data-name="パス 619" d="M232.889,10.289a1.809,1.809,0,0,1-1.959,1.872q-1.009,0-1.3-1.18A3.612,3.612,0,0,0,227.1,8.3c-.077-.039-.115-.087-.115-.145a.183.183,0,0,1,.144-.115,7.847,7.847,0,0,1,2.966-.6,2.832,2.832,0,0,1,2.046.82,2.683,2.683,0,0,1,.749,2.031m11.638-1.325a22.72,22.72,0,0,1-5.1,8.354,34.342,34.342,0,0,1-9.506,6.453.4.4,0,0,1-.577-.2l-1.266-2.161c-.077-.133-.039-.24.115-.316a40.9,40.9,0,0,0,9.333-5.387,31.479,31.479,0,0,0,6.28-7.116.378.378,0,0,1,.547-.144q.316.146.173.519" transform="translate(513 4669)" fill="#1e0073"/>
    <path id="パス_620" data-name="パス 620" d="M232.889,10.289a1.809,1.809,0,0,1-1.959,1.872q-1.009,0-1.3-1.18A3.612,3.612,0,0,0,227.1,8.3c-.077-.039-.115-.087-.115-.145a.183.183,0,0,1,.144-.115,7.847,7.847,0,0,1,2.966-.6,2.832,2.832,0,0,1,2.046.82A2.683,2.683,0,0,1,232.889,10.289Zm11.638-1.325a22.72,22.72,0,0,1-5.1,8.354,34.342,34.342,0,0,1-9.506,6.453.4.4,0,0,1-.577-.2l-1.266-2.161c-.077-.133-.039-.24.115-.316a40.9,40.9,0,0,0,9.333-5.387,31.479,31.479,0,0,0,6.28-7.116.378.378,0,0,1,.547-.144Q244.671,8.59,244.527,8.964Z" transform="translate(513 4669)" fill="none" stroke="#251e1c" stroke-linecap="round" stroke-linejoin="round" stroke-width="0.737"/>
    <path id="パス_621" data-name="パス 621" d="M268.556,7.61a23.157,23.157,0,0,1-3.918,9.938q-3.687,4.926-11.436,8.008a.421.421,0,0,1-.6-.2.411.411,0,0,1,.145-.6,28.968,28.968,0,0,0,8.584-7.346,21.1,21.1,0,0,0,3.629-8.44h-5.128a20.82,20.82,0,0,1-6.308,5.876.441.441,0,0,1-.576-.663,36.621,36.621,0,0,0,6.626-12.012.264.264,0,0,1,.345-.173l2.564.663a.349.349,0,0,1,.259.518A30.6,30.6,0,0,1,260.606,7.7h4.58q.057-.346.115-.691c.019-.154.115-.221.288-.2l2.621.346c.288.019.4.173.346.461" transform="translate(513 4669)" fill="#1e0073"/>
    <path id="パス_622" data-name="パス 622" d="M268.556,7.61a23.157,23.157,0,0,1-3.918,9.938q-3.687,4.926-11.436,8.008a.421.421,0,0,1-.6-.2.411.411,0,0,1,.145-.6,28.968,28.968,0,0,0,8.584-7.346,21.1,21.1,0,0,0,3.629-8.44h-5.128a20.82,20.82,0,0,1-6.308,5.876.441.441,0,0,1-.576-.663,36.621,36.621,0,0,0,6.626-12.012.264.264,0,0,1,.345-.173l2.564.663a.349.349,0,0,1,.259.518A30.6,30.6,0,0,1,260.606,7.7h4.58q.057-.346.115-.691c.019-.154.115-.221.288-.2l2.621.346C268.5,7.168,268.614,7.322,268.556,7.61Z" transform="translate(513 4669)" fill="none" stroke="#251e1c" stroke-linecap="round" stroke-linejoin="round" stroke-width="0.737"/>
    <path id="パス_623" data-name="パス 623" d="M37.6,21.142c-1.272,4.308-5.53,9.44-18.6,9.426S1.688,25.412.426,21.1c-1.4-4.766.87-9.2,3.416-11.772A4.9,4.9,0,0,1,2.081,7.757a4.352,4.352,0,0,1,1.992-5.8,4.352,4.352,0,0,1,5.99,1.321,4.6,4.6,0,0,1,.428,1.964c1.149-.413,2.331-.748,3.558-1.074,1.7-.45,2.788-2.108,3.44-3.1.1-.151.189-.286.269-.4A1.549,1.549,0,0,1,19.033,0h0a1.555,1.555,0,0,1,1.274.669c.08.116.169.252.268.4.65.992,1.737,2.651,3.433,3.105,1.167.313,2.293.634,3.39,1.022a4.549,4.549,0,0,1,.43-1.9,4.352,4.352,0,0,1,5.994-1.307A4.352,4.352,0,0,1,35.8,7.794,4.819,4.819,0,0,1,34.142,9.3c2.565,2.57,4.871,7.04,3.453,11.842" transform="translate(513 4669)" fill="#1e0073"/>
  </g>
</svg>
