<svg xmlns="http://www.w3.org/2000/svg" width="354.635" height="77.501" viewBox="0 0 354.635 77.501"><g transform="translate(-196.919 -5787.306)"><g transform="translate(214.105 5787.306)"><path d="M66.441,5662.2a2.522,2.522,0,0,1,.476-.052,1.042,1.042,0,0,1,1.071,1.157,1.073,1.073,0,0,1-.765,1.138,24.157,24.157,0,0,1-5.167.443c-4.131,0-7.344-.629-7.344-3.6,0-1.02.612-2.788,1.751-2.788a.928.928,0,0,1,1.02.8,1.526,1.526,0,0,1-.255.714,2.012,2.012,0,0,0-.255.918c0,.714.306,1.666,5.048,1.666A24.068,24.068,0,0,0,66.441,5662.2Zm-9.859-9.961a23.763,23.763,0,0,1,3.264-.187,23,23,0,0,1,4.674.408.991.991,0,0,1,.748,1.071,1.064,1.064,0,0,1-1.1,1.173c-.1,0-.782-.085-.934-.1a23.362,23.362,0,0,0-3.23-.22c-.493,0-2.805.136-3.094.136-.816,0-1.1-.528-1.1-1.19A1.05,1.05,0,0,1,56.582,5652.24Zm10.913,1.088a.732.732,0,0,1-.731.714c-.425,0-.561-.323-.731-.782a10.35,10.35,0,0,0-.867-1.734c-.221-.357-.272-.442-.272-.595a.719.719,0,0,1,.748-.68.464.464,0,0,1,.221.034C66.356,5650.489,67.5,5652.954,67.5,5653.328Zm2.4-.612a.718.718,0,0,1-.731.7c-.425,0-.527-.255-.731-.8a10.1,10.1,0,0,0-.833-1.734c-.2-.357-.255-.442-.255-.595a.69.69,0,0,1,.731-.663.508.508,0,0,1,.238.034C68.821,5649.86,69.892,5652.325,69.892,5652.716Z" transform="translate(-54.712 -5649.622)" fill="#fff"/><path d="M74.33,5658.206c-.34,0-.425-.067-1.173-.646-.22-.169-1.223-.867-1.428-1-.408-.307-.441-.562-.441-.714a1.13,1.13,0,0,1,1.053-1.088c.324,0,.629.186,1.36.663,1.5,1,1.632,1.291,1.632,1.6A1.09,1.09,0,0,1,74.33,5658.206Zm1.241,2.091a12.738,12.738,0,0,1-1.275,3.417c-1.122,2.295-1.275,2.4-1.818,2.4a1.167,1.167,0,0,1-1.157-1.037,1.4,1.4,0,0,1,.256-.7,23.445,23.445,0,0,0,2-4.08c.2-.51.374-.9.986-.9A.966.966,0,0,1,75.571,5660.3Zm-.714-6.544c-.34,0-.493-.1-1.19-.663-.221-.17-1.241-.867-1.445-1.02a.8.8,0,0,1-.408-.68,1.133,1.133,0,0,1,1.071-1.071c.239,0,.408,0,1.819.986,1.071.748,1.173,1,1.173,1.309A1.111,1.111,0,0,1,74.857,5653.753Zm7.581,4.793h2.856a.988.988,0,1,1,0,1.972H82.438v3.315h3.757a.988.988,0,1,1,0,1.972H76.132a.988.988,0,1,1,0-1.972h4.114v-3.315H77.407a.988.988,0,1,1,0-1.972h2.839v-2.975H76.829a1,1,0,1,1,0-1.988h9.043a.928.928,0,0,1,1.054.985.918.918,0,0,1-1.054,1H82.438Zm-.1-5c-.272,0-.459-.051-1.292-.493-.781-.425-.866-.476-1.138-.6-.782-.34-1.156-.493-1.156-1.02a1.249,1.249,0,0,1,1.172-1.19,5.148,5.148,0,0,1,1.8.646c.22.119,1.155.578,1.325.68a.925.925,0,0,1,.459.85A1.161,1.161,0,0,1,82.336,5653.549Z" transform="translate(-54.712 -5649.622)" fill="#fff"/><path d="M90.413,5654.5c-.392,0-1.105-.068-1.105-.986,0-.714.272-1.1,1.105-1.1h5.8v-1.225a.923.923,0,0,1,1.054-1.053c.9,0,1.19.34,1.19,1.053v1.225h5.779c.425,0,1.1.085,1.1.985,0,.714-.272,1.106-1.1,1.106h-1.768a15.623,15.623,0,0,1-3.535,6.884,17.036,17.036,0,0,0,5.388,2.5c.459.135.884.323.884,1a1.173,1.173,0,0,1-1.1,1.274,15.936,15.936,0,0,1-6.765-3.314c-2.584,1.989-5.9,3.281-6.766,3.281a1.167,1.167,0,0,1-1.087-1.241c0-.68.424-.868.918-1.021a17.937,17.937,0,0,0,5.371-2.481,16.045,16.045,0,0,1-3.5-6.884Zm4.1,0a12.448,12.448,0,0,0,2.856,5.473,12.554,12.554,0,0,0,2.855-5.473Z" transform="translate(-54.712 -5649.622)" fill="#fff"/><path d="M113.311,5658.224a2.21,2.21,0,1,1-2.21-2.21A2.216,2.216,0,0,1,113.311,5658.224Z" transform="translate(-54.712 -5649.622)" fill="#fff"/><path d="M129.63,5662.2a2.531,2.531,0,0,1,.476-.052,1.042,1.042,0,0,1,1.071,1.157,1.072,1.072,0,0,1-.764,1.138,24.166,24.166,0,0,1-5.168.443c-4.131,0-7.343-.629-7.343-3.6,0-1.02.612-2.788,1.75-2.788a.928.928,0,0,1,1.02.8,1.514,1.514,0,0,1-.255.714,2.006,2.006,0,0,0-.254.918c0,.714.305,1.666,5.048,1.666A24.05,24.05,0,0,0,129.63,5662.2Zm-9.859-9.961a23.774,23.774,0,0,1,3.264-.187,22.991,22.991,0,0,1,4.674.408.991.991,0,0,1,.749,1.071,1.064,1.064,0,0,1-1.1,1.173c-.1,0-.782-.085-.935-.1a23.347,23.347,0,0,0-3.23-.22c-.493,0-2.805.136-3.094.136-.816,0-1.1-.528-1.1-1.19A1.051,1.051,0,0,1,119.771,5652.24Zm10.914,1.088a.732.732,0,0,1-.731.714c-.426,0-.561-.323-.731-.782a10.281,10.281,0,0,0-.868-1.734c-.22-.357-.272-.442-.272-.595a.72.72,0,0,1,.749-.68.466.466,0,0,1,.221.034C129.545,5650.489,130.685,5652.954,130.685,5653.328Zm2.4-.612a.718.718,0,0,1-.731.7c-.425,0-.527-.255-.731-.8a10.165,10.165,0,0,0-.832-1.734c-.2-.357-.256-.442-.256-.595a.69.69,0,0,1,.731-.663.508.508,0,0,1,.238.034C132.01,5649.86,133.081,5652.325,133.081,5652.716Z" transform="translate(-54.712 -5649.622)" fill="#fff"/><path d="M141.378,5658.24H135.5c-.374,0-1.037-.051-1.037-.986a.9.9,0,0,1,1.037-.986h6.493c-.425-.357-1.258-1.037-1.8-1.393-1.054-.663-1.241-.8-1.241-1.156a1.064,1.064,0,0,1,1.054-1.037,1.771,1.771,0,0,1,.664.17,14.535,14.535,0,0,1,2.158,1.445,13.527,13.527,0,0,0,1.751-.936c.255-.152.646-.407.646-.544,0-.186-.238-.186-.357-.186h-8.092c-.492,0-1.036-.136-1.036-.969a.891.891,0,0,1,1.036-.969h10.37c.526,0,1.649,0,1.649,1.36a1.77,1.77,0,0,1-.816,1.427,22.349,22.349,0,0,1-3.672,2.024c.442.425.527.526.629.764h3.637c.6,0,1.7,0,1.7,1.412a2.342,2.342,0,0,1-.409,1.308,14.373,14.373,0,0,1-2.311,2.584c-1,.9-1.139.9-1.411.9a1.267,1.267,0,0,1-1.207-1.173c0-.391.051-.425.986-1.156a5.581,5.581,0,0,0,1.563-1.7c0-.2-.237-.2-.356-.2h-3.451v5.779a1.93,1.93,0,0,1-.935,1.921,9.447,9.447,0,0,1-2.584.221,7.529,7.529,0,0,1-1.7-.119,1.1,1.1,0,0,1-.612-1.036,1.036,1.036,0,0,1,1.19-1.071c.1,0,1.173.034,1.393.034.544,0,.952-.017.952-.663Z" transform="translate(-54.712 -5649.622)" fill="#fff"/><path d="M155.217,5659.09c-.459.034-1.5.137-1.819.137-.2,0-.867,0-.867-.97a.872.872,0,0,1,.357-.765c.153-.1.272-.1,1.1-.136.187-.22.34-.39.748-.934a13.033,13.033,0,0,0-1.394-1.6c-.68-.662-.765-.73-.765-1.088a1.056,1.056,0,0,1,.986-1.053.756.756,0,0,1,.442.119c.255-.391.561-.935.816-1.411.459-.867.611-1.156,1.1-1.156.374,0,1.155.289,1.155.9,0,.306-.119.527-.509,1.207-.357.612-.868,1.393-1.173,1.819.17.221.272.34.492.611.579-.918.851-1.359,1.225-2,.39-.68.509-.884,1-.884.509,0,1.172.323,1.172.934,0,.307-.136.511-.561,1.14a29.985,29.985,0,0,1-2.345,3.264c.866-.069.968-.069,1.427-.119a2.806,2.806,0,0,1-.255-.884c0-.459.493-.647.782-.647.408,0,.578.307.833.952a12.878,12.878,0,0,1,.731,2.414c0,.561-.6.714-.85.714-.475,0-.56-.306-.731-.918-.2.035-.986.153-1.139.17v6.493c0,.51-.136.918-1.037.918-.934,0-.934-.663-.934-.918Zm-.527,1.615a31.077,31.077,0,0,1-.323,3.417c-.119.662-.255.951-.833.951-.255,0-.952-.051-.952-.714,0-.322.306-1.682.34-1.971.034-.306.17-1.751.2-1.938a.657.657,0,0,1,.765-.51C154.622,5659.94,154.69,5660.365,154.69,5660.705Zm4.691.459a17.03,17.03,0,0,1,.323,2.414c0,.407-.034.866-.816.866-.731,0-.764-.271-.884-1.292-.119-1-.17-1.359-.237-1.767a4.047,4.047,0,0,1-.1-.8c0-.629.561-.68.849-.68C159.126,5659.906,159.211,5660.365,159.381,5661.164Zm6.663-8.687c1.938,0,1.989,1.088,1.989,2.516a68.474,68.474,0,0,1-.442,8.992,2.315,2.315,0,0,1-1.6,2.04,9.835,9.835,0,0,1-2.159.119,5.017,5.017,0,0,1-1.7-.119,1.075,1.075,0,0,1-.6-1.019,1.023,1.023,0,0,1,1.207-1.037c.238,0,1.292.034,1.5.034,1.105,0,1.19-.289,1.342-1.428.222-1.734.29-5.253.29-7.174,0-.645,0-.968-.629-.968h-3.06a13.235,13.235,0,0,1-1.139,2.125c-.255.356-.442.475-.765.475a1.118,1.118,0,0,1-1.139-1.019c0-.306.1-.477.391-.918a13.158,13.158,0,0,0,1.683-4.1c.119-.425.238-.85.986-.85.306,0,1.071.085,1.071.731a6.4,6.4,0,0,1-.391,1.6Zm-2.651,5.644a8.9,8.9,0,0,1,.952,2.295,1.132,1.132,0,0,1-1.19.952c-.6,0-.731-.323-1.054-1.156a16.6,16.6,0,0,0-.935-2.006,1.586,1.586,0,0,1-.2-.663,1,1,0,0,1,.935-.884C162.56,5656.558,162.8,5656.948,163.393,5658.121Z" transform="translate(-54.712 -5649.622)" fill="#fff"/><path d="M176.907,5664.921c.272.459.323.56.323.764a.739.739,0,0,1-.748.731.961.961,0,0,1-.782-.476,12.292,12.292,0,0,1-2.669-7.716,12.561,12.561,0,0,1,2.567-7.6c.306-.391.51-.6.884-.6a.739.739,0,0,1,.748.731c0,.2-.051.306-.323.765a12.732,12.732,0,0,0,0,13.4Z" transform="translate(-54.712 -5649.622)" fill="#fff"/><path d="M184.473,5651.662c0-.357,0-1.156,1.088-1.156a.984.984,0,0,1,1.1,1.156v1.683c.408-.051,2.464-.358,2.516-.358a.978.978,0,0,1,.951,1.072c0,.849-.425,1.1-3.467,1.411v1.462a10.729,10.729,0,0,1,3.28-.562c3.655,0,5,2.38,5,4.5a4.118,4.118,0,0,1-4.335,4.335c-.866,0-1.938-.153-1.938-1.241a.982.982,0,0,1,.868-1.054c.169,0,.883.1,1.02.1a2.018,2.018,0,0,0,2.107-2.142c0-1-.544-2.448-3.06-2.448a8.8,8.8,0,0,0-2.94.6v3.127c0,1.225,0,3.367-2.363,3.367-1.513,0-3.842-1.123-3.842-3.3,0-2.244,2.431-3.74,4.012-4.488v-2.09c-.357.016-1.156.05-1.734.05-1.122,0-1.869,0-1.869-1.122,0-1.053.849-1.053,1.24-1.053.561,0,1.955,0,2.363-.017Zm.051,8.295c-.374.221-2.091,1.19-2.091,2.278,0,.714.918,1.224,1.513,1.224.578,0,.578-.477.578-1.173Zm9.485-6.7c.663.578,1.445,1.258,1.445,1.886a1.124,1.124,0,0,1-1.122,1.088c-.391,0-.476-.1-1.275-.968a14.158,14.158,0,0,0-1.666-1.5,1,1,0,0,1-.458-.782,1.067,1.067,0,0,1,1.036-.985C192.564,5652,193.38,5652.716,194.009,5653.26Z" transform="translate(-54.712 -5649.622)" fill="#fff"/><path d="M210.8,5654.348h1.819a.781.781,0,0,1,.9.849c0,.732-.358.936-.9.936H210.8v.73c0,1.65-.357,2.023-2.023,2.023h-1.071v.8H210.4c1.343,0,2.125.425,2.125,2.108v1.767c0,1.565-.34,2.024-2.159,2.024a10.7,10.7,0,0,1-1.19-.052.953.953,0,0,1-.7-.985.816.816,0,0,1,.918-.9c.782,0,1.037,0,1.037-.459v-1.122a.518.518,0,0,0-.6-.577h-2.124v3.774c0,.441-.085,1.037-.952,1.037-.748,0-1.122-.222-1.122-1.037v-3.774h-1.632a.52.52,0,0,0-.594.561v2.618c0,.441-.085,1.036-.969,1.036-.748,0-1.106-.221-1.106-1.036v-2.873c0-1.649.732-2.108,2.109-2.108h2.192v-.8H204.7c-1.632,0-2.024-.357-2.024-2.023v-.73h-1.818V5659a19.85,19.85,0,0,1-.731,5.439c-.323,1.157-.646,1.632-1.309,1.632a1.2,1.2,0,0,1-1.24-1.019c0-.273.016-.324.475-1.564a13.988,13.988,0,0,0,.7-4.641V5653.4c0-1.6.68-2.107,2.108-2.107h3.757v-.391c0-.374.271-.782,1.037-.782.577,0,1.206.119,1.206.782v.391h5.457a.888.888,0,0,1,1.037.935c0,.9-.629.968-1.037.968h-1.8a.659.659,0,0,1,.289.544Zm-8.126-.613a.665.665,0,0,1,.273-.544h-1.581a.451.451,0,0,0-.51.511v.646h1.818Zm6.1,0a.641.641,0,0,1,.255-.544H204.4a.643.643,0,0,1,.289.544v.613h4.1Zm-4.1,2.4v.679c0,.324.137.51.493.51h3.111c.323,0,.493-.153.493-.51v-.679Z" transform="translate(-54.712 -5649.622)" fill="#fff"/><path d="M222.858,5661.419c-.646,1.733-1.5,3.094-3.026,3.094-1.887,0-3.671-2.516-3.671-5.576,0-4.521,3.365-7.513,7.818-7.513,4.794,0,7.039,3.433,7.039,6.715a7.3,7.3,0,0,1-5.474,7.1,1.143,1.143,0,0,1-1.122-1.189.834.834,0,0,1,.56-.85c1.207-.544,3.741-1.717,3.741-5.083a4.364,4.364,0,0,0-4.08-4.657A32.805,32.805,0,0,1,222.858,5661.419Zm-4.573-2.431c0,1.666.714,3.179,1.48,3.179.526,0,.866-.935,1.138-1.666a32.233,32.233,0,0,0,1.581-6.952A5.4,5.4,0,0,0,218.285,5658.988Z" transform="translate(-54.712 -5649.622)" fill="#fff"/><path d="M246.284,5662.2a2.514,2.514,0,0,1,.476-.052,1.043,1.043,0,0,1,1.071,1.157,1.074,1.074,0,0,1-.766,1.138,24.147,24.147,0,0,1-5.167.443c-4.13,0-7.343-.629-7.343-3.6,0-1.02.612-2.788,1.751-2.788a.928.928,0,0,1,1.02.8,1.531,1.531,0,0,1-.256.714,2.026,2.026,0,0,0-.255.918c0,.714.307,1.666,5.049,1.666A24.068,24.068,0,0,0,246.284,5662.2Zm-9.859-9.961a23.758,23.758,0,0,1,3.263-.187,23.008,23.008,0,0,1,4.675.408.991.991,0,0,1,.748,1.071,1.064,1.064,0,0,1-1.1,1.173c-.1,0-.781-.085-.935-.1a23.326,23.326,0,0,0-3.229-.22c-.493,0-2.8.136-3.094.136-.816,0-1.1-.528-1.1-1.19A1.05,1.05,0,0,1,236.425,5652.24Zm10.913,1.088a.732.732,0,0,1-.732.714c-.424,0-.56-.323-.73-.782a10.351,10.351,0,0,0-.867-1.734c-.221-.357-.272-.442-.272-.595a.719.719,0,0,1,.748-.68.464.464,0,0,1,.221.034C246.2,5650.489,247.338,5652.954,247.338,5653.328Zm2.4-.612a.717.717,0,0,1-.73.7c-.426,0-.527-.255-.732-.8a9.95,9.95,0,0,0-.833-1.734c-.2-.357-.254-.442-.254-.595a.689.689,0,0,1,.731-.663.5.5,0,0,1,.237.034C248.664,5649.86,249.734,5652.325,249.734,5652.716Z" transform="translate(-54.712 -5649.622)" fill="#fff"/><path d="M258.031,5658.24H252.15c-.374,0-1.037-.051-1.037-.986a.9.9,0,0,1,1.037-.986h6.494c-.425-.357-1.258-1.037-1.8-1.393-1.054-.663-1.241-.8-1.241-1.156a1.064,1.064,0,0,1,1.053-1.037,1.754,1.754,0,0,1,.663.17,14.45,14.45,0,0,1,2.16,1.445,13.525,13.525,0,0,0,1.751-.936c.254-.152.645-.407.645-.544,0-.186-.238-.186-.356-.186h-8.092c-.493,0-1.037-.136-1.037-.969a.891.891,0,0,1,1.037-.969h10.369c.527,0,1.648,0,1.648,1.36a1.769,1.769,0,0,1-.815,1.427,22.348,22.348,0,0,1-3.672,2.024c.442.425.527.526.629.764h3.638c.594,0,1.7,0,1.7,1.412a2.342,2.342,0,0,1-.408,1.308,14.425,14.425,0,0,1-2.312,2.584c-1,.9-1.139.9-1.411.9a1.268,1.268,0,0,1-1.207-1.173c0-.391.051-.425.986-1.156a5.592,5.592,0,0,0,1.564-1.7c0-.2-.238-.2-.357-.2h-3.451v5.779a1.929,1.929,0,0,1-.934,1.921,9.45,9.45,0,0,1-2.584.221,7.552,7.552,0,0,1-1.7-.119,1.1,1.1,0,0,1-.611-1.036,1.036,1.036,0,0,1,1.19-1.071c.1,0,1.172.034,1.394.034.544,0,.951-.017.951-.663Z" transform="translate(-54.712 -5649.622)" fill="#fff"/><path d="M271.87,5659.09c-.459.034-1.495.137-1.818.137-.2,0-.867,0-.867-.97a.869.869,0,0,1,.357-.765c.152-.1.271-.1,1.1-.136.188-.22.34-.39.749-.934a13.122,13.122,0,0,0-1.394-1.6c-.681-.662-.766-.73-.766-1.088a1.057,1.057,0,0,1,.987-1.053.758.758,0,0,1,.442.119c.255-.391.561-.935.815-1.411.459-.867.613-1.156,1.105-1.156.374,0,1.156.289,1.156.9,0,.306-.119.527-.51,1.207-.357.612-.867,1.393-1.172,1.819.17.221.271.34.493.611.577-.918.849-1.359,1.223-2,.391-.68.51-.884,1-.884.51,0,1.173.323,1.173.934,0,.307-.136.511-.561,1.14a29.637,29.637,0,0,1-2.346,3.264c.867-.069.97-.069,1.429-.119a2.76,2.76,0,0,1-.256-.884c0-.459.493-.647.782-.647.408,0,.578.307.833.952a12.878,12.878,0,0,1,.731,2.414c0,.561-.6.714-.85.714-.476,0-.561-.306-.731-.918-.2.035-.986.153-1.139.17v6.493c0,.51-.136.918-1.036.918-.936,0-.936-.663-.936-.918Zm-.526,1.615a31.073,31.073,0,0,1-.323,3.417c-.12.662-.255.951-.834.951-.254,0-.952-.051-.952-.714,0-.322.307-1.682.341-1.971.033-.306.17-1.751.2-1.938a.658.658,0,0,1,.766-.51C271.275,5659.94,271.344,5660.365,271.344,5660.705Zm4.691.459a16.886,16.886,0,0,1,.323,2.414c0,.407-.034.866-.816.866-.73,0-.765-.271-.884-1.292-.119-1-.17-1.359-.238-1.767a4.045,4.045,0,0,1-.1-.8c0-.629.561-.68.85-.68C275.78,5659.906,275.865,5660.365,276.035,5661.164Zm6.663-8.687c1.938,0,1.989,1.088,1.989,2.516a68.473,68.473,0,0,1-.442,8.992,2.314,2.314,0,0,1-1.6,2.04,9.828,9.828,0,0,1-2.159.119,5.013,5.013,0,0,1-1.7-.119,1.076,1.076,0,0,1-.6-1.019,1.023,1.023,0,0,1,1.207-1.037c.239,0,1.292.034,1.5.034,1.106,0,1.191-.289,1.343-1.428.221-1.734.289-5.253.289-7.174,0-.645,0-.968-.629-.968H278.84a13.233,13.233,0,0,1-1.139,2.125c-.255.356-.442.475-.765.475a1.118,1.118,0,0,1-1.139-1.019c0-.306.1-.477.391-.918a13.157,13.157,0,0,0,1.683-4.1c.119-.425.237-.85.985-.85.307,0,1.072.085,1.072.731a6.4,6.4,0,0,1-.391,1.6Zm-2.651,5.644a8.938,8.938,0,0,1,.952,2.295,1.133,1.133,0,0,1-1.19.952c-.6,0-.731-.323-1.054-1.156a16.6,16.6,0,0,0-.935-2.006,1.586,1.586,0,0,1-.2-.663,1,1,0,0,1,.935-.884C279.214,5656.558,279.452,5656.948,280.047,5658.121Z" transform="translate(-54.712 -5649.622)" fill="#fff"/><path d="M293.1,5657.56c.475-.017,2.583-.1,3.007-.1a1,1,0,0,1,1.072,1.071c.016,1.02-.748,1.072-1.581,1.122-.731.034-2.822.034-2.941.034a7.945,7.945,0,0,0-.136,1.428c0,.935.306,2.328,3.23,2.328,1,0,3.553-.152,3.553-2.583a4.358,4.358,0,0,0-.324-1.581c-.186-.509-.22-.561-.22-.731,0-.611.663-.918,1.138-.918a1.057,1.057,0,0,1,1.02.663,6.56,6.56,0,0,1,.6,2.72c0,2.5-1.5,4.521-5.729,4.521-3.349,0-5.389-1.462-5.389-4.4a9.383,9.383,0,0,1,.12-1.5c-2.584-.1-3.078-.391-3.078-1.258,0-.067,0-1.122,1.021-1.122.17,0,.969.137,1.139.153.611.069,1,.085,1.326.1l.373-1.87c-2.482-.136-3.145-.273-3.145-1.224a1.014,1.014,0,0,1,1.021-1.106c.2,0,1.07.136,1.24.154.646.068.918.085,1.31.119l.407-2.006c.068-.357.2-.969,1-.969.085,0,1.241,0,1.241.9,0,.017-.017.187-.051.374l-.374,1.751c.425-.017,2.277-.085,2.669-.085a.931.931,0,0,1,1,1.037c0,1.1-.578,1.155-4.114,1.122Z" transform="translate(-54.712 -5649.622)" fill="#fff"/><path d="M305.105,5656.829c-.391,0-1.037-.067-1.037-.969,0-.714.221-1.1,1.037-1.1h2.21c1.122,0,1.581.374,1.581,1.6a15.8,15.8,0,0,1-.834,4.624,14.149,14.149,0,0,1-1.886,3.5c-.374.51-.7.664-.986.664a1.3,1.3,0,0,1-1.223-1.173,1.543,1.543,0,0,1,.51-1.037,9.819,9.819,0,0,0,2.125-4.1,7.9,7.9,0,0,0,.271-1.581c0-.272-.17-.425-.493-.425Zm1.615-4.182a.881.881,0,0,1-1.02-.934c0-.7.272-1.02,1.02-1.02H316c.459,0,1.547,0,1.547,1.139,0,.867-.7,1.309-1.394,1.733a21.887,21.887,0,0,1-3.093,1.4v.714h.985a.731.731,0,0,1,.833.815.744.744,0,0,1-.833.85h-.985v1.071h1.308a.75.75,0,0,1,.884.817c0,.747-.493.833-.884.833h-1.308v1.07h2.04a.827.827,0,1,1,0,1.648h-2.04v1.377c0,1.989-1.224,1.989-2.227,1.989a17.292,17.292,0,0,1-1.887-.05.882.882,0,0,1-.663-.969c0-.766.459-.885.935-.885.135,0,1.071.034,1.241.034.407,0,.629-.119.629-.56v-.936h-2.006a.766.766,0,0,1-.9-.815c0-.8.578-.833.9-.833h2.006v-1.07h-1.377c-.289,0-.884-.035-.884-.817,0-.73.459-.833.884-.833h1.377v-1.071h-1.156a.738.738,0,0,1-.85-.8c0-.561.221-.866.85-.866h1.156v-1.156c0-.714.425-.749.833-.8,1.428-.493,1.972-.7,1.972-.952,0-.12-.17-.12-.273-.12Zm11.218,2.364c.732-.85.817-.952,1.208-.952a1.181,1.181,0,0,1,1.087,1.087c0,.391-.186.68-.934,1.462a17.567,17.567,0,0,1-1.9,1.717,12.156,12.156,0,0,0,1.649,3.417c1.088,1.581,1.207,1.768,1.207,2.176a1.35,1.35,0,0,1-1.292,1.207c-.765,0-1.615-1.53-2.074-2.465a21.211,21.211,0,0,1-1.954-7.667c0-.271,0-.884,1.019-.884a.7.7,0,0,1,.748.459,14.6,14.6,0,0,1,.238,1.462A6.933,6.933,0,0,0,317.938,5655.011Z" transform="translate(-54.712 -5649.622)" fill="#fff"/><path d="M326.016,5656.71c.305-.561.509-.7.849-.7a.861.861,0,0,1,.884.782c0,.221-.051.34-.612,1.428a22.936,22.936,0,0,0-1.19,2.889c-.153.544-.272,1.02-1.19,1.02-.646,0-.917-.443-1.088-1.224a19.128,19.128,0,0,1-.425-4.317,27.124,27.124,0,0,1,.408-4.693c.085-.458.239-.985,1.072-.985.544,0,1.155.238,1.155.85,0,.339-.289,1.785-.322,2.09a28.356,28.356,0,0,0-.2,4.25C325.471,5657.815,325.777,5657.152,326.016,5656.71Zm8.141-4.589c.1,1,.188,3.195.188,4.556,0,3.569-.663,6.068-3.468,8.125a5.551,5.551,0,0,1-2.057,1.037,1.221,1.221,0,0,1-1.139-1.191c0-.526.17-.629,1.173-1.257,2.686-1.666,3.212-3.621,3.212-6.851,0-1.325-.068-2.72-.17-4.028-.034-.357-.05-.527-.05-.7,0-.322.05-1.053,1.326-1.019C334.021,5650.829,334.106,5651.56,334.157,5652.121Z" transform="translate(-54.712 -5649.622)" fill="#fff"/><path d="M345.787,5656.2c.578,0,3.094-.1,3.6-.1.39,0,1.257,0,1.257,1.053a.922.922,0,0,1-1,1.02c-.136.017-1.038.068-3.842.119v1.972a18.878,18.878,0,0,1,4.063,1.615c.8.475.884.833.884,1.156a1.147,1.147,0,0,1-1.055,1.224c-.271,0-.374-.051-1.325-.613a15.534,15.534,0,0,0-2.55-1.189c-.017,1.088-.05,3.145-3.672,3.145-2.515,0-3.943-1.208-3.943-2.823,0-2.107,2.006-2.906,4.352-2.906a7.549,7.549,0,0,1,1.037.051v-1.6c-1.157.017-3.825.034-4.335,0-.34-.034-.969-.068-.969-1.071,0-1.02.765-1.02,1.411-1.02h3.875v-1.326c-1.359.018-3.468.034-4.742,0-.357,0-1.139-.016-1.139-1.036,0-1.055.782-1.055,1.445-1.055.442,0,2.43.035,2.822.035h1.6v-1.275a.926.926,0,0,1,1.07-1,1,1,0,0,1,1.14.986v1.275c.7-.018,3.773-.119,4.4-.119a.97.97,0,0,1,1.139,1.019c0,1.021-.7,1.055-1.258,1.072-1,.034-3.128.085-4.267.085Zm-3.349,5.576c-.339,0-2.159,0-2.159,1.02,0,.56.578.952,1.632.952,1.717,0,1.717-.748,1.7-1.887A7.979,7.979,0,0,0,342.438,5661.776Z" transform="translate(-54.712 -5649.622)" fill="#fff"/><path d="M364.146,5659.685a6.059,6.059,0,0,1-1.343,4.284,6.319,6.319,0,0,1-3.315,2.056,1.21,1.21,0,0,1-1.155-1.207c0-.526.425-.714.884-.918a5.393,5.393,0,0,0,2.465-2.022,3.029,3.029,0,0,1-1.717.493,3.278,3.278,0,0,1-3.231-3.5,3.351,3.351,0,0,1,3.486-3.5,3.425,3.425,0,0,1,1.8.459l-.034-1.24-4.572.119c-.408.017-2.465.067-2.567.067-.323,0-1.156,0-1.156-1.053,0-.629.357-.935,1-.969.408-.018,2.21-.034,2.583-.034l4.675-.1-.034-1.139c-.017-.323-.017-1.1,1.071-1.122a.956.956,0,0,1,1.072,1.1l.016,1.122,1.309-.034c.357-.017,1.921-.085,2.244-.085.459,0,1.189.051,1.189,1.019,0,.9-.594.953-.833.969-.34.034-2.192.034-2.6.052l-1.292.033Zm-3.774-2.464a1.652,1.652,0,1,0,1.53,1.631A1.487,1.487,0,0,0,360.372,5657.221Z" transform="translate(-54.712 -5649.622)" fill="#fff"/><path d="M372,5651.526c-.255-.442-.323-.561-.323-.765a.739.739,0,0,1,.748-.731c.357,0,.561.17.884.6a12.56,12.56,0,0,1,2.567,7.6,12.193,12.193,0,0,1-2.669,7.716c-.255.306-.442.476-.782.476a.739.739,0,0,1-.748-.731c0-.2.068-.323.323-.764a12.636,12.636,0,0,0,0-13.4Z" transform="translate(-54.712 -5649.622)" fill="#fff"/></g><g transform="translate(196.919 5809.087)"><g transform="translate(42.526 0.171)"><path d="M80.052,5690.821c0-5.667,1.062-9.209,2.636-11.688a10.736,10.736,0,0,1,17.866.04c2.362,3.7,2.6,8.854,2.6,11.648,0,4.919-.786,8.815-2.557,11.609a10.316,10.316,0,0,1-8.972,4.84C80.052,5707.27,80.052,5693.575,80.052,5690.821Zm16.449,0c0-6.533-1.456-10.31-4.879-10.31-3.739,0-4.88,4.446-4.88,10.31,0,6.375,1.338,10.31,4.88,10.31C95.32,5701.131,96.5,5696.685,96.5,5690.821Z" transform="translate(-80.052 -5674.372)" fill="#c40018"/><path d="M127.59,5700.5c1.3,0,3.148.314,3.148,3.03,0,2.085-.944,3.109-3.148,3.109H112.361c-2.637,0-5.431,0-5.431-3.542,0-2.283.945-3.031,3.817-5.313,2.243-1.77,5.746-4.919,8.028-7.162,2.283-2.282,3.739-3.936,3.739-6.1a3.888,3.888,0,0,0-3.857-4.013,7.613,7.613,0,0,0-4.643,1.731c-1.5,1.142-1.732,1.338-2.6,1.338a3.236,3.236,0,0,1-3.227-3.227c0-2.2,4.565-5.981,10.468-5.981,6.021,0,10.547,3.9,10.547,9.916,0,5-2.912,8.107-12.515,16.214Z" transform="translate(-80.052 -5674.372)" fill="#c40018"/><path d="M155.216,5694.6c1.063,0,2.991.236,2.991,2.912,0,2.125-1.062,2.991-2.991,2.991h-1.1v3.7c0,1.416-.393,3.069-3.227,3.069-2.518,0-3.345-1.1-3.345-3.03V5700.5h-8.814c-1.614,0-5.038,0-5.038-3.424,0-1.613.669-2.558,2.007-4.525l10.35-15.073c1.928-2.794,3.463-3.108,4.6-3.108,3.463,0,3.463,2.833,3.463,3.9V5694.6Zm-7.674,0v-10.271l-6.926,10.271Z" transform="translate(-80.052 -5674.372)" fill="#c40018"/><path d="M169.029,5697.865c-1.062,0-3.109-.2-3.109-2.991,0-2.125,1.063-3.03,3.109-3.03h5.943c.984,0,3.109.158,3.109,2.991,0,2.2-1.142,3.03-3.109,3.03Z" transform="translate(-80.052 -5674.372)" fill="#c40018"/><path d="M194.412,5696.252a10.074,10.074,0,0,1-10.389-10.508,11.1,11.1,0,0,1,11.412-11.372c3.148,0,12.081,1.338,12.081,14.8,0,10.468-5.273,18.1-15.229,18.1-3.148,0-5.352-.55-5.352-3.227a2.75,2.75,0,0,1,2.754-3.069c.394,0,2.126.157,2.48.157,6.139,0,7.28-4.761,7.752-6.729A7.668,7.668,0,0,1,194.412,5696.252Zm-3.7-10.626a4.7,4.7,0,0,0,4.84,4.88,5,5,0,1,0-.078-9.995A4.91,4.91,0,0,0,190.713,5685.626Z" transform="translate(-80.052 -5674.372)" fill="#c40018"/><path d="M213.341,5680.472c0-2.323.354-5.471,5.234-5.471h10.743c1.141,0,3.149.236,3.149,3.03,0,2.165-1.063,3.11-3.149,3.11H220.7c-.866,0-1.22.235-1.22,1.219v4.053a13.823,13.823,0,0,1,4.014-.669c5.392,0,10.94,3.463,10.94,10.508,0,5.784-4.014,11.018-12.75,11.018a22.2,22.2,0,0,1-7.949-1.456,2.661,2.661,0,0,1-2.007-2.715c0-1.81,1.22-3.266,2.636-3.266a7.749,7.749,0,0,1,2.362.59,14.8,14.8,0,0,0,4.6.708c.944,0,6.414,0,6.414-4.8,0-2.6-1.849-4.446-4.919-4.446a5.746,5.746,0,0,0-3.974,1.534,4.232,4.232,0,0,1-2.48.787c-3.03,0-3.03-2.243-3.03-3.384Z" transform="translate(-80.052 -5674.372)" fill="#c40018"/><path d="M259.384,5694.6c1.062,0,2.991.236,2.991,2.912,0,2.125-1.063,2.991-2.991,2.991h-1.1v3.7c0,1.416-.393,3.069-3.226,3.069-2.519,0-3.346-1.1-3.346-3.03V5700.5H242.9c-1.614,0-5.038,0-5.038-3.424,0-1.613.669-2.558,2.007-4.525l10.35-15.073c1.929-2.794,3.463-3.108,4.6-3.108,3.463,0,3.463,2.833,3.463,3.9V5694.6Zm-7.674,0v-10.271l-6.926,10.271Z" transform="translate(-80.052 -5674.372)" fill="#c40018"/><path d="M272.41,5697.865c-1.062,0-3.108-.2-3.108-2.991,0-2.125,1.062-3.03,3.108-3.03h5.943c.983,0,3.108.158,3.108,2.991,0,2.2-1.141,3.03-3.108,3.03Z" transform="translate(-80.052 -5674.372)" fill="#c40018"/><path d="M297.793,5696.252a10.074,10.074,0,0,1-10.389-10.508,11.1,11.1,0,0,1,11.412-11.372c3.148,0,12.081,1.338,12.081,14.8,0,10.468-5.273,18.1-15.229,18.1-3.148,0-5.353-.55-5.353-3.227a2.75,2.75,0,0,1,2.755-3.069c.394,0,2.125.157,2.48.157,6.138,0,7.28-4.761,7.752-6.729A7.67,7.67,0,0,1,297.793,5696.252Zm-3.7-10.626a4.7,4.7,0,0,0,4.84,4.88,5,5,0,1,0-.079-9.995A4.91,4.91,0,0,0,294.094,5685.626Z" transform="translate(-80.052 -5674.372)" fill="#c40018"/><path d="M324.947,5696.252a10.073,10.073,0,0,1-10.388-10.508,11.1,11.1,0,0,1,11.412-11.372c3.147,0,12.081,1.338,12.081,14.8,0,10.468-5.274,18.1-15.23,18.1-3.148,0-5.352-.55-5.352-3.227a2.75,2.75,0,0,1,2.755-3.069c.393,0,2.125.157,2.479.157,6.139,0,7.28-4.761,7.752-6.729A7.668,7.668,0,0,1,324.947,5696.252Zm-3.7-10.626a4.7,4.7,0,0,0,4.84,4.88,5,5,0,1,0-.078-9.995A4.911,4.911,0,0,0,321.248,5685.626Z" transform="translate(-80.052 -5674.372)" fill="#c40018"/><path d="M353.478,5707.27c-6.375,0-11.649-3.974-11.649-10.192a9.234,9.234,0,0,1,4.408-8.146,7.683,7.683,0,0,1-2.794-5.982c0-4.486,3.62-8.578,10.035-8.578,6.454,0,10,4.171,10,8.578a7.7,7.7,0,0,1-2.755,5.982,9.132,9.132,0,0,1,4.407,8.146C365.126,5703.335,359.774,5707.27,353.478,5707.27Zm0-14.678c-3.031,0-4.958,1.888-4.958,4.25,0,2.557,2.243,4.289,4.958,4.289,2.754,0,4.959-1.771,4.959-4.328C358.437,5694.441,356.43,5692.592,353.478,5692.592Zm-.04-12.829a3.386,3.386,0,0,0-3.66,3.384c0,1.968,1.5,3.345,3.7,3.345a3.411,3.411,0,0,0,3.7-3.345C357.177,5681.022,355.484,5679.763,353.438,5679.763Z" transform="translate(-80.052 -5674.372)" fill="#c40018"/><path d="M369.062,5690.821c0-5.667,1.062-9.209,2.636-11.688a10.736,10.736,0,0,1,17.866.04c2.361,3.7,2.6,8.854,2.6,11.648,0,4.919-.787,8.815-2.557,11.609a10.316,10.316,0,0,1-8.973,4.84C369.062,5707.27,369.062,5693.575,369.062,5690.821Zm16.449,0c0-6.533-1.456-10.31-4.88-10.31-3.738,0-4.88,4.446-4.88,10.31,0,6.375,1.339,10.31,4.88,10.31C384.33,5701.131,385.511,5696.685,385.511,5690.821Z" transform="translate(-80.052 -5674.372)" fill="#c40018"/></g><circle cx="16.36" cy="16.36" r="16.36" fill="#c40018"/><path d="M48.822,5687.1a25.359,25.359,0,0,0,8.512,8.511c.328-.414.643-.822.97-1.221A2.172,2.172,0,0,1,58.7,5694a1.25,1.25,0,0,1,1.491-.016c.417.286.811.6,1.21.914.494.382.988.765,1.473,1.158a2.1,2.1,0,0,1,.422.428,1.219,1.219,0,0,1,.025,1.439c-.3.446-.638.862-.966,1.287a6.92,6.92,0,0,1-.488.58,1.263,1.263,0,0,1-1.375.345,24.632,24.632,0,0,1-7.76-4.146,25.2,25.2,0,0,1-8.351-11.774,1.781,1.781,0,0,1-.127-.938,1.435,1.435,0,0,1,.564-.862c.5-.4,1-.8,1.516-1.177a1.306,1.306,0,0,1,1.954.243q1.047,1.292,2.051,2.621a1.326,1.326,0,0,1-.253,2c-.194.163-.394.318-.592.475Z" transform="translate(-37.526 -5674.201)" fill="#fff"/></g><g transform="translate(293.84 5849.698)"><path d="M141.074,5723.04h-3.7c-.24,0-.864,0-.864-.736,0-.689.432-.786.864-.786h9.108c.3,0,.816.049.816.753,0,.592-.336.769-.816.769h-3.746v2.433h4.354c.241,0,.833.015.833.752,0,.656-.448.752-.833.752h-4.354v2.929a10.208,10.208,0,0,0,1.249.065h4.674c.48,0,.848.208.848.767,0,.881-.64.881-.864.881h-4.754a6.738,6.738,0,0,1-6.2-3.009,10.6,10.6,0,0,1-1.616,2.8.859.859,0,0,1-.672.352,1,1,0,0,1-.961-.9,1.144,1.144,0,0,1,.3-.721,11.831,11.831,0,0,0,2.3-5.378c.08-.464.176-.833.8-.833.225,0,.913.1.913.689a12.12,12.12,0,0,1-.448,2.257,4.9,4.9,0,0,0,2.753,2.625Zm-.032-5.442c0-.465.256-.705.8-.705s.945.112.945.705v.639h4.529c1.249,0,1.777.433,1.777,1.778v1.5a.721.721,0,0,1-.8.849c-.641,0-.88-.256-.88-.849v-1.167a.558.558,0,0,0-.625-.641h-9.732c-.416,0-.624.192-.624.641v1.167a.724.724,0,0,1-.785.849c-.607,0-.9-.208-.9-.849v-1.5c0-1.33.528-1.778,1.777-1.778h4.514Z" transform="translate(-134.447 -5716.877)" fill="#fff"/><path d="M154.922,5731.139a.73.73,0,0,1-.816.848c-.768,0-.832-.5-.832-.848v-7.315c-.464.656-.689.96-1.137.96a.969.969,0,0,1-.9-.992c0-.336.016-.353.881-1.521a15.971,15.971,0,0,0,2.208-4.706.749.749,0,0,1,.785-.656c.224,0,.864.1.864.721a13.378,13.378,0,0,1-1.057,3.152Zm5.122-6.8a20.19,20.19,0,0,1-2.672,4.162c-.785.912-1.009,1.04-1.329,1.04a1.023,1.023,0,0,1-.88-1.008c0-.288.112-.465.512-.865a17.869,17.869,0,0,0,4.065-6.194h-3.377c-.608,0-.832-.256-.832-.848a.711.711,0,0,1,.832-.753h3.681v-2.16c0-.545.193-.833.849-.833a.711.711,0,0,1,.768.833v2.16h3.826c.608,0,.832.256.832.849,0,.752-.592.752-.832.752h-3.554a17.079,17.079,0,0,0,4.114,6.243,1.1,1.1,0,0,1,.4.767,1.071,1.071,0,0,1-.944,1.041c-.336,0-.561-.208-1.3-1.1a19.762,19.762,0,0,1-2.545-4.034v6.755c0,.576-.24.833-.848.833a.716.716,0,0,1-.769-.833Z" transform="translate(-134.447 -5716.877)" fill="#fff"/><path d="M181.344,5729.41c0,1.616-.657,2.113-2.113,2.113h-7.747c-1.457,0-2.113-.5-2.113-2.113v-9.636c0-1.568.608-2.113,2.113-2.113h7.747c1.488,0,2.113.528,2.113,2.113Zm-1.777-5.73v-3.57a.721.721,0,0,0-.817-.816h-6.8a.725.725,0,0,0-.817.816v3.57Zm-8.436,1.617v3.793a.727.727,0,0,0,.817.816h6.8a.728.728,0,0,0,.817-.816V5725.3Z" transform="translate(-134.447 -5716.877)" fill="#fff"/><path d="M188.751,5720.767a1.328,1.328,0,1,1-1.328-1.329A1.326,1.326,0,0,1,188.751,5720.767Zm0,7.331a1.328,1.328,0,1,1-1.328-1.329A1.324,1.324,0,0,1,188.751,5728.1Z" transform="translate(-134.447 -5716.877)" fill="#fff"/><path d="M196.245,5726.705a9.122,9.122,0,0,1-1.12,3.97c-.577,1.056-.9,1.28-1.3,1.28a1.015,1.015,0,0,1-1.057-.864,1.37,1.37,0,0,1,.321-.721,8.884,8.884,0,0,0,1.584-5.49v-5.554c0-1.457.625-1.889,1.889-1.889h7.187c1.248,0,1.889.4,1.889,1.889v10.565c0,.4,0,1.392-.849,1.728a6.123,6.123,0,0,1-2.176.176,12.512,12.512,0,0,1-1.633-.08.887.887,0,0,1-.544-.88c0-.832.576-.832.848-.832.288,0,1.537.031,1.793.031.384,0,.832-.016.832-.672v-2.657Zm7.667-5.362v-1.569c0-.416-.176-.672-.656-.672h-6.211a.593.593,0,0,0-.672.672v1.569Zm-7.539,1.552v2.257h7.539V5722.9Z" transform="translate(-134.447 -5716.877)" fill="#fff"/><path d="M213.883,5722.623c-.272,0-.656-.08-.656-.592,0-.464.32-.592.656-.592h2.194c.272,0,.352-.144.352-.352v-.513h-2.45a.553.553,0,1,1,0-1.1h2.45v-.448c0-.256-.113-.368-.352-.368h-2.209c-.257,0-.641-.064-.641-.56,0-.321.08-.641.641-.641h2.4c1.168,0,1.52.353,1.52,1.537v2.112c0,1.41-.576,1.521-1.664,1.521a.588.588,0,0,1,.464.561,2.206,2.206,0,0,1-.3.832h2.1c.112-.16.528-.865.624-1.008a.627.627,0,0,1,.608-.321c.368,0,.8.161.8.512,0,.129-.048.273-.432.817h2.481c.208,0,.657.016.657.592,0,.432-.24.609-.657.609H219.87v.976h2.305c.192,0,.576.032.576.5,0,.352-.111.577-.576.577H219.87v.992h2.321c.208,0,.56.048.56.5,0,.3-.08.576-.56.576H219.87v1.057h2.93c.384,0,.7.143.7.624,0,.464-.273.64-.7.64h-6.9c-1.072,0-1.616-.352-1.616-1.617v-3.3c-.352.368-.576.576-.848.576a.8.8,0,0,1-.561-.272v1.936c0,1.33-.32,1.65-1.648,1.65h-.673c-1.328,0-1.648-.32-1.648-1.65v-9.747c0-1.329.3-1.665,1.648-1.665h.673c1.328,0,1.648.321,1.648,1.665v6.834c.16-.159.864-.879.993-1.04a10.8,10.8,0,0,0,1.313-2.033c.143-.271.271-.336.368-.368Zm-2.288.688v-3.873c0-.24-.113-.368-.352-.368h-.625a.324.324,0,0,0-.352.368v3.873Zm-1.329,1.393v4.05a.325.325,0,0,0,.352.368h.625c.239,0,.352-.128.352-.368v-4.05Zm8.2,1.489v-.976h-2.274a.33.33,0,0,0-.368.368v.608Zm0,1.073H215.82v.992h2.642Zm0,3.121v-1.057H215.82v.7c0,.257.145.353.368.353Zm.624-9.813c-.288,0-.592-.1-.592-.544,0-.431.272-.56.592-.56h2.385v-.448a.33.33,0,0,0-.368-.368H218.91c-.4,0-.64-.16-.64-.593,0-.383.175-.608.64-.608h2.433c1.152,0,1.505.353,1.505,1.537v2.112c0,1.153-.336,1.521-1.505,1.521h-2.417c-.273,0-.656-.08-.656-.592,0-.464.32-.592.656-.592H221.1c.272,0,.368-.144.368-.352v-.513Z" transform="translate(-134.447 -5716.877)" fill="#fff"/><path d="M238.413,5729.41c0,1.616-.656,2.113-2.112,2.113h-7.747c-1.457,0-2.114-.5-2.114-2.113v-9.636c0-1.568.609-2.113,2.114-2.113H236.3c1.488,0,2.112.528,2.112,2.113Zm-1.776-5.73v-3.57a.721.721,0,0,0-.817-.816h-6.8a.725.725,0,0,0-.817.816v3.57ZM228.2,5725.3v3.793a.727.727,0,0,0,.817.816h6.8a.728.728,0,0,0,.817-.816V5725.3Z" transform="translate(-134.447 -5716.877)" fill="#fff"/><path d="M246.416,5724.433a1.841,1.841,0,1,1-1.841-1.841A1.84,1.84,0,0,1,246.416,5724.433Z" transform="translate(-134.447 -5716.877)" fill="#fff"/><path d="M256.351,5717.773c0-.336.064-.832.848-.832.737,0,.992.224.992.832v3.218a9.7,9.7,0,0,0,2.417,6.578,10.107,10.107,0,0,0,3.49,2.449.877.877,0,0,1,.608.785c0,.4-.32,1.024-.881,1.024-.752.016-2.576-1.152-3.793-2.385a9.792,9.792,0,0,1-2.737-4.818,9.65,9.65,0,0,1-3.281,5.314c-.945.785-2.593,1.873-3.346,1.873-.607,0-.864-.672-.864-1.008a.88.88,0,0,1,.48-.737,9.841,9.841,0,0,0,3.058-1.873,8.805,8.805,0,0,0,2.576-4.081,12.592,12.592,0,0,0,.433-3.137Zm-3.665,3.2a14.043,14.043,0,0,1,1.2,3.1c0,.608-.609.816-.977.816-.56,0-.64-.24-1.009-1.249a24.846,24.846,0,0,0-1.135-2.528c-.449-.849-.5-.929-.5-1.184,0-.609.719-.785.975-.785C251.581,5719.15,251.772,5719.15,252.686,5720.975Zm11.7-1.1a9.123,9.123,0,0,1-1.04,2.514c-1.3,2.465-1.553,2.465-1.889,2.465-.4,0-.961-.321-.961-.785,0-.272.017-.32.641-1.344a18.618,18.618,0,0,0,1.408-2.9c.16-.431.3-.72.816-.72C263.506,5719.1,264.386,5719.182,264.386,5719.87Z" transform="translate(-134.447 -5716.877)" fill="#fff"/><path d="M272.035,5722.623c-.272,0-.656-.08-.656-.592,0-.464.32-.592.656-.592h2.193c.272,0,.352-.144.352-.352v-.513h-2.449a.553.553,0,1,1,0-1.1h2.449v-.448c0-.256-.112-.368-.352-.368h-2.209c-.256,0-.64-.064-.64-.56,0-.321.08-.641.64-.641h2.4c1.168,0,1.52.353,1.52,1.537v2.112c0,1.41-.576,1.521-1.665,1.521.4.145.465.4.465.561a2.206,2.206,0,0,1-.3.832h2.1c.112-.16.528-.865.624-1.008a.629.629,0,0,1,.609-.321c.368,0,.8.161.8.512,0,.129-.047.273-.431.817h2.48c.208,0,.657.016.657.592,0,.432-.241.609-.657.609h-2.593v.976h2.3c.193,0,.576.032.576.5,0,.352-.112.577-.576.577h-2.3v.992h2.321c.209,0,.56.048.56.5,0,.3-.08.576-.56.576h-2.321v1.057h2.929c.385,0,.7.143.7.624,0,.464-.272.64-.7.64h-6.9c-1.073,0-1.616-.352-1.616-1.617v-3.3c-.353.368-.578.576-.849.576a.8.8,0,0,1-.561-.272v1.936c0,1.33-.32,1.65-1.648,1.65H268.7c-1.328,0-1.648-.32-1.648-1.65v-9.747c0-1.329.3-1.665,1.648-1.665h.673c1.328,0,1.648.321,1.648,1.665v6.834c.161-.159.865-.879.993-1.04a10.648,10.648,0,0,0,1.312-2.033c.145-.271.273-.336.368-.368Zm-2.289.688v-3.873c0-.24-.112-.368-.352-.368h-.624a.325.325,0,0,0-.353.368v3.873Zm-1.329,1.393v4.05a.326.326,0,0,0,.353.368h.624c.24,0,.352-.128.352-.368v-4.05Zm8.2,1.489v-.976H274.34a.329.329,0,0,0-.368.368v.608Zm0,1.073h-2.64v.992h2.64Zm0,3.121v-1.057h-2.64v.7c0,.257.144.353.368.353Zm.625-9.813c-.288,0-.592-.1-.592-.544,0-.431.272-.56.592-.56h2.385v-.448a.33.33,0,0,0-.368-.368h-2.193c-.4,0-.64-.16-.64-.593,0-.383.176-.608.64-.608h2.433c1.152,0,1.5.353,1.5,1.537v2.112c0,1.153-.336,1.521-1.5,1.521h-2.417c-.272,0-.656-.08-.656-.592,0-.464.32-.592.656-.592h2.177c.272,0,.368-.144.368-.352v-.513Z" transform="translate(-134.447 -5716.877)" fill="#fff"/><path d="M296.563,5729.41c0,1.616-.656,2.113-2.112,2.113H286.7c-1.457,0-2.113-.5-2.113-2.113v-9.636c0-1.568.608-2.113,2.113-2.113h7.747c1.488,0,2.112.528,2.112,2.113Zm-1.776-5.73v-3.57a.721.721,0,0,0-.816-.816h-6.8a.725.725,0,0,0-.816.816v3.57Zm-8.435,1.617v3.793a.726.726,0,0,0,.816.816h6.8a.727.727,0,0,0,.816-.816V5725.3Z" transform="translate(-134.447 -5716.877)" fill="#fff"/></g></g></svg>