<svg xmlns="http://www.w3.org/2000/svg" width="190" height="51.794" viewBox="0 0 190 51.794"><g transform="translate(-524.452 -3.602)"><g transform="translate(70.538 -41.221)"><path d="M39.206,13.035q0,3.345-1.472,4.8T32.9,19.291h-.885l-1.253.017a.406.406,0,0,1-.452-.466V7.921a.412.412,0,0,1,.466-.466h2.252a7.128,7.128,0,0,1,4.616,1.206q1.561,1.3,1.561,4.375M37.388,13a4.782,4.782,0,0,0-1.27-3.731,5.46,5.46,0,0,0-3.86-.933.223.223,0,0,0-.225.257v9.633c0,.161.075.242.225.242q2.926.015,4.068-1.287Q37.4,15.963,37.388,13" transform="translate(479.669 45.115)" fill="#fff"/><path d="M46.423,18.273a.426.426,0,0,1-.482.482h-.757a.42.42,0,0,1-.466-.467L44.7,17.63a2.424,2.424,0,0,1-1.963,1.045q-3.055.145-3.12-2.557-.064-2.991,5.067-3.313a3.507,3.507,0,0,0-.208-1.5,1.273,1.273,0,0,0-1.126-.53,5.086,5.086,0,0,0-2.928,1.366.211.211,0,0,1-.127.049c-.181,0-.274-.1-.274-.289V10.521a.256.256,0,0,1,.224-.274,14.694,14.694,0,0,1,2.993-.418,3.582,3.582,0,0,1,2.454.675,3.164,3.164,0,0,1,.732,2.38Zm-1.722-4.7q-3.329.208-3.331,2.348a2.213,2.213,0,0,0,.338,1.238,1.23,1.23,0,0,0,1.095.564,1.852,1.852,0,0,0,1.9-1.447Z" transform="translate(482.336 45.795)" fill="#fff"/><path d="M55.513,10.67a4.912,4.912,0,0,1-.821.74,1.317,1.317,0,0,0-.322.418L49.756,21.51a.66.66,0,0,1-.611.435q-.579,0-.579-.531a.926.926,0,0,1,.1-.386,4.084,4.084,0,0,1,.821-.74,1.433,1.433,0,0,0,.337-.418q.32-.658.724-1.527l-3.313-8.058c-.064-.151-.017-.225.144-.225h1.4a.3.3,0,0,1,.3.21l2.38,6.144,2.975-6.225a.671.671,0,0,1,.628-.434.476.476,0,0,1,.547.53.926.926,0,0,1-.1.386" transform="translate(484.51 45.774)" fill="#fff"/><path d="M67.2,7.742q0,.579-.723.611-.4.015-3.007.015V19.048a.413.413,0,0,1-.467.467h-.789a.412.412,0,0,1-.466-.467V8.369h-3.04a.157.157,0,0,1-.144-.08l-.4-.547c-.044-.054-.033-.08.031-.08h6.772a1.385,1.385,0,0,0,.547-.1,5.058,5.058,0,0,1,1.029-.385c.439,0,.659.187.659.562" transform="translate(487.643 45.036)" fill="#fff"/><path d="M69.334,8.083a1.041,1.041,0,0,1-1.045,1.045.981.981,0,0,1-.732-.3,1.016,1.016,0,0,1-.3-.74,1.041,1.041,0,0,1,1.029-1.029,1.024,1.024,0,0,1,.74.3.983.983,0,0,1,.3.732m-.193,11.065a.412.412,0,0,1-.466.466h-.789a.411.411,0,0,1-.466-.466V10.929c0-.085.048-.129.144-.129l1.351.033c.149,0,.225.08.225.241Z" transform="translate(490.259 45)" fill="#fff"/><path d="M82.822,12.281l-.017,5.935a.412.412,0,0,1-.466.466h-.787a.413.413,0,0,1-.468-.466V12.377q0-1.5-1.3-1.4a2.452,2.452,0,0,0-1.8,1.4l-.015,5.839a.412.412,0,0,1-.467.466h-.8a.412.412,0,0,1-.466-.466V12.377q0-1.5-1.287-1.4A2.465,2.465,0,0,0,73.123,12.3v5.934a.412.412,0,0,1-.466.467h-.789a.412.412,0,0,1-.466-.467V10.093c0-.1.042-.139.129-.129L72.9,10c.151,0,.225.081.225.242v1.077a2.985,2.985,0,0,1,2.317-1.4,2.168,2.168,0,0,1,2.412,1.511,3.01,3.01,0,0,1,2.427-1.511q2.544-.048,2.542,2.364" transform="translate(491.447 45.82)" fill="#fff"/><path d="M91.163,16.421a4.143,4.143,0,0,1-3.733,2.541c-.161.01-.315.015-.466.015a4.154,4.154,0,0,1-3.087-1.134,4.436,4.436,0,0,1-1.191-3.112,5.17,5.17,0,0,1,.95-3.538,4.027,4.027,0,0,1,3.329-1.351,3.97,3.97,0,0,1,3.008,1.126,4.156,4.156,0,0,1,1.045,3.071H84.423q-.015.241,0,.66a3.445,3.445,0,0,0,.772,2.172,2.653,2.653,0,0,0,2.043.932,4.243,4.243,0,0,0,3.521-1.671c.1-.118.2-.135.3-.049a.249.249,0,0,1,.1.338m-1.9-3.1q.015-2.557-2.348-2.605a2.127,2.127,0,0,0-1.754.772,2.941,2.941,0,0,0-.659,1.833Z" transform="translate(494.679 45.799)" fill="#fff"/></g><g transform="translate(4.093 -19.221)"><path d="M102.139,21.3a.562.562,0,0,1-.636.636h-1.1a.561.561,0,0,1-.635-.636V7.464a.159.159,0,0,0-.089-.153.133.133,0,0,0-.175,0q-.548.372-1.6,1.053a.232.232,0,0,1-.218.021l-.877-.35c-.074-.029-.074-.066,0-.11l2.937-1.929a1.015,1.015,0,0,1,.57-.175h1.49q.329,0,.329.307Z" transform="translate(479.669 45.078)" fill="#fff"/><path d="M110,21.3a.562.562,0,0,1-.636.636h-1.1a.561.561,0,0,1-.635-.636V7.464a.159.159,0,0,0-.089-.153.133.133,0,0,0-.175,0q-.548.372-1.6,1.053a.232.232,0,0,1-.218.021l-.877-.35c-.074-.029-.074-.066,0-.11l2.937-1.929a1.015,1.015,0,0,1,.57-.175h1.49q.329,0,.329.307Z" transform="translate(481.613 45.078)" fill="#fff"/><path d="M116.143,8.064a1.309,1.309,0,0,1-1.316,1.315,1.231,1.231,0,0,1-.92-.383,1.289,1.289,0,0,1-.373-.932,1.312,1.312,0,0,1,1.293-1.295,1.289,1.289,0,0,1,.932.373,1.235,1.235,0,0,1,.384.922m0,10.369a1.232,1.232,0,0,1-.384.92,1.289,1.289,0,0,1-.932.373,1.312,1.312,0,0,1-1.293-1.293,1.289,1.289,0,0,1,.373-.932,1.232,1.232,0,0,1,.92-.384,1.312,1.312,0,0,1,1.316,1.316" transform="translate(483.817 45.313)" fill="#fff"/><path d="M130.737,13.9q0,8.331-5.24,8.331a4.582,4.582,0,0,1-3.77-1.557q-1.6-1.974-1.645-6.775A13.252,13.252,0,0,1,121,8.265a4.661,4.661,0,0,1,4.56-2.761q5.175-.022,5.173,8.4m-2.214,0a23.2,23.2,0,0,0-.286-4.429q-.614-2.827-2.7-2.827-2.279,0-2.894,2.74a24.18,24.18,0,0,0-.241,4.539,19.581,19.581,0,0,0,.481,5.02q.7,2.346,2.675,2.3,2.039-.045,2.674-2.916a23.611,23.611,0,0,0,.286-4.429" transform="translate(485.435 45)" fill="#fff"/><path d="M141.32,13.9q0,8.331-5.24,8.331a4.582,4.582,0,0,1-3.77-1.557q-1.6-1.974-1.645-6.775a13.252,13.252,0,0,1,.922-5.635,4.661,4.661,0,0,1,4.56-2.761q5.175-.022,5.173,8.4m-2.214,0a23.2,23.2,0,0,0-.286-4.429q-.614-2.827-2.7-2.827-2.279,0-2.894,2.74a24.181,24.181,0,0,0-.241,4.539,19.582,19.582,0,0,0,.481,5.02q.7,2.346,2.675,2.3,2.039-.045,2.674-2.916a23.611,23.611,0,0,0,.286-4.429" transform="translate(488.052 45)" fill="#fff"/><path d="M158.745,11.051a5.929,5.929,0,0,1-1.293,2.324,3.956,3.956,0,0,1-2.916,1.4,4.853,4.853,0,0,1-2.543-.526,7.472,7.472,0,0,1-1.447-1.051,14.2,14.2,0,0,0-1.4-1.075,2.6,2.6,0,0,0-1.206-.417,4.679,4.679,0,0,0-4.012,2.346.243.243,0,0,1-.394.066.337.337,0,0,1-.132-.439q1.579-3.835,4.692-3.924a5.555,5.555,0,0,1,3.683,1.579,6.943,6.943,0,0,0,1.206.9,2.784,2.784,0,0,0,1.49.307,5.613,5.613,0,0,0,1.886-.284,4.664,4.664,0,0,0,1.842-1.513.27.27,0,0,1,.372-.087.32.32,0,0,1,.176.394" transform="translate(491.191 46.051)" fill="#fff"/><path d="M164.234,21.3a.562.562,0,0,1-.636.636h-1.1a.561.561,0,0,1-.635-.636V7.464a.159.159,0,0,0-.089-.153.133.133,0,0,0-.175,0q-.548.372-1.6,1.053a.232.232,0,0,1-.218.021l-.877-.35c-.074-.029-.074-.066,0-.11l2.937-1.929a1.015,1.015,0,0,1,.57-.175h1.49q.329,0,.329.307Z" transform="translate(495.02 45.078)" fill="#fff"/><path d="M175.3,6.017l-.176,1.842a.312.312,0,0,1-.35.328h-5.262a.33.33,0,0,0-.372.307l-.461,2.938q3.684-.11,5.328,1.973a5.6,5.6,0,0,1,1.14,3.573q0,5.263-5.086,5.328a10.7,10.7,0,0,1-3.552-.483.56.56,0,0,1-.438-.549.747.747,0,0,1,.044-.241l.767-2.39a.195.195,0,0,1,.35,0,3.434,3.434,0,0,0,.987,1.71,2.562,2.562,0,0,0,1.82.723q3.093.022,3.092-3.551a3.444,3.444,0,0,0-1.447-3.026,5.851,5.851,0,0,0-3.355-.856q-.219,0-.723.022c-.176.014-.263-.089-.263-.307l1.119-6.906a.673.673,0,0,1,.723-.636h5.941c.117,0,.176.066.176.2" transform="translate(496.804 45.078)" fill="#fff"/><path d="M180.357,8.064a1.309,1.309,0,0,1-1.316,1.315,1.231,1.231,0,0,1-.92-.383,1.289,1.289,0,0,1-.373-.932,1.312,1.312,0,0,1,1.293-1.295,1.289,1.289,0,0,1,.932.373,1.235,1.235,0,0,1,.384.922m0,10.369a1.232,1.232,0,0,1-.384.92,1.289,1.289,0,0,1-.932.373,1.312,1.312,0,0,1-1.293-1.293,1.289,1.289,0,0,1,.373-.932,1.232,1.232,0,0,1,.92-.384,1.312,1.312,0,0,1,1.316,1.316" transform="translate(499.692 45.313)" fill="#fff"/><path d="M194.951,13.9q0,8.331-5.24,8.331a4.582,4.582,0,0,1-3.77-1.557Q184.34,18.7,184.3,13.9a13.252,13.252,0,0,1,.922-5.635,4.66,4.66,0,0,1,4.56-2.761q5.175-.022,5.174,8.4m-2.214,0a23.2,23.2,0,0,0-.286-4.429q-.614-2.827-2.7-2.827-2.279,0-2.894,2.74a24.183,24.183,0,0,0-.241,4.539,19.582,19.582,0,0,0,.481,5.02q.7,2.346,2.675,2.3,2.039-.045,2.674-2.916a23.611,23.611,0,0,0,.286-4.429" transform="translate(501.311 45)" fill="#fff"/><path d="M206.253,13.9q0,8.331-5.24,8.331a4.582,4.582,0,0,1-3.77-1.557q-1.6-1.974-1.645-6.775a13.251,13.251,0,0,1,.922-5.635A4.66,4.66,0,0,1,201.08,5.5q5.175-.022,5.174,8.4m-2.214,0a23.2,23.2,0,0,0-.286-4.429q-.614-2.827-2.7-2.827-2.279,0-2.894,2.74a24.183,24.183,0,0,0-.241,4.539,19.582,19.582,0,0,0,.481,5.02q.7,2.346,2.675,2.3,2.039-.045,2.674-2.916a23.611,23.611,0,0,0,.286-4.429" transform="translate(504.105 45)" fill="#fff"/></g><g transform="translate(44.783 -41.398)"><path d="M30.052,18.382A11.673,11.673,0,1,1,18.378,6.708,11.674,11.674,0,0,1,30.052,18.382" transform="translate(487.184 52.516)" fill="#ed6b00"/><path d="M13.068,11.688a1.354,1.354,0,0,1-1.353-1.355V1.355a1.353,1.353,0,1,1,2.706,0v8.978a1.354,1.354,0,0,1-1.353,1.355" transform="translate(492.796 45)" fill="#ed6b00"/><path d="M11.192,12.348a1.347,1.347,0,0,1-.956-.4L3.887,5.6A1.353,1.353,0,0,1,5.8,3.688l6.349,6.349a1.354,1.354,0,0,1-.956,2.311" transform="translate(483.579 48.687)" fill="#ed6b00"/><path d="M10.331,14.141H1.353a1.354,1.354,0,0,1,0-2.708h8.978a1.354,1.354,0,0,1,0,2.708" transform="translate(479.669 57.811)" fill="#ed6b00"/><path d="M4.643,25.722a1.354,1.354,0,0,1-.956-2.311l6.345-6.349a1.355,1.355,0,0,1,1.917,1.915L5.6,25.326a1.352,1.352,0,0,1-.958.4" transform="translate(483.356 63.673)" fill="#ed6b00"/><path d="M12.785,30.6a1.354,1.354,0,0,1-1.353-1.355V20.267a1.353,1.353,0,1,1,2.706,0v8.978A1.354,1.354,0,0,1,12.785,30.6" transform="translate(492.479 66.194)" fill="#ed6b00"/><path d="M24.366,25.921a1.347,1.347,0,0,1-.956-.4l-6.349-6.349a1.353,1.353,0,1,1,1.913-1.915l6.349,6.349a1.354,1.354,0,0,1-.956,2.311" transform="translate(498.341 63.896)" fill="#ed6b00"/><path d="M29.246,14.424H20.266a1.354,1.354,0,0,1,0-2.708h8.981a1.354,1.354,0,0,1,0,2.708" transform="translate(500.862 58.128)" fill="#ed6b00"/><path d="M18.216,12.547a1.354,1.354,0,0,1-.956-2.311l6.349-6.349A1.353,1.353,0,1,1,25.521,5.8l-6.349,6.349a1.347,1.347,0,0,1-.956.4" transform="translate(498.565 48.91)" fill="#ed6b00"/></g></g></svg>