<svg xmlns="http://www.w3.org/2000/svg" width="189.641" height="138.52" viewBox="0 0 189.641 138.52"><g transform="translate(-117.547 -3976.631)"><path d="M97.328,94.191c-21.243-.023-47.935-4.722-54.455-26.978C38.7,52.948,46.283,39.661,54.05,32.618,62.932,24.56,72.331,21.6,82.812,18.82,89.324,17.091,93.3,11.046,95.441,7.8l.527-.8,1.466-2.168L99.4,7.8c2.133,3.257,6.1,9.309,12.606,11.053,10.474,2.805,19.866,5.783,28.733,13.86,7.751,7.063,15.308,20.368,11.1,34.619-6.555,22.2-33.173,26.86-54.349,26.86Z" transform="translate(115 3974)" fill="#fff"/><path d="M155.067,68.284C151.118,81.66,137.894,97.6,97.325,97.554s-53.758-16.01-57.679-29.4c-4.335-14.8,2.7-28.561,10.607-36.555a15.276,15.276,0,0,1-5.467-4.881c-3.43-6.108-.661-14.175,6.184-18.018s15.174-2.007,18.6,4.1A14.3,14.3,0,0,1,70.9,18.9c3.57-1.284,7.241-2.324,11.05-3.335,5.272-1.4,8.659-6.546,10.682-9.621.308-.468.586-.89.835-1.249a4.819,4.819,0,0,1,3.961-2.068h0a4.819,4.819,0,0,1,3.955,2.078c.248.359.526.782.833,1.252,2.017,3.079,5.393,8.231,10.66,9.641,3.623.971,7.121,1.968,10.526,3.174a14.121,14.121,0,0,1,1.337-5.912c3.443-6.1,11.775-7.919,18.612-4.06s9.588,11.93,6.145,18.031a14.966,14.966,0,0,1-5.154,4.675c7.966,7.982,15.127,21.862,10.722,36.774M139.559,34.012C130.985,26.2,121.8,23.294,111.554,20.549c-7.154-1.917-11.359-8.334-13.617-11.782-.184-.279-.354-.54-.515-.779-.159.237-.33.5-.512.775-2.267,3.444-6.485,9.854-13.647,11.755-10.255,2.723-19.443,5.61-28.033,13.4-7.39,6.7-14.619,19.315-10.67,32.8,6.214,21.213,32.126,25.693,52.77,25.715s46.567-4.4,52.827-25.6c3.979-13.473-3.222-26.1-10.6-32.821" transform="translate(115 3974)" fill="#251e1c"/><path d="M108.832,75.735c-.582-5.234-3.859-14.094-11.6-14.1S86.46,70.477,85.867,75.71a2.477,2.477,0,0,0,4.921.562,23.056,23.056,0,0,1,.748-3.325,9.03,9.03,0,0,0,5.68,2.117,10.271,10.271,0,0,0,5.952-2.1,23.032,23.032,0,0,1,.742,3.326,2.476,2.476,0,0,0,4.922-.551" transform="translate(115 3974)" fill="#251e1c"/><path d="M76.962,46.114C70.051,44.724,63.7,47.452,59.4,53.257a18.873,18.873,0,0,0-3.737,9.492c-.013.055-.037.1-.048.159-1.069,5.414,1.049,17.051,16.718,22.353a3.843,3.843,0,1,0,2.462-7.28,27.2,27.2,0,0,1-4.019-1.707A17,17,0,0,0,85.653,64.1c2.913-9.536-2.806-16.8-8.691-17.982m4.446,12.065a5.507,5.507,0,0,1-6.64,4.486,4.536,4.536,0,0,1-3.63-3.4,5.737,5.737,0,0,1,5.913-7.38c2.811.125,5.034,2.763,4.357,6.3" transform="translate(115 3974)" fill="#251e1c"/><path d="M134.692,53.338c-4.284-5.814-10.631-8.556-17.546-7.181-5.887,1.171-11.622,8.421-8.729,17.964,3.747,12.362,18.647,15.5,25.594,9.65,5.086-4.286,6.208-12.934.681-20.433m-11.1,5.98a4.537,4.537,0,0,1-3.638,3.4,5.506,5.506,0,0,1-6.63-4.5c-.669-3.536,1.56-6.169,4.37-6.288a5.738,5.738,0,0,1,5.9,7.393" transform="translate(115 3974)" fill="#251e1c"/><rect width="171.757" height="61.004" transform="translate(126.489 4054.147)" fill="#de9c44"/><path d="M26.091,114.008c-1.71,6.73-8.861,10.721-15.972,8.914s-8.644-9.2-6.933-15.93S9.2,96.743,16.312,98.55s11.489,8.728,9.779,15.458" transform="translate(115 3974)" fill="#251e1c"/><path d="M168.644,114.008c1.71,6.73,8.861,10.721,15.972,8.914s8.644-9.2,6.933-15.93-6.014-10.249-13.126-8.442-11.489,8.728-9.779,15.458" transform="translate(115 3974)" fill="#251e1c"/><path d="M62.667,121.236q.027.77-.769.77H60.6c-.53,0-.787-.257-.768-.77q.132-11.317,0-18.29a.593.593,0,0,1,.211-.212l2.254.053a.327.327,0,0,1,.371.4q-.159,6.549,0,18.052m6.892-9.463a2.2,2.2,0,0,1,.133.742,1.856,1.856,0,0,1-.372,1.154,1.367,1.367,0,0,1-1.033.543,1.34,1.34,0,0,1-1.4-1.007q-.638-1.644-3.818-2.28c-.07-.018-.106-.053-.106-.106s.036-.1.106-.133A7.186,7.186,0,0,1,66.219,110a4.708,4.708,0,0,1,1.962.4,2.407,2.407,0,0,1,1.378,1.379m2.147-5.116a1.5,1.5,0,0,1,.08.478q0,.979-.9,1.033c-.389.036-.681-.177-.875-.636a1.968,1.968,0,0,0-1.617-1.22q-.159-.052,0-.159a3.038,3.038,0,0,1,1.643-.5q1.378,0,1.67,1.008m2.333-1.458a1.431,1.431,0,0,1,.08.45q0,.981-.9,1.034c-.389.037-.672-.176-.848-.635a2.031,2.031,0,0,0-1.643-1.22c-.106-.035-.1-.088.026-.159a2.909,2.909,0,0,1,1.617-.5q1.378,0,1.67,1.034" transform="translate(115 3974)" fill="#fff"/><path d="M62.667,121.236q.027.77-.769.77H60.6c-.53,0-.787-.257-.768-.77q.132-11.317,0-18.29a.593.593,0,0,1,.211-.212l2.254.053a.327.327,0,0,1,.371.4Q62.508,109.733,62.667,121.236Zm6.892-9.463a2.2,2.2,0,0,1,.133.742,1.856,1.856,0,0,1-.372,1.154,1.367,1.367,0,0,1-1.033.543,1.34,1.34,0,0,1-1.4-1.007q-.638-1.644-3.818-2.28c-.07-.018-.106-.053-.106-.106s.036-.1.106-.133A7.186,7.186,0,0,1,66.219,110a4.708,4.708,0,0,1,1.962.4A2.407,2.407,0,0,1,69.559,111.773Zm2.147-5.116a1.5,1.5,0,0,1,.08.478q0,.979-.9,1.033c-.389.036-.681-.177-.875-.636a1.968,1.968,0,0,0-1.617-1.22q-.159-.052,0-.159a3.038,3.038,0,0,1,1.643-.5Q71.415,105.649,71.706,106.657Zm2.333-1.458a1.431,1.431,0,0,1,.08.45q0,.981-.9,1.034c-.389.037-.672-.176-.848-.635a2.031,2.031,0,0,0-1.643-1.22c-.106-.035-.1-.088.026-.159a2.909,2.909,0,0,1,1.617-.5Q73.748,104.165,74.039,105.2Z" transform="translate(115 3974)" fill="none" stroke="#fff" stroke-linecap="round" stroke-linejoin="round" stroke-width="0.543"/><path d="M92.029,104.033v7.289a10.6,10.6,0,0,1-1.75,6.31q-2.042,2.757-7.423,4.931c-.264.1-.45.061-.556-.133q-.159-.266.185-.5,4.11-2.571,5.408-4.745a11.759,11.759,0,0,0,1.3-5.752q.025-.822,0-7.636a.533.533,0,0,1,.212-.237l2.253.079q.372,0,.372.4m-6.76.265q-.054,1.247-.026,9.064.026.746-.769.77l-1.14.027a.768.768,0,0,1-.769-.768l.027-9.412c0-.14.079-.211.238-.211l2.068.106a.353.353,0,0,1,.371.424" transform="translate(115 3974)" fill="#fff"/><path d="M92.029,104.033v7.289a10.6,10.6,0,0,1-1.75,6.31q-2.042,2.757-7.423,4.931c-.264.1-.45.061-.556-.133q-.159-.266.185-.5,4.11-2.571,5.408-4.745a11.759,11.759,0,0,0,1.3-5.752q.025-.822,0-7.636a.533.533,0,0,1,.212-.237l2.253.079Q92.029,103.635,92.029,104.033Zm-6.76.265q-.054,1.247-.026,9.064.026.746-.769.77l-1.14.027a.768.768,0,0,1-.769-.768l.027-9.412c0-.14.079-.211.238-.211l2.068.106A.353.353,0,0,1,85.269,104.3Z" transform="translate(115 3974)" fill="none" stroke="#fff" stroke-linecap="round" stroke-linejoin="round" stroke-width="0.543"/><path d="M107.844,108.831a1.663,1.663,0,0,1-1.8,1.722q-.929,0-1.193-1.087A3.328,3.328,0,0,0,102.515,107c-.07-.036-.106-.08-.106-.133a.173.173,0,0,1,.133-.107,7.275,7.275,0,0,1,2.731-.556,2.611,2.611,0,0,1,1.882.756,2.468,2.468,0,0,1,.689,1.869m10.709-1.22a20.9,20.9,0,0,1-4.691,7.687,31.6,31.6,0,0,1-8.748,5.938.365.365,0,0,1-.531-.186l-1.166-1.987q-.106-.186.106-.292a37.571,37.571,0,0,0,8.589-4.957,28.923,28.923,0,0,0,5.778-6.548.348.348,0,0,1,.5-.132c.194.088.247.248.159.477" transform="translate(115 3974)" fill="#fff"/><path d="M107.844,108.831a1.663,1.663,0,0,1-1.8,1.722q-.929,0-1.193-1.087A3.328,3.328,0,0,0,102.515,107c-.07-.036-.106-.08-.106-.133a.173.173,0,0,1,.133-.107,7.275,7.275,0,0,1,2.731-.556,2.611,2.611,0,0,1,1.882.756A2.468,2.468,0,0,1,107.844,108.831Zm10.709-1.22a20.9,20.9,0,0,1-4.691,7.687,31.6,31.6,0,0,1-8.748,5.938.365.365,0,0,1-.531-.186l-1.166-1.987q-.106-.186.106-.292a37.571,37.571,0,0,0,8.589-4.957,28.923,28.923,0,0,0,5.778-6.548.348.348,0,0,1,.5-.132C118.588,107.222,118.641,107.382,118.553,107.611Z" transform="translate(115 3974)" fill="none" stroke="#fff" stroke-linecap="round" stroke-linejoin="round" stroke-width="0.543"/><path d="M141.209,106.365a21.321,21.321,0,0,1-3.6,9.146q-3.395,4.533-10.525,7.369a.388.388,0,0,1-.557-.186.38.38,0,0,1,.133-.557,26.593,26.593,0,0,0,7.9-6.759,19.4,19.4,0,0,0,3.34-7.767h-4.718a19.162,19.162,0,0,1-5.806,5.408.406.406,0,0,1-.53-.61,33.675,33.675,0,0,0,6.1-11.054.245.245,0,0,1,.319-.159l2.359.609a.323.323,0,0,1,.239.478,28.081,28.081,0,0,1-1.962,4.162h4.214c.036-.212.072-.425.107-.637.017-.14.106-.2.265-.185l2.413.318c.264.018.371.159.317.424" transform="translate(115 3974)" fill="#fff"/><path d="M141.209,106.365a21.321,21.321,0,0,1-3.6,9.146q-3.395,4.533-10.525,7.369a.388.388,0,0,1-.557-.186.38.38,0,0,1,.133-.557,26.593,26.593,0,0,0,7.9-6.759,19.4,19.4,0,0,0,3.34-7.767h-4.718a19.162,19.162,0,0,1-5.806,5.408.406.406,0,0,1-.53-.61,33.675,33.675,0,0,0,6.1-11.054.245.245,0,0,1,.319-.159l2.359.609a.323.323,0,0,1,.239.478,28.081,28.081,0,0,1-1.962,4.162h4.214c.036-.212.072-.425.107-.637.017-.14.106-.2.265-.185l2.413.318C141.156,105.959,141.263,106.1,141.209,106.365Z" transform="translate(115 3974)" fill="none" stroke="#fff" stroke-linecap="round" stroke-linejoin="round" stroke-width="0.543"/></g></svg>