<svg xmlns="http://www.w3.org/2000/svg" width="232.784" height="278.365" viewBox="0 0 232.784 278.365"><g transform="translate(-1130 -1606.001)"><path d="M42.025,71.02c-12.1,1.812-27.707,1.428-33.332-10.688-3.605-7.765-.425-15.984,3.394-20.663,4.367-5.352,9.465-7.845,15.2-10.329,3.56-1.544,5.307-5.329,6.246-7.362l.232-.5.649-1.36,1.376,1.519c1.495,1.671,4.273,4.778,8.129,5.212,6.206.7,11.812,1.587,17.556,5.425,5.021,3.358,10.468,10.286,9.295,18.764C68.94,64.246,54.18,69.187,42.119,71.006l-.094.014" transform="translate(1131 1606)" fill="#fff"/><path d="M72.685,51.305c-1.1,7.958-7.263,18.171-30.373,21.631s-31.993-4.5-35.376-11.788c-3.74-8.057-.914-16.5,2.9-21.731A8.808,8.808,0,0,1,6.3,37.106C3.826,33.922,4.71,29.09,8.279,26.313s8.469-2.446,10.947.738a8.235,8.235,0,0,1,1.28,3.36c1.923-1.037,3.924-1.946,6.007-2.849,2.882-1.25,4.369-4.472,5.257-6.4.135-.293.258-.557.369-.783a2.776,2.776,0,0,1,2.078-1.518h0a2.775,2.775,0,0,1,2.431.844c.173.183.367.4.583.641,1.413,1.581,3.778,4.225,6.9,4.576,2.147.241,4.225.508,6.268.9a8.133,8.133,0,0,1,.253-3.482c1.437-3.77,6.027-5.521,10.252-3.911s6.486,5.971,5.049,9.741a8.633,8.633,0,0,1-2.534,3.106c5.222,3.862,10.493,11.152,9.266,20.023M60.908,33.118c-5.554-3.712-11.033-4.579-17.106-5.262-4.24-.477-7.186-3.771-8.768-5.541-.129-.143-.248-.277-.36-.4q-.106.224-.226.485c-1,2.156-2.846,6.169-6.762,7.868C22.079,32.7,17.094,35.134,12.871,40.31c-3.633,4.452-6.667,12.256-3.26,19.6,5.362,11.548,20.5,11.874,32.264,10.113S68.019,63.512,69.763,50.9c1.109-8.016-4.077-14.589-8.855-17.783" transform="translate(1131 1606)" fill="#1a1311"/><path d="M46.991,59.521c-.781-2.931-3.408-7.7-7.819-7.035s-5.375,5.962-5.263,8.993a1.426,1.426,0,0,0,2.851-.1,13.243,13.243,0,0,1,.141-1.958,5.2,5.2,0,0,0,3.417.718,5.917,5.917,0,0,0,3.209-1.71,13.377,13.377,0,0,1,.708,1.831,1.426,1.426,0,0,0,2.756-.737" transform="translate(1131 1606)" fill="#1a1311"/><path d="M26.3,45.387a9.846,9.846,0,0,0-9.388,5.577,10.875,10.875,0,0,0-1.313,5.727c0,.033-.012.063-.014.095-.143,3.175,2.063,9.621,11.441,11.3a2.213,2.213,0,1,0,.778-4.358,15.593,15.593,0,0,1-2.436-.627,9.789,9.789,0,0,0,7.427-8.213c.84-5.682-3.041-9.327-6.5-9.5m3.569,6.49A3.171,3.171,0,0,1,26.468,55a2.613,2.613,0,0,1-2.361-1.626,3.306,3.306,0,0,1,2.735-4.711,2.851,2.851,0,0,1,3.022,3.212" transform="translate(1131 1606)" fill="#1a1311"/><path d="M59.8,44.543a9.848,9.848,0,0,0-10.61-2.583c-3.253,1.173-5.9,5.8-3.429,10.981,3.2,6.719,11.952,7.229,15.406,3.3,2.528-2.878,2.424-7.9-1.367-11.7M53.99,48.9a2.614,2.614,0,0,1-1.78,2.247,3.172,3.172,0,0,1-4.163-1.994A2.851,2.851,0,0,1,50,45.2a3.3,3.3,0,0,1,3.994,3.7" transform="translate(1131 1606)" fill="#1a1311"/><path d="M11.424,0H213.575A11.425,11.425,0,0,1,225,11.425v190.15A11.425,11.425,0,0,1,213.575,213H11.424A11.424,11.424,0,0,1,0,201.576V11.424A11.424,11.424,0,0,1,11.424,0Z" transform="translate(1137.783 1671.365)" fill="#dce391"/><path d="M15.9,83.919A8.771,8.771,0,0,1,4.878,89.583C.1,88.194-.761,83.151.554,78.633s4.313-6.8,9.087-5.411a8.772,8.772,0,0,1,6.262,10.7" transform="translate(1130 1606)" fill="#1a1311"/><path d="M78.56,75.33a8.772,8.772,0,0,0,9.472-8c.555-4.941-3.766-7.68-8.442-8.206s-7.937,1.363-8.492,6.3a8.771,8.771,0,0,0,7.462,9.9" transform="translate(1131 1606)" fill="#1a1311"/><path d="M103.988,2.664c-9.172,2.583-19.5,7.341-22.282,19.2C79.255,32.3,85.782,41.936,96.966,45.593c17.268,5.647,32.738,6.205,46.541,3.679,11.359-2.08,24.139-6.4,27.327-17.807,3.609-12.915-6.685-23.718-20.054-27.672-19.517-5.77-36.765-3.953-46.792-1.129" transform="translate(1131 1606)" fill="#6dad19"/><path d="M93.517,35.522s.135,8.151-11.224,9.59c-4.7.6-3.727,2.243.631,3.039,9.624,1.76,22.848.924,29.533-6.982Z" transform="translate(1131 1606)" fill="#6dad19"/><rect width="182" height="97" rx="5.712" transform="translate(1158.861 1692.793)" fill="#fff"/></g></svg>