<svg width="233" height="305" viewBox="0 0 233 305" fill="none" xmlns="http://www.w3.org/2000/svg">
<path d="M43.0262 71.0194C30.9262 72.8314 15.3192 72.4474 9.69415 60.3314C6.08915 52.5664 9.26915 44.3474 13.0882 39.6684C17.4552 34.3164 22.5532 31.8234 28.2882 29.3394C31.8482 27.7954 33.5952 24.0104 34.5342 21.9774L34.7661 21.4774L35.4152 20.1174L36.7912 21.6364C38.2862 23.3074 41.0642 26.4144 44.9202 26.8484C51.1262 27.5484 56.7322 28.4354 62.4762 32.2734C67.4972 35.6314 72.9441 42.5594 71.7711 51.0374C69.9411 64.2454 55.1812 69.1864 43.1202 71.0054L43.0262 71.0194Z" fill="white"/>
<path d="M73.6861 51.3044C72.5861 59.2624 66.4231 69.4754 43.3131 72.9354C20.2031 76.3954 11.3201 68.4354 7.93713 61.1474C4.19713 53.0904 7.02313 44.6474 10.8371 39.4164C9.48846 38.9443 8.27489 38.1512 7.30113 37.1054C4.82713 33.9214 5.71113 29.0894 9.28013 26.3124C12.8491 23.5354 17.7491 23.8664 20.2271 27.0504C20.8961 28.0624 21.3332 29.2098 21.5071 30.4104C23.4301 29.3734 25.4311 28.4644 27.5141 27.5614C30.3961 26.3114 31.8831 23.0894 32.7711 21.1614C32.9061 20.8684 33.0291 20.6044 33.1401 20.3784C33.3382 19.9764 33.6307 19.6284 33.9926 19.3641C34.3545 19.0997 34.775 18.9269 35.2181 18.8604C35.6614 18.7943 36.114 18.8366 36.5374 18.9836C36.9607 19.1306 37.3422 19.3779 37.6491 19.7044C37.8221 19.8874 38.0161 20.1044 38.2321 20.3454C39.6451 21.9264 42.0101 24.5704 45.1321 24.9214C47.2791 25.1624 49.3571 25.4294 51.4001 25.8214C51.2314 24.6561 51.3177 23.4681 51.6531 22.3394C53.0901 18.5694 57.6801 16.8184 61.9051 18.4284C66.1301 20.0384 68.3911 24.3994 66.9541 28.1694C66.3649 29.3892 65.4968 30.4532 64.4201 31.2754C69.6421 35.1374 74.9131 42.4274 73.6861 51.2984M61.9091 33.1174C56.3551 29.4054 50.8761 28.5384 44.8031 27.8554C40.5631 27.3784 37.6171 24.0844 36.0351 22.3144C35.9061 22.1714 35.7871 22.0374 35.6751 21.9144C35.6045 22.0637 35.5291 22.2254 35.4491 22.3994C34.4491 24.5554 32.6031 28.5684 28.6871 30.2674C23.0801 32.6994 18.0951 35.1334 13.8721 40.3094C10.2391 44.7614 7.20513 52.5654 10.6121 59.9094C15.9741 71.4574 31.1121 71.7834 42.8761 70.0224C54.6401 68.2614 69.0201 63.5114 70.7641 50.8994C71.8731 42.8834 66.6871 36.3114 61.9091 33.1174Z" fill="#1A1311"/>
<path d="M47.992 59.5204C47.211 56.5894 44.584 51.8204 40.173 52.4854C35.762 53.1504 34.798 58.4474 34.91 61.4784C34.9233 61.8565 35.0862 62.2138 35.3629 62.4718C35.6396 62.7297 36.0075 62.8672 36.3855 62.8539C36.7636 62.8407 37.1209 62.6778 37.3789 62.401C37.6368 62.1243 37.7743 61.7565 37.761 61.3784C37.7595 60.7232 37.8067 60.0687 37.902 59.4204C38.9243 60.0464 40.1313 60.3001 41.319 60.1384C42.5417 59.9194 43.6644 59.3211 44.528 58.4284C44.8086 59.0206 45.0452 59.6326 45.236 60.2594C45.3338 60.6249 45.5727 60.9366 45.9002 61.1259C46.2278 61.3152 46.6171 61.3667 46.9825 61.2689C47.348 61.1712 47.6597 60.9323 47.849 60.6047C48.0383 60.2772 48.0898 59.8879 47.992 59.5224" fill="#1A1311"/>
<path d="M27.3011 45.3864C25.3606 45.2858 23.4337 45.7618 21.7632 46.7542C20.0926 47.7466 18.753 49.2111 17.9131 50.9634C16.9583 52.7157 16.504 54.697 16.6001 56.6904C16.6001 56.7234 16.5881 56.7534 16.5861 56.7854C16.4431 59.9604 18.6491 66.4064 28.0271 68.0854C28.3133 68.1364 28.6067 68.1307 28.8906 68.0684C29.1745 68.006 29.4434 67.8884 29.6818 67.7222C29.9203 67.556 30.1237 67.3444 30.2804 67.0996C30.4371 66.8548 30.544 66.5815 30.5951 66.2953C30.6462 66.0092 30.6404 65.7158 30.5781 65.4319C30.5158 65.148 30.3982 64.8791 30.232 64.6406C30.0657 64.4022 29.8542 64.1988 29.6094 64.0421C29.3645 63.8854 29.0913 63.7784 28.8051 63.7274C27.9776 63.5843 27.1629 63.3746 26.3691 63.1004C28.2915 62.6412 30.0298 61.6108 31.3555 60.1449C32.6811 58.679 33.532 56.8461 33.7961 54.8874C34.6361 49.2054 30.7551 45.5604 27.2961 45.3874M30.8651 51.8773C30.8595 52.3093 30.7658 52.7355 30.5896 53.1299C30.4134 53.5242 30.1585 53.8785 29.8405 54.1708C29.5225 54.4631 29.1481 54.6874 28.7403 54.8299C28.3326 54.9724 27.9 55.03 27.4691 54.9994C26.9599 54.9879 26.4652 54.8279 26.0457 54.539C25.6263 54.2502 25.3004 53.845 25.1081 53.3734C24.8787 52.8888 24.7706 52.3558 24.793 51.8202C24.8155 51.2845 24.9679 50.7624 25.237 50.2988C25.5062 49.8352 25.8841 49.4439 26.3381 49.1589C26.7921 48.8738 27.3086 48.7034 27.8431 48.6623C28.264 48.6335 28.6861 48.6985 29.0788 48.8525C29.4716 49.0065 29.8253 49.2458 30.1144 49.5531C30.4034 49.8603 30.6207 50.2279 30.7506 50.6294C30.8804 51.0308 30.9195 51.456 30.8651 51.8744" fill="#1A1311"/>
<path d="M60.8012 44.5424C59.4847 43.1132 57.7749 42.1053 55.887 41.6457C53.999 41.1861 52.0172 41.2952 50.1912 41.9594C46.9382 43.1324 44.2912 47.7594 46.7622 52.9404C49.9622 59.6594 58.7142 60.1694 62.1682 56.2404C64.6962 53.3624 64.5922 48.3404 60.8012 44.5404M54.9912 48.8994C54.9456 49.4067 54.7529 49.8895 54.4366 50.2887C54.1204 50.6879 53.6945 50.986 53.2112 51.1464C52.8079 51.302 52.377 51.3735 51.9451 51.3565C51.5132 51.3395 51.0892 51.2345 50.6994 51.0477C50.3095 50.861 49.962 50.5965 49.678 50.2706C49.3941 49.9447 49.1797 49.5642 49.0482 49.1524C48.8742 48.7682 48.7877 48.3502 48.7948 47.9285C48.802 47.5068 48.9026 47.092 49.0894 46.7139C49.2762 46.3357 49.5446 46.0038 49.8751 45.7419C50.2057 45.48 50.5903 45.2947 51.0012 45.1994C51.5241 45.0809 52.068 45.0916 52.5858 45.2306C53.1036 45.3696 53.5798 45.6326 53.9731 45.997C54.3665 46.3614 54.6651 46.8161 54.8432 47.3218C55.0212 47.8275 55.0734 48.369 54.9952 48.8994" fill="#1A1311"/>
<path d="M19.424 65H221.575C224.605 65 227.511 66.3563 229.654 68.7705C231.796 71.1847 233 74.459 233 77.8732V292.127C233 295.541 231.796 298.815 229.654 301.23C227.511 303.644 224.605 305 221.575 305H19.424C16.3942 305 13.4884 303.644 11.346 301.23C9.2036 298.816 8 295.542 8 292.128V77.8721C8 74.4582 9.2036 71.1841 11.346 68.7702C13.4884 66.3562 16.3942 65 19.424 65Z" fill="#FFDB88"/>
<path d="M15.901 83.9184C15.1886 86.1297 13.6279 87.9681 11.5615 89.03C9.49508 90.0919 7.09177 90.2905 4.87904 89.5824C0.101039 88.1934 -0.759961 83.1504 0.555039 78.6324C1.87004 74.1144 4.86804 71.8324 9.64204 73.2214C11.8905 73.8112 13.813 75.2694 14.9871 77.2756C16.1612 79.2819 16.491 81.6721 15.904 83.9214" fill="#1A1311"/>
<path d="M79.5611 75.3293C81.8777 75.5232 84.1766 74.7895 85.9526 73.2894C87.7286 71.7894 88.8366 69.6457 89.0331 67.3293C89.5881 62.3883 85.2671 59.6493 80.5911 59.1233C75.9151 58.5973 72.6541 60.4863 72.0991 65.4233C71.7771 67.7255 72.3822 70.0613 73.7814 71.9176C75.1805 73.7739 77.2593 74.9988 79.5611 75.3233" fill="#1A1311"/>
<path d="M104.989 2.66336C95.8171 5.24636 85.4891 10.0044 82.7071 21.8634C80.2561 32.2994 86.7831 41.9354 97.9671 45.5924C115.235 51.2394 130.705 51.7974 144.508 49.2714C155.867 47.1914 168.647 42.8714 171.835 31.4644C175.444 18.5494 165.15 7.74636 151.781 3.79236C132.264 -1.97764 115.016 -0.160638 104.989 2.66336Z" fill="#EE6E0A"/>
<path d="M94.5181 35.5214C94.5181 35.5214 94.6531 43.6724 83.2941 45.1114C78.5941 45.7114 79.5671 47.3544 83.9251 48.1504C93.5491 49.9104 106.773 49.0744 113.458 41.1684L94.5181 35.5214Z" fill="#EE6E0A"/>
<path d="M205.15 86.7924H34.5741C31.4194 86.7924 28.8621 89.3497 28.8621 92.5044V178.08C28.8621 181.235 31.4194 183.792 34.5741 183.792H205.15C208.305 183.792 210.862 181.235 210.862 178.08V92.5044C210.862 89.3497 208.305 86.7924 205.15 86.7924Z" fill="white"/>
</svg>
