<svg xmlns="http://www.w3.org/2000/svg" xmlnsXlink="http://www.w3.org/1999/xlink" width="160.481" height="73.362" viewBox="0 0 160.481 73.362"><defs><clipPath id="a"><rect width="160.481" height="73.362" transform="translate(0 0)" fill="none"/></clipPath></defs><g transform="translate(0 0)"><g clip-path="url(#a)"><path d="M48.37,13.421a1.027,1.027,0,0,1-.143.459c-.126.253-.211.437-.253.553a1.669,1.669,0,0,0-.094.522l-.016,9.6a.2.2,0,0,1-.222.222H47.31a.848.848,0,0,1-.727-.38l-6.436-9.108a.079.079,0,0,0-.094-.032.063.063,0,0,0-.048.063q.063,7.292-.016,9.03a.891.891,0,0,1-.182.49.5.5,0,0,1-.418.221c-.4,0-.591-.216-.57-.649a1.336,1.336,0,0,1,.158-.506q.126-.252.23-.5a1.359,1.359,0,0,0,.1-.529V13.4c0-.147.132-.232.4-.253.189.011.379.016.569.016a.806.806,0,0,1,.727.363l6.025,8.555a.064.064,0,0,0,.079.032c.042-.01.063-.032.063-.063l.032-8.571a.8.8,0,0,1,.182-.49.533.533,0,0,1,.434-.237q.57,0,.554.664" fill="#fff"/><path d="M53.121,13.643a1.021,1.021,0,0,1-1.027,1.027.967.967,0,0,1-.72-.3,1.008,1.008,0,0,1-.292-.728,1.026,1.026,0,0,1,1.012-1.013,1.01,1.01,0,0,1,.728.293.967.967,0,0,1,.3.72m-.189,10.879a.4.4,0,0,1-.459.458H51.7a.4.4,0,0,1-.459-.458v-8.08c0-.085.047-.127.142-.127l1.328.032c.148,0,.222.078.222.237Z" fill="#fff"/><path d="M63.914,16.5l-.394.538a.2.2,0,0,1-.159.079h-.837a2.29,2.29,0,0,1,.726,1.55,2.243,2.243,0,0,1-.379,1.407,3.164,3.164,0,0,1-2.752,1.186,6.617,6.617,0,0,1-1.644-.126c-.4.274-.59.51-.57.711q.063.459,1.882.459a6.853,6.853,0,0,1,2.72.38,2.247,2.247,0,0,1,1.2,2.26,2.744,2.744,0,0,1-1.059,2.324,4.235,4.235,0,0,1-2.5.759q-4.05.111-4.048-2.467,0-1.279,1.881-1.9-1.138-.346-1.217-1.265-.065-.726,1.059-1.455a2,2,0,0,1-1.312-2.055,2.342,2.342,0,0,1,1.043-2.039,3.869,3.869,0,0,1,2.277-.633h.016a5.111,5.111,0,0,1,1.455.2h2.561c.064,0,.079.027.047.079m-1.122,8.523q-.017-.822-1.107-1.044a11.265,11.265,0,0,0-1.724-.079,7.912,7.912,0,0,1-1.913-.22l.127.126a1.558,1.558,0,0,0-.838,1.376q.094,1.359,2.767,1.249,2.7-.112,2.688-1.408m-1.2-6.277A1.738,1.738,0,0,0,58.6,17.524a1.885,1.885,0,0,0-.475,1.305,1.6,1.6,0,0,0,.49,1.241,1.822,1.822,0,0,0,1.282.451,1.652,1.652,0,0,0,1.256-.491,1.675,1.675,0,0,0,.435-1.28" fill="#fff"/><path d="M74.011,24.443a.39.39,0,0,1-.459.442l-.791-.015a.414.414,0,0,1-.458-.459v-5.3a3.507,3.507,0,0,0-.174-1.359,1.254,1.254,0,0,0-1.2-.618,4.245,4.245,0,0,0-2.15.9v6.42a.407.407,0,0,1-.459.459h-.775a.407.407,0,0,1-.459-.459V12.805a.126.126,0,0,1,.143-.142l1.328.063a.212.212,0,0,1,.222.237v4.3a5.19,5.19,0,0,1,3.02-1.171,1.94,1.94,0,0,1,1.85.839,5.049,5.049,0,0,1,.364,2.277Z" fill="#fff"/><path d="M83.569,22.877q-.585,2.245-2.419,2.355-2.482.159-2.482-2.7V17.09h-1.44a.166.166,0,0,1-.141-.064l-.4-.553c-.021-.021-.032-.037-.032-.048a.1.1,0,0,1,.063-.016l1.946-.015V13.643a.126.126,0,0,1,.142-.143l1.328.048a.2.2,0,0,1,.221.221v2.625h.507a1.32,1.32,0,0,0,.521-.095,4.623,4.623,0,0,1,1.012-.38q.665,0,.664.554c0,.274-.189.464-.569.569a4.541,4.541,0,0,1-1.186.095q-1.675-.046-.949-.047V22.7q0,1.265.934,1.265a2.225,2.225,0,0,0,1.928-1.249.17.17,0,0,1,.238-.079.175.175,0,0,1,.11.237" fill="#fff"/><path d="M102.639,13.342c0,.38-.236.58-.711.6q-.4.015-2.957.016v10.5a.406.406,0,0,1-.459.459h-.774a.406.406,0,0,1-.459-.459v-10.5H94.29a.155.155,0,0,1-.142-.079l-.4-.538c-.043-.053-.032-.079.031-.079h6.658a1.347,1.347,0,0,0,.537-.095,5.027,5.027,0,0,1,1.013-.38q.646,0,.647.554" fill="#fff"/><path d="M107.312,13.643a1.021,1.021,0,0,1-1.027,1.027.967.967,0,0,1-.72-.3,1.008,1.008,0,0,1-.292-.728,1.026,1.026,0,0,1,1.012-1.013,1.01,1.01,0,0,1,.728.293.967.967,0,0,1,.3.72m-.189,10.879a.4.4,0,0,1-.459.458h-.774a.4.4,0,0,1-.459-.458v-8.08c0-.085.047-.127.142-.127l1.328.032c.148,0,.222.078.222.237Z" fill="#fff"/><path d="M121.742,18.577l-.017,5.834a.4.4,0,0,1-.458.459h-.775a.4.4,0,0,1-.458-.459V18.672q0-1.472-1.281-1.376a2.413,2.413,0,0,0-1.771,1.376l-.015,5.739a.406.406,0,0,1-.459.459h-.791a.4.4,0,0,1-.458-.459V18.672q0-1.472-1.265-1.376a2.419,2.419,0,0,0-1.787,1.3v5.835a.405.405,0,0,1-.459.458h-.775a.406.406,0,0,1-.459-.458v-8c0-.1.042-.137.127-.126l1.344.031q.222,0,.222.237v1.06a2.934,2.934,0,0,1,2.276-1.376,2.131,2.131,0,0,1,2.372,1.486,2.968,2.968,0,0,1,2.388-1.486q2.5-.047,2.5,2.325" fill="#fff"/><path d="M133.119,22.625a4.07,4.07,0,0,1-3.669,2.5c-.157.011-.31.015-.458.015a4.085,4.085,0,0,1-3.036-1.114,4.362,4.362,0,0,1-1.17-3.059,5.083,5.083,0,0,1,.933-3.48,3.962,3.962,0,0,1,3.273-1.328,3.9,3.9,0,0,1,2.957,1.107,4.085,4.085,0,0,1,1.028,3.02h-6.483a6.253,6.253,0,0,0,0,.648,3.375,3.375,0,0,0,.759,2.135,2.6,2.6,0,0,0,2.008.917,4.175,4.175,0,0,0,3.463-1.644.191.191,0,0,1,.3-.047.243.243,0,0,1,.1.332m-1.866-3.052q.017-2.516-2.309-2.562a2.094,2.094,0,0,0-1.723.759,2.9,2.9,0,0,0-.648,1.8Z" fill="#fff"/><path d="M133.885,0a36.074,36.074,0,0,1-21.417,65.131,35.816,35.816,0,0,1-17.82-4.716A37.491,37.491,0,1,0,133.885,0" fill="#f7e000"/><path d="M5.186,49.081q0,.646-.612.646H3.516q-.611,0-.611-.646V35.049a.164.164,0,0,0-.084-.155.125.125,0,0,0-.169,0q-.529.378-1.543,1.068a.217.217,0,0,1-.211.022l-.845-.356c-.07-.029-.07-.067,0-.11l2.83-1.958a.939.939,0,0,1,.55-.178H4.87a.277.277,0,0,1,.316.311Z" fill="#fff"/><path d="M18.621,33.915l-4.562,15.3a.737.737,0,0,1-.783.6l-.992-.022q-.444,0-.444-.467a.526.526,0,0,1,.021-.156l3.992-13.275c.057-.208-.013-.311-.211-.311h-5.2a.339.339,0,0,0-.359.311l-.444,2.424a.34.34,0,0,1-.359.311h-.57c-.114,0-.162-.067-.149-.2l.677-4.448a.637.637,0,0,1,.7-.622h8.323q.4,0,.4.356a.738.738,0,0,1-.042.2" fill="#fff"/><path d="M26.8,35.9a1.323,1.323,0,0,1-.369.945,1.192,1.192,0,0,1-.9.389,1.156,1.156,0,0,1-.886-.389,1.341,1.341,0,0,1-.36-.945,1.29,1.29,0,0,1,.37-.923,1.172,1.172,0,0,1,.876-.389,1.207,1.207,0,0,1,.9.378,1.284,1.284,0,0,1,.369.934m0,10.518a1.288,1.288,0,0,1-.369.934,1.211,1.211,0,0,1-.9.378,1.168,1.168,0,0,1-.876-.389,1.3,1.3,0,0,1-.37-.923,1.338,1.338,0,0,1,.36-.945,1.156,1.156,0,0,1,.886-.389,1.192,1.192,0,0,1,.9.389,1.32,1.32,0,0,1,.369.945" fill="#fff"/><path d="M41.437,45.079a4.81,4.81,0,0,1-1.426,3.835,5.513,5.513,0,0,1-3.939,1.145,8.739,8.739,0,0,1-3.128-.578.559.559,0,0,1-.38-.555,1.1,1.1,0,0,1,.064-.334l.7-2.135a.166.166,0,0,1,.169-.111c.1,0,.154.038.17.111q.717,2.535,2.724,2.38a2.512,2.512,0,0,0,2.091-1.09,4.618,4.618,0,0,0,.528-2.468q0-3.2-2.493-3.558-.421.088-.866.156a.282.282,0,0,1-.358-.245.288.288,0,0,1,.21-.378,4.055,4.055,0,0,0,3.148-4.226q-.022-2.424-2.05-2.445a4.251,4.251,0,0,0-3.612,2.245.269.269,0,0,1-.38.111.285.285,0,0,1-.168-.377q1.161-3.468,4.373-3.536a4.381,4.381,0,0,1,2.936.824,3.576,3.576,0,0,1,1.225,2.867,4.32,4.32,0,0,1-2.091,4.158,4.494,4.494,0,0,1,2.556,4.2" fill="#fff"/><path d="M54.851,41.5q0,8.449-5.049,8.449a4.313,4.313,0,0,1-3.633-1.578q-1.542-2-1.585-6.871a14.066,14.066,0,0,1,.888-5.715,4.474,4.474,0,0,1,4.393-2.8q4.986-.021,4.986,8.517m-2.134,0a24.844,24.844,0,0,0-.274-4.492q-.593-2.868-2.6-2.868-2.2,0-2.789,2.779a25.943,25.943,0,0,0-.233,4.6,20.876,20.876,0,0,0,.465,5.093q.677,2.379,2.577,2.335,1.965-.045,2.578-2.958a25.29,25.29,0,0,0,.274-4.491" fill="#fff"/><path d="M74.666,39.675a6.127,6.127,0,0,1-1.247,2.356,3.738,3.738,0,0,1-2.81,1.423,4.484,4.484,0,0,1-2.45-.533,7.241,7.241,0,0,1-1.394-1.067,13.646,13.646,0,0,0-1.352-1.09,2.416,2.416,0,0,0-1.162-.422,4.462,4.462,0,0,0-3.865,2.379q-.171.244-.381.066a.348.348,0,0,1-.126-.444q1.521-3.891,4.52-3.98a5.22,5.22,0,0,1,3.549,1.6,6.757,6.757,0,0,0,1.161.911,2.592,2.592,0,0,0,1.437.312,5.186,5.186,0,0,0,1.817-.289,4.564,4.564,0,0,0,1.775-1.535.254.254,0,0,1,.359-.088.331.331,0,0,1,.169.4" fill="#fff"/><path d="M89.073,37.785q-.022,2-2.282,4.625l-4.267,4.937h5.788c.127,0,.183.059.169.177l-.3,1.891a.323.323,0,0,1-.359.311H80.094c-.126,0-.189-.067-.189-.2V48.7a.486.486,0,0,1,.105-.312q3.972-4.98,5.324-7.137a7.244,7.244,0,0,0,1.2-3.269q.19-3.022-2.3-3.047a3.786,3.786,0,0,0-3.485,2.4.389.389,0,0,1-.487.221.349.349,0,0,1-.253-.466,5.674,5.674,0,0,1,1.626-2.935,4.373,4.373,0,0,1,2.958-1.135,4.154,4.154,0,0,1,3.348,1.179,5.014,5.014,0,0,1,1.131,3.58" fill="#fff"/><path d="M96.086,49.081q0,.646-.612.646H94.417q-.612,0-.612-.646V35.049a.164.164,0,0,0-.084-.155.125.125,0,0,0-.169,0q-.53.378-1.543,1.068a.218.218,0,0,1-.211.022l-.845-.356c-.07-.029-.07-.067,0-.11l2.83-1.958a.939.939,0,0,1,.55-.178H95.77a.277.277,0,0,1,.316.311Z" fill="#fff"/><path d="M104.557,35.9a1.323,1.323,0,0,1-.369.945,1.192,1.192,0,0,1-.9.389,1.156,1.156,0,0,1-.886-.389,1.341,1.341,0,0,1-.36-.945,1.29,1.29,0,0,1,.37-.923,1.172,1.172,0,0,1,.876-.389,1.207,1.207,0,0,1,.9.378,1.284,1.284,0,0,1,.369.934m0,10.518a1.288,1.288,0,0,1-.369.934,1.211,1.211,0,0,1-.9.378,1.168,1.168,0,0,1-.876-.389,1.3,1.3,0,0,1-.37-.923,1.338,1.338,0,0,1,.36-.945,1.156,1.156,0,0,1,.886-.389,1.192,1.192,0,0,1,.9.389,1.32,1.32,0,0,1,.369.945" fill="#fff"/><path d="M120.612,41.5q0,8.449-5.049,8.449a4.311,4.311,0,0,1-3.633-1.578q-1.542-2-1.586-6.871a14.083,14.083,0,0,1,.888-5.715,4.476,4.476,0,0,1,4.394-2.8q4.986-.021,4.986,8.517m-2.134,0a24.818,24.818,0,0,0-.275-4.492q-.591-2.868-2.6-2.868-2.2,0-2.789,2.779a25.975,25.975,0,0,0-.232,4.6,20.876,20.876,0,0,0,.465,5.093q.676,2.379,2.577,2.335,1.965-.045,2.577-2.958a25.265,25.265,0,0,0,.275-4.491" fill="#fff"/><path d="M134.2,41.5q0,8.449-5.049,8.449a4.312,4.312,0,0,1-3.633-1.578q-1.543-2-1.586-6.871a14.1,14.1,0,0,1,.888-5.715,4.475,4.475,0,0,1,4.393-2.8Q134.2,32.96,134.2,41.5m-2.134,0a24.818,24.818,0,0,0-.275-4.492q-.592-2.868-2.6-2.868-2.2,0-2.79,2.779a25.975,25.975,0,0,0-.232,4.6,20.876,20.876,0,0,0,.465,5.093q.676,2.379,2.576,2.335,1.965-.045,2.578-2.958a25.265,25.265,0,0,0,.275-4.491" fill="#fff"/></g></g></svg>