<svg xmlns="http://www.w3.org/2000/svg" width="233.553" height="122.475" viewBox="0 0 233.553 122.475"><g transform="translate(-18 -1007.272)"><path d="M165.634,1004.312c31.665,2.9,60.535,11.258,78.051,29.89s18.723,47.885-6.448,66.039S172.8,1123.662,132.6,1122.154s-64.7-6.409-83.09-19.186c-39.562-27.483-35.282-73.794,15.569-89.905C104.142,1000.685,133.915,1001.41,165.634,1004.312Z" transform="translate(-4.977 4.739)" fill="#1e0073"/><path d="M203.184,1080.241s-1.565,25.255,13.552,33.1c6.024,3.128,10.468,4.1,18.415,5.412s-2.431,6.731-19.14,6.216c-16.41-2.248-22.7-2.848-34.477-11.11-18.522-12.99-23.638-24.094-23.638-24.094Z" transform="translate(-4.977 4.739)" fill="#1e0073"/></g></svg>