<svg xmlns="http://www.w3.org/2000/svg" xmlnsXlink="http://www.w3.org/1999/xlink" width="70.428" height="248.572" viewBox="0 0 70.428 248.572"><defs><clipPath id="a"><rect width="70.428" height="248.572" fill="none"/></clipPath></defs><g clip-path="url(#a)"><path d="M53.367,8.305a17.706,17.706,0,0,1-1.078,3.908v11.4a.7.7,0,0,1-.809.782H50.322a.7.7,0,0,1-.782-.808V16.04a28.017,28.017,0,0,1-3.989,2.937.23.23,0,0,1-.35-.053.265.265,0,0,1,.054-.377,15.178,15.178,0,0,0,4.069-5.634,34.851,34.851,0,0,0,1.187-5.147c.035-.18.125-.252.269-.216l2.264.323a.337.337,0,0,1,.323.432M68.326,3.776q0,1.05-1.132,1.051H48.489a.266.266,0,0,1-.243-.135l-.674-.916c-.071-.09-.054-.134.055-.134h9.029V.219c0-.162.08-.234.242-.216L59,.138q.4.026.4.4v3.1H64.58a2.23,2.23,0,0,0,.89-.163,8.646,8.646,0,0,1,1.724-.646q1.132,0,1.132.943m.432,17.52a7.525,7.525,0,0,0-1.618,1.617q-.108.216-.4,1.051a.354.354,0,0,1-.512.135,18.875,18.875,0,0,1-4.582-3.235,22.625,22.625,0,0,1-7.79,3.639.32.32,0,0,1-.4-.135.25.25,0,0,1,.109-.4,22.9,22.9,0,0,0,6.71-4.636A15.621,15.621,0,0,1,58,15.474a.434.434,0,0,1,.161-.512c.143-.126.306-.072.485.161a14.184,14.184,0,0,0,2.777,2.723A17.561,17.561,0,0,0,64.2,11.054H60.51a15.98,15.98,0,0,1-4.528,5.067.326.326,0,0,1-.459,0,.247.247,0,0,1-.026-.378,23.81,23.81,0,0,0,3.639-9.729c.035-.163.116-.234.242-.216l2.507.458c.269.053.368.2.3.431a32.064,32.064,0,0,1-1.106,3.207h3.369l.081-.511c.035-.18.135-.252.3-.216l2.318.377a.315.315,0,0,1,.3.431Q66.2,16.2,63.474,19.112a49.343,49.343,0,0,0,5.2,1.914c.143.054.171.144.081.27m-5.93-6.55q-.029,1.158-1.1,1.186-.621,0-.916-.782A2.189,2.189,0,0,0,59,13.8q-.218-.054,0-.162a4.379,4.379,0,0,1,2.021-.566q1.86,0,1.806,1.671" fill="#fff"/><path d="M65.388,41.812a7.8,7.8,0,0,1-1.914,5.229q-2.426,2.586-8.086,3.666c-.323.053-.53-.019-.619-.216q-.108-.3.349-.458,7.332-2.859,7.521-8.086a5.425,5.425,0,0,0-1.132-3.963q-1.429-1.536-4.663-1.428a5.795,5.795,0,0,0-5.5,5.552,2.819,2.819,0,0,0,.351,1.671,1.051,1.051,0,0,0,.943.512q1.158-.026,2.237-2.209a20.515,20.515,0,0,0,1.617-5.122c.037-.179.163-.243.377-.189l1.538.3a.405.405,0,0,1,.349.512,17.673,17.673,0,0,1-2.075,6.253q-1.833,3.126-4.313,3.154a2.116,2.116,0,0,1-1.926-1.132,6.41,6.41,0,0,1-.715-3.343A7.2,7.2,0,0,1,52.1,36.879a8.146,8.146,0,0,1,5.525-2.048,8.046,8.046,0,0,1,5.66,1.805,6.262,6.262,0,0,1,2.1,5.176" fill="#fff"/><path d="M56.818,66.907a12.571,12.571,0,0,1-2.345,5.364,19,19,0,0,1-6.82,4.987.323.323,0,0,1-.485-.135.369.369,0,0,1,.109-.513,18.9,18.9,0,0,0,4.582-5.094,17.717,17.717,0,0,0,1.913-5.309.216.216,0,0,1,.269-.216l2.481.485c.251.054.349.2.3.431m11.508,3.666a3.553,3.553,0,0,1,.3,1.455q0,2.022-1.375,2.211c-.179.018-.332.026-.458.026q-1.05,0-1.374-1.536a8.92,8.92,0,0,0-1-2.8,10,10,0,0,0-2.695-2.776q-.43-.324-.108-.62a.862.862,0,0,1,.647-.054q4.636.89,6.064,4.1m.971-6.711a2.022,2.022,0,0,1-4.043,0,1.987,1.987,0,0,1,.593-1.442,1.984,1.984,0,0,1,2.857,0,1.991,1.991,0,0,1,.593,1.442m-.916,0a1.1,1.1,0,0,0-1.1-1.1,1.03,1.03,0,0,0-.755.323,1.065,1.065,0,0,0-.324.782,1.107,1.107,0,0,0,1.079,1.078,1.062,1.062,0,0,0,.781-.324,1.032,1.032,0,0,0,.324-.754" fill="#fff"/><path d="M66.466,96.426c0,.664-.4,1.007-1.212,1.024q-.325.029-3.99.028,0,3.53.055,8.112a3.524,3.524,0,0,1-.81,2.372,3.836,3.836,0,0,1-2.452,1.348c-.18.017-.333.027-.458.027q-.756,0-.89-.594a1,1,0,0,0-1.159-.781H53.771c-.18,0-.278-.071-.3-.217a.219.219,0,0,1,.188-.3l3.288-.62a1.973,1.973,0,0,0,1.188-.5,2.276,2.276,0,0,0,.3-1.28q0-.646.026-4.285-2.641,3.936-9.621,6.711a.368.368,0,0,1-.514-.161.33.33,0,0,1,.136-.486,31.279,31.279,0,0,0,5.9-4.689,18.554,18.554,0,0,0,3.155-4.663H51.507a.265.265,0,0,1-.242-.135l-.674-.917c-.071-.089-.055-.135.055-.135h7.841q-.024-2.856-.079-5.795a.524.524,0,0,1,.242-.242l2.263.054c.27.018.406.153.406.4q-.029,3.1-.055,5.579h1.482a2.369,2.369,0,0,0,.89-.161,7.782,7.782,0,0,1,1.725-.647c.738,0,1.105.315,1.105.943" fill="#fff"/><path d="M54.85,127.7c.126.109.126.261,0,.459a58.93,58.93,0,0,0-3.261,5.606,2.321,2.321,0,0,0-.27,1.7q.324,1.078.324,1.132a1.143,1.143,0,0,1-1.186,1.213,1.577,1.577,0,0,1-1.159-.512,3.458,3.458,0,0,1-.89-1.752,18.052,18.052,0,0,1-.3-3.666q0-2.236.351-6.36.216-2.642.27-4.232c0-.233.126-.342.377-.324l1.995.135a.335.335,0,0,1,.35.431q-.189,2.346-.431,4.043a38.275,38.275,0,0,0-.377,5.2,7.063,7.063,0,0,0,.081,1.24c.017.18.08.269.188.269.09,0,.206-.1.351-.3q.969-1.428,3.072-4.2c.18-.216.351-.242.512-.081m13.072-3.126q0,1-1.239,1.025h-2.7v7.222q1.105.353,3.5,1.268a.659.659,0,0,1,.405.646,1.246,1.246,0,0,1-.081.432l-.567,1.32a.622.622,0,0,1-.593.4.87.87,0,0,1-.485-.162,18.814,18.814,0,0,0-2.506-1.59q-1.349,3.018-5.121,2.883-2.426-.079-2.4-3.288a2.713,2.713,0,0,1,.984-2.277,3.877,3.877,0,0,1,2.708-.66,10.551,10.551,0,0,1,1.375.242q.054-4.177.081-6.441H57.815a.333.333,0,0,1-.243-.109l-.673-.916c-.054-.09-.037-.134.053-.134h4.34q0-2.938-.108-5.284a.628.628,0,0,1,.216-.216l2.264.109a.384.384,0,0,1,.4.431l-.081,4.96h.162a2.307,2.307,0,0,0,.917-.163,7.573,7.573,0,0,1,1.724-.673q1.132.027,1.132.97m-6.792,9.595a5.872,5.872,0,0,0-2.372-.512q-1.239,0-1.239,1.159,0,1,.862,1.051a2.655,2.655,0,0,0,1.994-.511,2,2,0,0,0,.755-1.187" fill="#fff"/><path d="M68.757,149.561q0,1.833-1.644,1.887a1.3,1.3,0,0,1-1.159-.567,4.509,4.509,0,0,1-.566-1.266,5.381,5.381,0,0,0-.538-1.267,4.064,4.064,0,0,0-2.156-1.482q-.246-.081,0-.189a5.588,5.588,0,0,1,2.21-.485,4.054,4.054,0,0,1,2.668.89,3.017,3.017,0,0,1,1.185,2.479" fill="#fff"/><path d="M64.9,176.951q0,5.148-8.005,6.495c-.252.055-.413-.017-.485-.214a.353.353,0,0,1,.243-.486,12.619,12.619,0,0,0,3.962-2.291,4.624,4.624,0,0,0,1.374-3.45,3.881,3.881,0,0,0-1.024-2.83,4.465,4.465,0,0,0-3.424-1.213,6.732,6.732,0,0,0-.808.054q0,4.1-.054,4.77a4.123,4.123,0,0,1-.943,2.507,3.843,3.843,0,0,1-3.261,1.321,2.73,2.73,0,0,1-2.022-.943,4.522,4.522,0,0,1-1-2.938,5.282,5.282,0,0,1,1.173-3.383,7.222,7.222,0,0,1,3.383-2.331V168H51.4a.365.365,0,0,1-.27-.108l-.674-.944c-.054-.071-.027-.107.081-.107h3.477q-.027-.972-.054-4.07a.587.587,0,0,1,.243-.216l2.183.134a.357.357,0,0,1,.4.4q-.027,1.105-.054,3.747H58a1.961,1.961,0,0,0,.889-.189,7.84,7.84,0,0,1,1.726-.647q1.131,0,1.131.971T60.509,168H56.736q-.027,2.7,0,3.449l.539-.053q4.017-.187,5.984,1.563a5.055,5.055,0,0,1,1.644,3.989m-10.835-3.288a4.512,4.512,0,0,0-2.992,4.123,1.593,1.593,0,0,0,.431,1.24,1.4,1.4,0,0,0,.944.351q1.536-.054,1.589-1.887.055-1.482.028-3.827m13.908-4.825q-.028,1.592-1.563,1.563a1.168,1.168,0,0,1-1.106-.862,3.045,3.045,0,0,0-2.426-1.94c-.161-.036-.161-.109,0-.216a4.681,4.681,0,0,1,2.453-.836,2.684,2.684,0,0,1,2.022.782,2.115,2.115,0,0,1,.62,1.509" fill="#fff"/><path d="M49.971,198.249q.054,1.7-1.509,1.7-.89,0-.97-1.078a2.63,2.63,0,0,0-1.482-2.237q-.244-.108.053-.162a7.3,7.3,0,0,1,1.321-.135q2.534,0,2.587,1.914m2.7.728q-1.969,4.313-3.8,8.543-.108.27.3,1.025.3.539.593,1.051a4.318,4.318,0,0,1,.081.836,3.536,3.536,0,0,1-.486,1.859,1.575,1.575,0,0,1-1.563.89q-1.05-.081-1.051-1.24a2.158,2.158,0,0,1,.135-.728,5.693,5.693,0,0,0,.35-1.806,3.26,3.26,0,0,0-.661-1.94q-.66-.916-.66-.836a.317.317,0,0,1,.028-.121c.017-.045.071-.058.161-.04a5.732,5.732,0,0,1,.782.269.373.373,0,0,0,.512-.135q2.451-3.747,4.716-7.843a.286.286,0,0,1,.405-.161c.2.053.252.179.162.377M50.483,194.1q.054,1.671-1.482,1.671-.889,0-.97-1.051a2.671,2.671,0,0,0-1.51-2.238c-.162-.088-.143-.152.054-.188a7.127,7.127,0,0,1,1.348-.135,3.093,3.093,0,0,1,1.725.458,1.711,1.711,0,0,1,.835,1.483m19.946-2.938q0,1.024-1.132,1.025H65.388v4.9H69a.691.691,0,0,1,.782.781v14.717a.68.68,0,0,1-.782.755H67.842a.692.692,0,0,1-.783-.782v-.809h-9.3v.809a.691.691,0,0,1-.782.782H55.793a.691.691,0,0,1-.781-.782v-14.69a.69.69,0,0,1,.781-.781h3.073v-4.879H54.984a.263.263,0,0,1-.242-.135l-.7-.916a.2.2,0,0,1-.027-.081c0-.035.036-.054.108-.054h12.56a2.231,2.231,0,0,0,.89-.162,8.6,8.6,0,0,1,1.725-.646q1.133,0,1.132.943m-3.37,19.434-.026-6.227a1.9,1.9,0,0,1-1.213.458,14.256,14.256,0,0,1-2.48,0q-.917-.081-.916-1.132l-.028-5.418H61.75a10.175,10.175,0,0,1-.809,4.259,6.034,6.034,0,0,1-3.18,2.8v5.256Zm-7.9-12.319H58.138a.334.334,0,0,0-.377.378v5.229a5.617,5.617,0,0,0,1.212-2.668,17,17,0,0,0,.189-2.939m7.332,8.787q0,.837-1.7,1.106a17.252,17.252,0,0,1-3.343.08,15.984,15.984,0,0,1-2.4-.135.306.306,0,0,1-.242-.135l-.674-.916a.2.2,0,0,1-.027-.081c0-.035.027-.053.081-.053h4.555a2.13,2.13,0,0,0,.89-.162,8.677,8.677,0,0,1,1.751-.674q1.105.027,1.106.97m-3.828-14.851H61.615v4.879h1.051Zm4.367,10.162v-3.72a.334.334,0,0,0-.378-.378H64.9l.027,3.4q-.054.378.189.4h.216q.106-.025.269-.377l.7-1.4c.09-.161.208-.215.351-.161.108.053.144.171.108.35l-.215,1.24c-.054.269-.019.431.107.485Z" fill="#fff"/><path d="M69.619,238.333a.36.36,0,0,1-.242.405,7.577,7.577,0,0,1-2.938.62,5.2,5.2,0,0,1-3.8-1.456.365.365,0,0,0-.566,0,6.972,6.972,0,0,1-4.825,1.941,7.5,7.5,0,0,1-4.231-1.078,4.335,4.335,0,0,1-1.968-3.72,4.654,4.654,0,0,1,1.186-3.153,14.9,14.9,0,0,1,2.641-2.291.333.333,0,0,0,.081-.539q-2.426-3.073-2.425-5.176a4.117,4.117,0,0,1,1.563-3.369,5.425,5.425,0,0,1,3.584-1.186,6.218,6.218,0,0,1,3.639,1,3.486,3.486,0,0,1,1.537,3.262,4.071,4.071,0,0,1-1.187,2.722,16.353,16.353,0,0,1-3.153,2.237c-.216.126-.242.288-.081.485.126.163.485.584,1.078,1.267q1.536,1.806,3.4,3.855a.248.248,0,0,0,.216.053.149.149,0,0,0,.161-.135,5.67,5.67,0,0,0,.082-2.937c-.073-.27.053-.413.376-.432l1.645-.107a.473.473,0,0,1,.458.161.669.669,0,0,1,.081.513,11.038,11.038,0,0,1-1.482,3.962.423.423,0,0,0,.053.592,11.472,11.472,0,0,0,1.78,1.537,5.087,5.087,0,0,0,3.018.673.291.291,0,0,1,.323.3M61.452,236.5l-5.228-5.929a.354.354,0,0,0-.566-.027,5.4,5.4,0,0,0-1.86,4.123,4.11,4.11,0,0,0,1.038,2.763,3.283,3.283,0,0,0,2.655,1.011,5.909,5.909,0,0,0,3.908-1.374.368.368,0,0,0,.053-.567m-1.023-13.072q-.054-3.045-2.695-3.153a2.557,2.557,0,0,0-2.009.768,2.762,2.762,0,0,0-.821,2.034q0,1.754,2.263,4.5a.366.366,0,0,0,.567.054q2.721-2.184,2.695-4.205" fill="#fff"/><path d="M20.053,16.873q0,5.148-8,6.5c-.252.055-.413-.017-.485-.214a.354.354,0,0,1,.243-.486,12.619,12.619,0,0,0,3.962-2.291,4.627,4.627,0,0,0,1.375-3.451A3.88,3.88,0,0,0,16.118,14.1a4.463,4.463,0,0,0-3.423-1.214,6.716,6.716,0,0,0-.808.055q0,4.1-.054,4.77a4.124,4.124,0,0,1-.944,2.507,3.842,3.842,0,0,1-3.261,1.321,2.734,2.734,0,0,1-2.022-.943,4.522,4.522,0,0,1-1-2.938,5.281,5.281,0,0,1,1.173-3.384,7.223,7.223,0,0,1,3.383-2.33V7.924H6.55a.366.366,0,0,1-.27-.107l-.674-.944c-.053-.071-.026-.107.082-.107H9.165Q9.138,5.794,9.11,2.7a.587.587,0,0,1,.243-.216l2.183.134a.357.357,0,0,1,.4.4q-.027,1.105-.053,3.747h1.266a1.979,1.979,0,0,0,.89-.189,7.822,7.822,0,0,1,1.725-.647q1.131,0,1.132.971T15.66,7.924H11.887c-.018,1.8-.018,2.946,0,3.45l.539-.053q4.016-.187,5.983,1.562a5.058,5.058,0,0,1,1.644,3.99M9.218,13.585a4.511,4.511,0,0,0-2.991,4.123,1.589,1.589,0,0,0,.431,1.24A1.391,1.391,0,0,0,7.6,19.3q1.538-.054,1.59-1.887.054-1.482.027-3.827M23.126,8.76q-.027,1.591-1.563,1.563a1.168,1.168,0,0,1-1.1-.862,3.043,3.043,0,0,0-2.426-1.94c-.162-.036-.162-.11,0-.216a4.678,4.678,0,0,1,2.453-.836,2.68,2.68,0,0,1,2.021.782,2.115,2.115,0,0,1,.62,1.509" fill="#fff"/><path d="M12.318,40.542q0,1-1.132,1H8.221v1.32a3.514,3.514,0,0,1,2.075.378,1.908,1.908,0,0,1,1.052,1.7q.08,1.456-1.1,1.482a.884.884,0,0,1-.917-.781,4.944,4.944,0,0,0-1.105-2.183l-.027,9.056a.715.715,0,0,1-.809.809H6.2a.715.715,0,0,1-.809-.809V45.582A15.073,15.073,0,0,1,.27,48.6a.186.186,0,0,1-.243-.081.191.191,0,0,1,.081-.27A11.132,11.132,0,0,0,5.2,41.54H1.968A.332.332,0,0,1,1.7,41.4l-.674-.917A.2.2,0,0,1,1,40.408a.107.107,0,0,1,.107-.055H5.391l.027-4.959a.332.332,0,0,1,.4-.377l1.995.135a.384.384,0,0,1,.4.43v4.771h.35a2.263,2.263,0,0,0,.89-.161,7.753,7.753,0,0,1,1.779-.648q1.077,0,1.078,1m-7.6-7.062a2.362,2.362,0,0,1,.108.62,1.23,1.23,0,0,1-1,1.213.946.946,0,0,1-.3.054q-.484,0-.755-.674A2.435,2.435,0,0,0,.863,33.157c-.18-.035-.18-.1,0-.189a4.575,4.575,0,0,1,2.1-.593,1.592,1.592,0,0,1,1.752,1.1m7.116.378a1.2,1.2,0,0,1-.971,1.213.937.937,0,0,1-.3.053q-.511,0-.782-.673a2.431,2.431,0,0,0-1.913-1.536c-.162-.037-.162-.1,0-.189A4.691,4.691,0,0,1,10,32.106a1.836,1.836,0,0,1,.539.081,1.5,1.5,0,0,1,1.294,1.671m14.2,12.02q.054.972-1.105,1.052-.754.054-2.318.135l-.027,5.2q0,.809-.782.781l-1.185-.027a.705.705,0,0,1-.782-.781l.027-5.04q-2.885.16-5.552.242a.282.282,0,0,1-.243-.108l-.728-.889q-.081-.135.054-.135l6.469-.3.053-14.689c0-.144.082-.215.243-.215l2.1.08a.361.361,0,0,1,.377.4l-.027,14.259a4.1,4.1,0,0,0,1.051-.445,3.073,3.073,0,0,1,1.213-.417q1.132-.029,1.159.888M18.49,41.512q-.054,1.293-1.213,1.294-.7,0-1.024-.862a2.428,2.428,0,0,0-1.967-1.456c-.181-.035-.181-.1,0-.189a4.768,4.768,0,0,1,2.183-.62q2.1,0,2.021,1.833m.135-4.743q-.027,1.293-1.213,1.32c-.468,0-.808-.287-1.024-.862a2.42,2.42,0,0,0-1.968-1.482c-.144-.037-.144-.09,0-.163a4.9,4.9,0,0,1,2.21-.646q2.049,0,2,1.833" fill="#fff"/><path d="M9.649,73.861a.33.33,0,0,1-.215.3,36.944,36.944,0,0,1-7.547,2.8c-.234.072-.387-.035-.459-.324L.916,74.481c0-.162.072-.242.216-.242L3.693,74.1V69.683l-1.321-.026a.284.284,0,0,1-.243-.108l-.674-.916a.211.211,0,0,1-.027-.082c0-.036.027-.053.081-.053H3.693V63.835H2.129a.284.284,0,0,1-.242-.108l-.674-.917c-.072-.09-.054-.134.054-.134H5.633a2.129,2.129,0,0,0,.89-.162,8.3,8.3,0,0,1,1.725-.673q1.131.026,1.132.969,0,1-1.132,1.025H6.442v4.447a6.552,6.552,0,0,1,1.644-.62q1.132.027,1.132.971c0,.665-.377,1-1.132,1.024H6.442v4.258q1.158-.081,3.019-.27c.071.019.134.091.188.216M24.554,81q0,1.023-1.132,1.024-2.534.027-11.185.027a.334.334,0,0,1-.27-.134L11.293,81a.207.207,0,0,1-.027-.081c0-.037.036-.054.108-.054h5.472V76.691H13.153a.31.31,0,0,1-.243-.135l-.673-.916a.187.187,0,0,1-.027-.081c0-.036.027-.053.081-.053h4.555l-.027-4.826H14.77v.163a.691.691,0,0,1-.782.781H12.8a.69.69,0,0,1-.782-.781V60.951a.691.691,0,0,1,.782-.782H23.584a.69.69,0,0,1,.781.782v9.757a.69.69,0,0,1-.781.781H22.425a.691.691,0,0,1-.782-.781V70.68H19.568v4.826h.943a2.013,2.013,0,0,0,.809-.163,7.849,7.849,0,0,1,1.725-.646q1.132,0,1.132.943,0,.971-1.132,1.025-.728.025-3.477.026v4.178h1.24a2.258,2.258,0,0,0,.889-.161,8.108,8.108,0,0,1,1.752-.648q1.106,0,1.105.944M16.819,64.859v-3.5H15.148a.334.334,0,0,0-.378.377v3.127Zm0,1.159H14.771v3.5h2.048Zm4.824-4.286c0-.251-.134-.377-.4-.377H19.568v3.5h2.075Zm0,4.286H19.568v3.5h2.075Z" fill="#fff"/><path d="M20.889,93.246a1.168,1.168,0,0,1-.392.862,1.321,1.321,0,0,1-.956.377q-.243.028-1.617.028a1.264,1.264,0,0,0-.728.242q-4.987,3.531-5.013,6.9a3.1,3.1,0,0,0,.781,2.4,6.171,6.171,0,0,0,2.48,1q.7.162.485.917l-.647,2.075a.707.707,0,0,1-.755.512,4.084,4.084,0,0,1-3.261-1.779,5.748,5.748,0,0,1-1.374-3.692q0-3.963,4.528-8.571H5.336a.288.288,0,0,1-.269-.135l-.755-1.187c-.054-.088-.027-.134.081-.134H16.765a2.277,2.277,0,0,0,.97-.189q.538-.241,1.037-.485a2.069,2.069,0,0,1,.876-.242q1.24.027,1.241,1.105M20,98.717a1.453,1.453,0,0,1,.081.459c0,.665-.306,1.014-.917,1.051a.84.84,0,0,1-.889-.647,2,2,0,0,0-1.644-1.24q-.162-.054,0-.162a3.083,3.083,0,0,1,1.671-.512q1.4,0,1.7,1.051m2.372-1.509a1.443,1.443,0,0,1,.081.458.936.936,0,0,1-.917,1.078.907.907,0,0,1-.889-.674A2,2,0,0,0,19,96.83c-.108-.018-.108-.071,0-.161a3.21,3.21,0,0,1,1.671-.485q1.4,0,1.7,1.024" fill="#fff"/><path d="M21.832,125.007q0,6.334-6.819,6.495a12.6,12.6,0,0,1-5.687,4.986.4.4,0,0,1-.539-.08q-.135-.243.189-.512a14.193,14.193,0,0,0,3.773-4.8,5.345,5.345,0,0,1-3.4-3.126.514.514,0,0,1,0-.513q.188-.269.458,0a5.463,5.463,0,0,0,3.612,1.86,21.5,21.5,0,0,0,.566-4.609,29.271,29.271,0,0,0-.081-3.234,10.3,10.3,0,0,0-3.665,2.857,20.554,20.554,0,0,0-2.83,4.259c.017.4.044.764.08,1.1q.081.756-.7.809l-1.212.081a.666.666,0,0,1-.809-.727q-.135-3.666.188-9.757,0-.243.243-.216l2.291.107c.27.019.395.145.378.378q-.217,1.617-.486,4.555a15.259,15.259,0,0,1,6.388-4.8q-.216-2.209-.566-4.312-.027-.216.216-.243l1.968-.188a.394.394,0,0,1,.458.35q.268,1.509.539,3.908a4.925,4.925,0,0,1,3.827,1.213,5.3,5.3,0,0,1,1.617,4.151m-2.668,0q0-3.585-2.615-3.936a26.657,26.657,0,0,1,.162,3.532,16.822,16.822,0,0,1-.7,4.608q3.155-.4,3.154-4.2" fill="#fff"/><path d="M23.5,150.145a4.9,4.9,0,0,1-2.857,4.986,17.612,17.612,0,0,1-6.63,1.536c-.306.019-.486-.08-.539-.3s.062-.36.35-.432a16.957,16.957,0,0,0,4.5-1.536,4.128,4.128,0,0,0,2.4-3.746q-.055-2.589-2.264-2.616T10.4,149.9q-.432.135-.539-.27l-.4-1.671q-.083-.35.215-.4a44.638,44.638,0,0,1,9.38-1.24,5.014,5.014,0,0,1,2.991,1.051,3.717,3.717,0,0,1,1.456,2.776" fill="#fff"/><path d="M18.624,170.871q0,1-1.239,1.024-.378.028-7.278.028-1.455,9.056-2.129,13.962a.69.69,0,0,1-.89.646l-1.32-.216a.64.64,0,0,1-.593-.889q.916-3.935,2.291-13.5H4.77a.332.332,0,0,1-.269-.135l-.674-.917c-.054-.089-.027-.135.081-.135H7.627q.351-2.478.674-4.8c.018-.143.108-.207.27-.189l2.075.324c.27.036.377.18.324.431l-.7,4.231h4.609a2.266,2.266,0,0,0,.89-.161,7.621,7.621,0,0,1,1.724-.674q1.132.027,1.132.97M21.455,185.1c.089.4-.108.665-.594.809a10.935,10.935,0,0,1-2.965.269q-4.016,0-4.527-3.746c-.018-.2.035-.323.161-.378a.271.271,0,0,1,.405.109,3.377,3.377,0,0,0,3.234,1.59,8.487,8.487,0,0,0,3.1-.647c.468-.179.746-.045.836.4Zm.188-9.11q0,.971-1.24,1.052a1.494,1.494,0,0,0-.727.216q-1.4.809-3.369,2.156-.216.135-.351,0-.162-.135,0-.324l1.509-2.022H14.689a.327.327,0,0,1-.269-.135l-.7-.943c-.072-.089-.045-.135.081-.135h3.719a2.354,2.354,0,0,0,1.038-.228q.471-.229.97-.458a2.134,2.134,0,0,1,.876-.23q1.239,0,1.24,1.051" fill="#fff"/><path d="M13.45,196.779a36.917,36.917,0,0,0-2.668,4.447,2.015,2.015,0,0,0-.27,1,2.311,2.311,0,0,0,.135.688,2.327,2.327,0,0,1,.135.66q0,1.052-1.241,1.024-1.266,0-1.644-1.671a10.963,10.963,0,0,1-.188-2.264,59.824,59.824,0,0,1,.808-8.086.22.22,0,0,1,.243-.216l1.914.135q.431.027.35.431a41.632,41.632,0,0,0-.7,5.93c.018.252.108.377.27.377a.385.385,0,0,0,.269-.135l2.183-2.668c.126-.162.26-.188.4-.081q.161.135,0,.432m4.5,4.447a12.1,12.1,0,0,1-1.671,6.334A18.037,18.037,0,0,1,9.6,213.49q-.4.241-.621,0c-.126-.162-.071-.342.162-.539a21.511,21.511,0,0,0,5.014-6.146,14.794,14.794,0,0,0,1.185-5.687,37.7,37.7,0,0,0-.377-5.875.194.194,0,0,1,.189-.244l1.563-.161q.349-.054.431.324a25.757,25.757,0,0,1,.809,6.064" fill="#fff"/><path d="M18.678,236.146q.081.755-.593.862a24.856,24.856,0,0,1-4.771.216q-5.094-.215-5.228-4.259a5.648,5.648,0,0,1,.674-2.937,11.727,11.727,0,0,1,2.263-2.75q-.135-.728-1.967-8.625c-.036-.144.027-.224.188-.242l1.941-.377a.359.359,0,0,1,.458.3q.836,4.123,1.429,7.088,1.1-.888,3.719-2.964a.235.235,0,0,1,.351.053l1.266,1.348q.243.3-.107.513a45.806,45.806,0,0,0-5.93,4.257q-2.479,2.239-2.426,3.963.054,1.939,3.423,1.806a24.614,24.614,0,0,0,4.286-.485q.7-.135.809.62Z" fill="#fff"/><path d="M24.1,245.231a3.285,3.285,0,0,1-.9,2.452,3.363,3.363,0,0,1-2.467.889,3.494,3.494,0,0,1-2.52-.889,3.235,3.235,0,0,1-.929-2.452,3.168,3.168,0,0,1,.929-2.4,3.382,3.382,0,0,1,2.44-.889,3.515,3.515,0,0,1,2.493.889,3.118,3.118,0,0,1,.957,2.4m-1.375-.055q-.054-2.4-2.021-2.4a1.691,1.691,0,0,0-1.483.741,3.337,3.337,0,0,0-.054,3.464,1.758,1.758,0,0,0,1.537.781q2.1,0,2.021-2.588" fill="#fff"/></g></svg>