<svg xmlns="http://www.w3.org/2000/svg" width="182.953" height="161.16" viewBox="0 0 182.953 161.16"><g transform="translate(-653.222 -988.914)"><path d="M274.118,1118.983c3.216-13.794,17.438-24.549,17.438-24.549s24.347-17.548,30.9-25.511,12.983-20.663,12.983-20.663l8.29,6.52s13.252,6.974,22.224,6.452,27.214,1.162,27.214,1.162,22.224,6.452,31.242,18.351,14.46,17.874,15.513,34.592-9.586,41.185-30.731,54.277-70.462,26.322-100.8,18.48S267.587,1146.988,274.118,1118.983Z" transform="translate(392.028 -44.596)" fill="#fff"/><ellipse cx="10.101" cy="10.503" rx="10.101" ry="10.503" transform="translate(674.328 1108.682)" fill="#ffbad1"/><ellipse cx="10.101" cy="10.503" rx="10.101" ry="10.503" transform="translate(808.205 1069.494)" fill="#ffbad1"/><path d="M444.132,1120.077c-.512,21.989-13.6,51.678-73.029,68.237s-85.04-2.349-96.058-21.128c-12.182-20.761-7.3-44.6,1.126-60.014-3.843-1.008-7.92-3.056-9.931-5.193-7.429-7.9-6.553-21.315,1.957-29.973s21.431-9.275,28.86-1.379c1.731,1.839,3.361,5.266,4.348,8.746,4.722-3.417,9.688-6.507,14.868-9.607,7.169-4.292,10.1-13.517,11.853-19.029.266-.839.507-1.6.731-2.244h0a7.426,7.426,0,0,1,4.985-4.772h0a7.1,7.1,0,0,1,6.611,1.543c.505.445,1.079.977,1.715,1.566,4.166,3.862,11.141,10.324,19.41,10.314,5.688-.007,11.2.077,16.667.519a23.124,23.124,0,0,1-.372-9.552c2.637-10.7,14.125-16.884,25.657-13.81s18.744,14.239,16.107,24.94c-.68,2.759-3.028,6.409-5.706,9.232C428.747,1077.362,444.706,1095.563,444.132,1120.077Zm-36.22-45.835c-15.635-8.38-30.227-9.045-46.319-9.024-11.234.013-19.922-8.037-24.587-12.361-.379-.35-.732-.678-1.061-.977-.14.427-.288.893-.445,1.391-1.963,6.173-5.613,17.663-15.353,23.494-13.946,8.348-26.264,16.511-35.773,31.9-8.182,13.236-13.8,35.405-2.7,54.319,17.462,29.756,57.176,25.959,87.419,17.533s66.463-25.786,67.276-60.633C436.886,1097.732,421.363,1081.453,407.912,1074.242Z" transform="translate(392.028 -44.596)" fill="#251e1c"/><path d="M379.355,1150.372c-2.915-7.732-11.206-19.882-22.549-16.722s-12.288,17.884-11.094,26.095a3.775,3.775,0,0,0,4.267,3.275,3.879,3.879,0,0,0,3.161-4.436,37.792,37.792,0,0,1-.214-5.369,13.239,13.239,0,0,0,9.153.9,15.652,15.652,0,0,0,7.887-5.644,37.066,37.066,0,0,1,2.4,4.761,3.7,3.7,0,0,0,4.87,2.2A3.952,3.952,0,0,0,379.355,1150.372Z" transform="translate(392.028 -44.596)" fill="#251e1c"/><path d="M321.006,1118.324c-10.669.716-18.9,7.474-22.9,18.075a30.872,30.872,0,0,0-1.731,15.987c0,.088-.014.173-.008.262.568,8.681,8.256,25.536,33.294,27.187a5.591,5.591,0,0,0,1.876-.192,6.1,6.1,0,0,0-1.14-11.9,39.929,39.929,0,0,1-6.559-.953,26.721,26.721,0,0,0,16.987-24.641C341.329,1126.431,330.091,1117.715,321.006,1118.324Zm11.266,16.552a8.552,8.552,0,0,1-7.956,9.553,6.824,6.824,0,0,1-6.659-3.7,9.523,9.523,0,0,1-.739-8,8.883,8.883,0,0,1,6.492-5.662C327.575,1126.11,331.87,1129.215,332.272,1134.876Z" transform="translate(392.028 -44.596)" fill="#251e1c"/><path d="M408.4,1105.668c-8.567-7.1-18.943-8.673-28.527-3.745-8.161,4.2-13.7,17.586-5.7,30.933,10.361,17.289,33.42,15.969,41.287,4.207C421.215,1128.452,419.45,1114.823,408.4,1105.668Zm-13.893,13.653a7.186,7.186,0,0,1-3.989,6.662,8.2,8.2,0,0,1-11.484-4.136c-2.374-5.111-.147-10.034,3.922-11.367a8.515,8.515,0,0,1,8.344,1.528A9.36,9.36,0,0,1,394.508,1119.321Z" transform="translate(392.028 -44.596)" fill="#251e1c"/></g></svg>