<svg xmlns="http://www.w3.org/2000/svg" width="53.636" height="59.14" viewBox="0 0 53.636 59.14"><g transform="translate(-0.274)"><path d="M269.985,4858a20.3,20.3,0,0,0-4.1-2.125v-7.362c0-1.823-1.864-3.3-4.163-3.3h-26.8c-2.3,0-4.162,1.478-4.162,3.3v7.362a20.278,20.278,0,0,0-4.1,2.125c-2.626,1.823-6.073,4.688-4.924,16.406a63.834,63.834,0,0,0,10.346,28.759,2.987,2.987,0,0,0,2.492,1.187h27.506a2.986,2.986,0,0,0,2.491-1.187,63.834,63.834,0,0,0,10.346-28.759C276.058,4862.692,272.611,4859.827,269.985,4858Z" transform="translate(-221.226 -4845.216)" fill="#251e1c"/><text transform="translate(26.334 41.229)" fill="#fff" stroke="#fff" stroke-linecap="round" stroke-linejoin="round" stroke-width="0.47" font-size="24" font-family="RocknRollOne-Regular, RocknRoll One" letter-spacing="-0.06em"><tspan x="-23.12" y="0">15</tspan><tspan y="0" font-size="16">年</tspan></text></g></svg>