<svg xmlns="http://www.w3.org/2000/svg" width="53.637" height="59.14" viewBox="0 0 53.637 59.14"><g transform="translate(-632.472 -5109.668)"><path d="M102.6,4858a20.27,20.27,0,0,0-4.1-2.125v-7.362c0-1.823-1.864-3.3-4.162-3.3h-26.8c-2.3,0-4.162,1.478-4.162,3.3v7.362a20.277,20.277,0,0,0-4.1,2.125c-2.626,1.823-6.073,4.688-4.924,16.406a63.846,63.846,0,0,0,10.346,28.759,2.988,2.988,0,0,0,2.492,1.187H94.689a2.99,2.99,0,0,0,2.492-1.187,63.846,63.846,0,0,0,10.346-28.759C108.676,4862.692,105.229,4859.827,102.6,4858Z" transform="translate(578.354 264.452)" fill="#251e1c"/><text transform="translate(659.5 5151.896)" fill="#fff" stroke="#fff" stroke-linecap="round" stroke-linejoin="round" stroke-width="0.47" font-size="25" font-family="RocknRollOne-Regular, RocknRoll One" letter-spacing="-0.06em"><tspan x="-16.375" y="0">5</tspan><tspan y="0" font-size="17">年</tspan></text></g></svg>