<svg xmlns="http://www.w3.org/2000/svg" width="297.543" height="50.468" viewBox="0 0 297.543 50.468"><g transform="translate(-553.95 -5525.128)"><path d="M82.194,5589.709H75.53v4.58c0,1.66-1.508,2.585-3.057,2.585a1.471,1.471,0,0,1-1.549-1.282v-.336h-1.7v-1.66h3.735v-3.887H63.983v-1.576h8.978v-2.816H65.044v-1.575h7.917v-2.6s-5.433.566-7.025.566l-.573-1.555c1.846,0,11.97-1.344,13.52-2.436.573.188,2.356.714,2.356,1.449,0,.8-5.348,1.618-5.709,1.618v2.963h3.629a1.41,1.41,0,0,1,1.57-1.072,1.509,1.509,0,0,1,1.7,1.492c0,.861-.552,1.155-1.359,1.155H75.53v2.816h4.754a1.411,1.411,0,0,1,1.57-1.072c.935,0,1.7.484,1.7,1.471C83.553,5589.415,83.022,5589.709,82.194,5589.709Z" transform="translate(490.354 -45.453)" fill="#fff"/><path d="M93.269,5595.277l-.573-1.786c6.282-.147,10.761-2.857,10.761-6.871a3.536,3.536,0,0,0-3.863-3.8c-3.609,0-7.705,1.219-10.167,1.219a1.688,1.688,0,0,1-1.846-1.7,1.615,1.615,0,0,1,1.634-1.744,1.482,1.482,0,0,1,1.528,1.009c2,0,6.112-.484,8.957-.484a8.926,8.926,0,0,1,3.523.652,7.435,7.435,0,0,1-1.91-3.677.794.794,0,0,1,.87-.8.853.853,0,0,1,.849.925,1.287,1.287,0,0,1-.085.483,16.436,16.436,0,0,0,2.059,2.984l-.764.651a5.029,5.029,0,0,1,2.08,4.328C106.322,5592.125,100.506,5595.108,93.269,5595.277Zm13.5-13.195c-1.613-1.429-2.76-3.4-2.76-4.455a.806.806,0,0,1,.892-.819.91.91,0,0,1,.912.946,1.329,1.329,0,0,1-.1.482,11.242,11.242,0,0,0,2.08,2.985Z" transform="translate(490.354 -45.453)" fill="#fff"/><path d="M125.673,5596.958a93.382,93.382,0,0,0-12.522-8.8,1.5,1.5,0,0,1-.892-1.324,1.614,1.614,0,0,1,.913-1.365c4.393-2.48,9.3-5.085,10.379-5.988a1.137,1.137,0,0,1-.043-.378,1.289,1.289,0,0,1,1.38-1.283,2.108,2.108,0,0,1,1.91,1.912,1.337,1.337,0,0,1-.721,1.135c-1.91,1.239-5.264,2.542-10.74,5.484a.4.4,0,0,0-.255.315c0,.126.085.231.276.336a89.855,89.855,0,0,1,12.1,8.068Z" transform="translate(490.354 -45.453)" fill="#fff"/><path d="M139.4,5590.97c-1.995,0-3.247-1.219-3.247-3.719v-5.968a1.246,1.246,0,0,1-.807-1.155c0-1.051.87-1.3,1.783-1.3,1,0,1.528.442,1.528,1.365v7.1c0,.987.361,1.491,1.125,1.491.891,0,2.08-.861,3.354-2.31l1.655,1.533C142.712,5590.108,140.908,5590.97,139.4,5590.97Zm1.189,5.966-.807-1.7c4.84-.673,8.342-2.963,8.342-8.93v-5.042a1.257,1.257,0,0,1-.807-1.157c0-.693.425-1.3,1.741-1.3,1.061,0,1.57.421,1.57,1.366v6.24C150.629,5593.47,146.384,5596.055,140.59,5596.936Z" transform="translate(490.354 -45.453)" fill="#fff"/><path d="M174.9,5582.418v11.809a2.322,2.322,0,0,1-2.568,2.5,1.226,1.226,0,0,1-1.295-1.261v-.294h-1.358v-1.555h2.759v-11.64h-5.625a13.22,13.22,0,0,1-5.518,5.862l-1.146-1.177a11.044,11.044,0,0,0,3.948-4.685h-3.991v14.687h-2.483v-16.032c0-.672.679-.84,1.231-.84.446,0,1.1.1,1.231.609h4.585a15,15,0,0,0,.488-2.921h.764c.637,0,1.868.084,1.868.714a7.938,7.938,0,0,1-.4,2.207h5.157a1.4,1.4,0,0,1,1.274-.757c.955,0,1.8.442,1.8,1.493A1.551,1.551,0,0,1,174.9,5582.418Zm-4.967,10.632a1.216,1.216,0,0,1-1.294-1.156.714.714,0,0,1,.021-.21,11.5,11.5,0,0,0-2.483-2,17.06,17.06,0,0,1-4.818,4.119l-1.04-1.282c1.91-1.281,4.521-4.391,5.093-6.639.468,0,2.5,0,2.5.673a5.23,5.23,0,0,1-.934,2.038c1.359.44,4.266,1.386,4.266,3.13A1.235,1.235,0,0,1,169.938,5593.05Zm.489-5.359a1.293,1.293,0,0,1-1.38-1.133.658.658,0,0,1,.064-.295,11.762,11.762,0,0,0-3.1-2.374l.955-1.009c1.465.483,4.733,1.576,4.733,3.467A1.241,1.241,0,0,1,170.427,5587.691Z" transform="translate(490.354 -45.453)" fill="#fff"/><path d="M194.045,5593.365c-.467,1.7-2.293,2.9-4.839,2.9-3.121,0-5.243-1.387-5.243-3.783,0-2.332,2.186-3.8,5.243-3.8a6.41,6.41,0,0,1,2.568.5v-2.626H183.5c-1.146,0-1.549-.5-1.549-1.283,0-.84.509-1.365,1.634-1.365a1.271,1.271,0,0,1,1.422,1.071h6.771v-2.206H183.5c-1.146,0-1.549-.5-1.549-1.3,0-.82.509-1.387,1.634-1.387a1.286,1.286,0,0,1,1.422,1.093h6.771v-.757a1.076,1.076,0,0,1-.892-1.029c0-.526.361-1.177,1.677-1.177,1.21,0,1.634.525,1.634,1.2v1.766h6.135v1.6h-6.135v2.206h6.135v1.577h-6.135v4.432c1.189,1.282,4.161,2.27,7.09,2.27v2.332A13.154,13.154,0,0,1,194.045,5593.365Zm-4.86-2.942a2.083,2.083,0,1,0,2.4,2.059A2.128,2.128,0,0,0,189.185,5590.423Z" transform="translate(490.354 -45.453)" fill="#fff"/><path d="M219.084,5596.223c-3.014,0-4.372-1.723-4.881-5.842-.149-1.281-.4-1.785-1.422-1.785a6.629,6.629,0,0,0-.87.084c-.955,2.1-2.187,4.727-3.737,8l-2.143-1.093c6.07-13.364,6.58-14.371,6.77-15.4a1.129,1.129,0,0,1-.487-.923,1.281,1.281,0,0,1,1.443-1.261c1,0,1.846.4,1.846,1.533,0,.883-.382,1.892-2.844,7.291a9.083,9.083,0,0,1,1.147-.084c1.951,0,2.546.967,2.758,2.5.573,4.118,1.295,5.295,2.78,5.295,2.08,0,3.694-2.585,3.694-7.922h2.632C225.77,5592.714,223.478,5596.223,219.084,5596.223Z" transform="translate(490.354 -45.453)" fill="#fff"/><path d="M240.984,5596.517l-.616-1.6a7.509,7.509,0,0,0,5.944-7.775,6.1,6.1,0,0,0-6.2-6.219c-4.435,0-7.259,3.572-7.259,7.67,0,2.71.829,4.37,2.124,4.37,1.145,0,3.225-1.534,3.225-8.384a1.306,1.306,0,0,1-.657-1.219c0-.882.785-1.323,1.612-1.323,1.147,0,1.508.735,1.508,1.744,0,6.555-1.486,10.946-5.71,10.946-2.675,0-4.585-2.353-4.585-6.05,0-5.884,4.458-9.5,9.892-9.5,5.539,0,8.7,4.034,8.7,7.92A9.316,9.316,0,0,1,240.984,5596.517Z" transform="translate(490.354 -45.453)" fill="#fff"/><path d="M271.31,5581.053H257.216v2.857c0,4.706,0,9.329-3.184,13.194l-1.338-1.3c2.08-3.383,2.1-7.69,2.1-11.535V5579.6c0-.588.7-.8,1.188-.8.467,0,1.168.168,1.232.714H262.1v-1.386c0-.673.678-.82,1.23-.82s1.253.147,1.253.82v1.386H269.4c.128-.756.872-.987,1.55-.987.892,0,1.7.4,1.7,1.387C272.646,5580.758,272.1,5581.053,271.31,5581.053Zm-1.168,4.979h-5.009v2.648h3.035a1.6,1.6,0,0,1,1.443-.778,1.647,1.647,0,0,1,1.719,1.617,1.57,1.57,0,0,1-.764,1.325v5.82H268.04v-.9H260.7v1.03h-2.525v-7.942c0-.694.722-.841,1.273-.841.489,0,1.125.126,1.252.673h1.975v-6.368c0-.671.679-.839,1.23-.839s1.232.168,1.232.839v2.144h3.629a1.369,1.369,0,0,1,1.465-1.029,1.4,1.4,0,0,1,1.443,1.428C271.67,5585.759,270.927,5586.032,270.142,5586.032Zm-2.1,4.223H260.7v3.95h7.344Z" transform="translate(490.354 -45.453)" fill="#fff"/><path d="M285.081,5601.534l-2.316-2.019c4.84-4.247,8.748-10.375,8.748-21.5-1-.377-1.522-.891-1.522-1.884,0-1.1,1.071-1.952,3.354-1.952,2.006,0,2.7.856,2.7,1.884C296.042,5590.1,291.028,5596.707,285.081,5601.534Zm27.765,0c-5.947-4.827-11.1-11.23-11.1-25.338,0-1.027.553-2.02,2.524-2.02,1.763,0,2.939.719,2.939,1.815a1.645,1.645,0,0,1-1.106,1.746c0,10.923,4.183,17.361,9.024,21.64Zm-1.107-22.462a4.245,4.245,0,1,1,4.253-4.245A4.273,4.273,0,0,1,311.739,5579.072Zm0-6.265a2.062,2.062,0,0,0-2.074,2.02,2.087,2.087,0,0,0,2.074,2.02,2.02,2.02,0,0,0,0-4.04Z" transform="translate(490.354 -45.453)" fill="#fff"/><path d="M353.549,5582.291l1.21,16.539v.308c0,1.541-1,2.362-2.939,2.294l-5.635-.205-.07-3.014,3.216.1a.714.714,0,0,0,.829-.856l-1.071-15.1-2.8.035c-1.8,6.026-8.609,15.374-16.009,19.072l-1.625-2.192c6.085-3.458,11.272-11.367,13.035-16.845l-9.335.136c-1.522.035-2.456-.547-2.456-2.123,0-1.335.831-2.157,2.594-2.191,1.279,0,2.11.479,2.351,1.678l14.038-.171-.207-2.671a1.814,1.814,0,0,1-1.487-1.85c0-1.643,1.971-2.122,3.285-2.122,1.66,0,2.42.719,2.524,1.883l.38,4.691,7.365-.069.069,2.568Z" transform="translate(490.354 -45.453)" fill="#fff"/><path d="M72.141,5608.862c.35,0,.644.168.644.687,0,.448-.2.686-.644.686h-7.9a.585.585,0,0,1-.644-.673c0-.461.21-.7.644-.7Zm-3.166,10.6a.674.674,0,0,1-.771.742c-.56,0-.8-.266-.8-.742v-5.883H64.24a.586.586,0,0,1-.644-.673c0-.462.2-.7.644-.7h7.9c.35,0,.644.154.644.673,0,.475-.224.7-.644.7H68.975Z" transform="translate(490.354 -45.453)" fill="#fff"/><path d="M77.981,5615.908a3.491,3.491,0,0,1-3.614-3.628,3.746,3.746,0,0,1,3.866-3.866c1.429,0,4.132.714,4.132,5.085,0,3.95-1.989,6.472-5.267,6.472-1.456,0-1.667-.421-1.667-.869a.7.7,0,0,1,.687-.756c.154,0,.826.084.966.084,2.886,0,3.292-2.662,3.446-3.7A2.909,2.909,0,0,1,77.981,5615.908Zm-1.919-3.656a2.087,2.087,0,0,0,2.171,2.2,2.25,2.25,0,1,0,.014-4.5A2.165,2.165,0,0,0,76.062,5612.252Z" transform="translate(490.354 -45.453)" fill="#fff"/><path d="M88.388,5612.448a3.549,3.549,0,0,1,3.655,3.67,3.75,3.75,0,0,1-3.865,3.853c-1.99,0-4.147-1.331-4.147-4.974s2.185-6.583,5.393-6.583c.281,0,.883.042.883.771,0,.713-.378.742-.967.784-1.989.14-3.11,1.47-3.46,3.656A2.981,2.981,0,0,1,88.388,5612.448Zm-.2,1.485a2.245,2.245,0,0,0-2.38,2.143,2.306,2.306,0,0,0,2.338,2.354,2.127,2.127,0,0,0,2.2-2.284A2.041,2.041,0,0,0,88.191,5613.933Z" transform="translate(490.354 -45.453)" fill="#fff"/><path d="M96.82,5614.577a.708.708,0,1,1,0-1.415h.336c1.148,0,2.115-.6,2.115-1.652,0-1.135-1.022-1.555-1.877-1.555a3.524,3.524,0,0,0-2.059.658.9.9,0,0,1-.462.168.776.776,0,0,1-.715-.77.936.936,0,0,1,.574-.771,4.877,4.877,0,0,1,2.746-.826c2,0,3.474,1.2,3.474,2.955a2.516,2.516,0,0,1-1.555,2.354,2.9,2.9,0,0,1,2.213,2.857c0,1.583-1.191,3.391-4.426,3.391a6.939,6.939,0,0,1-2.858-.561.788.788,0,0,1,.112-1.541,2.48,2.48,0,0,1,.715.21,5.454,5.454,0,0,0,2,.351c2.143,0,2.773-1.149,2.773-2.032,0-.56-.294-1.821-2.689-1.821Z" transform="translate(490.354 -45.453)" fill="#fff"/><path d="M103.962,5615.621a.8.8,0,0,1,0-1.6h2.424a.8.8,0,1,1,0,1.6Z" transform="translate(490.354 -45.453)" fill="#fff"/><path d="M109.313,5611.313c0-1.428,1.092-2.9,3.348-2.9,2.241,0,3.347,1.471,3.347,2.9a2.658,2.658,0,0,1-1.148,2.2,3.2,3.2,0,0,1,1.765,2.941c0,2.144-1.807,3.517-3.964,3.517-2.172,0-3.965-1.388-3.965-3.517a3.2,3.2,0,0,1,1.765-2.941A2.64,2.64,0,0,1,109.313,5611.313Zm5.617,5.072a2.3,2.3,0,0,0-4.553,0,2.29,2.29,0,0,0,4.553,0Zm-.533-5.016a1.746,1.746,0,0,0-3.473,0,1.749,1.749,0,0,0,3.473,0Z" transform="translate(490.354 -45.453)" fill="#fff"/><path d="M118.389,5614.185c0-1.079,0-5.771,3.936-5.771s3.936,4.721,3.936,5.771,0,5.786-3.936,5.786S118.389,5615.25,118.389,5614.185Zm6.177,0c0-2.311-.49-4.23-2.241-4.23-1.779,0-2.241,1.975-2.241,4.23,0,2.339.49,4.245,2.241,4.245C124.132,5618.43,124.566,5616.385,124.566,5614.185Z" transform="translate(490.354 -45.453)" fill="#fff"/><path d="M135.239,5618.205a.771.771,0,1,1,0,1.541h-5.645c-.742,0-1.6,0-1.6-1.022,0-.631.322-.883,1.19-1.6a43.5,43.5,0,0,0,3.573-3.32,2.959,2.959,0,0,0,.98-2.045,1.747,1.747,0,0,0-1.751-1.807,3.111,3.111,0,0,0-2.185.98.732.732,0,0,1-.546.252.827.827,0,0,1-.8-.8c0-.63,1.513-1.975,3.5-1.975a3.248,3.248,0,0,1,3.474,3.277c0,1.163-.434,2.046-1.807,3.447-1.163,1.19-2.83,2.577-3.4,3.067Z" transform="translate(490.354 -45.453)" fill="#fff"/><path d="M144.9,5618.205a.771.771,0,1,1,0,1.541h-5.645c-.742,0-1.6,0-1.6-1.022,0-.631.322-.883,1.19-1.6a43.514,43.514,0,0,0,3.572-3.32,2.962,2.962,0,0,0,.981-2.045,1.747,1.747,0,0,0-1.751-1.807,3.111,3.111,0,0,0-2.185.98.735.735,0,0,1-.547.252.826.826,0,0,1-.8-.8c0-.63,1.513-1.975,3.5-1.975a3.249,3.249,0,0,1,3.475,3.277c0,1.163-.434,2.046-1.808,3.447-1.162,1.19-2.829,2.577-3.4,3.067Z" transform="translate(490.354 -45.453)" fill="#fff"/><path d="M157.159,5615.614a.734.734,0,0,1-.589.448c-.28,0-.364-.112-1.106-1.079v5.309c0,.518-.211.728-.756.728a.626.626,0,0,1-.687-.728v-4.51c-.827.813-1.022.868-1.261.868a.772.772,0,0,1-.7-.8c0-.336.042-.378.868-1.065a7.711,7.711,0,0,0,2.438-3.207c0-.225-.252-.225-.379-.225h-2.059c-.5,0-.714-.21-.714-.713a.618.618,0,0,1,.714-.66h1.093v-1.428c0-.56.252-.743.771-.743.574,0,.672.42.672.729v1.442h.294c.7,0,1.149.337,1.149.967a5.635,5.635,0,0,1-1.037,2.577,12.588,12.588,0,0,0,.826.981c.421.421.463.476.519.631.182-.813,1.008-.827,1.345-.827h4.874c.995,0,1.415.365,1.415,1.415v3.614c0,1.064-.434,1.415-1.415,1.415H158.56c-.953,0-1.4-.337-1.4-1.415Zm.28-6.122c-.238,0-.729-.014-.729-.63,0-.49.294-.644.729-.644h7.2c.238,0,.714.028.714.644,0,.546-.378.63-.714.63Zm7.032,2.886c0,1.022-.308,1.274-1.331,1.274H158.9c-1.009,0-1.331-.237-1.331-1.274v-.952c0-1.037.336-1.275,1.331-1.275h4.244c.981,0,1.331.224,1.331,1.275Zm-5.94,4.482h1.807v-1.442h-1.414a.344.344,0,0,0-.393.392Zm1.807,2.661V5617.9h-1.807v1.233a.342.342,0,0,0,.393.391Zm2.774-7.914a.343.343,0,0,0-.392-.391h-3.39c-.336,0-.393.2-.393.391v.561c0,.225.084.392.393.392h3.39a.343.343,0,0,0,.392-.392Zm.364,5.253v-1.05a.343.343,0,0,0-.392-.392h-1.471v1.442Zm0,1.037h-1.863v1.624h1.471a.342.342,0,0,0,.392-.391Z" transform="translate(490.354 -45.453)" fill="#fff"/><path d="M170.577,5619.116v-2.059h-.98c-1.009,0-1.415-.378-1.415-1.415v-5.323c0-1.051.42-1.4,1.415-1.4h2.633c.042-.111.21-.672.252-.784s.154-.336.672-.336c.337,0,.841.112.841.462a1.967,1.967,0,0,1-.2.658h3.333c.953,0,1.415.322,1.415,1.4v1.765c0,1.093-.462,1.415-1.415,1.415h-7.451v.672h9.833c.364,0,.588.14.588.532a.5.5,0,0,1-.588.547h-9.833v.294a.342.342,0,0,0,.392.391h7.984c.826,0,1.555.015,1.555,1.234a9.457,9.457,0,0,1-.532,2.928c-.421.77-1.135.77-2.227.77-.042,0-.687,0-.967-.028-.49-.042-.49-.574-.49-.673,0-.658.462-.672.644-.672.154,0,.924.027,1.092.027a.73.73,0,0,0,.771-.49,6.971,6.971,0,0,0,.224-1.54c0-.434-.21-.434-.574-.434h-5.561v2.059h1.554a.349.349,0,0,0,.393-.392v-.771c0-.49.252-.644.77-.644.687,0,.687.476.687.672v.924c0,1.234-.631,1.387-1.415,1.387h-5.449c-.994,0-1.415-.364-1.415-1.4v-1c0-.266.042-.672.742-.672.729,0,.729.461.729.672v.827a.342.342,0,0,0,.392.392Zm-.9-8.306h7.409v-.393c0-.266-.126-.393-.378-.393h-6.639a.346.346,0,0,0-.392.393Zm7.409.881h-7.409v.786h7.031c.225,0,.378-.1.378-.393Z" transform="translate(490.354 -45.453)" fill="#fff"/><path d="M182.413,5620.74a.859.859,0,0,1-.785-.84c0-.379.154-.448.925-.826a8.387,8.387,0,0,0,1.821-1.191c.392-.323.518-.406.728-.406a.8.8,0,0,1,.729.77C185.831,5618.85,183.155,5620.74,182.413,5620.74Zm6.5-3.712v3.25c0,.6-.266.729-.827.729-.532,0-.686-.28-.686-.729v-3.25h-3.7c-1.093,0-1.555-.406-1.555-1.568v-6.15c0-.644.323-.728.771-.728.588,0,.672.378.672.728v5.828a.477.477,0,0,0,.546.546h9.89c.686,0,.728.42.728.7,0,.588-.462.643-.714.643Zm4.678-3.6c0,1.064-.434,1.415-1.414,1.415h-5.968c-1.008,0-1.414-.365-1.414-1.415v-3.769c0-1.022.406-1.414,1.414-1.414h5.968c.98,0,1.414.35,1.414,1.414Zm-1.414-3.25v-.407a.343.343,0,0,0-.392-.391h-5.211a.342.342,0,0,0-.392.391v.407Zm0,1.765v-.8h-5.995v.8Zm-5.995.966v.435a.348.348,0,0,0,.392.392h5.211a.347.347,0,0,0,.392-.392v-.435Zm5,4.525c.2,0,.266.056.911.518a12.761,12.761,0,0,0,2.031,1.232c.308.141.6.281.6.645a.9.9,0,0,1-.826.883,6.672,6.672,0,0,1-2.228-1.247c-.406-.308-1.176-.9-1.176-1.246A.755.755,0,0,1,191.181,5617.435Z" transform="translate(490.354 -45.453)" fill="#fff"/><path d="M198.353,5613.316c.084-.406.154-.8.224-1.344h-1.639a.591.591,0,1,1,0-1.177h1.737c.042-.7.042-1.05.056-1.261h-1.457a.623.623,0,1,1,0-1.246h4.4c1.177,0,1.457.294,1.457,1.442v1.065h.462a.548.548,0,0,1,.547.6.541.541,0,0,1-.547.575h-.462v1.064c0,1.191-.308,1.443-1.457,1.443h-2.283a7.242,7.242,0,0,1-.42,1.051h2.661c1.037,0,1.555.35,1.555,1.555v2.058c0,1.206-.5,1.555-1.555,1.555h-2.506c-1.038,0-1.556-.336-1.556-1.555v-1.512c-.294.322-.448.49-.714.49a.789.789,0,0,1-.687-.77.773.773,0,0,1,.267-.546,7.106,7.106,0,0,0,1.568-2.326h-.728c-.224,0-.644,0-.644-.574s.462-.589.644-.589Zm3.4,3.993a.477.477,0,0,0-.546-.546h-1.722a.476.476,0,0,0-.547.546v1.541c0,.308.112.545.547.545h1.722c.392,0,.546-.181.546-.545Zm-.391-3.993a.325.325,0,0,0,.363-.364v-.98h-1.862c-.071.644-.141,1.05-.2,1.344Zm-1.345-3.782c-.028.715-.057,1.051-.057,1.261h1.765v-.9a.319.319,0,0,0-.363-.364Zm5.631,10.731a.613.613,0,0,1-.645.713c-.532,0-.714-.238-.714-.713v-10.619c0-1.078.462-1.415,1.415-1.415h2c.771,0,1.458.042,1.458,1.093a11.228,11.228,0,0,1-1.079,3.208,5.988,5.988,0,0,0-.308.729c0,.139.084.223.252.378a5.191,5.191,0,0,1,1.106,1.457,4.109,4.109,0,0,1,.406,1.848,2.569,2.569,0,0,1-.98,2.228,2.8,2.8,0,0,1-1.681.322c-.462,0-.925,0-.925-.784,0-.659.337-.659.659-.659.518,0,.673,0,.869-.112a1.272,1.272,0,0,0,.5-1.149,3.906,3.906,0,0,0-1.149-2.549c-.42-.462-.476-.546-.476-.841a2.31,2.31,0,0,1,.322-.938,12.637,12.637,0,0,0,.98-2.633c0-.225-.223-.238-.322-.238h-1.3a.352.352,0,0,0-.391.391Z" transform="translate(490.354 -45.453)" fill="#fff"/><path d="M216.842,5608.512c0-.21,0-.7.728-.7.7,0,.813.294.813.7V5619.2h3.138a.512.512,0,0,0,.574-.575v-7.83c0-.21,0-.729.742-.729.7,0,.826.295.826.729V5619c0,1.288-.559,1.639-1.652,1.639h-8.8c-1.092,0-1.653-.351-1.653-1.639v-8.209c0-.224,0-.729.729-.729.672,0,.812.267.812.729v7.83a.516.516,0,0,0,.589.575h3.151Z" transform="translate(490.354 -45.453)" fill="#fff"/><path d="M233.062,5620.307c0,.265-.014.742-.714.742-.589,0-.8-.21-.8-.7v-6.7h-2.535a.512.512,0,0,0-.575.575v5.141c0,.238-.014.714-.756.714-.672,0-.756-.378-.756-.714V5613.9c0-1.289.546-1.653,1.638-1.653h2.984v-1.471h-5.1c-.182,0-.7,0-.7-.715,0-.6.364-.714.7-.714h5.085v-.91c0-.392.168-.673.714-.673.519,0,.841.126.841.673v.91H238.2a.6.6,0,0,1,.687.672c0,.519-.182.757-.687.757h-5.14v1.471h3.04c1.092,0,1.652.364,1.652,1.653v4.426c0,1.583-.868,1.583-2.115,1.583-.994,0-1.485,0-1.485-.84,0-.686.42-.686.883-.686h.77c.35-.057.421-.281.421-.575v-3.586a.512.512,0,0,0-.575-.575h-2.591Z" transform="translate(490.354 -45.453)" fill="#fff"/><path d="M241.171,5609.814a.642.642,0,0,1-.742-.686c0-.574.378-.686.742-.686h11.753c.294,0,.714.056.714.644,0,.448-.126.728-.714.728h-4.133v1.78h2.619c1.108,0,1.653.364,1.653,1.638V5619c0,1.274-.545,1.639-1.653,1.639h-8.754c-1.093,0-1.653-.351-1.653-1.639v-5.772c0-1.26.532-1.638,1.653-1.638h1.751v-1.78Zm3.236,3.1h-1.443a.483.483,0,0,0-.546.547v5.295a.477.477,0,0,0,.546.546h8.125a.477.477,0,0,0,.546-.546v-5.295a.483.483,0,0,0-.546-.547h-2.3v2.844c0,.49.154.49.784.49.561,0,.617-.028.687-.868.028-.463.07-.7.532-.7a.536.536,0,0,1,.589.63c0,.07,0,1.569-.532,1.961-.323.238-.575.238-1.948.238-1.205,0-1.4-.406-1.4-1.471v-3.124H245.7v.252a7.022,7.022,0,0,1-.658,3.194c-.322.687-.994,1.611-1.484,1.611a.832.832,0,0,1-.785-.784.561.561,0,0,1,.238-.449,4.311,4.311,0,0,0,1.4-3.572Zm3.1-3.1H245.71v1.78H247.5Z" transform="translate(490.354 -45.453)" fill="#fff"/><path d="M255.542,5619.353c0-.406.112-.461,1.163-.98a14.148,14.148,0,0,0,7.046-8.46c.308-1.037.392-1.331.924-1.331.337,0,.9.21.9.742a15.617,15.617,0,0,1-3.389,6.794c-2.284,2.634-5.281,4.09-5.786,4.09A.883.883,0,0,1,255.542,5619.353Z" transform="translate(490.354 -45.453)" fill="#fff"/><path d="M270.684,5611.285a.552.552,0,0,0-.63.617v8.348a.635.635,0,0,1-.7.728c-.533,0-.785-.168-.785-.728v-8.433c0-1.512.519-1.932,1.919-1.932h3.222v-1.3a.639.639,0,0,1,.728-.729c.561,0,.813.2.813.729v1.3h3.25c1.387,0,1.933.406,1.933,1.932v7.13a1.774,1.774,0,0,1-.756,1.724,3.737,3.737,0,0,1-1.793.21,4.12,4.12,0,0,1-1.234-.071.731.731,0,0,1-.4-.7c0-.574.35-.728.84-.728.21,0,1.177.028,1.373,0,.35-.042.477-.294.477-.616V5611.9a.553.553,0,0,0-.631-.617h-2.955a8.06,8.06,0,0,0,3.039,5.043c.266.225.406.393.406.673a.88.88,0,0,1-.784.868c-.2,0-.421-.014-1.261-.854a8.731,8.731,0,0,1-2.228-3.586,8.1,8.1,0,0,1-1.583,2.941c-.181.2-1.386,1.457-2.016,1.457a.837.837,0,0,1-.757-.854c0-.336.238-.533.49-.729a6.253,6.253,0,0,0,2.578-3.348,8.914,8.914,0,0,0,.392-1.611Z" transform="translate(490.354 -45.453)" fill="#fff"/><path d="M290.069,5618.205a.771.771,0,1,1,0,1.541h-5.644c-.743,0-1.6,0-1.6-1.022,0-.631.322-.883,1.192-1.6a43.692,43.692,0,0,0,3.571-3.32,2.955,2.955,0,0,0,.98-2.045,1.747,1.747,0,0,0-1.751-1.807,3.113,3.113,0,0,0-2.184.98.734.734,0,0,1-.547.252.826.826,0,0,1-.8-.8c0-.63,1.513-1.975,3.5-1.975a3.248,3.248,0,0,1,3.474,3.277c0,1.163-.435,2.046-1.807,3.447-1.163,1.19-2.83,2.577-3.4,3.067Z" transform="translate(490.354 -45.453)" fill="#fff"/><path d="M299.985,5619.214c0,1.667-.868,1.667-2.423,1.667a8.426,8.426,0,0,1-1.47-.057.685.685,0,0,1-.561-.742c0-.742.532-.742.967-.742.21,0,1.12.013,1.3.013s.63-.027.63-.559v-8.909H293.29a.621.621,0,0,1-.728-.687c0-.532.182-.77.728-.77h11.725a.621.621,0,0,1,.728.686c0,.546-.2.771-.728.771h-5.03Z" transform="translate(490.354 -45.453)" fill="#fff"/><path d="M318.993,5618.989c0,1.289-.546,1.64-1.639,1.64H310.1c-1.079,0-1.639-.337-1.639-1.64v-8.965c0-1.26.518-1.652,1.639-1.652h7.255c1.107,0,1.639.378,1.639,1.652Zm-9.035-7h7.522v-1.667a.492.492,0,0,0-.545-.56h-6.416a.5.5,0,0,0-.561.56Zm0,1.288v2.284h7.522v-2.284Zm0,3.558v1.863a.494.494,0,0,0,.561.547h6.416a.488.488,0,0,0,.545-.547v-1.863Z" transform="translate(490.354 -45.453)" fill="#fff"/><path d="M324.287,5611.243a.969.969,0,0,1-.518.21c-.378,0-.7-.476-.7-.811,0-.295.225-.449.449-.6l1.877-1.275a1.592,1.592,0,0,1,.9-.35c.855,0,.855.658.855,1.051v9.707c0,.476-.224.8-.84.8-.7,0-.855-.379-.855-.8v-8.713Z" transform="translate(490.354 -45.453)" fill="#fff"/><path d="M329.694,5614.185c0-1.079,0-5.771,3.936-5.771s3.936,4.721,3.936,5.771,0,5.786-3.936,5.786S329.694,5615.25,329.694,5614.185Zm6.177,0c0-2.311-.49-4.23-2.241-4.23-1.778,0-2.241,1.975-2.241,4.23,0,2.339.49,4.245,2.241,4.245C335.437,5618.43,335.871,5616.385,335.871,5614.185Z" transform="translate(490.354 -45.453)" fill="#fff"/><path d="M339.61,5615.621a.8.8,0,0,1,0-1.6h2.423a.8.8,0,1,1,0,1.6Z" transform="translate(490.354 -45.453)" fill="#fff"/><path d="M351,5618.205a.771.771,0,1,1,0,1.541h-5.644c-.744,0-1.6,0-1.6-1.022,0-.631.322-.883,1.191-1.6a43.677,43.677,0,0,0,3.572-3.32,2.955,2.955,0,0,0,.98-2.045,1.747,1.747,0,0,0-1.751-1.807,3.113,3.113,0,0,0-2.185.98.73.73,0,0,1-.546.252.825.825,0,0,1-.8-.8c0-.63,1.512-1.975,3.5-1.975a3.247,3.247,0,0,1,3.473,3.277c0,1.163-.434,2.046-1.806,3.447-1.163,1.19-2.83,2.577-3.4,3.067Z" transform="translate(490.354 -45.453)" fill="#fff"/><path d="M357.482,5612.448a3.55,3.55,0,0,1,3.657,3.67,3.751,3.751,0,0,1-3.867,3.853c-1.989,0-4.146-1.331-4.146-4.974s2.186-6.583,5.393-6.583c.28,0,.882.042.882.771,0,.713-.378.742-.966.784-1.989.14-3.11,1.47-3.459,3.656A2.978,2.978,0,0,1,357.482,5612.448Zm-.2,1.485a2.246,2.246,0,0,0-2.381,2.143,2.307,2.307,0,0,0,2.339,2.354,2.126,2.126,0,0,0,2.2-2.284A2.04,2.04,0,0,0,357.286,5613.933Z" transform="translate(490.354 -45.453)" fill="#fff"/></g></svg>