<svg xmlns="http://www.w3.org/2000/svg" width="112.756" height="198.392" viewBox="0 0 112.756 198.392"><g transform="translate(-157.623 -323.774)"><g transform="translate(3.508 -6.074)"><path d="M180.38,406.161c5.076-4.278,6.875-6.214,6.875-7.4a2.275,2.275,0,0,0-2.324-2.216c-1.777,0-11.639,4.639-13,5.359-4.792,2.508-5.033,6.433-5.033,7.195a3.37,3.37,0,0,0,3.164,3.48C172.676,412.582,174.748,410.939,180.38,406.161Z" fill="#fff"/><path d="M165.733,379.989a13.033,13.033,0,0,0,4.336-.878c1.039-.319,5.252-1.735,7.913-2.632l1.9-.637c4.341-1.376,5.369-1.7,5.369-3.662,0-1.585-1.183-2.53-3.169-2.53-2.013,0-7.875.533-13.352,1.058-1.28.1-7.533.83-7.533,5.694A4.3,4.3,0,0,0,165.733,379.989Z" fill="#fff"/><path d="M173.057,349.536l.267.065c.075.013.434.091.975.208,4.588.988,10.038,2.12,11.478,2.12a2.4,2.4,0,0,0,2.639-2.216c0-1.941-2.371-3.121-3.785-3.828v0c-4.416-2.209-10.589-5.143-13.2-5.143s-4.642,1.623-4.642,3.7C166.787,347.978,170.867,348.993,173.057,349.536Z" fill="#fff"/><path d="M192.919,349.183l8.229-.843c1.975-.2,7.056-.461,9.224-.364l.086,3.2-.2,8.6-10.66.07a4.112,4.112,0,0,1-2.356-.613l-.321-.091a4.7,4.7,0,0,0-1.333-.247c-1.783,0-3.689,1.162-3.689,4.431,0,.589.14,2.2.3,4.079.156,1.823.332,3.89.332,4.583l.209,15.058-.316,13.676-.61,8.732a26.76,26.76,0,0,0-.552,3.03,3.42,3.42,0,0,0,3.486,3.587,20.9,20.9,0,0,0,2.66-.4c.782-.141,1.848-.337,2.1-.337l9.375-.211h18.765l14.337.211c.161.011.739.113,1.451.23a34.5,34.5,0,0,0,3.63.509,3.934,3.934,0,0,0,4.01-4.122l-.1-8.323.1-23.4.316-12.255c0-.294.187-1.413.342-2.31a24.223,24.223,0,0,0,.4-2.859c0-2.179-1.574-3.587-4.01-3.587a8.8,8.8,0,0,0-1.911.474,15.367,15.367,0,0,1-1.772.477l-10.943-.1-.027-.1.295-11.384,3.447.085,9.68,1.052c.407.041,1.381.228,2.484.434a38.285,38.285,0,0,0,4.658.731c1.044,0,4.588-.586,6.414-8.162a.735.735,0,0,0-.718-.913h-.01l-7.656.107-16.688-.739-8.432-.211c-2.415-.07-10.949,0-17.8.053-3.3.027-6.109.051-7.431.051-.391,0-1.574-.048-2.827-.1-1.43-.056-2.939-.112-3.5-.112-4.6,0-7.805,2.778-7.805,5.273a2.8,2.8,0,0,0,.894,2.174C189.648,349.368,191.575,349.314,192.919,349.183Zm50.133,30.57a24.011,24.011,0,0,1-2.634.129,51.549,51.549,0,0,1-6.676-.207c-.456-.283-.5-.779-.5-3.161l.1-9.8,9.61.377Zm-17.3-13.256v4.6l-.316,9.717c-.011.156-.091.528-.177.929a9.552,9.552,0,0,0-.246,1.51,3.158,3.158,0,0,0,3.266,3.376l14.76.093-.182,7.5H230.925l-30.372-.1.081-7.365c1.74,1.636,3.656,3.25,5.6,3.25,2.934,0,7.87-6.871,9.787-13.614.273-.964.771-4.174,1.515-9.809Zm-25.313,3.681v-3.365l9.294-.3c-.053,5.485-3.678,14.054-9.2,16.616Zm.1,30.586c.594-.011,1.456-.027,2.339-.046,1.36-.026,2.768-.056,3.255-.056h12.014l23.428.319a11.257,11.257,0,0,1,1.162.04c-.005,3.707-.032,6.39-.08,7.613a3.638,3.638,0,0,1-.974.15c-.707,0-4.171-.212-4.856-.311a.663.663,0,0,0-.1-.005h-36.6C200.152,406.915,200.318,402.608,200.543,400.764Zm25.318-40.82h-7.592a1.491,1.491,0,0,1-.3-.024l.289-12c.525-.056,1.274-.11,1.8-.11a39.967,39.967,0,0,1,5.8.2Z" fill="#fff"/><path d="M258.658,477.48a87.7,87.7,0,0,1-10.435,1.047c-.444,0-1.788-.048-3.2-.1-1.579-.056-3.244-.112-3.838-.112h-.006l-9.4-.316-10.354-.2v-7.278l18.332.415c1.44.048,2.478-.073,3.217-.787,1.13-1.1,1.13-3.172,1.13-8.181,0-.468.187-2,.353-3.346.2-1.641.386-3.188.386-3.828a3.636,3.636,0,0,0-3.587-3.587,17.221,17.221,0,0,0-2.345.292l-.2.035a.974.974,0,0,0-.2.064,14.746,14.746,0,0,1-1.67.559l-15.831-.315-24.162-.1c-.862,0-3.384.072-6.007.147-2.827.083-5.771.169-6.863.169a6.083,6.083,0,0,1-2.854-.779.474.474,0,0,0-.246-.064c-.091-.016-.257-.07-.445-.129a4.876,4.876,0,0,0-1.306-.294,3.376,3.376,0,0,0-3.169,3.375c0,.5.123,1.783.257,3.146.128,1.3.273,2.784.273,3.29v8.523l-.53,8.943c-.289,5-2.211,12.485-5.75,17.1-2.6,3.325-6.6,5.94-11.891,7.774a.735.735,0,0,0-.375,1.105,26.428,26.428,0,0,0,2.463,2.394c.83.771,1.654,1.536,2.061,1.948a11.464,11.464,0,0,0,4.738,1.58c1.4,0,14.268-6.045,16.249-27.778l.84-9.11.081-1.871,16.066-.586,13.192-.1c.161,5.014.022,6.28-.252,7.281l-13.127.2c-7.693.112-15.644.23-15.644,5.062,0,1.957,2.024,2.848,3.9,2.848.712,0,3.325-.313,5.525-.589l9.744-.827c-4.208,20.529-14.573,24.844-24.841,27.491a.739.739,0,0,0-.37,1.2l.2.239c3.421,3.945,5.139,5.924,8.684,5.924,2.949,0,9.765-6.042,11.794-7.9,4-3.793,5.83-7.335,8.839-13.665,2.859-.273,6.917-.375,9.84-.375l13.626.206.706.1c-.08.418-.182.945-.294,1.529-.429,2.184-1,5.136-1.146,6.049l-1.376,7.616c-.069.476-.658,4.693.867,6.47a2.261,2.261,0,0,0,1.767.814c1.451,0,3.266-1.389,3.78-3.951l2.72-12.054c.043-.126.176-.656.353-1.344.278-1.084.659-2.578.916-3.4,1.584-4.663,1.723-5.263,1.723-6.251a3.325,3.325,0,0,0-3.48-3.375,8.491,8.491,0,0,0-2.27.68,14.384,14.384,0,0,1-1.739.586H210.067c.321-1.657,1.119-5.306,1.553-6.673l19.139-.078,9.407.739c1.012.056,4.39.8,7.1,1.4a42.823,42.823,0,0,0,4.648.924c4.02,0,7.377-6,7.6-9.126a.743.743,0,0,0-.241-.6A.755.755,0,0,0,258.658,477.48Zm-22.165-19.107-.262,6.32-16.811-.3-34.906.308v-6.229c2.27-.334,7.377-.511,8.962-.511h16.762Z" fill="#fff"/><path d="M172.168,448.359c.706,0,2.677-.174,4.759-.362s4.23-.377,4.963-.377l15.392-.316,41.326.1,9.171.212a4.5,4.5,0,0,0,3.469-.988,2.551,2.551,0,0,0,.777-1.86c0-3.494-4.835-3.582-10.96-3.7l-10.67-.208c-.289,0-1.82.013-3.688.034-2.9.03-6.612.07-7.7.07H185.884c-.359,0-1.9-.1-3.646-.209-2.388-.15-5.091-.318-5.953-.318-6.832,0-8.652,3.049-8.652,4.853C167.633,446.7,168.42,448.359,172.168,448.359Z" fill="#fff"/><path d="M242.527,528.24H178.458a24.376,24.376,0,0,1-24.343-24.349V354.2a24.375,24.375,0,0,1,24.343-24.349h64.069A24.376,24.376,0,0,1,266.871,354.2V503.891A24.376,24.376,0,0,1,242.527,528.24ZM178.458,333.687a20.534,20.534,0,0,0-20.51,20.51V503.891a20.535,20.535,0,0,0,20.51,20.51h64.069a20.535,20.535,0,0,0,20.51-20.51V354.2a20.534,20.534,0,0,0-20.51-20.51Z" fill="#fff"/></g></g></svg>