<svg xmlns="http://www.w3.org/2000/svg" width="598.981" height="24.533" viewBox="0 0 598.981 24.533"><g transform="translate(-647 -627)"><path d="M24.92,12.994a7.444,7.444,0,0,0-1.644,1.374,7.782,7.782,0,0,0-.62,1.052.33.33,0,0,1-.539.081,18.9,18.9,0,0,1-6.361-8.517l-6.711.027-.028.4q-.4,5.9-8.6,10.215a.249.249,0,0,1-.351-.081.264.264,0,0,1,.054-.4Q5.541,12.67,6.106,7.388A45.058,45.058,0,0,0,6.3,2.239a.679.679,0,0,1,.754-.781H20.607a.691.691,0,0,1,.782.781l-.027,4.826q0,.809-.781.781l-1.187-.027c-.556-.018-.791-.278-.7-.782V6.984H16.942q2.075,2.829,7.9,5.713c.143.073.171.171.081.3M20.149,23.048q0,1.025-1.132,1.023-1.7.029-11.833,0a.286.286,0,0,1-.242-.107l-.674-.916c-.072-.091-.053-.135.054-.135H16.43a2.121,2.121,0,0,0,.889-.162,8.387,8.387,0,0,1,1.725-.674q1.105.027,1.1.971m-2.21-3.234a.691.691,0,0,1-.782.781H16a.7.7,0,0,1-.782-.809V19.57H11.632v.244a.691.691,0,0,1-.782.781H9.665a.691.691,0,0,1-.782-.781l.027-7.143a.691.691,0,0,1,.781-.782h7.466a.691.691,0,0,1,.782.782Zm.782-16.792c-.09-.252-.208-.378-.351-.378H9.556a.333.333,0,0,0-.376.378q0,1.507-.054,2.8L18.694,5.8Zm-3.5,12.047-.027-1.617q0-.4-.378-.4H12.036a.357.357,0,0,0-.4.4v1.617Zm0,1.186H11.632v2.156h3.585Z" transform="translate(647 627)" fill="#fff"/><path d="M37.81,9.409a.691.691,0,0,1-.782.782H35.843q-.7,0-.7-.674V9.49H32.716V22.239a.691.691,0,0,1-.782.782H30.748a.691.691,0,0,1-.781-.782V2.267a.691.691,0,0,1,.781-.782h6.28a.691.691,0,0,1,.782.782Zm-2.75-4.5V3.048c0-.27-.126-.4-.377-.4H33.094c-.252,0-.378.134-.378.4v1.86Zm0,1.16H32.715V8.332H35.06ZM44.926,21a.69.69,0,0,1-.782.781H43.2A.69.69,0,0,1,42.419,21v-.216H39.67v.162a.691.691,0,0,1-.781.782h-.944a.691.691,0,0,1-.782-.782V13.8a.691.691,0,0,1,.782-.782h6.2a.691.691,0,0,1,.782.782ZM42.419,16.31V14.584q0-.4-.377-.4H40.047q-.376,0-.377.4V16.31Zm0,1.185H39.67v2.1h2.749ZM52.391,1.89q-.054,3.665.054,9.433.108,6.416-.135,9.46a4.835,4.835,0,0,1-.727,2.453,3.907,3.907,0,0,1-2.21,1.294,1.283,1.283,0,0,1-1.455-.97q-.164-.54-.917-.539l-2.318-.028c-.144,0-.225-.08-.243-.242a.25.25,0,0,1,.189-.269l3.638-.7a1.686,1.686,0,0,0,1.079-.539A2.187,2.187,0,0,0,49.615,20L49.589,9.059H47.3c-.054.557-.28.836-.674.836H45.357a.692.692,0,0,1-.782-.783V1.862a.691.691,0,0,1,.782-.781h6.28q.753,0,.754.809m-2.749.754q0-.377-.458-.377H47.675q-.351,0-.351.377V4.558h2.318Zm-.027,3.073H47.324V7.9h2.291Z" transform="translate(647 627)" fill="#fff"/><path d="M73.814,12.806A7.8,7.8,0,0,1,71.9,18.035q-2.426,2.586-8.086,3.666c-.323.053-.53-.019-.619-.216q-.108-.3.349-.458,7.332-2.859,7.521-8.086a5.425,5.425,0,0,0-1.132-3.963Q68.5,7.442,65.27,7.55a5.451,5.451,0,0,0-4.043,1.941A5.441,5.441,0,0,0,59.771,13.1a2.819,2.819,0,0,0,.351,1.671,1.051,1.051,0,0,0,.943.512q1.158-.026,2.237-2.209a20.516,20.516,0,0,0,1.617-5.122c.037-.179.163-.243.377-.189l1.538.3a.405.405,0,0,1,.349.512,17.673,17.673,0,0,1-2.075,6.253q-1.833,3.126-4.313,3.154a2.116,2.116,0,0,1-1.926-1.132,6.41,6.41,0,0,1-.715-3.343,7.2,7.2,0,0,1,2.372-5.633,8.146,8.146,0,0,1,5.525-2.048,8.046,8.046,0,0,1,5.66,1.805,6.262,6.262,0,0,1,2.1,5.176" transform="translate(647 627)" fill="#fff"/><path d="M90.359,8.843a12.572,12.572,0,0,1-2.345,5.364,19,19,0,0,1-6.82,4.987.323.323,0,0,1-.485-.135.369.369,0,0,1,.109-.513A18.9,18.9,0,0,0,85.4,13.452a17.717,17.717,0,0,0,1.913-5.309.216.216,0,0,1,.269-.216l2.481.485c.251.054.349.2.3.431m11.508,3.666a3.552,3.552,0,0,1,.3,1.455q0,2.022-1.375,2.211c-.179.018-.332.026-.458.026q-1.05,0-1.374-1.536a8.92,8.92,0,0,0-1-2.8,10,10,0,0,0-2.695-2.776q-.431-.324-.108-.62a.862.862,0,0,1,.647-.054q4.636.89,6.064,4.1m.971-6.711a2.022,2.022,0,0,1-4.043,0,1.987,1.987,0,0,1,.593-1.442,1.984,1.984,0,0,1,2.857,0,1.991,1.991,0,0,1,.593,1.442m-.916,0a1.1,1.1,0,0,0-1.1-1.105,1.03,1.03,0,0,0-.755.323,1.065,1.065,0,0,0-.324.782,1.107,1.107,0,0,0,1.079,1.078,1.062,1.062,0,0,0,.781-.324,1.032,1.032,0,0,0,.324-.754" transform="translate(647 627)" fill="#fff"/><path d="M124.019,9.382q0,1-1.213,1.024-.324.029-3.989.028,0,3.529.054,8.112a3.518,3.518,0,0,1-.809,2.372,3.836,3.836,0,0,1-2.452,1.348c-.18.017-.333.027-.458.027q-.756,0-.89-.593a1,1,0,0,0-1.159-.782h-1.779c-.18,0-.279-.071-.3-.216a.219.219,0,0,1,.188-.3l3.288-.62a1.97,1.97,0,0,0,1.187-.5,2.267,2.267,0,0,0,.3-1.28q0-.646.027-4.285-2.643,3.936-9.622,6.711a.367.367,0,0,1-.513-.161.33.33,0,0,1,.135-.486,31.257,31.257,0,0,0,5.9-4.689,18.55,18.55,0,0,0,3.154-4.663H109.06a.265.265,0,0,1-.242-.135l-.674-.917c-.072-.089-.055-.135.054-.135h7.842q-.025-2.856-.08-5.795a.527.527,0,0,1,.243-.242l2.263.054q.4.027.4.4-.027,3.1-.054,5.579H120.3a2.373,2.373,0,0,0,.89-.161,7.783,7.783,0,0,1,1.725-.647q1.105,0,1.1.943" transform="translate(647 627)" fill="#fff"/><path d="M138.622,11.673c.126.109.126.261,0,.459a58.934,58.934,0,0,0-3.261,5.606,2.321,2.321,0,0,0-.27,1.7q.324,1.078.324,1.132a1.143,1.143,0,0,1-1.186,1.213,1.577,1.577,0,0,1-1.159-.512,3.458,3.458,0,0,1-.89-1.752,18.053,18.053,0,0,1-.3-3.666q0-2.237.351-6.36.216-2.642.27-4.232c0-.233.126-.342.377-.324l2,.135a.335.335,0,0,1,.35.431q-.189,2.346-.431,4.043a38.275,38.275,0,0,0-.377,5.2,7.064,7.064,0,0,0,.081,1.24c.017.18.08.269.188.269.09,0,.206-.1.351-.3q.969-1.428,3.072-4.2c.18-.216.351-.242.512-.081m13.072-3.126q0,1-1.239,1.025h-2.7v7.222q1.105.352,3.5,1.268a.659.659,0,0,1,.4.646,1.246,1.246,0,0,1-.081.432l-.567,1.32a.622.622,0,0,1-.593.405.87.87,0,0,1-.485-.162,18.813,18.813,0,0,0-2.506-1.59q-1.349,3.018-5.121,2.883-2.426-.079-2.4-3.288a2.713,2.713,0,0,1,.984-2.277,3.877,3.877,0,0,1,2.708-.66,10.55,10.55,0,0,1,1.375.242q.054-4.178.081-6.441h-3.477a.333.333,0,0,1-.243-.109l-.673-.916c-.054-.09-.037-.134.053-.134h4.34q0-2.939-.108-5.284a.628.628,0,0,1,.216-.216l2.264.109a.384.384,0,0,1,.4.431l-.081,4.96h.162a2.307,2.307,0,0,0,.917-.163,7.573,7.573,0,0,1,1.724-.673q1.133.027,1.132.97m-6.792,9.6a5.872,5.872,0,0,0-2.372-.512q-1.239,0-1.239,1.159,0,1,.862,1.051a2.655,2.655,0,0,0,1.994-.511,2,2,0,0,0,.755-1.187" transform="translate(647 627)" fill="#fff"/><path d="M162.321,21.727q0,1.833-1.645,1.887a1.411,1.411,0,0,1-1.468-1.227,6.086,6.086,0,0,0-.795-1.9,4.129,4.129,0,0,0-2.156-1.456q-.3-.108,0-.216a5.735,5.735,0,0,1,2.21-.458,4.2,4.2,0,0,1,2.708.917,2.977,2.977,0,0,1,1.146,2.452" transform="translate(647 627)" fill="#fff"/><path d="M191.033,6.66V20.028q0,3.693-3.584,4.071-.513.054-.863-.728-.27-.621-1.267-.593l-1.671.054a.258.258,0,0,1-.3-.243c-.017-.144.064-.242.243-.3q2.183-.432,3.962-.89a1.064,1.064,0,0,0,.863-1.1q.054-1.7,0-12.829,0-.4-.377-.4h-5.418a12.494,12.494,0,0,1-.161,1.294,12.762,12.762,0,0,0,5.47,4.2q.216.109.081.27a6.9,6.9,0,0,0-1.239,1.105,7.5,7.5,0,0,0-.513.809.48.48,0,0,1-.188.189.415.415,0,0,1-.377-.108,11.6,11.6,0,0,1-3.747-5.176q-1.563,3.667-6.685,5.472a.293.293,0,0,1-.377-.135.224.224,0,0,1,.081-.35,11.233,11.233,0,0,0,3.962-3.8,8.455,8.455,0,0,0,.971-3.774h-4.771q-.405,0-.4.377l-.053,15.66a.691.691,0,0,1-.782.782h-1.159a.691.691,0,0,1-.781-.782l.054-16.441a.833.833,0,0,1,.781-.782h7.17q.026-1.239.026-4.393a.215.215,0,0,1,.243-.243l2.157.109q.4.026.4.4,0,1.644-.081,4.123h7.547a.691.691,0,0,1,.781.782m-4.8,12.129a4.22,4.22,0,0,0-1.187,1.1,5.807,5.807,0,0,0-.376.7.354.354,0,0,1-.54.081,8.445,8.445,0,0,1-2.587-3.235,9.728,9.728,0,0,1-5.552,3.665.321.321,0,0,1-.351-.107.23.23,0,0,1,.054-.323,14.643,14.643,0,0,0,3.127-3.154,9.922,9.922,0,0,0,1.482-4.151.217.217,0,0,1,.27-.216l2.1.324c.27.037.378.18.325.431a14.706,14.706,0,0,1-.755,2.48,17,17,0,0,0,3.934,2.129c.144.073.162.162.055.27" transform="translate(647 627)" fill="#fff"/><path d="M214.908,11.107q0,1-1.241,1.025-.35.026-3.5.026l.027,5.2q1.266.378,4.312,1.617a.623.623,0,0,1,.4.593,1.305,1.305,0,0,1-.109.486l-.62,1.347a.674.674,0,0,1-1.023.27,26.512,26.512,0,0,0-3.181-1.914,3.56,3.56,0,0,1-1.793,2.291,6.661,6.661,0,0,1-3.49.808q-2.7-.054-2.777-3.341a3.034,3.034,0,0,1,.783-2.264,2.7,2.7,0,0,1,1.643-.809,10.473,10.473,0,0,1,3.02.215q-.028-1.158-.028-4.5h-2.857a.306.306,0,0,1-.242-.135l-.674-.916c-.054-.089-.027-.134.081-.134h3.72V7.657h-4.152a.265.265,0,0,1-.242-.135l-.674-.916c-.072-.089-.053-.134.054-.134h4.986q0-2.481-.081-4.124a.612.612,0,0,1,.216-.216l2.291.135a.361.361,0,0,1,.377.4v3.8a2.813,2.813,0,0,0,.836-.162,7.782,7.782,0,0,1,1.725-.647q1.132,0,1.133.943c0,.665-.415,1.006-1.241,1.024q-.3.027-2.453.027v3.316h1.025a2.225,2.225,0,0,0,.889-.163,7.869,7.869,0,0,1,1.725-.646q1.133,0,1.133.943m-7.682,7.682a7.166,7.166,0,0,0-2.911-.566q-1.133.108-1.078,1.4.025,1.267,1.132,1.268a3.336,3.336,0,0,0,1.914-.513,2,2,0,0,0,.943-1.59" transform="translate(647 627)" fill="#fff"/><path d="M244.024,16.282a17.841,17.841,0,0,1-2.991,4.231,5.677,5.677,0,0,1-3.962,1.671,3.093,3.093,0,0,1-2.885-1.455A18.026,18.026,0,0,1,233,17.549q-.324-1.025-.755-1a4.173,4.173,0,0,0-2.1,1.212q-.646,1.752-1.374,3.881a.736.736,0,0,1-.755.539.528.528,0,0,1-.242-.053L226.5,21.7a.735.735,0,0,1-.511-.755.535.535,0,0,1,.053-.243q2.7-7.168,6.227-16.549c.071-.162.18-.216.323-.162l1.994.755a.335.335,0,0,1,.244.485q-.864,2.265-3.909,10.512a3.4,3.4,0,0,1,1.806-.781,1.679,1.679,0,0,1,1.671,1.1q.836,1.887.917,2.022.78,1.347,1.778,1.347a5.871,5.871,0,0,0,2.911-.674,14.457,14.457,0,0,0,3.532-2.911.281.281,0,0,1,.43-.026c.144.107.162.261.054.458" transform="translate(647 627)" fill="#fff"/><path d="M275.106,20.19a.36.36,0,0,1-.242.4,7.577,7.577,0,0,1-2.938.62,5.2,5.2,0,0,1-3.8-1.456.365.365,0,0,0-.566,0,6.971,6.971,0,0,1-4.825,1.941,7.5,7.5,0,0,1-4.231-1.078,4.335,4.335,0,0,1-1.968-3.72,4.654,4.654,0,0,1,1.186-3.153,14.9,14.9,0,0,1,2.641-2.291.333.333,0,0,0,.081-.539q-2.426-3.073-2.425-5.176a4.117,4.117,0,0,1,1.563-3.369,5.425,5.425,0,0,1,3.584-1.186,6.218,6.218,0,0,1,3.639,1,3.486,3.486,0,0,1,1.537,3.262,4.071,4.071,0,0,1-1.187,2.722A16.353,16.353,0,0,1,264,10.406c-.216.126-.242.288-.081.485.126.163.485.584,1.078,1.267q1.536,1.806,3.4,3.855a.248.248,0,0,0,.216.053.149.149,0,0,0,.161-.135,5.67,5.67,0,0,0,.082-2.937c-.073-.27.053-.413.376-.432l1.645-.107a.473.473,0,0,1,.458.161.669.669,0,0,1,.081.513,11.038,11.038,0,0,1-1.482,3.962.423.423,0,0,0,.053.592,11.471,11.471,0,0,0,1.78,1.537,5.087,5.087,0,0,0,3.018.673.291.291,0,0,1,.323.3m-8.167-1.833-5.228-5.929a.354.354,0,0,0-.566-.027,5.4,5.4,0,0,0-1.86,4.123,4.11,4.11,0,0,0,1.038,2.763,3.283,3.283,0,0,0,2.655,1.011,5.909,5.909,0,0,0,3.908-1.374.368.368,0,0,0,.053-.567M265.916,5.285q-.054-3.045-2.695-3.153a2.557,2.557,0,0,0-2.009.768,2.762,2.762,0,0,0-.821,2.034q0,1.754,2.263,4.5a.366.366,0,0,0,.567.054q2.721-2.184,2.695-4.2" transform="translate(647 627)" fill="#fff"/><path d="M302.552,20.379a6.784,6.784,0,0,0-2.184,1.429q-.189.243-.727.97a.346.346,0,0,1-.567.054,24.866,24.866,0,0,1-7.168-11.859,18.2,18.2,0,0,1-4.448,7.924,27.079,27.079,0,0,1-7.574,5.255.3.3,0,0,1-.432-.107.292.292,0,0,1,.055-.4q8.193-6.848,9.6-15.013a54.988,54.988,0,0,0,.512-6.954.22.22,0,0,1,.243-.216l2.614.162q.4.027.378.485-.108,2.479-.162,3.45a30.01,30.01,0,0,1-.377,3.5A27.777,27.777,0,0,0,302.5,20.083c.126.071.144.171.055.3" transform="translate(647 627)" fill="#fff"/><path d="M319.43,21.4a1.59,1.59,0,0,1-.727,1.32,1.7,1.7,0,0,1-.674.244,1.619,1.619,0,0,1-1.375-.783q-.459-.726-.943-1.455a13.759,13.759,0,0,1-6.981,3.4.252.252,0,0,1-.324-.19.3.3,0,0,1,.189-.349,13.741,13.741,0,0,0,5.633-4.772,22.17,22.17,0,0,0-2.8-2.64.244.244,0,0,1,0-.4c.089-.09.243-.1.458-.027a23.667,23.667,0,0,1,3.181,1.294,17.843,17.843,0,0,0,.862-2.776c.036-.144.144-.2.324-.163l2.129.513c.252.054.341.216.269.485a21.369,21.369,0,0,1-1.348,3.4q2.184,1.752,2.13,2.911m8.247-17.25q0,.971-1.131,1.025-.621.026-11.751.026a15.009,15.009,0,0,1-4.61,5.014.344.344,0,0,1-.458-.028.294.294,0,0,1-.054-.43A23.781,23.781,0,0,0,312.962.191.22.22,0,0,1,313.231,0l2.938.458q.43.054.323.43a29.46,29.46,0,0,1-1.105,3.127h8.572a2.19,2.19,0,0,0,.888-.188,7.171,7.171,0,0,1,1.726-.648c.736,0,1.1.325,1.1.971m3.02,17.6q-.108,1.347-1.995,1.482a23.28,23.28,0,0,1-3.881,0,1.28,1.28,0,0,1-1.321-1.429V12.859q0-.378-.4-.378h-9.7a.564.564,0,0,1-.484-.215l-.674-.917c-.072-.089-.055-.134.054-.134h13.153a.69.69,0,0,1,.781.782V19.84q0,.484.432.512a6.86,6.86,0,0,0,.862,0,.85.85,0,0,0,.566-.485l1.995-3.478a.24.24,0,0,1,.3-.134.2.2,0,0,1,.134.3l-1.1,3.234q-.189.566.3.646a1.1,1.1,0,0,1,1,1.322m-4.879-14.1q0,1.051-1.132,1.051h-9.649a.33.33,0,0,1-.27-.135l-.674-.916c-.053-.071-.027-.107.081-.107h7.9a2.076,2.076,0,0,0,.889-.19,7.169,7.169,0,0,1,1.725-.646q1.133,0,1.132.943" transform="translate(647 627)" fill="#fff"/><path d="M353.8,15.662a2.057,2.057,0,0,1-.458,1.361,1.418,1.418,0,0,1-1.132.553,1.284,1.284,0,0,1-1.078-.485,22.156,22.156,0,0,0-2.345-2.588q-2.91,5.015-9.811,8.14c-.234.125-.413.1-.539-.081q-.162-.269.189-.512,5.982-4.2,8.086-9.218a36.624,36.624,0,0,0-5.229-3.261c-.2-.09-.261-.224-.189-.4q.081-.243.4-.19a31.527,31.527,0,0,1,5.823,1.672,45.547,45.547,0,0,0,1.023-7.79.193.193,0,0,1,.243-.188l2.426.162c.27.017.4.171.377.458a33.9,33.9,0,0,1-1.536,8.544,16.652,16.652,0,0,1,2.857,2.049,2.433,2.433,0,0,1,.889,1.778" transform="translate(647 627)" fill="#fff"/><path d="M379.981,17.442q0,1.077-1.347,1.131h-14.8a.336.336,0,0,1-.27-.134l-.727-1c-.072-.109-.054-.163.054-.163h12.964a2.466,2.466,0,0,0,1.038-.215c.314-.144.637-.291.97-.445a2.159,2.159,0,0,1,.876-.229q1.239,0,1.239,1.052m-1.562-8.895q0,1.078-1.348,1.132-.378.027-11.59.027a.317.317,0,0,1-.269-.162l-.729-1c-.071-.09-.053-.135.055-.135H374.3a2.278,2.278,0,0,0,.97-.188q.538-.27,1.038-.5a2.146,2.146,0,0,1,.876-.23q1.239,0,1.24,1.052" transform="translate(647 627)" fill="#fff"/><path d="M403.1,19.894q0,.891-1.105.943H389.2a.256.256,0,0,1-.216-.107l-.62-.836c-.054-.071-.036-.107.055-.107h8.193l.323-7.008c0-.108-.062-.162-.188-.162h-5.849a.216.216,0,0,1-.216-.108l-.62-.862q-.081-.135.054-.135h8.68a.642.642,0,0,1,.727.755l-.323,7.52h.539a1.893,1.893,0,0,0,.808-.163,7.523,7.523,0,0,1,1.537-.592q1.023.027,1.024.862" transform="translate(647 627)" fill="#fff"/><path d="M429.568,11.889q0,.27-.243.27H412.992a.385.385,0,0,1-.3-.162l-.836-1.1c-.09-.107-.062-.162.081-.162h17.2a.239.239,0,0,1,.27.269Z" transform="translate(647 627)" fill="#fff"/><path d="M452.916,12.7q.216.324-.135.458a30.872,30.872,0,0,0-3.153,1.672,21.284,21.284,0,0,1,.458,2.641.7.7,0,0,1-.7.889l-1.187.162a.62.62,0,0,1-.808-.647q-.055-1-.108-1.806-2.8,1.781-2.695,3.5.054,1.293,1.887,1.429a16.067,16.067,0,0,0,3.88-.512.665.665,0,0,1,.89.593l.243,1.294a.677.677,0,0,1-.62.888,17.367,17.367,0,0,1-4.609.244q-3.531-.353-3.477-3.72.027-2.7,4.313-5.714-.378-2.452-1.51-2.695a1.62,1.62,0,0,0-1.267.35q-.189.565-.458,1.536a.676.676,0,0,1-.7.539.943.943,0,0,1-.242-.027l-1.24-.4a.718.718,0,0,1-.539-.728.528.528,0,0,1,.053-.242q.594-1.725,1.807-5.822h-2.534a.281.281,0,0,1-.242-.108l-.674-.943q-.108-.108.054-.108h3.746q.567-2.074,1-4.124c.035-.162.125-.224.269-.189l2.156.486a.348.348,0,0,1,.27.485q-.324,1.1-.943,3.342h2.7a1.961,1.961,0,0,0,.889-.189,8.547,8.547,0,0,1,1.725-.646q1.132,0,1.132.969T451.3,6.579h-5.526Q445.4,7.9,444.7,10.352a2.837,2.837,0,0,1,2.076.028,4.631,4.631,0,0,1,2.21,2.505q.836-.564,2.642-1.67a.248.248,0,0,1,.35.081Z" transform="translate(647 627)" fill="#fff"/><path d="M480.925,6.822q0,1-1.239,1.024-.378.028-7.277.028-1.457,9.056-2.13,13.962a.689.689,0,0,1-.889.646l-1.321-.216a.64.64,0,0,1-.593-.889q.916-3.935,2.291-13.5h-2.7a.334.334,0,0,1-.27-.135l-.673-.917c-.054-.089-.028-.135.081-.135h3.719q.351-2.478.674-4.8c.018-.143.108-.207.27-.189l2.075.324q.4.054.323.431l-.7,4.231h4.609a2.267,2.267,0,0,0,.89-.161,7.619,7.619,0,0,1,1.725-.674q1.133.027,1.131.97m2.831,14.231q.133.594-.593.809a10.94,10.94,0,0,1-2.965.269q-4.017,0-4.528-3.746-.027-.3.162-.378a.27.27,0,0,1,.4.109,3.379,3.379,0,0,0,3.234,1.59,8.492,8.492,0,0,0,3.1-.647c.467-.179.745-.045.836.405Zm.189-9.11q0,.971-1.24,1.052a1.494,1.494,0,0,0-.728.216q-1.4.808-3.369,2.156-.216.135-.35,0-.162-.135,0-.324l1.509-2.022h-2.776a.33.33,0,0,1-.27-.135l-.7-.943c-.072-.089-.045-.135.081-.135h3.72a2.349,2.349,0,0,0,1.037-.228q.473-.229.971-.458a2.13,2.13,0,0,1,.876-.23q1.239,0,1.24,1.051" transform="translate(647 627)" fill="#fff"/><path d="M506.488,15.716a4.877,4.877,0,0,1-2.83,5.014A18.691,18.691,0,0,1,497,22.239c-.306.036-.485-.063-.539-.3q-.081-.324.35-.432a13.819,13.819,0,0,0,5.31-2.075,3.812,3.812,0,0,0,1.617-3.207q-.081-2.589-2.291-2.615-2.1-.027-8.031,1.887-.459.135-.539-.3l-.432-1.671a.29.29,0,0,1,.216-.4,44.428,44.428,0,0,1,9.406-1.24,4.955,4.955,0,0,1,3.113,1.173,3.764,3.764,0,0,1,1.308,2.654" transform="translate(647 627)" fill="#fff"/><path d="M521.172,14.692a.376.376,0,0,1-.027.512q-1.725,2.076-4.124,5.309c-.072.145-.188.351-.35.621a.3.3,0,0,1-.512.027l-1.806-1.807q-.162-.187,0-.323a40.669,40.669,0,0,1,6.307-4.42.371.371,0,0,1,.512.081m6.442,5.256a2.382,2.382,0,0,1-2.4,2.021,1.638,1.638,0,0,1-.944-.081,1.013,1.013,0,0,1-.4-.754q-.16-.781-1.348-.755l-2.156.027c-.18.018-.269-.062-.269-.243a.262.262,0,0,1,.215-.323l3.423-.566q1.214-.214,1.268-1.213.026-.432.026-.808a6.386,6.386,0,0,0-1.887-4.556.311.311,0,0,1,0-.512.48.48,0,0,1,.621-.081,6.513,6.513,0,0,1,4.043,6.118,8.37,8.37,0,0,1-.189,1.726M529.487,7.6a1.006,1.006,0,0,1-.9.486,1.214,1.214,0,0,1-.809-.3,1.229,1.229,0,0,0-1.428.053q-.7.4-2.291,1.4-.4.243-.62.027-.135-.161.135-.485,1.16-1.078,1.994-1.806a.908.908,0,0,0,.4-.7.944.944,0,0,0-.243-.593,6.564,6.564,0,0,0-3.935-2.182.264.264,0,0,1-.242-.27.253.253,0,0,1,.242-.243,16.643,16.643,0,0,1,1.8-.108,8.645,8.645,0,0,1,5.068,1.429A2.478,2.478,0,0,1,529.8,6.471a2.062,2.062,0,0,1-.31,1.132m5.189,8.976a1.754,1.754,0,0,1-.432,1.348,1.263,1.263,0,0,1-1.239.4,1.334,1.334,0,0,1-1.025-1,4.03,4.03,0,0,0-3.153-2.4.072.072,0,0,1-.081-.081c-.019-.053.017-.107.107-.161a5.45,5.45,0,0,1,2.7-.674q2.938.054,3.127,2.561m.134-6.631a1.927,1.927,0,0,1-.606,1.429,1.992,1.992,0,0,1-1.442.592,2.025,2.025,0,0,1-2.022-2.021,1.99,1.99,0,0,1,.594-1.442,1.921,1.921,0,0,1,1.428-.607,2.071,2.071,0,0,1,2.048,2.049m-.943,0a1.1,1.1,0,0,0-1.1-1.1,1.029,1.029,0,0,0-.754.324,1.062,1.062,0,0,0-.325.781,1.107,1.107,0,0,0,1.079,1.078,1.065,1.065,0,0,0,.782-.323,1.033,1.033,0,0,0,.323-.755" transform="translate(647 627)" fill="#fff"/><path d="M551.65,7.065a37.183,37.183,0,0,0-2.668,4.447,2.024,2.024,0,0,0-.269,1,2.338,2.338,0,0,0,.134.688,2.292,2.292,0,0,1,.135.66q0,1.051-1.24,1.024-1.268,0-1.644-1.671a10.951,10.951,0,0,1-.189-2.264,59.823,59.823,0,0,1,.808-8.086.221.221,0,0,1,.244-.216l1.913.135c.288.018.4.162.35.431a41.431,41.431,0,0,0-.7,5.93c.018.252.107.377.27.377a.388.388,0,0,0,.269-.135l2.183-2.668c.126-.162.26-.188.4-.081q.162.135,0,.432m4.5,4.447a12.1,12.1,0,0,1-1.671,6.334,18.037,18.037,0,0,1-6.684,5.93c-.27.161-.476.161-.62,0q-.189-.243.162-.539a21.505,21.505,0,0,0,5.013-6.146,14.792,14.792,0,0,0,1.186-5.687,37.938,37.938,0,0,0-.377-5.875.193.193,0,0,1,.188-.244l1.564-.161c.233-.036.377.072.43.324a25.651,25.651,0,0,1,.809,6.064" transform="translate(647 627)" fill="#fff"/><path d="M583.651,20.811c.054.5-.145.791-.594.862a24.846,24.846,0,0,1-4.77.216q-5.094-.214-5.229-4.259a5.667,5.667,0,0,1,.674-2.937A11.736,11.736,0,0,1,576,11.943q-.135-.727-1.968-8.625c-.036-.144.027-.224.189-.242l1.941-.377a.36.36,0,0,1,.458.3q.834,4.124,1.429,7.088,1.1-.888,3.719-2.964a.234.234,0,0,1,.35.053l1.267,1.348c.162.2.125.369-.108.513a45.8,45.8,0,0,0-5.93,4.257q-2.48,2.24-2.425,3.963.054,1.939,3.422,1.806a24.627,24.627,0,0,0,4.287-.485q.7-.135.808.62Z" transform="translate(647 627)" fill="#fff"/><path d="M598.981,20.46a3.225,3.225,0,0,1-.943,2.507,3.423,3.423,0,0,1-2.4.862,3.531,3.531,0,0,1-2.547-.889,3.268,3.268,0,0,1-.93-2.48,3.02,3.02,0,0,1,1.078-2.506,3.91,3.91,0,0,1,4.69.053,3.045,3.045,0,0,1,1.051,2.453m-1.374-.027q-.054-2.426-2.021-2.426a1.783,1.783,0,0,0-1.348.567,2.762,2.762,0,0,0-.62,1.94,2.681,2.681,0,0,0,.565,1.86,1.825,1.825,0,0,0,1.4.62q2.1,0,2.021-2.561" transform="translate(647 627)" fill="#fff"/></g></svg>